<?xml version="1.0" encoding="utf-8" standalone="no"?>
<!DOCTYPE svg PUBLIC "-//W3C//DTD SVG 1.1//EN"
  "http://www.w3.org/Graphics/SVG/1.1/DTD/svg11.dtd">
<!-- Created with matplotlib (https://matplotlib.org/) -->
<svg height="296.86825pt" version="1.1" viewBox="0 0 403.305938 296.86825" width="403.305938pt" xmlns="http://www.w3.org/2000/svg" xmlns:xlink="http://www.w3.org/1999/xlink">
 <metadata>
  <rdf:RDF xmlns:cc="http://creativecommons.org/ns#" xmlns:dc="http://purl.org/dc/elements/1.1/" xmlns:rdf="http://www.w3.org/1999/02/22-rdf-syntax-ns#">
   <cc:Work>
    <dc:type rdf:resource="http://purl.org/dc/dcmitype/StillImage"/>
    <dc:date>2023-03-09T21:25:59.537293</dc:date>
    <dc:format>image/svg+xml</dc:format>
    <dc:creator>
     <cc:Agent>
      <dc:title>Matplotlib v3.3.4, https://matplotlib.org/</dc:title>
     </cc:Agent>
    </dc:creator>
   </cc:Work>
  </rdf:RDF>
 </metadata>
 <defs>
  <style type="text/css">*{stroke-linecap:butt;stroke-linejoin:round;}</style>
 </defs>
 <g id="figure_1">
  <g id="patch_1">
   <path d="M 0 296.86825 
L 403.305938 296.86825 
L 403.305938 0 
L 0 0 
z
" style="fill:#ffffff;"/>
  </g>
  <g id="axes_1">
   <g id="patch_2">
    <path d="M 38.234375 266.112 
L 395.354375 266.112 
L 395.354375 -0 
L 38.234375 -0 
z
" style="fill:#ffffff;"/>
   </g>
   <g id="matplotlib.axis_1">
    <g id="xtick_1">
     <g id="line2d_1">
      <path clip-path="url(#ped9facf038)" d="M 395.354375 266.112 
L 395.354375 -0 
" style="fill:none;stroke:#b0b0b0;stroke-linecap:square;stroke-width:0.8;"/>
     </g>
     <g id="line2d_2">
      <defs>
       <path d="M 0 0 
L 0 3.5 
" id="m73adb8ea2c" style="stroke:#000000;stroke-width:0.8;"/>
      </defs>
      <g>
       <use style="stroke:#000000;stroke-width:0.8;" x="395.354375" xlink:href="#m73adb8ea2c" y="266.112"/>
      </g>
     </g>
     <g id="text_1">
      <!-- 0.0 -->
      <g transform="translate(387.402813 280.710437)scale(0.1 -0.1)">
       <defs>
        <path d="M 31.78125 66.40625 
Q 24.171875 66.40625 20.328125 58.90625 
Q 16.5 51.421875 16.5 36.375 
Q 16.5 21.390625 20.328125 13.890625 
Q 24.171875 6.390625 31.78125 6.390625 
Q 39.453125 6.390625 43.28125 13.890625 
Q 47.125 21.390625 47.125 36.375 
Q 47.125 51.421875 43.28125 58.90625 
Q 39.453125 66.40625 31.78125 66.40625 
z
M 31.78125 74.21875 
Q 44.046875 74.21875 50.515625 64.515625 
Q 56.984375 54.828125 56.984375 36.375 
Q 56.984375 17.96875 50.515625 8.265625 
Q 44.046875 -1.421875 31.78125 -1.421875 
Q 19.53125 -1.421875 13.0625 8.265625 
Q 6.59375 17.96875 6.59375 36.375 
Q 6.59375 54.828125 13.0625 64.515625 
Q 19.53125 74.21875 31.78125 74.21875 
z
" id="DejaVuSans-48"/>
        <path d="M 10.6875 12.40625 
L 21 12.40625 
L 21 0 
L 10.6875 0 
z
" id="DejaVuSans-46"/>
       </defs>
       <use xlink:href="#DejaVuSans-48"/>
       <use x="63.623047" xlink:href="#DejaVuSans-46"/>
       <use x="95.410156" xlink:href="#DejaVuSans-48"/>
      </g>
     </g>
    </g>
    <g id="xtick_2">
     <g id="line2d_3">
      <path clip-path="url(#ped9facf038)" d="M 376.33615 266.112 
L 376.33615 -0 
" style="fill:none;stroke:#b0b0b0;stroke-linecap:square;stroke-width:0.8;"/>
     </g>
     <g id="line2d_4">
      <g>
       <use style="stroke:#000000;stroke-width:0.8;" x="376.33615" xlink:href="#m73adb8ea2c" y="266.112"/>
      </g>
     </g>
     <g id="text_2">
      <!-- 0.1 -->
      <g transform="translate(368.384588 280.710437)scale(0.1 -0.1)">
       <defs>
        <path d="M 12.40625 8.296875 
L 28.515625 8.296875 
L 28.515625 63.921875 
L 10.984375 60.40625 
L 10.984375 69.390625 
L 28.421875 72.90625 
L 38.28125 72.90625 
L 38.28125 8.296875 
L 54.390625 8.296875 
L 54.390625 0 
L 12.40625 0 
z
" id="DejaVuSans-49"/>
       </defs>
       <use xlink:href="#DejaVuSans-48"/>
       <use x="63.623047" xlink:href="#DejaVuSans-46"/>
       <use x="95.410156" xlink:href="#DejaVuSans-49"/>
      </g>
     </g>
    </g>
    <g id="xtick_3">
     <g id="line2d_5">
      <path clip-path="url(#ped9facf038)" d="M 357.317925 266.112 
L 357.317925 -0 
" style="fill:none;stroke:#b0b0b0;stroke-linecap:square;stroke-width:0.8;"/>
     </g>
     <g id="line2d_6">
      <g>
       <use style="stroke:#000000;stroke-width:0.8;" x="357.317925" xlink:href="#m73adb8ea2c" y="266.112"/>
      </g>
     </g>
     <g id="text_3">
      <!-- 0.2 -->
      <g transform="translate(349.366363 280.710437)scale(0.1 -0.1)">
       <defs>
        <path d="M 19.1875 8.296875 
L 53.609375 8.296875 
L 53.609375 0 
L 7.328125 0 
L 7.328125 8.296875 
Q 12.9375 14.109375 22.625 23.890625 
Q 32.328125 33.6875 34.8125 36.53125 
Q 39.546875 41.84375 41.421875 45.53125 
Q 43.3125 49.21875 43.3125 52.78125 
Q 43.3125 58.59375 39.234375 62.25 
Q 35.15625 65.921875 28.609375 65.921875 
Q 23.96875 65.921875 18.8125 64.3125 
Q 13.671875 62.703125 7.8125 59.421875 
L 7.8125 69.390625 
Q 13.765625 71.78125 18.9375 73 
Q 24.125 74.21875 28.421875 74.21875 
Q 39.75 74.21875 46.484375 68.546875 
Q 53.21875 62.890625 53.21875 53.421875 
Q 53.21875 48.921875 51.53125 44.890625 
Q 49.859375 40.875 45.40625 35.40625 
Q 44.1875 33.984375 37.640625 27.21875 
Q 31.109375 20.453125 19.1875 8.296875 
z
" id="DejaVuSans-50"/>
       </defs>
       <use xlink:href="#DejaVuSans-48"/>
       <use x="63.623047" xlink:href="#DejaVuSans-46"/>
       <use x="95.410156" xlink:href="#DejaVuSans-50"/>
      </g>
     </g>
    </g>
    <g id="xtick_4">
     <g id="line2d_7">
      <path clip-path="url(#ped9facf038)" d="M 338.2997 266.112 
L 338.2997 -0 
" style="fill:none;stroke:#b0b0b0;stroke-linecap:square;stroke-width:0.8;"/>
     </g>
     <g id="line2d_8">
      <g>
       <use style="stroke:#000000;stroke-width:0.8;" x="338.2997" xlink:href="#m73adb8ea2c" y="266.112"/>
      </g>
     </g>
     <g id="text_4">
      <!-- 0.3 -->
      <g transform="translate(330.348138 280.710437)scale(0.1 -0.1)">
       <defs>
        <path d="M 40.578125 39.3125 
Q 47.65625 37.796875 51.625 33 
Q 55.609375 28.21875 55.609375 21.1875 
Q 55.609375 10.40625 48.1875 4.484375 
Q 40.765625 -1.421875 27.09375 -1.421875 
Q 22.515625 -1.421875 17.65625 -0.515625 
Q 12.796875 0.390625 7.625 2.203125 
L 7.625 11.71875 
Q 11.71875 9.328125 16.59375 8.109375 
Q 21.484375 6.890625 26.8125 6.890625 
Q 36.078125 6.890625 40.9375 10.546875 
Q 45.796875 14.203125 45.796875 21.1875 
Q 45.796875 27.640625 41.28125 31.265625 
Q 36.765625 34.90625 28.71875 34.90625 
L 20.21875 34.90625 
L 20.21875 43.015625 
L 29.109375 43.015625 
Q 36.375 43.015625 40.234375 45.921875 
Q 44.09375 48.828125 44.09375 54.296875 
Q 44.09375 59.90625 40.109375 62.90625 
Q 36.140625 65.921875 28.71875 65.921875 
Q 24.65625 65.921875 20.015625 65.03125 
Q 15.375 64.15625 9.8125 62.3125 
L 9.8125 71.09375 
Q 15.4375 72.65625 20.34375 73.4375 
Q 25.25 74.21875 29.59375 74.21875 
Q 40.828125 74.21875 47.359375 69.109375 
Q 53.90625 64.015625 53.90625 55.328125 
Q 53.90625 49.265625 50.4375 45.09375 
Q 46.96875 40.921875 40.578125 39.3125 
z
" id="DejaVuSans-51"/>
       </defs>
       <use xlink:href="#DejaVuSans-48"/>
       <use x="63.623047" xlink:href="#DejaVuSans-46"/>
       <use x="95.410156" xlink:href="#DejaVuSans-51"/>
      </g>
     </g>
    </g>
    <g id="xtick_5">
     <g id="line2d_9">
      <path clip-path="url(#ped9facf038)" d="M 319.281476 266.112 
L 319.281476 -0 
" style="fill:none;stroke:#b0b0b0;stroke-linecap:square;stroke-width:0.8;"/>
     </g>
     <g id="line2d_10">
      <g>
       <use style="stroke:#000000;stroke-width:0.8;" x="319.281476" xlink:href="#m73adb8ea2c" y="266.112"/>
      </g>
     </g>
     <g id="text_5">
      <!-- 0.4 -->
      <g transform="translate(311.329913 280.710437)scale(0.1 -0.1)">
       <defs>
        <path d="M 37.796875 64.3125 
L 12.890625 25.390625 
L 37.796875 25.390625 
z
M 35.203125 72.90625 
L 47.609375 72.90625 
L 47.609375 25.390625 
L 58.015625 25.390625 
L 58.015625 17.1875 
L 47.609375 17.1875 
L 47.609375 0 
L 37.796875 0 
L 37.796875 17.1875 
L 4.890625 17.1875 
L 4.890625 26.703125 
z
" id="DejaVuSans-52"/>
       </defs>
       <use xlink:href="#DejaVuSans-48"/>
       <use x="63.623047" xlink:href="#DejaVuSans-46"/>
       <use x="95.410156" xlink:href="#DejaVuSans-52"/>
      </g>
     </g>
    </g>
    <g id="xtick_6">
     <g id="line2d_11">
      <path clip-path="url(#ped9facf038)" d="M 300.263251 266.112 
L 300.263251 -0 
" style="fill:none;stroke:#b0b0b0;stroke-linecap:square;stroke-width:0.8;"/>
     </g>
     <g id="line2d_12">
      <g>
       <use style="stroke:#000000;stroke-width:0.8;" x="300.263251" xlink:href="#m73adb8ea2c" y="266.112"/>
      </g>
     </g>
     <g id="text_6">
      <!-- 0.5 -->
      <g transform="translate(292.311688 280.710437)scale(0.1 -0.1)">
       <defs>
        <path d="M 10.796875 72.90625 
L 49.515625 72.90625 
L 49.515625 64.59375 
L 19.828125 64.59375 
L 19.828125 46.734375 
Q 21.96875 47.46875 24.109375 47.828125 
Q 26.265625 48.1875 28.421875 48.1875 
Q 40.625 48.1875 47.75 41.5 
Q 54.890625 34.8125 54.890625 23.390625 
Q 54.890625 11.625 47.5625 5.09375 
Q 40.234375 -1.421875 26.90625 -1.421875 
Q 22.3125 -1.421875 17.546875 -0.640625 
Q 12.796875 0.140625 7.71875 1.703125 
L 7.71875 11.625 
Q 12.109375 9.234375 16.796875 8.0625 
Q 21.484375 6.890625 26.703125 6.890625 
Q 35.15625 6.890625 40.078125 11.328125 
Q 45.015625 15.765625 45.015625 23.390625 
Q 45.015625 31 40.078125 35.4375 
Q 35.15625 39.890625 26.703125 39.890625 
Q 22.75 39.890625 18.8125 39.015625 
Q 14.890625 38.140625 10.796875 36.28125 
z
" id="DejaVuSans-53"/>
       </defs>
       <use xlink:href="#DejaVuSans-48"/>
       <use x="63.623047" xlink:href="#DejaVuSans-46"/>
       <use x="95.410156" xlink:href="#DejaVuSans-53"/>
      </g>
     </g>
    </g>
    <g id="xtick_7">
     <g id="line2d_13">
      <path clip-path="url(#ped9facf038)" d="M 281.245026 266.112 
L 281.245026 -0 
" style="fill:none;stroke:#b0b0b0;stroke-linecap:square;stroke-width:0.8;"/>
     </g>
     <g id="line2d_14">
      <g>
       <use style="stroke:#000000;stroke-width:0.8;" x="281.245026" xlink:href="#m73adb8ea2c" y="266.112"/>
      </g>
     </g>
     <g id="text_7">
      <!-- 0.6 -->
      <g transform="translate(273.293463 280.710437)scale(0.1 -0.1)">
       <defs>
        <path d="M 33.015625 40.375 
Q 26.375 40.375 22.484375 35.828125 
Q 18.609375 31.296875 18.609375 23.390625 
Q 18.609375 15.53125 22.484375 10.953125 
Q 26.375 6.390625 33.015625 6.390625 
Q 39.65625 6.390625 43.53125 10.953125 
Q 47.40625 15.53125 47.40625 23.390625 
Q 47.40625 31.296875 43.53125 35.828125 
Q 39.65625 40.375 33.015625 40.375 
z
M 52.59375 71.296875 
L 52.59375 62.3125 
Q 48.875 64.0625 45.09375 64.984375 
Q 41.3125 65.921875 37.59375 65.921875 
Q 27.828125 65.921875 22.671875 59.328125 
Q 17.53125 52.734375 16.796875 39.40625 
Q 19.671875 43.65625 24.015625 45.921875 
Q 28.375 48.1875 33.59375 48.1875 
Q 44.578125 48.1875 50.953125 41.515625 
Q 57.328125 34.859375 57.328125 23.390625 
Q 57.328125 12.15625 50.6875 5.359375 
Q 44.046875 -1.421875 33.015625 -1.421875 
Q 20.359375 -1.421875 13.671875 8.265625 
Q 6.984375 17.96875 6.984375 36.375 
Q 6.984375 53.65625 15.1875 63.9375 
Q 23.390625 74.21875 37.203125 74.21875 
Q 40.921875 74.21875 44.703125 73.484375 
Q 48.484375 72.75 52.59375 71.296875 
z
" id="DejaVuSans-54"/>
       </defs>
       <use xlink:href="#DejaVuSans-48"/>
       <use x="63.623047" xlink:href="#DejaVuSans-46"/>
       <use x="95.410156" xlink:href="#DejaVuSans-54"/>
      </g>
     </g>
    </g>
    <g id="xtick_8">
     <g id="line2d_15">
      <path clip-path="url(#ped9facf038)" d="M 262.226801 266.112 
L 262.226801 -0 
" style="fill:none;stroke:#b0b0b0;stroke-linecap:square;stroke-width:0.8;"/>
     </g>
     <g id="line2d_16">
      <g>
       <use style="stroke:#000000;stroke-width:0.8;" x="262.226801" xlink:href="#m73adb8ea2c" y="266.112"/>
      </g>
     </g>
     <g id="text_8">
      <!-- 0.7 -->
      <g transform="translate(254.275239 280.710437)scale(0.1 -0.1)">
       <defs>
        <path d="M 8.203125 72.90625 
L 55.078125 72.90625 
L 55.078125 68.703125 
L 28.609375 0 
L 18.3125 0 
L 43.21875 64.59375 
L 8.203125 64.59375 
z
" id="DejaVuSans-55"/>
       </defs>
       <use xlink:href="#DejaVuSans-48"/>
       <use x="63.623047" xlink:href="#DejaVuSans-46"/>
       <use x="95.410156" xlink:href="#DejaVuSans-55"/>
      </g>
     </g>
    </g>
    <g id="xtick_9">
     <g id="line2d_17">
      <path clip-path="url(#ped9facf038)" d="M 243.208576 266.112 
L 243.208576 -0 
" style="fill:none;stroke:#b0b0b0;stroke-linecap:square;stroke-width:0.8;"/>
     </g>
     <g id="line2d_18">
      <g>
       <use style="stroke:#000000;stroke-width:0.8;" x="243.208576" xlink:href="#m73adb8ea2c" y="266.112"/>
      </g>
     </g>
     <g id="text_9">
      <!-- 0.8 -->
      <g transform="translate(235.257014 280.710437)scale(0.1 -0.1)">
       <defs>
        <path d="M 31.78125 34.625 
Q 24.75 34.625 20.71875 30.859375 
Q 16.703125 27.09375 16.703125 20.515625 
Q 16.703125 13.921875 20.71875 10.15625 
Q 24.75 6.390625 31.78125 6.390625 
Q 38.8125 6.390625 42.859375 10.171875 
Q 46.921875 13.96875 46.921875 20.515625 
Q 46.921875 27.09375 42.890625 30.859375 
Q 38.875 34.625 31.78125 34.625 
z
M 21.921875 38.8125 
Q 15.578125 40.375 12.03125 44.71875 
Q 8.5 49.078125 8.5 55.328125 
Q 8.5 64.0625 14.71875 69.140625 
Q 20.953125 74.21875 31.78125 74.21875 
Q 42.671875 74.21875 48.875 69.140625 
Q 55.078125 64.0625 55.078125 55.328125 
Q 55.078125 49.078125 51.53125 44.71875 
Q 48 40.375 41.703125 38.8125 
Q 48.828125 37.15625 52.796875 32.3125 
Q 56.78125 27.484375 56.78125 20.515625 
Q 56.78125 9.90625 50.3125 4.234375 
Q 43.84375 -1.421875 31.78125 -1.421875 
Q 19.734375 -1.421875 13.25 4.234375 
Q 6.78125 9.90625 6.78125 20.515625 
Q 6.78125 27.484375 10.78125 32.3125 
Q 14.796875 37.15625 21.921875 38.8125 
z
M 18.3125 54.390625 
Q 18.3125 48.734375 21.84375 45.5625 
Q 25.390625 42.390625 31.78125 42.390625 
Q 38.140625 42.390625 41.71875 45.5625 
Q 45.3125 48.734375 45.3125 54.390625 
Q 45.3125 60.0625 41.71875 63.234375 
Q 38.140625 66.40625 31.78125 66.40625 
Q 25.390625 66.40625 21.84375 63.234375 
Q 18.3125 60.0625 18.3125 54.390625 
z
" id="DejaVuSans-56"/>
       </defs>
       <use xlink:href="#DejaVuSans-48"/>
       <use x="63.623047" xlink:href="#DejaVuSans-46"/>
       <use x="95.410156" xlink:href="#DejaVuSans-56"/>
      </g>
     </g>
    </g>
    <g id="xtick_10">
     <g id="line2d_19">
      <path clip-path="url(#ped9facf038)" d="M 224.190351 266.112 
L 224.190351 -0 
" style="fill:none;stroke:#b0b0b0;stroke-linecap:square;stroke-width:0.8;"/>
     </g>
     <g id="line2d_20">
      <g>
       <use style="stroke:#000000;stroke-width:0.8;" x="224.190351" xlink:href="#m73adb8ea2c" y="266.112"/>
      </g>
     </g>
     <g id="text_10">
      <!-- 0.9 -->
      <g transform="translate(216.238789 280.710437)scale(0.1 -0.1)">
       <defs>
        <path d="M 10.984375 1.515625 
L 10.984375 10.5 
Q 14.703125 8.734375 18.5 7.8125 
Q 22.3125 6.890625 25.984375 6.890625 
Q 35.75 6.890625 40.890625 13.453125 
Q 46.046875 20.015625 46.78125 33.40625 
Q 43.953125 29.203125 39.59375 26.953125 
Q 35.25 24.703125 29.984375 24.703125 
Q 19.046875 24.703125 12.671875 31.3125 
Q 6.296875 37.9375 6.296875 49.421875 
Q 6.296875 60.640625 12.9375 67.421875 
Q 19.578125 74.21875 30.609375 74.21875 
Q 43.265625 74.21875 49.921875 64.515625 
Q 56.59375 54.828125 56.59375 36.375 
Q 56.59375 19.140625 48.40625 8.859375 
Q 40.234375 -1.421875 26.421875 -1.421875 
Q 22.703125 -1.421875 18.890625 -0.6875 
Q 15.09375 0.046875 10.984375 1.515625 
z
M 30.609375 32.421875 
Q 37.25 32.421875 41.125 36.953125 
Q 45.015625 41.5 45.015625 49.421875 
Q 45.015625 57.28125 41.125 61.84375 
Q 37.25 66.40625 30.609375 66.40625 
Q 23.96875 66.40625 20.09375 61.84375 
Q 16.21875 57.28125 16.21875 49.421875 
Q 16.21875 41.5 20.09375 36.953125 
Q 23.96875 32.421875 30.609375 32.421875 
z
" id="DejaVuSans-57"/>
       </defs>
       <use xlink:href="#DejaVuSans-48"/>
       <use x="63.623047" xlink:href="#DejaVuSans-46"/>
       <use x="95.410156" xlink:href="#DejaVuSans-57"/>
      </g>
     </g>
    </g>
    <g id="xtick_11">
     <g id="line2d_21">
      <path clip-path="url(#ped9facf038)" d="M 205.172126 266.112 
L 205.172126 -0 
" style="fill:none;stroke:#b0b0b0;stroke-linecap:square;stroke-width:0.8;"/>
     </g>
     <g id="line2d_22">
      <g>
       <use style="stroke:#000000;stroke-width:0.8;" x="205.172126" xlink:href="#m73adb8ea2c" y="266.112"/>
      </g>
     </g>
     <g id="text_11">
      <!-- 1.0 -->
      <g transform="translate(197.220564 280.710437)scale(0.1 -0.1)">
       <use xlink:href="#DejaVuSans-49"/>
       <use x="63.623047" xlink:href="#DejaVuSans-46"/>
       <use x="95.410156" xlink:href="#DejaVuSans-48"/>
      </g>
     </g>
    </g>
    <g id="xtick_12">
     <g id="line2d_23">
      <path clip-path="url(#ped9facf038)" d="M 186.153902 266.112 
L 186.153902 -0 
" style="fill:none;stroke:#b0b0b0;stroke-linecap:square;stroke-width:0.8;"/>
     </g>
     <g id="line2d_24">
      <g>
       <use style="stroke:#000000;stroke-width:0.8;" x="186.153902" xlink:href="#m73adb8ea2c" y="266.112"/>
      </g>
     </g>
     <g id="text_12">
      <!-- 1.1 -->
      <g transform="translate(178.202339 280.710437)scale(0.1 -0.1)">
       <use xlink:href="#DejaVuSans-49"/>
       <use x="63.623047" xlink:href="#DejaVuSans-46"/>
       <use x="95.410156" xlink:href="#DejaVuSans-49"/>
      </g>
     </g>
    </g>
    <g id="xtick_13">
     <g id="line2d_25">
      <path clip-path="url(#ped9facf038)" d="M 167.135677 266.112 
L 167.135677 -0 
" style="fill:none;stroke:#b0b0b0;stroke-linecap:square;stroke-width:0.8;"/>
     </g>
     <g id="line2d_26">
      <g>
       <use style="stroke:#000000;stroke-width:0.8;" x="167.135677" xlink:href="#m73adb8ea2c" y="266.112"/>
      </g>
     </g>
     <g id="text_13">
      <!-- 1.2 -->
      <g transform="translate(159.184114 280.710437)scale(0.1 -0.1)">
       <use xlink:href="#DejaVuSans-49"/>
       <use x="63.623047" xlink:href="#DejaVuSans-46"/>
       <use x="95.410156" xlink:href="#DejaVuSans-50"/>
      </g>
     </g>
    </g>
    <g id="xtick_14">
     <g id="line2d_27">
      <path clip-path="url(#ped9facf038)" d="M 148.117452 266.112 
L 148.117452 -0 
" style="fill:none;stroke:#b0b0b0;stroke-linecap:square;stroke-width:0.8;"/>
     </g>
     <g id="line2d_28">
      <g>
       <use style="stroke:#000000;stroke-width:0.8;" x="148.117452" xlink:href="#m73adb8ea2c" y="266.112"/>
      </g>
     </g>
     <g id="text_14">
      <!-- 1.3 -->
      <g transform="translate(140.165889 280.710437)scale(0.1 -0.1)">
       <use xlink:href="#DejaVuSans-49"/>
       <use x="63.623047" xlink:href="#DejaVuSans-46"/>
       <use x="95.410156" xlink:href="#DejaVuSans-51"/>
      </g>
     </g>
    </g>
    <g id="xtick_15">
     <g id="line2d_29">
      <path clip-path="url(#ped9facf038)" d="M 129.099227 266.112 
L 129.099227 -0 
" style="fill:none;stroke:#b0b0b0;stroke-linecap:square;stroke-width:0.8;"/>
     </g>
     <g id="line2d_30">
      <g>
       <use style="stroke:#000000;stroke-width:0.8;" x="129.099227" xlink:href="#m73adb8ea2c" y="266.112"/>
      </g>
     </g>
     <g id="text_15">
      <!-- 1.4 -->
      <g transform="translate(121.147665 280.710437)scale(0.1 -0.1)">
       <use xlink:href="#DejaVuSans-49"/>
       <use x="63.623047" xlink:href="#DejaVuSans-46"/>
       <use x="95.410156" xlink:href="#DejaVuSans-52"/>
      </g>
     </g>
    </g>
    <g id="xtick_16">
     <g id="line2d_31">
      <path clip-path="url(#ped9facf038)" d="M 110.081002 266.112 
L 110.081002 -0 
" style="fill:none;stroke:#b0b0b0;stroke-linecap:square;stroke-width:0.8;"/>
     </g>
     <g id="line2d_32">
      <g>
       <use style="stroke:#000000;stroke-width:0.8;" x="110.081002" xlink:href="#m73adb8ea2c" y="266.112"/>
      </g>
     </g>
     <g id="text_16">
      <!-- 1.5 -->
      <g transform="translate(102.12944 280.710437)scale(0.1 -0.1)">
       <use xlink:href="#DejaVuSans-49"/>
       <use x="63.623047" xlink:href="#DejaVuSans-46"/>
       <use x="95.410156" xlink:href="#DejaVuSans-53"/>
      </g>
     </g>
    </g>
    <g id="xtick_17">
     <g id="line2d_33">
      <path clip-path="url(#ped9facf038)" d="M 91.062777 266.112 
L 91.062777 -0 
" style="fill:none;stroke:#b0b0b0;stroke-linecap:square;stroke-width:0.8;"/>
     </g>
     <g id="line2d_34">
      <g>
       <use style="stroke:#000000;stroke-width:0.8;" x="91.062777" xlink:href="#m73adb8ea2c" y="266.112"/>
      </g>
     </g>
     <g id="text_17">
      <!-- 1.6 -->
      <g transform="translate(83.111215 280.710437)scale(0.1 -0.1)">
       <use xlink:href="#DejaVuSans-49"/>
       <use x="63.623047" xlink:href="#DejaVuSans-46"/>
       <use x="95.410156" xlink:href="#DejaVuSans-54"/>
      </g>
     </g>
    </g>
    <g id="xtick_18">
     <g id="line2d_35">
      <path clip-path="url(#ped9facf038)" d="M 72.044553 266.112 
L 72.044553 -0 
" style="fill:none;stroke:#b0b0b0;stroke-linecap:square;stroke-width:0.8;"/>
     </g>
     <g id="line2d_36">
      <g>
       <use style="stroke:#000000;stroke-width:0.8;" x="72.044553" xlink:href="#m73adb8ea2c" y="266.112"/>
      </g>
     </g>
     <g id="text_18">
      <!-- 1.7 -->
      <g transform="translate(64.09299 280.710437)scale(0.1 -0.1)">
       <use xlink:href="#DejaVuSans-49"/>
       <use x="63.623047" xlink:href="#DejaVuSans-46"/>
       <use x="95.410156" xlink:href="#DejaVuSans-55"/>
      </g>
     </g>
    </g>
    <g id="xtick_19">
     <g id="line2d_37">
      <path clip-path="url(#ped9facf038)" d="M 53.026328 266.112 
L 53.026328 -0 
" style="fill:none;stroke:#b0b0b0;stroke-linecap:square;stroke-width:0.8;"/>
     </g>
     <g id="line2d_38">
      <g>
       <use style="stroke:#000000;stroke-width:0.8;" x="53.026328" xlink:href="#m73adb8ea2c" y="266.112"/>
      </g>
     </g>
     <g id="text_19">
      <!-- 1.8 -->
      <g transform="translate(45.074765 280.710437)scale(0.1 -0.1)">
       <use xlink:href="#DejaVuSans-49"/>
       <use x="63.623047" xlink:href="#DejaVuSans-46"/>
       <use x="95.410156" xlink:href="#DejaVuSans-56"/>
      </g>
     </g>
    </g>
    <g id="text_20">
     <!-- Odległość drapieżnika od centrum stada -->
     <g transform="translate(115.71625 294.788562)scale(0.1 -0.1)">
      <defs>
       <path d="M 39.40625 66.21875 
Q 28.65625 66.21875 22.328125 58.203125 
Q 16.015625 50.203125 16.015625 36.375 
Q 16.015625 22.609375 22.328125 14.59375 
Q 28.65625 6.59375 39.40625 6.59375 
Q 50.140625 6.59375 56.421875 14.59375 
Q 62.703125 22.609375 62.703125 36.375 
Q 62.703125 50.203125 56.421875 58.203125 
Q 50.140625 66.21875 39.40625 66.21875 
z
M 39.40625 74.21875 
Q 54.734375 74.21875 63.90625 63.9375 
Q 73.09375 53.65625 73.09375 36.375 
Q 73.09375 19.140625 63.90625 8.859375 
Q 54.734375 -1.421875 39.40625 -1.421875 
Q 24.03125 -1.421875 14.8125 8.828125 
Q 5.609375 19.09375 5.609375 36.375 
Q 5.609375 53.65625 14.8125 63.9375 
Q 24.03125 74.21875 39.40625 74.21875 
z
" id="DejaVuSans-79"/>
       <path d="M 45.40625 46.390625 
L 45.40625 75.984375 
L 54.390625 75.984375 
L 54.390625 0 
L 45.40625 0 
L 45.40625 8.203125 
Q 42.578125 3.328125 38.25 0.953125 
Q 33.9375 -1.421875 27.875 -1.421875 
Q 17.96875 -1.421875 11.734375 6.484375 
Q 5.515625 14.40625 5.515625 27.296875 
Q 5.515625 40.1875 11.734375 48.09375 
Q 17.96875 56 27.875 56 
Q 33.9375 56 38.25 53.625 
Q 42.578125 51.265625 45.40625 46.390625 
z
M 14.796875 27.296875 
Q 14.796875 17.390625 18.875 11.75 
Q 22.953125 6.109375 30.078125 6.109375 
Q 37.203125 6.109375 41.296875 11.75 
Q 45.40625 17.390625 45.40625 27.296875 
Q 45.40625 37.203125 41.296875 42.84375 
Q 37.203125 48.484375 30.078125 48.484375 
Q 22.953125 48.484375 18.875 42.84375 
Q 14.796875 37.203125 14.796875 27.296875 
z
" id="DejaVuSans-100"/>
       <path d="M 9.421875 75.984375 
L 18.40625 75.984375 
L 18.40625 0 
L 9.421875 0 
z
" id="DejaVuSans-108"/>
       <path d="M 56.203125 29.59375 
L 56.203125 25.203125 
L 14.890625 25.203125 
Q 15.484375 15.921875 20.484375 11.0625 
Q 25.484375 6.203125 34.421875 6.203125 
Q 39.59375 6.203125 44.453125 7.46875 
Q 49.3125 8.734375 54.109375 11.28125 
L 54.109375 2.78125 
Q 49.265625 0.734375 44.1875 -0.34375 
Q 39.109375 -1.421875 33.890625 -1.421875 
Q 20.796875 -1.421875 13.15625 6.1875 
Q 5.515625 13.8125 5.515625 26.8125 
Q 5.515625 40.234375 12.765625 48.109375 
Q 20.015625 56 32.328125 56 
Q 43.359375 56 49.78125 48.890625 
Q 56.203125 41.796875 56.203125 29.59375 
z
M 47.21875 32.234375 
Q 47.125 39.59375 43.09375 43.984375 
Q 39.0625 48.390625 32.421875 48.390625 
Q 24.90625 48.390625 20.390625 44.140625 
Q 15.875 39.890625 15.1875 32.171875 
z
" id="DejaVuSans-101"/>
       <path d="M 45.40625 27.984375 
Q 45.40625 37.75 41.375 43.109375 
Q 37.359375 48.484375 30.078125 48.484375 
Q 22.859375 48.484375 18.828125 43.109375 
Q 14.796875 37.75 14.796875 27.984375 
Q 14.796875 18.265625 18.828125 12.890625 
Q 22.859375 7.515625 30.078125 7.515625 
Q 37.359375 7.515625 41.375 12.890625 
Q 45.40625 18.265625 45.40625 27.984375 
z
M 54.390625 6.78125 
Q 54.390625 -7.171875 48.1875 -13.984375 
Q 42 -20.796875 29.203125 -20.796875 
Q 24.46875 -20.796875 20.265625 -20.09375 
Q 16.0625 -19.390625 12.109375 -17.921875 
L 12.109375 -9.1875 
Q 16.0625 -11.328125 19.921875 -12.34375 
Q 23.78125 -13.375 27.78125 -13.375 
Q 36.625 -13.375 41.015625 -8.765625 
Q 45.40625 -4.15625 45.40625 5.171875 
L 45.40625 9.625 
Q 42.625 4.78125 38.28125 2.390625 
Q 33.9375 0 27.875 0 
Q 17.828125 0 11.671875 7.65625 
Q 5.515625 15.328125 5.515625 27.984375 
Q 5.515625 40.671875 11.671875 48.328125 
Q 17.828125 56 27.875 56 
Q 33.9375 56 38.28125 53.609375 
Q 42.625 51.21875 45.40625 46.390625 
L 45.40625 54.6875 
L 54.390625 54.6875 
z
" id="DejaVuSans-103"/>
       <path d="M 9.71875 75.984375 
L 18.703125 75.984375 
L 18.703125 46.578125 
L 24.8125 50.984375 
L 28.515625 45.796875 
L 18.703125 38.921875 
L 18.703125 0 
L 9.71875 0 
L 9.71875 32.515625 
L 3.71875 28.21875 
L 0.09375 33.40625 
L 9.71875 40.28125 
z
" id="DejaVuSans-322"/>
       <path d="M 30.609375 48.390625 
Q 23.390625 48.390625 19.1875 42.75 
Q 14.984375 37.109375 14.984375 27.296875 
Q 14.984375 17.484375 19.15625 11.84375 
Q 23.34375 6.203125 30.609375 6.203125 
Q 37.796875 6.203125 41.984375 11.859375 
Q 46.1875 17.53125 46.1875 27.296875 
Q 46.1875 37.015625 41.984375 42.703125 
Q 37.796875 48.390625 30.609375 48.390625 
z
M 30.609375 56 
Q 42.328125 56 49.015625 48.375 
Q 55.71875 40.765625 55.71875 27.296875 
Q 55.71875 13.875 49.015625 6.21875 
Q 42.328125 -1.421875 30.609375 -1.421875 
Q 18.84375 -1.421875 12.171875 6.21875 
Q 5.515625 13.875 5.515625 27.296875 
Q 5.515625 40.765625 12.171875 48.375 
Q 18.84375 56 30.609375 56 
z
" id="DejaVuSans-111"/>
       <path d="M 35.03125 79.984375 
L 44.75 79.984375 
L 28.84375 61.625 
L 21.359375 61.625 
z
M 44.28125 53.078125 
L 44.28125 44.578125 
Q 40.484375 46.53125 36.375 47.5 
Q 32.28125 48.484375 27.875 48.484375 
Q 21.1875 48.484375 17.84375 46.4375 
Q 14.5 44.390625 14.5 40.28125 
Q 14.5 37.15625 16.890625 35.375 
Q 19.28125 33.59375 26.515625 31.984375 
L 29.59375 31.296875 
Q 39.15625 29.25 43.1875 25.515625 
Q 47.21875 21.78125 47.21875 15.09375 
Q 47.21875 7.46875 41.1875 3.015625 
Q 35.15625 -1.421875 24.609375 -1.421875 
Q 20.21875 -1.421875 15.453125 -0.5625 
Q 10.6875 0.296875 5.421875 2 
L 5.421875 11.28125 
Q 10.40625 8.6875 15.234375 7.390625 
Q 20.0625 6.109375 24.8125 6.109375 
Q 31.15625 6.109375 34.5625 8.28125 
Q 37.984375 10.453125 37.984375 14.40625 
Q 37.984375 18.0625 35.515625 20.015625 
Q 33.0625 21.96875 24.703125 23.78125 
L 21.578125 24.515625 
Q 13.234375 26.265625 9.515625 29.90625 
Q 5.8125 33.546875 5.8125 39.890625 
Q 5.8125 47.609375 11.28125 51.796875 
Q 16.75 56 26.8125 56 
Q 31.78125 56 36.171875 55.265625 
Q 40.578125 54.546875 44.28125 53.078125 
z
" id="DejaVuSans-347"/>
       <path d="M 48.78125 52.59375 
L 48.78125 44.1875 
Q 44.96875 46.296875 41.140625 47.34375 
Q 37.3125 48.390625 33.40625 48.390625 
Q 24.65625 48.390625 19.8125 42.84375 
Q 14.984375 37.3125 14.984375 27.296875 
Q 14.984375 17.28125 19.8125 11.734375 
Q 24.65625 6.203125 33.40625 6.203125 
Q 37.3125 6.203125 41.140625 7.25 
Q 44.96875 8.296875 48.78125 10.40625 
L 48.78125 2.09375 
Q 45.015625 0.34375 40.984375 -0.53125 
Q 36.96875 -1.421875 32.421875 -1.421875 
Q 20.0625 -1.421875 12.78125 6.34375 
Q 5.515625 14.109375 5.515625 27.296875 
Q 5.515625 40.671875 12.859375 48.328125 
Q 20.21875 56 33.015625 56 
Q 37.15625 56 41.109375 55.140625 
Q 45.0625 54.296875 48.78125 52.59375 
z
M 38.53125 79.984375 
L 48.25 79.984375 
L 32.34375 61.625 
L 24.859375 61.625 
z
" id="DejaVuSans-263"/>
       <path id="DejaVuSans-32"/>
       <path d="M 41.109375 46.296875 
Q 39.59375 47.171875 37.8125 47.578125 
Q 36.03125 48 33.890625 48 
Q 26.265625 48 22.1875 43.046875 
Q 18.109375 38.09375 18.109375 28.8125 
L 18.109375 0 
L 9.078125 0 
L 9.078125 54.6875 
L 18.109375 54.6875 
L 18.109375 46.1875 
Q 20.953125 51.171875 25.484375 53.578125 
Q 30.03125 56 36.53125 56 
Q 37.453125 56 38.578125 55.875 
Q 39.703125 55.765625 41.0625 55.515625 
z
" id="DejaVuSans-114"/>
       <path d="M 34.28125 27.484375 
Q 23.390625 27.484375 19.1875 25 
Q 14.984375 22.515625 14.984375 16.5 
Q 14.984375 11.71875 18.140625 8.90625 
Q 21.296875 6.109375 26.703125 6.109375 
Q 34.1875 6.109375 38.703125 11.40625 
Q 43.21875 16.703125 43.21875 25.484375 
L 43.21875 27.484375 
z
M 52.203125 31.203125 
L 52.203125 0 
L 43.21875 0 
L 43.21875 8.296875 
Q 40.140625 3.328125 35.546875 0.953125 
Q 30.953125 -1.421875 24.3125 -1.421875 
Q 15.921875 -1.421875 10.953125 3.296875 
Q 6 8.015625 6 15.921875 
Q 6 25.140625 12.171875 29.828125 
Q 18.359375 34.515625 30.609375 34.515625 
L 43.21875 34.515625 
L 43.21875 35.40625 
Q 43.21875 41.609375 39.140625 45 
Q 35.0625 48.390625 27.6875 48.390625 
Q 23 48.390625 18.546875 47.265625 
Q 14.109375 46.140625 10.015625 43.890625 
L 10.015625 52.203125 
Q 14.9375 54.109375 19.578125 55.046875 
Q 24.21875 56 28.609375 56 
Q 40.484375 56 46.34375 49.84375 
Q 52.203125 43.703125 52.203125 31.203125 
z
" id="DejaVuSans-97"/>
       <path d="M 18.109375 8.203125 
L 18.109375 -20.796875 
L 9.078125 -20.796875 
L 9.078125 54.6875 
L 18.109375 54.6875 
L 18.109375 46.390625 
Q 20.953125 51.265625 25.265625 53.625 
Q 29.59375 56 35.59375 56 
Q 45.5625 56 51.78125 48.09375 
Q 58.015625 40.1875 58.015625 27.296875 
Q 58.015625 14.40625 51.78125 6.484375 
Q 45.5625 -1.421875 35.59375 -1.421875 
Q 29.59375 -1.421875 25.265625 0.953125 
Q 20.953125 3.328125 18.109375 8.203125 
z
M 48.6875 27.296875 
Q 48.6875 37.203125 44.609375 42.84375 
Q 40.53125 48.484375 33.40625 48.484375 
Q 26.265625 48.484375 22.1875 42.84375 
Q 18.109375 37.203125 18.109375 27.296875 
Q 18.109375 17.390625 22.1875 11.75 
Q 26.265625 6.109375 33.40625 6.109375 
Q 40.53125 6.109375 44.609375 11.75 
Q 48.6875 17.390625 48.6875 27.296875 
z
" id="DejaVuSans-112"/>
       <path d="M 9.421875 54.6875 
L 18.40625 54.6875 
L 18.40625 0 
L 9.421875 0 
z
M 9.421875 75.984375 
L 18.40625 75.984375 
L 18.40625 64.59375 
L 9.421875 64.59375 
z
" id="DejaVuSans-105"/>
       <path d="M 21.53125 75.984375 
L 30.515625 75.984375 
L 30.515625 64.59375 
L 21.53125 64.59375 
z
M 26.125 56 
z
M 5.515625 54.6875 
L 48.1875 54.6875 
L 48.1875 46.484375 
L 14.40625 7.171875 
L 48.1875 7.171875 
L 48.1875 0 
L 4.296875 0 
L 4.296875 8.203125 
L 38.09375 47.515625 
L 5.515625 47.515625 
z
" id="DejaVuSans-380"/>
       <path d="M 54.890625 33.015625 
L 54.890625 0 
L 45.90625 0 
L 45.90625 32.71875 
Q 45.90625 40.484375 42.875 44.328125 
Q 39.84375 48.1875 33.796875 48.1875 
Q 26.515625 48.1875 22.3125 43.546875 
Q 18.109375 38.921875 18.109375 30.90625 
L 18.109375 0 
L 9.078125 0 
L 9.078125 54.6875 
L 18.109375 54.6875 
L 18.109375 46.1875 
Q 21.34375 51.125 25.703125 53.5625 
Q 30.078125 56 35.796875 56 
Q 45.21875 56 50.046875 50.171875 
Q 54.890625 44.34375 54.890625 33.015625 
z
" id="DejaVuSans-110"/>
       <path d="M 9.078125 75.984375 
L 18.109375 75.984375 
L 18.109375 31.109375 
L 44.921875 54.6875 
L 56.390625 54.6875 
L 27.390625 29.109375 
L 57.625 0 
L 45.90625 0 
L 18.109375 26.703125 
L 18.109375 0 
L 9.078125 0 
z
" id="DejaVuSans-107"/>
       <path d="M 48.78125 52.59375 
L 48.78125 44.1875 
Q 44.96875 46.296875 41.140625 47.34375 
Q 37.3125 48.390625 33.40625 48.390625 
Q 24.65625 48.390625 19.8125 42.84375 
Q 14.984375 37.3125 14.984375 27.296875 
Q 14.984375 17.28125 19.8125 11.734375 
Q 24.65625 6.203125 33.40625 6.203125 
Q 37.3125 6.203125 41.140625 7.25 
Q 44.96875 8.296875 48.78125 10.40625 
L 48.78125 2.09375 
Q 45.015625 0.34375 40.984375 -0.53125 
Q 36.96875 -1.421875 32.421875 -1.421875 
Q 20.0625 -1.421875 12.78125 6.34375 
Q 5.515625 14.109375 5.515625 27.296875 
Q 5.515625 40.671875 12.859375 48.328125 
Q 20.21875 56 33.015625 56 
Q 37.15625 56 41.109375 55.140625 
Q 45.0625 54.296875 48.78125 52.59375 
z
" id="DejaVuSans-99"/>
       <path d="M 18.3125 70.21875 
L 18.3125 54.6875 
L 36.8125 54.6875 
L 36.8125 47.703125 
L 18.3125 47.703125 
L 18.3125 18.015625 
Q 18.3125 11.328125 20.140625 9.421875 
Q 21.96875 7.515625 27.59375 7.515625 
L 36.8125 7.515625 
L 36.8125 0 
L 27.59375 0 
Q 17.1875 0 13.234375 3.875 
Q 9.28125 7.765625 9.28125 18.015625 
L 9.28125 47.703125 
L 2.6875 47.703125 
L 2.6875 54.6875 
L 9.28125 54.6875 
L 9.28125 70.21875 
z
" id="DejaVuSans-116"/>
       <path d="M 8.5 21.578125 
L 8.5 54.6875 
L 17.484375 54.6875 
L 17.484375 21.921875 
Q 17.484375 14.15625 20.5 10.265625 
Q 23.53125 6.390625 29.59375 6.390625 
Q 36.859375 6.390625 41.078125 11.03125 
Q 45.3125 15.671875 45.3125 23.6875 
L 45.3125 54.6875 
L 54.296875 54.6875 
L 54.296875 0 
L 45.3125 0 
L 45.3125 8.40625 
Q 42.046875 3.421875 37.71875 1 
Q 33.40625 -1.421875 27.6875 -1.421875 
Q 18.265625 -1.421875 13.375 4.4375 
Q 8.5 10.296875 8.5 21.578125 
z
M 31.109375 56 
z
" id="DejaVuSans-117"/>
       <path d="M 52 44.1875 
Q 55.375 50.25 60.0625 53.125 
Q 64.75 56 71.09375 56 
Q 79.640625 56 84.28125 50.015625 
Q 88.921875 44.046875 88.921875 33.015625 
L 88.921875 0 
L 79.890625 0 
L 79.890625 32.71875 
Q 79.890625 40.578125 77.09375 44.375 
Q 74.3125 48.1875 68.609375 48.1875 
Q 61.625 48.1875 57.5625 43.546875 
Q 53.515625 38.921875 53.515625 30.90625 
L 53.515625 0 
L 44.484375 0 
L 44.484375 32.71875 
Q 44.484375 40.625 41.703125 44.40625 
Q 38.921875 48.1875 33.109375 48.1875 
Q 26.21875 48.1875 22.15625 43.53125 
Q 18.109375 38.875 18.109375 30.90625 
L 18.109375 0 
L 9.078125 0 
L 9.078125 54.6875 
L 18.109375 54.6875 
L 18.109375 46.1875 
Q 21.1875 51.21875 25.484375 53.609375 
Q 29.78125 56 35.6875 56 
Q 41.65625 56 45.828125 52.96875 
Q 50 49.953125 52 44.1875 
z
" id="DejaVuSans-109"/>
       <path d="M 44.28125 53.078125 
L 44.28125 44.578125 
Q 40.484375 46.53125 36.375 47.5 
Q 32.28125 48.484375 27.875 48.484375 
Q 21.1875 48.484375 17.84375 46.4375 
Q 14.5 44.390625 14.5 40.28125 
Q 14.5 37.15625 16.890625 35.375 
Q 19.28125 33.59375 26.515625 31.984375 
L 29.59375 31.296875 
Q 39.15625 29.25 43.1875 25.515625 
Q 47.21875 21.78125 47.21875 15.09375 
Q 47.21875 7.46875 41.1875 3.015625 
Q 35.15625 -1.421875 24.609375 -1.421875 
Q 20.21875 -1.421875 15.453125 -0.5625 
Q 10.6875 0.296875 5.421875 2 
L 5.421875 11.28125 
Q 10.40625 8.6875 15.234375 7.390625 
Q 20.0625 6.109375 24.8125 6.109375 
Q 31.15625 6.109375 34.5625 8.28125 
Q 37.984375 10.453125 37.984375 14.40625 
Q 37.984375 18.0625 35.515625 20.015625 
Q 33.0625 21.96875 24.703125 23.78125 
L 21.578125 24.515625 
Q 13.234375 26.265625 9.515625 29.90625 
Q 5.8125 33.546875 5.8125 39.890625 
Q 5.8125 47.609375 11.28125 51.796875 
Q 16.75 56 26.8125 56 
Q 31.78125 56 36.171875 55.265625 
Q 40.578125 54.546875 44.28125 53.078125 
z
" id="DejaVuSans-115"/>
      </defs>
      <use xlink:href="#DejaVuSans-79"/>
      <use x="78.710938" xlink:href="#DejaVuSans-100"/>
      <use x="142.1875" xlink:href="#DejaVuSans-108"/>
      <use x="169.970703" xlink:href="#DejaVuSans-101"/>
      <use x="231.494141" xlink:href="#DejaVuSans-103"/>
      <use x="294.970703" xlink:href="#DejaVuSans-322"/>
      <use x="323.388672" xlink:href="#DejaVuSans-111"/>
      <use x="384.570312" xlink:href="#DejaVuSans-347"/>
      <use x="436.669922" xlink:href="#DejaVuSans-263"/>
      <use x="491.650391" xlink:href="#DejaVuSans-32"/>
      <use x="523.4375" xlink:href="#DejaVuSans-100"/>
      <use x="586.914062" xlink:href="#DejaVuSans-114"/>
      <use x="628.027344" xlink:href="#DejaVuSans-97"/>
      <use x="689.306641" xlink:href="#DejaVuSans-112"/>
      <use x="752.783203" xlink:href="#DejaVuSans-105"/>
      <use x="780.566406" xlink:href="#DejaVuSans-101"/>
      <use x="842.089844" xlink:href="#DejaVuSans-380"/>
      <use x="894.580078" xlink:href="#DejaVuSans-110"/>
      <use x="957.958984" xlink:href="#DejaVuSans-105"/>
      <use x="985.742188" xlink:href="#DejaVuSans-107"/>
      <use x="1041.902344" xlink:href="#DejaVuSans-97"/>
      <use x="1103.181641" xlink:href="#DejaVuSans-32"/>
      <use x="1134.96875" xlink:href="#DejaVuSans-111"/>
      <use x="1196.150391" xlink:href="#DejaVuSans-100"/>
      <use x="1259.626953" xlink:href="#DejaVuSans-32"/>
      <use x="1291.414062" xlink:href="#DejaVuSans-99"/>
      <use x="1346.394531" xlink:href="#DejaVuSans-101"/>
      <use x="1407.917969" xlink:href="#DejaVuSans-110"/>
      <use x="1471.296875" xlink:href="#DejaVuSans-116"/>
      <use x="1510.505859" xlink:href="#DejaVuSans-114"/>
      <use x="1551.619141" xlink:href="#DejaVuSans-117"/>
      <use x="1614.998047" xlink:href="#DejaVuSans-109"/>
      <use x="1712.410156" xlink:href="#DejaVuSans-32"/>
      <use x="1744.197266" xlink:href="#DejaVuSans-115"/>
      <use x="1796.296875" xlink:href="#DejaVuSans-116"/>
      <use x="1835.505859" xlink:href="#DejaVuSans-97"/>
      <use x="1896.785156" xlink:href="#DejaVuSans-100"/>
      <use x="1960.261719" xlink:href="#DejaVuSans-97"/>
     </g>
    </g>
   </g>
   <g id="matplotlib.axis_2">
    <g id="ytick_1">
     <g id="line2d_39">
      <path clip-path="url(#ped9facf038)" d="M 38.234375 249.952984 
L 395.354375 249.952984 
" style="fill:none;stroke:#b0b0b0;stroke-linecap:square;stroke-width:0.8;"/>
     </g>
     <g id="line2d_40">
      <defs>
       <path d="M 0 0 
L -3.5 0 
" id="m0f7baf4fee" style="stroke:#000000;stroke-width:0.8;"/>
      </defs>
      <g>
       <use style="stroke:#000000;stroke-width:0.8;" x="38.234375" xlink:href="#m0f7baf4fee" y="249.952984"/>
      </g>
     </g>
     <g id="text_21">
      <!-- 1.0 -->
      <g transform="translate(15.33125 253.752203)scale(0.1 -0.1)">
       <use xlink:href="#DejaVuSans-49"/>
       <use x="63.623047" xlink:href="#DejaVuSans-46"/>
       <use x="95.410156" xlink:href="#DejaVuSans-48"/>
      </g>
     </g>
    </g>
    <g id="ytick_2">
     <g id="line2d_41">
      <path clip-path="url(#ped9facf038)" d="M 38.234375 218.205874 
L 395.354375 218.205874 
" style="fill:none;stroke:#b0b0b0;stroke-linecap:square;stroke-width:0.8;"/>
     </g>
     <g id="line2d_42">
      <g>
       <use style="stroke:#000000;stroke-width:0.8;" x="38.234375" xlink:href="#m0f7baf4fee" y="218.205874"/>
      </g>
     </g>
     <g id="text_22">
      <!-- 1.2 -->
      <g transform="translate(15.33125 222.005093)scale(0.1 -0.1)">
       <use xlink:href="#DejaVuSans-49"/>
       <use x="63.623047" xlink:href="#DejaVuSans-46"/>
       <use x="95.410156" xlink:href="#DejaVuSans-50"/>
      </g>
     </g>
    </g>
    <g id="ytick_3">
     <g id="line2d_43">
      <path clip-path="url(#ped9facf038)" d="M 38.234375 186.458763 
L 395.354375 186.458763 
" style="fill:none;stroke:#b0b0b0;stroke-linecap:square;stroke-width:0.8;"/>
     </g>
     <g id="line2d_44">
      <g>
       <use style="stroke:#000000;stroke-width:0.8;" x="38.234375" xlink:href="#m0f7baf4fee" y="186.458763"/>
      </g>
     </g>
     <g id="text_23">
      <!-- 1.4 -->
      <g transform="translate(15.33125 190.257982)scale(0.1 -0.1)">
       <use xlink:href="#DejaVuSans-49"/>
       <use x="63.623047" xlink:href="#DejaVuSans-46"/>
       <use x="95.410156" xlink:href="#DejaVuSans-52"/>
      </g>
     </g>
    </g>
    <g id="ytick_4">
     <g id="line2d_45">
      <path clip-path="url(#ped9facf038)" d="M 38.234375 154.711653 
L 395.354375 154.711653 
" style="fill:none;stroke:#b0b0b0;stroke-linecap:square;stroke-width:0.8;"/>
     </g>
     <g id="line2d_46">
      <g>
       <use style="stroke:#000000;stroke-width:0.8;" x="38.234375" xlink:href="#m0f7baf4fee" y="154.711653"/>
      </g>
     </g>
     <g id="text_24">
      <!-- 1.6 -->
      <g transform="translate(15.33125 158.510871)scale(0.1 -0.1)">
       <use xlink:href="#DejaVuSans-49"/>
       <use x="63.623047" xlink:href="#DejaVuSans-46"/>
       <use x="95.410156" xlink:href="#DejaVuSans-54"/>
      </g>
     </g>
    </g>
    <g id="ytick_5">
     <g id="line2d_47">
      <path clip-path="url(#ped9facf038)" d="M 38.234375 122.964542 
L 395.354375 122.964542 
" style="fill:none;stroke:#b0b0b0;stroke-linecap:square;stroke-width:0.8;"/>
     </g>
     <g id="line2d_48">
      <g>
       <use style="stroke:#000000;stroke-width:0.8;" x="38.234375" xlink:href="#m0f7baf4fee" y="122.964542"/>
      </g>
     </g>
     <g id="text_25">
      <!-- 1.8 -->
      <g transform="translate(15.33125 126.763761)scale(0.1 -0.1)">
       <use xlink:href="#DejaVuSans-49"/>
       <use x="63.623047" xlink:href="#DejaVuSans-46"/>
       <use x="95.410156" xlink:href="#DejaVuSans-56"/>
      </g>
     </g>
    </g>
    <g id="ytick_6">
     <g id="line2d_49">
      <path clip-path="url(#ped9facf038)" d="M 38.234375 91.217431 
L 395.354375 91.217431 
" style="fill:none;stroke:#b0b0b0;stroke-linecap:square;stroke-width:0.8;"/>
     </g>
     <g id="line2d_50">
      <g>
       <use style="stroke:#000000;stroke-width:0.8;" x="38.234375" xlink:href="#m0f7baf4fee" y="91.217431"/>
      </g>
     </g>
     <g id="text_26">
      <!-- 2.0 -->
      <g transform="translate(15.33125 95.01665)scale(0.1 -0.1)">
       <use xlink:href="#DejaVuSans-50"/>
       <use x="63.623047" xlink:href="#DejaVuSans-46"/>
       <use x="95.410156" xlink:href="#DejaVuSans-48"/>
      </g>
     </g>
    </g>
    <g id="ytick_7">
     <g id="line2d_51">
      <path clip-path="url(#ped9facf038)" d="M 38.234375 59.470321 
L 395.354375 59.470321 
" style="fill:none;stroke:#b0b0b0;stroke-linecap:square;stroke-width:0.8;"/>
     </g>
     <g id="line2d_52">
      <g>
       <use style="stroke:#000000;stroke-width:0.8;" x="38.234375" xlink:href="#m0f7baf4fee" y="59.470321"/>
      </g>
     </g>
     <g id="text_27">
      <!-- 2.2 -->
      <g transform="translate(15.33125 63.26954)scale(0.1 -0.1)">
       <use xlink:href="#DejaVuSans-50"/>
       <use x="63.623047" xlink:href="#DejaVuSans-46"/>
       <use x="95.410156" xlink:href="#DejaVuSans-50"/>
      </g>
     </g>
    </g>
    <g id="ytick_8">
     <g id="line2d_53">
      <path clip-path="url(#ped9facf038)" d="M 38.234375 27.72321 
L 395.354375 27.72321 
" style="fill:none;stroke:#b0b0b0;stroke-linecap:square;stroke-width:0.8;"/>
     </g>
     <g id="line2d_54">
      <g>
       <use style="stroke:#000000;stroke-width:0.8;" x="38.234375" xlink:href="#m0f7baf4fee" y="27.72321"/>
      </g>
     </g>
     <g id="text_28">
      <!-- 2.4 -->
      <g transform="translate(15.33125 31.522429)scale(0.1 -0.1)">
       <use xlink:href="#DejaVuSans-50"/>
       <use x="63.623047" xlink:href="#DejaVuSans-46"/>
       <use x="95.410156" xlink:href="#DejaVuSans-52"/>
      </g>
     </g>
    </g>
    <g id="text_29">
     <!-- Średnia odległość owiec od centrum stada -->
     <g transform="translate(9.251563 239.21225)rotate(-90)scale(0.1 -0.1)">
      <defs>
       <path d="M 34.9375 92.515625 
L 43.96875 92.515625 
L 32.84375 79.625 
L 25.359375 79.625 
z
M 53.515625 70.515625 
L 53.515625 60.890625 
Q 47.90625 63.578125 42.921875 64.890625 
Q 37.9375 66.21875 33.296875 66.21875 
Q 25.25 66.21875 20.875 63.09375 
Q 16.5 59.96875 16.5 54.203125 
Q 16.5 49.359375 19.40625 46.890625 
Q 22.3125 44.4375 30.421875 42.921875 
L 36.375 41.703125 
Q 47.40625 39.59375 52.65625 34.296875 
Q 57.90625 29 57.90625 20.125 
Q 57.90625 9.515625 50.796875 4.046875 
Q 43.703125 -1.421875 29.984375 -1.421875 
Q 24.8125 -1.421875 18.96875 -0.25 
Q 13.140625 0.921875 6.890625 3.21875 
L 6.890625 13.375 
Q 12.890625 10.015625 18.65625 8.296875 
Q 24.421875 6.59375 29.984375 6.59375 
Q 38.421875 6.59375 43.015625 9.90625 
Q 47.609375 13.234375 47.609375 19.390625 
Q 47.609375 24.75 44.3125 27.78125 
Q 41.015625 30.8125 33.5 32.328125 
L 27.484375 33.5 
Q 16.453125 35.6875 11.515625 40.375 
Q 6.59375 45.0625 6.59375 53.421875 
Q 6.59375 63.09375 13.40625 68.65625 
Q 20.21875 74.21875 32.171875 74.21875 
Q 37.3125 74.21875 42.625 73.28125 
Q 47.953125 72.359375 53.515625 70.515625 
z
" id="DejaVuSans-346"/>
       <path d="M 4.203125 54.6875 
L 13.1875 54.6875 
L 24.421875 12.015625 
L 35.59375 54.6875 
L 46.1875 54.6875 
L 57.421875 12.015625 
L 68.609375 54.6875 
L 77.59375 54.6875 
L 63.28125 0 
L 52.6875 0 
L 40.921875 44.828125 
L 29.109375 0 
L 18.5 0 
z
" id="DejaVuSans-119"/>
      </defs>
      <use xlink:href="#DejaVuSans-346"/>
      <use x="63.476562" xlink:href="#DejaVuSans-114"/>
      <use x="102.339844" xlink:href="#DejaVuSans-101"/>
      <use x="163.863281" xlink:href="#DejaVuSans-100"/>
      <use x="227.339844" xlink:href="#DejaVuSans-110"/>
      <use x="290.71875" xlink:href="#DejaVuSans-105"/>
      <use x="318.501953" xlink:href="#DejaVuSans-97"/>
      <use x="379.78125" xlink:href="#DejaVuSans-32"/>
      <use x="411.568359" xlink:href="#DejaVuSans-111"/>
      <use x="472.75" xlink:href="#DejaVuSans-100"/>
      <use x="536.226562" xlink:href="#DejaVuSans-108"/>
      <use x="564.009766" xlink:href="#DejaVuSans-101"/>
      <use x="625.533203" xlink:href="#DejaVuSans-103"/>
      <use x="689.009766" xlink:href="#DejaVuSans-322"/>
      <use x="717.427734" xlink:href="#DejaVuSans-111"/>
      <use x="778.609375" xlink:href="#DejaVuSans-347"/>
      <use x="830.708984" xlink:href="#DejaVuSans-263"/>
      <use x="885.689453" xlink:href="#DejaVuSans-32"/>
      <use x="917.476562" xlink:href="#DejaVuSans-111"/>
      <use x="978.658203" xlink:href="#DejaVuSans-119"/>
      <use x="1060.445312" xlink:href="#DejaVuSans-105"/>
      <use x="1088.228516" xlink:href="#DejaVuSans-101"/>
      <use x="1149.751953" xlink:href="#DejaVuSans-99"/>
      <use x="1204.732422" xlink:href="#DejaVuSans-32"/>
      <use x="1236.519531" xlink:href="#DejaVuSans-111"/>
      <use x="1297.701172" xlink:href="#DejaVuSans-100"/>
      <use x="1361.177734" xlink:href="#DejaVuSans-32"/>
      <use x="1392.964844" xlink:href="#DejaVuSans-99"/>
      <use x="1447.945312" xlink:href="#DejaVuSans-101"/>
      <use x="1509.46875" xlink:href="#DejaVuSans-110"/>
      <use x="1572.847656" xlink:href="#DejaVuSans-116"/>
      <use x="1612.056641" xlink:href="#DejaVuSans-114"/>
      <use x="1653.169922" xlink:href="#DejaVuSans-117"/>
      <use x="1716.548828" xlink:href="#DejaVuSans-109"/>
      <use x="1813.960938" xlink:href="#DejaVuSans-32"/>
      <use x="1845.748047" xlink:href="#DejaVuSans-115"/>
      <use x="1897.847656" xlink:href="#DejaVuSans-116"/>
      <use x="1937.056641" xlink:href="#DejaVuSans-97"/>
      <use x="1998.335938" xlink:href="#DejaVuSans-100"/>
      <use x="2061.8125" xlink:href="#DejaVuSans-97"/>
     </g>
    </g>
   </g>
   <g id="LineCollection_1">
    <path clip-path="url(#ped9facf038)" d="M 57.2526 50.051776 
L 57.2526 12.553297 
" style="fill:none;stroke:#808080;stroke-width:1.5;"/>
    <path clip-path="url(#ped9facf038)" d="M 61.478872 59.852718 
L 61.478872 23.858682 
" style="fill:none;stroke:#808080;stroke-width:1.5;"/>
    <path clip-path="url(#ped9facf038)" d="M 65.705144 64.946036 
L 65.705144 29.212011 
" style="fill:none;stroke:#808080;stroke-width:1.5;"/>
    <path clip-path="url(#ped9facf038)" d="M 69.931416 53.158767 
L 69.931416 17.260384 
" style="fill:none;stroke:#808080;stroke-width:1.5;"/>
    <path clip-path="url(#ped9facf038)" d="M 74.157689 47.331187 
L 74.157689 12.096 
" style="fill:none;stroke:#808080;stroke-width:1.5;"/>
    <path clip-path="url(#ped9facf038)" d="M 78.383961 60.853214 
L 78.383961 26.130994 
" style="fill:none;stroke:#808080;stroke-width:1.5;"/>
    <path clip-path="url(#ped9facf038)" d="M 82.610233 56.088007 
L 82.610233 23.876654 
" style="fill:none;stroke:#808080;stroke-width:1.5;"/>
    <path clip-path="url(#ped9facf038)" d="M 86.836505 63.25024 
L 86.836505 30.503671 
" style="fill:none;stroke:#808080;stroke-width:1.5;"/>
    <path clip-path="url(#ped9facf038)" d="M 91.062777 66.980559 
L 91.062777 33.202439 
" style="fill:none;stroke:#808080;stroke-width:1.5;"/>
    <path clip-path="url(#ped9facf038)" d="M 95.28905 65.520795 
L 95.28905 32.3284 
" style="fill:none;stroke:#808080;stroke-width:1.5;"/>
    <path clip-path="url(#ped9facf038)" d="M 99.515322 79.936538 
L 99.515322 48.964125 
" style="fill:none;stroke:#808080;stroke-width:1.5;"/>
    <path clip-path="url(#ped9facf038)" d="M 103.741594 72.59664 
L 103.741594 40.105805 
" style="fill:none;stroke:#808080;stroke-width:1.5;"/>
    <path clip-path="url(#ped9facf038)" d="M 107.967866 75.32666 
L 107.967866 42.624989 
" style="fill:none;stroke:#808080;stroke-width:1.5;"/>
    <path clip-path="url(#ped9facf038)" d="M 112.194138 70.411306 
L 112.194138 39.314902 
" style="fill:none;stroke:#808080;stroke-width:1.5;"/>
    <path clip-path="url(#ped9facf038)" d="M 116.420411 68.640585 
L 116.420411 35.840104 
" style="fill:none;stroke:#808080;stroke-width:1.5;"/>
    <path clip-path="url(#ped9facf038)" d="M 120.646683 77.167191 
L 120.646683 45.821357 
" style="fill:none;stroke:#808080;stroke-width:1.5;"/>
    <path clip-path="url(#ped9facf038)" d="M 124.872955 76.468976 
L 124.872955 43.396041 
" style="fill:none;stroke:#808080;stroke-width:1.5;"/>
    <path clip-path="url(#ped9facf038)" d="M 129.099227 78.521502 
L 129.099227 46.443163 
" style="fill:none;stroke:#808080;stroke-width:1.5;"/>
    <path clip-path="url(#ped9facf038)" d="M 133.325499 90.321989 
L 133.325499 58.246029 
" style="fill:none;stroke:#808080;stroke-width:1.5;"/>
    <path clip-path="url(#ped9facf038)" d="M 137.551771 77.104055 
L 137.551771 43.791792 
" style="fill:none;stroke:#808080;stroke-width:1.5;"/>
    <path clip-path="url(#ped9facf038)" d="M 141.778044 63.549599 
L 141.778044 33.205875 
" style="fill:none;stroke:#808080;stroke-width:1.5;"/>
    <path clip-path="url(#ped9facf038)" d="M 146.004316 82.71523 
L 146.004316 50.352454 
" style="fill:none;stroke:#808080;stroke-width:1.5;"/>
    <path clip-path="url(#ped9facf038)" d="M 150.230588 78.402594 
L 150.230588 47.239649 
" style="fill:none;stroke:#808080;stroke-width:1.5;"/>
    <path clip-path="url(#ped9facf038)" d="M 154.45686 72.325815 
L 154.45686 39.864946 
" style="fill:none;stroke:#808080;stroke-width:1.5;"/>
    <path clip-path="url(#ped9facf038)" d="M 158.683132 94.958826 
L 158.683132 64.870524 
" style="fill:none;stroke:#808080;stroke-width:1.5;"/>
    <path clip-path="url(#ped9facf038)" d="M 162.909405 96.009358 
L 162.909405 66.611703 
" style="fill:none;stroke:#808080;stroke-width:1.5;"/>
    <path clip-path="url(#ped9facf038)" d="M 167.135677 66.347318 
L 167.135677 34.240586 
" style="fill:none;stroke:#808080;stroke-width:1.5;"/>
    <path clip-path="url(#ped9facf038)" d="M 171.361949 76.551949 
L 171.361949 46.300159 
" style="fill:none;stroke:#808080;stroke-width:1.5;"/>
    <path clip-path="url(#ped9facf038)" d="M 175.588221 83.172082 
L 175.588221 54.226096 
" style="fill:none;stroke:#808080;stroke-width:1.5;"/>
    <path clip-path="url(#ped9facf038)" d="M 179.814493 107.993038 
L 179.814493 78.800279 
" style="fill:none;stroke:#808080;stroke-width:1.5;"/>
    <path clip-path="url(#ped9facf038)" d="M 184.040766 102.70368 
L 184.040766 76.016573 
" style="fill:none;stroke:#808080;stroke-width:1.5;"/>
    <path clip-path="url(#ped9facf038)" d="M 188.267038 116.95557 
L 188.267038 93.002828 
" style="fill:none;stroke:#808080;stroke-width:1.5;"/>
    <path clip-path="url(#ped9facf038)" d="M 192.49331 96.212492 
L 192.49331 72.500886 
" style="fill:none;stroke:#808080;stroke-width:1.5;"/>
    <path clip-path="url(#ped9facf038)" d="M 196.719582 99.870833 
L 196.719582 77.740635 
" style="fill:none;stroke:#808080;stroke-width:1.5;"/>
    <path clip-path="url(#ped9facf038)" d="M 200.945854 96.885356 
L 200.945854 74.73748 
" style="fill:none;stroke:#808080;stroke-width:1.5;"/>
    <path clip-path="url(#ped9facf038)" d="M 205.172126 85.175329 
L 205.172126 63.780159 
" style="fill:none;stroke:#808080;stroke-width:1.5;"/>
    <path clip-path="url(#ped9facf038)" d="M 209.398399 95.722223 
L 209.398399 74.827986 
" style="fill:none;stroke:#808080;stroke-width:1.5;"/>
    <path clip-path="url(#ped9facf038)" d="M 213.624671 94.962936 
L 213.624671 70.654996 
" style="fill:none;stroke:#808080;stroke-width:1.5;"/>
    <path clip-path="url(#ped9facf038)" d="M 217.850943 104.981124 
L 217.850943 83.590528 
" style="fill:none;stroke:#808080;stroke-width:1.5;"/>
    <path clip-path="url(#ped9facf038)" d="M 222.077215 92.443352 
L 222.077215 73.64599 
" style="fill:none;stroke:#808080;stroke-width:1.5;"/>
    <path clip-path="url(#ped9facf038)" d="M 226.303487 147.297193 
L 226.303487 130.407501 
" style="fill:none;stroke:#808080;stroke-width:1.5;"/>
    <path clip-path="url(#ped9facf038)" d="M 230.52976 118.056579 
L 230.52976 102.377575 
" style="fill:none;stroke:#808080;stroke-width:1.5;"/>
    <path clip-path="url(#ped9facf038)" d="M 234.756032 171.555661 
L 234.756032 160.015051 
" style="fill:none;stroke:#808080;stroke-width:1.5;"/>
    <path clip-path="url(#ped9facf038)" d="M 238.982304 188.603385 
L 238.982304 175.820523 
" style="fill:none;stroke:#808080;stroke-width:1.5;"/>
    <path clip-path="url(#ped9facf038)" d="M 243.208576 185.275549 
L 243.208576 174.137393 
" style="fill:none;stroke:#808080;stroke-width:1.5;"/>
    <path clip-path="url(#ped9facf038)" d="M 247.434848 180.323549 
L 247.434848 170.45443 
" style="fill:none;stroke:#808080;stroke-width:1.5;"/>
    <path clip-path="url(#ped9facf038)" d="M 251.661121 181.712267 
L 251.661121 169.794138 
" style="fill:none;stroke:#808080;stroke-width:1.5;"/>
    <path clip-path="url(#ped9facf038)" d="M 255.887393 197.285505 
L 255.887393 184.376594 
" style="fill:none;stroke:#808080;stroke-width:1.5;"/>
    <path clip-path="url(#ped9facf038)" d="M 260.113665 198.498823 
L 260.113665 184.399877 
" style="fill:none;stroke:#808080;stroke-width:1.5;"/>
    <path clip-path="url(#ped9facf038)" d="M 264.339937 219.586433 
L 264.339937 207.212742 
" style="fill:none;stroke:#808080;stroke-width:1.5;"/>
    <path clip-path="url(#ped9facf038)" d="M 268.566209 232.282792 
L 268.566209 221.434233 
" style="fill:none;stroke:#808080;stroke-width:1.5;"/>
    <path clip-path="url(#ped9facf038)" d="M 272.792482 254.016 
L 272.792482 245.889969 
" style="fill:none;stroke:#808080;stroke-width:1.5;"/>
    <path clip-path="url(#ped9facf038)" d="M 277.018754 239.301374 
L 277.018754 227.177291 
" style="fill:none;stroke:#808080;stroke-width:1.5;"/>
    <path clip-path="url(#ped9facf038)" d="M 281.245026 232.846384 
L 281.245026 214.523172 
" style="fill:none;stroke:#808080;stroke-width:1.5;"/>
    <path clip-path="url(#ped9facf038)" d="M 285.471298 244.923728 
L 285.471298 231.283568 
" style="fill:none;stroke:#808080;stroke-width:1.5;"/>
    <path clip-path="url(#ped9facf038)" d="M 289.69757 253.436111 
L 289.69757 241.992712 
" style="fill:none;stroke:#808080;stroke-width:1.5;"/>
    <path clip-path="url(#ped9facf038)" d="M 293.923842 228.109171 
L 293.923842 214.000012 
" style="fill:none;stroke:#808080;stroke-width:1.5;"/>
    <path clip-path="url(#ped9facf038)" d="M 298.150115 234.477315 
L 298.150115 221.514933 
" style="fill:none;stroke:#808080;stroke-width:1.5;"/>
    <path clip-path="url(#ped9facf038)" d="M 302.376387 218.636421 
L 302.376387 204.510607 
" style="fill:none;stroke:#808080;stroke-width:1.5;"/>
    <path clip-path="url(#ped9facf038)" d="M 306.602659 241.339351 
L 306.602659 233.144812 
" style="fill:none;stroke:#808080;stroke-width:1.5;"/>
    <path clip-path="url(#ped9facf038)" d="M 310.828931 232.649607 
L 310.828931 224.53273 
" style="fill:none;stroke:#808080;stroke-width:1.5;"/>
    <path clip-path="url(#ped9facf038)" d="M 315.055203 218.41551 
L 315.055203 208.43693 
" style="fill:none;stroke:#808080;stroke-width:1.5;"/>
    <path clip-path="url(#ped9facf038)" d="M 319.281476 214.379308 
L 319.281476 205.300118 
" style="fill:none;stroke:#808080;stroke-width:1.5;"/>
    <path clip-path="url(#ped9facf038)" d="M 323.507748 225.070289 
L 323.507748 211.857325 
" style="fill:none;stroke:#808080;stroke-width:1.5;"/>
    <path clip-path="url(#ped9facf038)" d="M 327.73402 205.757471 
L 327.73402 190.350861 
" style="fill:none;stroke:#808080;stroke-width:1.5;"/>
    <path clip-path="url(#ped9facf038)" d="M 331.960292 216.041998 
L 331.960292 201.37935 
" style="fill:none;stroke:#808080;stroke-width:1.5;"/>
    <path clip-path="url(#ped9facf038)" d="M 336.186564 211.025499 
L 336.186564 196.836355 
" style="fill:none;stroke:#808080;stroke-width:1.5;"/>
    <path clip-path="url(#ped9facf038)" d="M 340.412837 219.710106 
L 340.412837 206.190925 
" style="fill:none;stroke:#808080;stroke-width:1.5;"/>
    <path clip-path="url(#ped9facf038)" d="M 344.639109 221.032375 
L 344.639109 206.223292 
" style="fill:none;stroke:#808080;stroke-width:1.5;"/>
    <path clip-path="url(#ped9facf038)" d="M 348.865381 211.592036 
L 348.865381 197.737368 
" style="fill:none;stroke:#808080;stroke-width:1.5;"/>
    <path clip-path="url(#ped9facf038)" d="M 353.091653 206.678885 
L 353.091653 198.098938 
" style="fill:none;stroke:#808080;stroke-width:1.5;"/>
    <path clip-path="url(#ped9facf038)" d="M 357.317925 193.261854 
L 357.317925 184.165438 
" style="fill:none;stroke:#808080;stroke-width:1.5;"/>
    <path clip-path="url(#ped9facf038)" d="M 361.544197 192.256062 
L 361.544197 182.760485 
" style="fill:none;stroke:#808080;stroke-width:1.5;"/>
    <path clip-path="url(#ped9facf038)" d="M 365.77047 199.311997 
L 365.77047 183.288097 
" style="fill:none;stroke:#808080;stroke-width:1.5;"/>
    <path clip-path="url(#ped9facf038)" d="M 369.996742 180.851983 
L 369.996742 164.930233 
" style="fill:none;stroke:#808080;stroke-width:1.5;"/>
    <path clip-path="url(#ped9facf038)" d="M 374.223014 169.965621 
L 374.223014 110.549283 
" style="fill:none;stroke:#808080;stroke-width:1.5;"/>
   </g>
   <g id="LineCollection_2">
    <path clip-path="url(#ped9facf038)" d="M 57.2526 230.667633 
L 57.2526 224.925235 
" style="fill:none;stroke:#808080;stroke-width:1.5;"/>
    <path clip-path="url(#ped9facf038)" d="M 61.478872 233.635058 
L 61.478872 227.838115 
" style="fill:none;stroke:#808080;stroke-width:1.5;"/>
    <path clip-path="url(#ped9facf038)" d="M 65.705144 234.188092 
L 65.705144 228.40924 
" style="fill:none;stroke:#808080;stroke-width:1.5;"/>
    <path clip-path="url(#ped9facf038)" d="M 69.931416 240.019117 
L 69.931416 234.210152 
" style="fill:none;stroke:#808080;stroke-width:1.5;"/>
    <path clip-path="url(#ped9facf038)" d="M 74.157689 240.277359 
L 74.157689 234.614298 
" style="fill:none;stroke:#808080;stroke-width:1.5;"/>
    <path clip-path="url(#ped9facf038)" d="M 78.383961 236.610251 
L 78.383961 231.061254 
" style="fill:none;stroke:#808080;stroke-width:1.5;"/>
    <path clip-path="url(#ped9facf038)" d="M 82.610233 238.80544 
L 82.610233 232.837121 
" style="fill:none;stroke:#808080;stroke-width:1.5;"/>
    <path clip-path="url(#ped9facf038)" d="M 86.836505 232.598029 
L 86.836505 226.176458 
" style="fill:none;stroke:#808080;stroke-width:1.5;"/>
    <path clip-path="url(#ped9facf038)" d="M 91.062777 239.431901 
L 91.062777 231.899651 
" style="fill:none;stroke:#808080;stroke-width:1.5;"/>
    <path clip-path="url(#ped9facf038)" d="M 95.28905 237.168821 
L 95.28905 228.901503 
" style="fill:none;stroke:#808080;stroke-width:1.5;"/>
    <path clip-path="url(#ped9facf038)" d="M 99.515322 237.785104 
L 99.515322 229.440583 
" style="fill:none;stroke:#808080;stroke-width:1.5;"/>
    <path clip-path="url(#ped9facf038)" d="M 103.741594 236.705194 
L 103.741594 227.972756 
" style="fill:none;stroke:#808080;stroke-width:1.5;"/>
    <path clip-path="url(#ped9facf038)" d="M 107.967866 240.267327 
L 107.967866 231.09645 
" style="fill:none;stroke:#808080;stroke-width:1.5;"/>
    <path clip-path="url(#ped9facf038)" d="M 112.194138 236.096285 
L 112.194138 226.529526 
" style="fill:none;stroke:#808080;stroke-width:1.5;"/>
    <path clip-path="url(#ped9facf038)" d="M 116.420411 239.585503 
L 116.420411 230.090873 
" style="fill:none;stroke:#808080;stroke-width:1.5;"/>
    <path clip-path="url(#ped9facf038)" d="M 120.646683 238.463293 
L 120.646683 229.40494 
" style="fill:none;stroke:#808080;stroke-width:1.5;"/>
    <path clip-path="url(#ped9facf038)" d="M 124.872955 236.682397 
L 124.872955 226.944685 
" style="fill:none;stroke:#808080;stroke-width:1.5;"/>
    <path clip-path="url(#ped9facf038)" d="M 129.099227 233.533113 
L 129.099227 224.031597 
" style="fill:none;stroke:#808080;stroke-width:1.5;"/>
    <path clip-path="url(#ped9facf038)" d="M 133.325499 231.626314 
L 133.325499 222.242173 
" style="fill:none;stroke:#808080;stroke-width:1.5;"/>
    <path clip-path="url(#ped9facf038)" d="M 137.551771 232.219806 
L 137.551771 222.521672 
" style="fill:none;stroke:#808080;stroke-width:1.5;"/>
    <path clip-path="url(#ped9facf038)" d="M 141.778044 236.730577 
L 141.778044 227.238761 
" style="fill:none;stroke:#808080;stroke-width:1.5;"/>
    <path clip-path="url(#ped9facf038)" d="M 146.004316 235.695307 
L 146.004316 225.559553 
" style="fill:none;stroke:#808080;stroke-width:1.5;"/>
    <path clip-path="url(#ped9facf038)" d="M 150.230588 236.730568 
L 150.230588 226.166168 
" style="fill:none;stroke:#808080;stroke-width:1.5;"/>
    <path clip-path="url(#ped9facf038)" d="M 154.45686 238.117881 
L 154.45686 227.113015 
" style="fill:none;stroke:#808080;stroke-width:1.5;"/>
    <path clip-path="url(#ped9facf038)" d="M 158.683132 237.158159 
L 158.683132 225.836261 
" style="fill:none;stroke:#808080;stroke-width:1.5;"/>
    <path clip-path="url(#ped9facf038)" d="M 162.909405 234.961809 
L 162.909405 223.757515 
" style="fill:none;stroke:#808080;stroke-width:1.5;"/>
    <path clip-path="url(#ped9facf038)" d="M 167.135677 238.777004 
L 167.135677 227.321621 
" style="fill:none;stroke:#808080;stroke-width:1.5;"/>
    <path clip-path="url(#ped9facf038)" d="M 171.361949 236.42899 
L 171.361949 224.956351 
" style="fill:none;stroke:#808080;stroke-width:1.5;"/>
    <path clip-path="url(#ped9facf038)" d="M 175.588221 240.551658 
L 175.588221 228.542715 
" style="fill:none;stroke:#808080;stroke-width:1.5;"/>
    <path clip-path="url(#ped9facf038)" d="M 179.814493 240.12692 
L 179.814493 228.633285 
" style="fill:none;stroke:#808080;stroke-width:1.5;"/>
    <path clip-path="url(#ped9facf038)" d="M 184.040766 237.724834 
L 184.040766 225.776482 
" style="fill:none;stroke:#808080;stroke-width:1.5;"/>
    <path clip-path="url(#ped9facf038)" d="M 188.267038 240.038338 
L 188.267038 227.933124 
" style="fill:none;stroke:#808080;stroke-width:1.5;"/>
    <path clip-path="url(#ped9facf038)" d="M 192.49331 239.328477 
L 192.49331 227.043128 
" style="fill:none;stroke:#808080;stroke-width:1.5;"/>
    <path clip-path="url(#ped9facf038)" d="M 196.719582 243.555039 
L 196.719582 230.798475 
" style="fill:none;stroke:#808080;stroke-width:1.5;"/>
    <path clip-path="url(#ped9facf038)" d="M 200.945854 239.135026 
L 200.945854 226.1207 
" style="fill:none;stroke:#808080;stroke-width:1.5;"/>
    <path clip-path="url(#ped9facf038)" d="M 205.172126 238.911442 
L 205.172126 226.424156 
" style="fill:none;stroke:#808080;stroke-width:1.5;"/>
    <path clip-path="url(#ped9facf038)" d="M 209.398399 239.628036 
L 209.398399 226.406161 
" style="fill:none;stroke:#808080;stroke-width:1.5;"/>
    <path clip-path="url(#ped9facf038)" d="M 213.624671 239.897208 
L 213.624671 226.651016 
" style="fill:none;stroke:#808080;stroke-width:1.5;"/>
    <path clip-path="url(#ped9facf038)" d="M 217.850943 239.054693 
L 217.850943 226.20606 
" style="fill:none;stroke:#808080;stroke-width:1.5;"/>
    <path clip-path="url(#ped9facf038)" d="M 222.077215 240.443254 
L 222.077215 227.439359 
" style="fill:none;stroke:#808080;stroke-width:1.5;"/>
    <path clip-path="url(#ped9facf038)" d="M 226.303487 242.0327 
L 226.303487 228.878539 
" style="fill:none;stroke:#808080;stroke-width:1.5;"/>
    <path clip-path="url(#ped9facf038)" d="M 230.52976 243.493138 
L 230.52976 230.100031 
" style="fill:none;stroke:#808080;stroke-width:1.5;"/>
    <path clip-path="url(#ped9facf038)" d="M 234.756032 241.677037 
L 234.756032 229.029241 
" style="fill:none;stroke:#808080;stroke-width:1.5;"/>
    <path clip-path="url(#ped9facf038)" d="M 238.982304 240.377199 
L 238.982304 227.449168 
" style="fill:none;stroke:#808080;stroke-width:1.5;"/>
    <path clip-path="url(#ped9facf038)" d="M 243.208576 239.784334 
L 243.208576 226.47014 
" style="fill:none;stroke:#808080;stroke-width:1.5;"/>
    <path clip-path="url(#ped9facf038)" d="M 247.434848 240.946134 
L 247.434848 228.450484 
" style="fill:none;stroke:#808080;stroke-width:1.5;"/>
    <path clip-path="url(#ped9facf038)" d="M 251.661121 243.476341 
L 251.661121 230.29877 
" style="fill:none;stroke:#808080;stroke-width:1.5;"/>
    <path clip-path="url(#ped9facf038)" d="M 255.887393 239.255655 
L 255.887393 225.847719 
" style="fill:none;stroke:#808080;stroke-width:1.5;"/>
    <path clip-path="url(#ped9facf038)" d="M 260.113665 239.301644 
L 260.113665 226.259014 
" style="fill:none;stroke:#808080;stroke-width:1.5;"/>
    <path clip-path="url(#ped9facf038)" d="M 264.339937 239.840421 
L 264.339937 226.541266 
" style="fill:none;stroke:#808080;stroke-width:1.5;"/>
    <path clip-path="url(#ped9facf038)" d="M 268.566209 235.878728 
L 268.566209 223.630486 
" style="fill:none;stroke:#808080;stroke-width:1.5;"/>
    <path clip-path="url(#ped9facf038)" d="M 272.792482 236.461185 
L 272.792482 223.215792 
" style="fill:none;stroke:#808080;stroke-width:1.5;"/>
    <path clip-path="url(#ped9facf038)" d="M 277.018754 242.443029 
L 277.018754 229.228008 
" style="fill:none;stroke:#808080;stroke-width:1.5;"/>
    <path clip-path="url(#ped9facf038)" d="M 281.245026 232.813845 
L 281.245026 219.921935 
" style="fill:none;stroke:#808080;stroke-width:1.5;"/>
    <path clip-path="url(#ped9facf038)" d="M 285.471298 237.492666 
L 285.471298 224.008658 
" style="fill:none;stroke:#808080;stroke-width:1.5;"/>
    <path clip-path="url(#ped9facf038)" d="M 289.69757 235.839169 
L 289.69757 223.046219 
" style="fill:none;stroke:#808080;stroke-width:1.5;"/>
    <path clip-path="url(#ped9facf038)" d="M 293.923842 235.128834 
L 293.923842 222.415191 
" style="fill:none;stroke:#808080;stroke-width:1.5;"/>
    <path clip-path="url(#ped9facf038)" d="M 298.150115 239.538432 
L 298.150115 228.746076 
" style="fill:none;stroke:#808080;stroke-width:1.5;"/>
    <path clip-path="url(#ped9facf038)" d="M 302.376387 242.503006 
L 302.376387 231.913346 
" style="fill:none;stroke:#808080;stroke-width:1.5;"/>
    <path clip-path="url(#ped9facf038)" d="M 306.602659 239.466989 
L 306.602659 229.393742 
" style="fill:none;stroke:#808080;stroke-width:1.5;"/>
    <path clip-path="url(#ped9facf038)" d="M 310.828931 235.078762 
L 310.828931 225.418084 
" style="fill:none;stroke:#808080;stroke-width:1.5;"/>
    <path clip-path="url(#ped9facf038)" d="M 315.055203 237.19578 
L 315.055203 227.83203 
" style="fill:none;stroke:#808080;stroke-width:1.5;"/>
    <path clip-path="url(#ped9facf038)" d="M 319.281476 237.901136 
L 319.281476 227.899624 
" style="fill:none;stroke:#808080;stroke-width:1.5;"/>
    <path clip-path="url(#ped9facf038)" d="M 323.507748 233.112028 
L 323.507748 223.888421 
" style="fill:none;stroke:#808080;stroke-width:1.5;"/>
    <path clip-path="url(#ped9facf038)" d="M 327.73402 235.674032 
L 327.73402 226.341887 
" style="fill:none;stroke:#808080;stroke-width:1.5;"/>
    <path clip-path="url(#ped9facf038)" d="M 331.960292 234.849084 
L 331.960292 225.521514 
" style="fill:none;stroke:#808080;stroke-width:1.5;"/>
    <path clip-path="url(#ped9facf038)" d="M 336.186564 234.04229 
L 336.186564 224.8674 
" style="fill:none;stroke:#808080;stroke-width:1.5;"/>
    <path clip-path="url(#ped9facf038)" d="M 340.412837 237.432973 
L 340.412837 228.222538 
" style="fill:none;stroke:#808080;stroke-width:1.5;"/>
    <path clip-path="url(#ped9facf038)" d="M 344.639109 233.454613 
L 344.639109 224.653969 
" style="fill:none;stroke:#808080;stroke-width:1.5;"/>
    <path clip-path="url(#ped9facf038)" d="M 348.865381 235.061896 
L 348.865381 226.727018 
" style="fill:none;stroke:#808080;stroke-width:1.5;"/>
    <path clip-path="url(#ped9facf038)" d="M 353.091653 235.52663 
L 353.091653 227.477678 
" style="fill:none;stroke:#808080;stroke-width:1.5;"/>
    <path clip-path="url(#ped9facf038)" d="M 357.317925 233.8536 
L 357.317925 226.358514 
" style="fill:none;stroke:#808080;stroke-width:1.5;"/>
    <path clip-path="url(#ped9facf038)" d="M 361.544197 235.881579 
L 361.544197 229.009328 
" style="fill:none;stroke:#808080;stroke-width:1.5;"/>
    <path clip-path="url(#ped9facf038)" d="M 365.77047 230.578281 
L 365.77047 224.268354 
" style="fill:none;stroke:#808080;stroke-width:1.5;"/>
    <path clip-path="url(#ped9facf038)" d="M 369.996742 239.161021 
L 369.996742 232.819718 
" style="fill:none;stroke:#808080;stroke-width:1.5;"/>
    <path clip-path="url(#ped9facf038)" d="M 374.223014 253.883631 
L 374.223014 246.022338 
" style="fill:none;stroke:#808080;stroke-width:1.5;"/>
    <path clip-path="url(#ped9facf038)" d="M 378.449286 247.985558 
L 378.449286 237.306545 
" style="fill:none;stroke:#808080;stroke-width:1.5;"/>
    <path clip-path="url(#ped9facf038)" d="M 382.675558 218.150735 
L 382.675558 202.645854 
" style="fill:none;stroke:#808080;stroke-width:1.5;"/>
   </g>
   <g id="line2d_55">
    <defs>
     <path d="M 0 1.5 
C 0.397805 1.5 0.77937 1.341951 1.06066 1.06066 
C 1.341951 0.77937 1.5 0.397805 1.5 0 
C 1.5 -0.397805 1.341951 -0.77937 1.06066 -1.06066 
C 0.77937 -1.341951 0.397805 -1.5 0 -1.5 
C -0.397805 -1.5 -0.77937 -1.341951 -1.06066 -1.06066 
C -1.341951 -0.77937 -1.5 -0.397805 -1.5 0 
C -1.5 0.397805 -1.341951 0.77937 -1.06066 1.06066 
C -0.77937 1.341951 -0.397805 1.5 0 1.5 
z
" id="m5ec8b7ea6a" style="stroke:#000000;"/>
    </defs>
    <g clip-path="url(#ped9facf038)">
     <use style="fill-opacity:0;stroke:#000000;" x="57.2526" xlink:href="#m5ec8b7ea6a" y="31.302537"/>
     <use style="fill-opacity:0;stroke:#000000;" x="61.478872" xlink:href="#m5ec8b7ea6a" y="41.8557"/>
     <use style="fill-opacity:0;stroke:#000000;" x="65.705144" xlink:href="#m5ec8b7ea6a" y="47.079023"/>
     <use style="fill-opacity:0;stroke:#000000;" x="69.931416" xlink:href="#m5ec8b7ea6a" y="35.209575"/>
     <use style="fill-opacity:0;stroke:#000000;" x="74.157689" xlink:href="#m5ec8b7ea6a" y="29.713593"/>
     <use style="fill-opacity:0;stroke:#000000;" x="78.383961" xlink:href="#m5ec8b7ea6a" y="43.492104"/>
     <use style="fill-opacity:0;stroke:#000000;" x="82.610233" xlink:href="#m5ec8b7ea6a" y="39.982331"/>
     <use style="fill-opacity:0;stroke:#000000;" x="86.836505" xlink:href="#m5ec8b7ea6a" y="46.876955"/>
     <use style="fill-opacity:0;stroke:#000000;" x="91.062777" xlink:href="#m5ec8b7ea6a" y="50.091499"/>
     <use style="fill-opacity:0;stroke:#000000;" x="95.28905" xlink:href="#m5ec8b7ea6a" y="48.924598"/>
     <use style="fill-opacity:0;stroke:#000000;" x="99.515322" xlink:href="#m5ec8b7ea6a" y="64.450331"/>
     <use style="fill-opacity:0;stroke:#000000;" x="103.741594" xlink:href="#m5ec8b7ea6a" y="56.351223"/>
     <use style="fill-opacity:0;stroke:#000000;" x="107.967866" xlink:href="#m5ec8b7ea6a" y="58.975825"/>
     <use style="fill-opacity:0;stroke:#000000;" x="112.194138" xlink:href="#m5ec8b7ea6a" y="54.863104"/>
     <use style="fill-opacity:0;stroke:#000000;" x="116.420411" xlink:href="#m5ec8b7ea6a" y="52.240345"/>
     <use style="fill-opacity:0;stroke:#000000;" x="120.646683" xlink:href="#m5ec8b7ea6a" y="61.494274"/>
     <use style="fill-opacity:0;stroke:#000000;" x="124.872955" xlink:href="#m5ec8b7ea6a" y="59.932509"/>
     <use style="fill-opacity:0;stroke:#000000;" x="129.099227" xlink:href="#m5ec8b7ea6a" y="62.482332"/>
     <use style="fill-opacity:0;stroke:#000000;" x="133.325499" xlink:href="#m5ec8b7ea6a" y="74.284009"/>
     <use style="fill-opacity:0;stroke:#000000;" x="137.551771" xlink:href="#m5ec8b7ea6a" y="60.447924"/>
     <use style="fill-opacity:0;stroke:#000000;" x="141.778044" xlink:href="#m5ec8b7ea6a" y="48.377737"/>
     <use style="fill-opacity:0;stroke:#000000;" x="146.004316" xlink:href="#m5ec8b7ea6a" y="66.533842"/>
     <use style="fill-opacity:0;stroke:#000000;" x="150.230588" xlink:href="#m5ec8b7ea6a" y="62.821122"/>
     <use style="fill-opacity:0;stroke:#000000;" x="154.45686" xlink:href="#m5ec8b7ea6a" y="56.09538"/>
     <use style="fill-opacity:0;stroke:#000000;" x="158.683132" xlink:href="#m5ec8b7ea6a" y="79.914675"/>
     <use style="fill-opacity:0;stroke:#000000;" x="162.909405" xlink:href="#m5ec8b7ea6a" y="81.31053"/>
     <use style="fill-opacity:0;stroke:#000000;" x="167.135677" xlink:href="#m5ec8b7ea6a" y="50.293952"/>
     <use style="fill-opacity:0;stroke:#000000;" x="171.361949" xlink:href="#m5ec8b7ea6a" y="61.426054"/>
     <use style="fill-opacity:0;stroke:#000000;" x="175.588221" xlink:href="#m5ec8b7ea6a" y="68.699089"/>
     <use style="fill-opacity:0;stroke:#000000;" x="179.814493" xlink:href="#m5ec8b7ea6a" y="93.396659"/>
     <use style="fill-opacity:0;stroke:#000000;" x="184.040766" xlink:href="#m5ec8b7ea6a" y="89.360126"/>
     <use style="fill-opacity:0;stroke:#000000;" x="188.267038" xlink:href="#m5ec8b7ea6a" y="104.979199"/>
     <use style="fill-opacity:0;stroke:#000000;" x="192.49331" xlink:href="#m5ec8b7ea6a" y="84.356689"/>
     <use style="fill-opacity:0;stroke:#000000;" x="196.719582" xlink:href="#m5ec8b7ea6a" y="88.805734"/>
     <use style="fill-opacity:0;stroke:#000000;" x="200.945854" xlink:href="#m5ec8b7ea6a" y="85.811418"/>
     <use style="fill-opacity:0;stroke:#000000;" x="205.172126" xlink:href="#m5ec8b7ea6a" y="74.477744"/>
     <use style="fill-opacity:0;stroke:#000000;" x="209.398399" xlink:href="#m5ec8b7ea6a" y="85.275104"/>
     <use style="fill-opacity:0;stroke:#000000;" x="213.624671" xlink:href="#m5ec8b7ea6a" y="82.808966"/>
     <use style="fill-opacity:0;stroke:#000000;" x="217.850943" xlink:href="#m5ec8b7ea6a" y="94.285826"/>
     <use style="fill-opacity:0;stroke:#000000;" x="222.077215" xlink:href="#m5ec8b7ea6a" y="83.044671"/>
     <use style="fill-opacity:0;stroke:#000000;" x="226.303487" xlink:href="#m5ec8b7ea6a" y="138.852347"/>
     <use style="fill-opacity:0;stroke:#000000;" x="230.52976" xlink:href="#m5ec8b7ea6a" y="110.217077"/>
     <use style="fill-opacity:0;stroke:#000000;" x="234.756032" xlink:href="#m5ec8b7ea6a" y="165.785356"/>
     <use style="fill-opacity:0;stroke:#000000;" x="238.982304" xlink:href="#m5ec8b7ea6a" y="182.211954"/>
     <use style="fill-opacity:0;stroke:#000000;" x="243.208576" xlink:href="#m5ec8b7ea6a" y="179.706471"/>
     <use style="fill-opacity:0;stroke:#000000;" x="247.434848" xlink:href="#m5ec8b7ea6a" y="175.388989"/>
     <use style="fill-opacity:0;stroke:#000000;" x="251.661121" xlink:href="#m5ec8b7ea6a" y="175.753203"/>
     <use style="fill-opacity:0;stroke:#000000;" x="255.887393" xlink:href="#m5ec8b7ea6a" y="190.83105"/>
     <use style="fill-opacity:0;stroke:#000000;" x="260.113665" xlink:href="#m5ec8b7ea6a" y="191.44935"/>
     <use style="fill-opacity:0;stroke:#000000;" x="264.339937" xlink:href="#m5ec8b7ea6a" y="213.399587"/>
     <use style="fill-opacity:0;stroke:#000000;" x="268.566209" xlink:href="#m5ec8b7ea6a" y="226.858512"/>
     <use style="fill-opacity:0;stroke:#000000;" x="272.792482" xlink:href="#m5ec8b7ea6a" y="249.952984"/>
     <use style="fill-opacity:0;stroke:#000000;" x="277.018754" xlink:href="#m5ec8b7ea6a" y="233.239333"/>
     <use style="fill-opacity:0;stroke:#000000;" x="281.245026" xlink:href="#m5ec8b7ea6a" y="223.684778"/>
     <use style="fill-opacity:0;stroke:#000000;" x="285.471298" xlink:href="#m5ec8b7ea6a" y="238.103648"/>
     <use style="fill-opacity:0;stroke:#000000;" x="289.69757" xlink:href="#m5ec8b7ea6a" y="247.714411"/>
     <use style="fill-opacity:0;stroke:#000000;" x="293.923842" xlink:href="#m5ec8b7ea6a" y="221.054592"/>
     <use style="fill-opacity:0;stroke:#000000;" x="298.150115" xlink:href="#m5ec8b7ea6a" y="227.996124"/>
     <use style="fill-opacity:0;stroke:#000000;" x="302.376387" xlink:href="#m5ec8b7ea6a" y="211.573514"/>
     <use style="fill-opacity:0;stroke:#000000;" x="306.602659" xlink:href="#m5ec8b7ea6a" y="237.242081"/>
     <use style="fill-opacity:0;stroke:#000000;" x="310.828931" xlink:href="#m5ec8b7ea6a" y="228.591168"/>
     <use style="fill-opacity:0;stroke:#000000;" x="315.055203" xlink:href="#m5ec8b7ea6a" y="213.42622"/>
     <use style="fill-opacity:0;stroke:#000000;" x="319.281476" xlink:href="#m5ec8b7ea6a" y="209.839713"/>
     <use style="fill-opacity:0;stroke:#000000;" x="323.507748" xlink:href="#m5ec8b7ea6a" y="218.463807"/>
     <use style="fill-opacity:0;stroke:#000000;" x="327.73402" xlink:href="#m5ec8b7ea6a" y="198.054166"/>
     <use style="fill-opacity:0;stroke:#000000;" x="331.960292" xlink:href="#m5ec8b7ea6a" y="208.710674"/>
     <use style="fill-opacity:0;stroke:#000000;" x="336.186564" xlink:href="#m5ec8b7ea6a" y="203.930927"/>
     <use style="fill-opacity:0;stroke:#000000;" x="340.412837" xlink:href="#m5ec8b7ea6a" y="212.950516"/>
     <use style="fill-opacity:0;stroke:#000000;" x="344.639109" xlink:href="#m5ec8b7ea6a" y="213.627833"/>
     <use style="fill-opacity:0;stroke:#000000;" x="348.865381" xlink:href="#m5ec8b7ea6a" y="204.664702"/>
     <use style="fill-opacity:0;stroke:#000000;" x="353.091653" xlink:href="#m5ec8b7ea6a" y="202.388911"/>
     <use style="fill-opacity:0;stroke:#000000;" x="357.317925" xlink:href="#m5ec8b7ea6a" y="188.713646"/>
     <use style="fill-opacity:0;stroke:#000000;" x="361.544197" xlink:href="#m5ec8b7ea6a" y="187.508274"/>
     <use style="fill-opacity:0;stroke:#000000;" x="365.77047" xlink:href="#m5ec8b7ea6a" y="191.300047"/>
     <use style="fill-opacity:0;stroke:#000000;" x="369.996742" xlink:href="#m5ec8b7ea6a" y="172.891108"/>
     <use style="fill-opacity:0;stroke:#000000;" x="374.223014" xlink:href="#m5ec8b7ea6a" y="140.257452"/>
    </g>
   </g>
   <g id="line2d_56">
    <defs>
     <path d="M 0 -3 
L -2.598076 -1.5 
L -2.598076 1.5 
L -0 3 
L 2.598076 1.5 
L 2.598076 -1.5 
z
" id="m7d885fb36f" style="stroke:#8b0000;stroke-linejoin:miter;"/>
    </defs>
    <g clip-path="url(#ped9facf038)">
     <use style="fill-opacity:0;stroke:#8b0000;stroke-linejoin:miter;" x="57.2526" xlink:href="#m7d885fb36f" y="227.796434"/>
     <use style="fill-opacity:0;stroke:#8b0000;stroke-linejoin:miter;" x="61.478872" xlink:href="#m7d885fb36f" y="230.736587"/>
     <use style="fill-opacity:0;stroke:#8b0000;stroke-linejoin:miter;" x="65.705144" xlink:href="#m7d885fb36f" y="231.298666"/>
     <use style="fill-opacity:0;stroke:#8b0000;stroke-linejoin:miter;" x="69.931416" xlink:href="#m7d885fb36f" y="237.114635"/>
     <use style="fill-opacity:0;stroke:#8b0000;stroke-linejoin:miter;" x="74.157689" xlink:href="#m7d885fb36f" y="237.445828"/>
     <use style="fill-opacity:0;stroke:#8b0000;stroke-linejoin:miter;" x="78.383961" xlink:href="#m7d885fb36f" y="233.835753"/>
     <use style="fill-opacity:0;stroke:#8b0000;stroke-linejoin:miter;" x="82.610233" xlink:href="#m7d885fb36f" y="235.821281"/>
     <use style="fill-opacity:0;stroke:#8b0000;stroke-linejoin:miter;" x="86.836505" xlink:href="#m7d885fb36f" y="229.387244"/>
     <use style="fill-opacity:0;stroke:#8b0000;stroke-linejoin:miter;" x="91.062777" xlink:href="#m7d885fb36f" y="235.665776"/>
     <use style="fill-opacity:0;stroke:#8b0000;stroke-linejoin:miter;" x="95.28905" xlink:href="#m7d885fb36f" y="233.035162"/>
     <use style="fill-opacity:0;stroke:#8b0000;stroke-linejoin:miter;" x="99.515322" xlink:href="#m7d885fb36f" y="233.612843"/>
     <use style="fill-opacity:0;stroke:#8b0000;stroke-linejoin:miter;" x="103.741594" xlink:href="#m7d885fb36f" y="232.338975"/>
     <use style="fill-opacity:0;stroke:#8b0000;stroke-linejoin:miter;" x="107.967866" xlink:href="#m7d885fb36f" y="235.681888"/>
     <use style="fill-opacity:0;stroke:#8b0000;stroke-linejoin:miter;" x="112.194138" xlink:href="#m7d885fb36f" y="231.312906"/>
     <use style="fill-opacity:0;stroke:#8b0000;stroke-linejoin:miter;" x="116.420411" xlink:href="#m7d885fb36f" y="234.838188"/>
     <use style="fill-opacity:0;stroke:#8b0000;stroke-linejoin:miter;" x="120.646683" xlink:href="#m7d885fb36f" y="233.934117"/>
     <use style="fill-opacity:0;stroke:#8b0000;stroke-linejoin:miter;" x="124.872955" xlink:href="#m7d885fb36f" y="231.813541"/>
     <use style="fill-opacity:0;stroke:#8b0000;stroke-linejoin:miter;" x="129.099227" xlink:href="#m7d885fb36f" y="228.782355"/>
     <use style="fill-opacity:0;stroke:#8b0000;stroke-linejoin:miter;" x="133.325499" xlink:href="#m7d885fb36f" y="226.934243"/>
     <use style="fill-opacity:0;stroke:#8b0000;stroke-linejoin:miter;" x="137.551771" xlink:href="#m7d885fb36f" y="227.370739"/>
     <use style="fill-opacity:0;stroke:#8b0000;stroke-linejoin:miter;" x="141.778044" xlink:href="#m7d885fb36f" y="231.984669"/>
     <use style="fill-opacity:0;stroke:#8b0000;stroke-linejoin:miter;" x="146.004316" xlink:href="#m7d885fb36f" y="230.62743"/>
     <use style="fill-opacity:0;stroke:#8b0000;stroke-linejoin:miter;" x="150.230588" xlink:href="#m7d885fb36f" y="231.448368"/>
     <use style="fill-opacity:0;stroke:#8b0000;stroke-linejoin:miter;" x="154.45686" xlink:href="#m7d885fb36f" y="232.615448"/>
     <use style="fill-opacity:0;stroke:#8b0000;stroke-linejoin:miter;" x="158.683132" xlink:href="#m7d885fb36f" y="231.49721"/>
     <use style="fill-opacity:0;stroke:#8b0000;stroke-linejoin:miter;" x="162.909405" xlink:href="#m7d885fb36f" y="229.359662"/>
     <use style="fill-opacity:0;stroke:#8b0000;stroke-linejoin:miter;" x="167.135677" xlink:href="#m7d885fb36f" y="233.049312"/>
     <use style="fill-opacity:0;stroke:#8b0000;stroke-linejoin:miter;" x="171.361949" xlink:href="#m7d885fb36f" y="230.69267"/>
     <use style="fill-opacity:0;stroke:#8b0000;stroke-linejoin:miter;" x="175.588221" xlink:href="#m7d885fb36f" y="234.547187"/>
     <use style="fill-opacity:0;stroke:#8b0000;stroke-linejoin:miter;" x="179.814493" xlink:href="#m7d885fb36f" y="234.380103"/>
     <use style="fill-opacity:0;stroke:#8b0000;stroke-linejoin:miter;" x="184.040766" xlink:href="#m7d885fb36f" y="231.750658"/>
     <use style="fill-opacity:0;stroke:#8b0000;stroke-linejoin:miter;" x="188.267038" xlink:href="#m7d885fb36f" y="233.985731"/>
     <use style="fill-opacity:0;stroke:#8b0000;stroke-linejoin:miter;" x="192.49331" xlink:href="#m7d885fb36f" y="233.185803"/>
     <use style="fill-opacity:0;stroke:#8b0000;stroke-linejoin:miter;" x="196.719582" xlink:href="#m7d885fb36f" y="237.176757"/>
     <use style="fill-opacity:0;stroke:#8b0000;stroke-linejoin:miter;" x="200.945854" xlink:href="#m7d885fb36f" y="232.627863"/>
     <use style="fill-opacity:0;stroke:#8b0000;stroke-linejoin:miter;" x="205.172126" xlink:href="#m7d885fb36f" y="232.667799"/>
     <use style="fill-opacity:0;stroke:#8b0000;stroke-linejoin:miter;" x="209.398399" xlink:href="#m7d885fb36f" y="233.017098"/>
     <use style="fill-opacity:0;stroke:#8b0000;stroke-linejoin:miter;" x="213.624671" xlink:href="#m7d885fb36f" y="233.274112"/>
     <use style="fill-opacity:0;stroke:#8b0000;stroke-linejoin:miter;" x="217.850943" xlink:href="#m7d885fb36f" y="232.630377"/>
     <use style="fill-opacity:0;stroke:#8b0000;stroke-linejoin:miter;" x="222.077215" xlink:href="#m7d885fb36f" y="233.941307"/>
     <use style="fill-opacity:0;stroke:#8b0000;stroke-linejoin:miter;" x="226.303487" xlink:href="#m7d885fb36f" y="235.455619"/>
     <use style="fill-opacity:0;stroke:#8b0000;stroke-linejoin:miter;" x="230.52976" xlink:href="#m7d885fb36f" y="236.796584"/>
     <use style="fill-opacity:0;stroke:#8b0000;stroke-linejoin:miter;" x="234.756032" xlink:href="#m7d885fb36f" y="235.353139"/>
     <use style="fill-opacity:0;stroke:#8b0000;stroke-linejoin:miter;" x="238.982304" xlink:href="#m7d885fb36f" y="233.913184"/>
     <use style="fill-opacity:0;stroke:#8b0000;stroke-linejoin:miter;" x="243.208576" xlink:href="#m7d885fb36f" y="233.127237"/>
     <use style="fill-opacity:0;stroke:#8b0000;stroke-linejoin:miter;" x="247.434848" xlink:href="#m7d885fb36f" y="234.698309"/>
     <use style="fill-opacity:0;stroke:#8b0000;stroke-linejoin:miter;" x="251.661121" xlink:href="#m7d885fb36f" y="236.887556"/>
     <use style="fill-opacity:0;stroke:#8b0000;stroke-linejoin:miter;" x="255.887393" xlink:href="#m7d885fb36f" y="232.551687"/>
     <use style="fill-opacity:0;stroke:#8b0000;stroke-linejoin:miter;" x="260.113665" xlink:href="#m7d885fb36f" y="232.780329"/>
     <use style="fill-opacity:0;stroke:#8b0000;stroke-linejoin:miter;" x="264.339937" xlink:href="#m7d885fb36f" y="233.190844"/>
     <use style="fill-opacity:0;stroke:#8b0000;stroke-linejoin:miter;" x="268.566209" xlink:href="#m7d885fb36f" y="229.754607"/>
     <use style="fill-opacity:0;stroke:#8b0000;stroke-linejoin:miter;" x="272.792482" xlink:href="#m7d885fb36f" y="229.838488"/>
     <use style="fill-opacity:0;stroke:#8b0000;stroke-linejoin:miter;" x="277.018754" xlink:href="#m7d885fb36f" y="235.835519"/>
     <use style="fill-opacity:0;stroke:#8b0000;stroke-linejoin:miter;" x="281.245026" xlink:href="#m7d885fb36f" y="226.36789"/>
     <use style="fill-opacity:0;stroke:#8b0000;stroke-linejoin:miter;" x="285.471298" xlink:href="#m7d885fb36f" y="230.750662"/>
     <use style="fill-opacity:0;stroke:#8b0000;stroke-linejoin:miter;" x="289.69757" xlink:href="#m7d885fb36f" y="229.442694"/>
     <use style="fill-opacity:0;stroke:#8b0000;stroke-linejoin:miter;" x="293.923842" xlink:href="#m7d885fb36f" y="228.772013"/>
     <use style="fill-opacity:0;stroke:#8b0000;stroke-linejoin:miter;" x="298.150115" xlink:href="#m7d885fb36f" y="234.142254"/>
     <use style="fill-opacity:0;stroke:#8b0000;stroke-linejoin:miter;" x="302.376387" xlink:href="#m7d885fb36f" y="237.208176"/>
     <use style="fill-opacity:0;stroke:#8b0000;stroke-linejoin:miter;" x="306.602659" xlink:href="#m7d885fb36f" y="234.430365"/>
     <use style="fill-opacity:0;stroke:#8b0000;stroke-linejoin:miter;" x="310.828931" xlink:href="#m7d885fb36f" y="230.248423"/>
     <use style="fill-opacity:0;stroke:#8b0000;stroke-linejoin:miter;" x="315.055203" xlink:href="#m7d885fb36f" y="232.513905"/>
     <use style="fill-opacity:0;stroke:#8b0000;stroke-linejoin:miter;" x="319.281476" xlink:href="#m7d885fb36f" y="232.90038"/>
     <use style="fill-opacity:0;stroke:#8b0000;stroke-linejoin:miter;" x="323.507748" xlink:href="#m7d885fb36f" y="228.500224"/>
     <use style="fill-opacity:0;stroke:#8b0000;stroke-linejoin:miter;" x="327.73402" xlink:href="#m7d885fb36f" y="231.007959"/>
     <use style="fill-opacity:0;stroke:#8b0000;stroke-linejoin:miter;" x="331.960292" xlink:href="#m7d885fb36f" y="230.185299"/>
     <use style="fill-opacity:0;stroke:#8b0000;stroke-linejoin:miter;" x="336.186564" xlink:href="#m7d885fb36f" y="229.454845"/>
     <use style="fill-opacity:0;stroke:#8b0000;stroke-linejoin:miter;" x="340.412837" xlink:href="#m7d885fb36f" y="232.827755"/>
     <use style="fill-opacity:0;stroke:#8b0000;stroke-linejoin:miter;" x="344.639109" xlink:href="#m7d885fb36f" y="229.054291"/>
     <use style="fill-opacity:0;stroke:#8b0000;stroke-linejoin:miter;" x="348.865381" xlink:href="#m7d885fb36f" y="230.894457"/>
     <use style="fill-opacity:0;stroke:#8b0000;stroke-linejoin:miter;" x="353.091653" xlink:href="#m7d885fb36f" y="231.502154"/>
     <use style="fill-opacity:0;stroke:#8b0000;stroke-linejoin:miter;" x="357.317925" xlink:href="#m7d885fb36f" y="230.106057"/>
     <use style="fill-opacity:0;stroke:#8b0000;stroke-linejoin:miter;" x="361.544197" xlink:href="#m7d885fb36f" y="232.445454"/>
     <use style="fill-opacity:0;stroke:#8b0000;stroke-linejoin:miter;" x="365.77047" xlink:href="#m7d885fb36f" y="227.423317"/>
     <use style="fill-opacity:0;stroke:#8b0000;stroke-linejoin:miter;" x="369.996742" xlink:href="#m7d885fb36f" y="235.99037"/>
     <use style="fill-opacity:0;stroke:#8b0000;stroke-linejoin:miter;" x="374.223014" xlink:href="#m7d885fb36f" y="249.952984"/>
     <use style="fill-opacity:0;stroke:#8b0000;stroke-linejoin:miter;" x="378.449286" xlink:href="#m7d885fb36f" y="242.646051"/>
     <use style="fill-opacity:0;stroke:#8b0000;stroke-linejoin:miter;" x="382.675558" xlink:href="#m7d885fb36f" y="210.398295"/>
    </g>
   </g>
   <g id="patch_3">
    <path d="M 38.234375 266.112 
L 38.234375 0 
" style="fill:none;stroke:#000000;stroke-linecap:square;stroke-linejoin:miter;stroke-width:0.8;"/>
   </g>
   <g id="patch_4">
    <path d="M 395.354375 266.112 
L 395.354375 0 
" style="fill:none;stroke:#000000;stroke-linecap:square;stroke-linejoin:miter;stroke-width:0.8;"/>
   </g>
   <g id="patch_5">
    <path d="M 38.234375 266.112 
L 395.354375 266.112 
" style="fill:none;stroke:#000000;stroke-linecap:square;stroke-linejoin:miter;stroke-width:0.8;"/>
   </g>
   <g id="patch_6">
    <path d="M 38.234375 -0 
L 395.354375 -0 
" style="fill:none;stroke:#000000;stroke-linecap:square;stroke-linejoin:miter;stroke-width:0.8;"/>
   </g>
   <g id="legend_1">
    <g id="patch_7">
     <path d="M 173.543438 37.35625 
L 388.354375 37.35625 
Q 390.354375 37.35625 390.354375 35.35625 
L 390.354375 7 
Q 390.354375 5 388.354375 5 
L 173.543438 5 
Q 171.543438 5 171.543438 7 
L 171.543438 35.35625 
Q 171.543438 37.35625 173.543438 37.35625 
z
" style="fill:#ffffff;opacity:0.8;stroke:#cccccc;stroke-linejoin:miter;"/>
    </g>
    <g id="LineCollection_3">
     <path d="M 185.543438 18.098437 
L 185.543438 8.098437 
" style="fill:none;stroke:#808080;stroke-width:1.5;"/>
    </g>
    <g id="line2d_57"/>
    <g id="line2d_58">
     <g>
      <use style="fill-opacity:0;stroke:#000000;" x="185.543438" xlink:href="#m5ec8b7ea6a" y="13.098437"/>
     </g>
    </g>
    <g id="text_30">
     <!-- Wyniki nowego modelu -->
     <g transform="translate(203.543438 16.598437)scale(0.1 -0.1)">
      <defs>
       <path d="M 3.328125 72.90625 
L 13.28125 72.90625 
L 28.609375 11.28125 
L 43.890625 72.90625 
L 54.984375 72.90625 
L 70.3125 11.28125 
L 85.59375 72.90625 
L 95.609375 72.90625 
L 77.296875 0 
L 64.890625 0 
L 49.515625 63.28125 
L 33.984375 0 
L 21.578125 0 
z
" id="DejaVuSans-87"/>
       <path d="M 32.171875 -5.078125 
Q 28.375 -14.84375 24.75 -17.8125 
Q 21.140625 -20.796875 15.09375 -20.796875 
L 7.90625 -20.796875 
L 7.90625 -13.28125 
L 13.1875 -13.28125 
Q 16.890625 -13.28125 18.9375 -11.515625 
Q 21 -9.765625 23.484375 -3.21875 
L 25.09375 0.875 
L 2.984375 54.6875 
L 12.5 54.6875 
L 29.59375 11.921875 
L 46.6875 54.6875 
L 56.203125 54.6875 
z
" id="DejaVuSans-121"/>
      </defs>
      <use xlink:href="#DejaVuSans-87"/>
      <use x="97.126953" xlink:href="#DejaVuSans-121"/>
      <use x="156.306641" xlink:href="#DejaVuSans-110"/>
      <use x="219.685547" xlink:href="#DejaVuSans-105"/>
      <use x="247.46875" xlink:href="#DejaVuSans-107"/>
      <use x="305.378906" xlink:href="#DejaVuSans-105"/>
      <use x="333.162109" xlink:href="#DejaVuSans-32"/>
      <use x="364.949219" xlink:href="#DejaVuSans-110"/>
      <use x="428.328125" xlink:href="#DejaVuSans-111"/>
      <use x="489.509766" xlink:href="#DejaVuSans-119"/>
      <use x="571.296875" xlink:href="#DejaVuSans-101"/>
      <use x="632.820312" xlink:href="#DejaVuSans-103"/>
      <use x="696.296875" xlink:href="#DejaVuSans-111"/>
      <use x="757.478516" xlink:href="#DejaVuSans-32"/>
      <use x="789.265625" xlink:href="#DejaVuSans-109"/>
      <use x="886.677734" xlink:href="#DejaVuSans-111"/>
      <use x="947.859375" xlink:href="#DejaVuSans-100"/>
      <use x="1011.335938" xlink:href="#DejaVuSans-101"/>
      <use x="1072.859375" xlink:href="#DejaVuSans-108"/>
      <use x="1100.642578" xlink:href="#DejaVuSans-117"/>
     </g>
    </g>
    <g id="LineCollection_4">
     <path d="M 185.543438 32.776562 
L 185.543438 22.776562 
" style="fill:none;stroke:#808080;stroke-width:1.5;"/>
    </g>
    <g id="line2d_59"/>
    <g id="line2d_60">
     <g>
      <use style="fill-opacity:0;stroke:#8b0000;stroke-linejoin:miter;" x="185.543438" xlink:href="#m7d885fb36f" y="27.776562"/>
     </g>
    </g>
    <g id="text_31">
     <!-- Wyniki podstawowego modelu Boids -->
     <g transform="translate(203.543438 31.276562)scale(0.1 -0.1)">
      <defs>
       <path d="M 19.671875 34.8125 
L 19.671875 8.109375 
L 35.5 8.109375 
Q 43.453125 8.109375 47.28125 11.40625 
Q 51.125 14.703125 51.125 21.484375 
Q 51.125 28.328125 47.28125 31.5625 
Q 43.453125 34.8125 35.5 34.8125 
z
M 19.671875 64.796875 
L 19.671875 42.828125 
L 34.28125 42.828125 
Q 41.5 42.828125 45.03125 45.53125 
Q 48.578125 48.25 48.578125 53.8125 
Q 48.578125 59.328125 45.03125 62.0625 
Q 41.5 64.796875 34.28125 64.796875 
z
M 9.8125 72.90625 
L 35.015625 72.90625 
Q 46.296875 72.90625 52.390625 68.21875 
Q 58.5 63.53125 58.5 54.890625 
Q 58.5 48.1875 55.375 44.234375 
Q 52.25 40.28125 46.1875 39.3125 
Q 53.46875 37.75 57.5 32.78125 
Q 61.53125 27.828125 61.53125 20.40625 
Q 61.53125 10.640625 54.890625 5.3125 
Q 48.25 0 35.984375 0 
L 9.8125 0 
z
" id="DejaVuSans-66"/>
      </defs>
      <use xlink:href="#DejaVuSans-87"/>
      <use x="97.126953" xlink:href="#DejaVuSans-121"/>
      <use x="156.306641" xlink:href="#DejaVuSans-110"/>
      <use x="219.685547" xlink:href="#DejaVuSans-105"/>
      <use x="247.46875" xlink:href="#DejaVuSans-107"/>
      <use x="305.378906" xlink:href="#DejaVuSans-105"/>
      <use x="333.162109" xlink:href="#DejaVuSans-32"/>
      <use x="364.949219" xlink:href="#DejaVuSans-112"/>
      <use x="428.425781" xlink:href="#DejaVuSans-111"/>
      <use x="489.607422" xlink:href="#DejaVuSans-100"/>
      <use x="553.083984" xlink:href="#DejaVuSans-115"/>
      <use x="605.183594" xlink:href="#DejaVuSans-116"/>
      <use x="644.392578" xlink:href="#DejaVuSans-97"/>
      <use x="705.671875" xlink:href="#DejaVuSans-119"/>
      <use x="787.458984" xlink:href="#DejaVuSans-111"/>
      <use x="848.640625" xlink:href="#DejaVuSans-119"/>
      <use x="930.427734" xlink:href="#DejaVuSans-101"/>
      <use x="991.951172" xlink:href="#DejaVuSans-103"/>
      <use x="1055.427734" xlink:href="#DejaVuSans-111"/>
      <use x="1116.609375" xlink:href="#DejaVuSans-32"/>
      <use x="1148.396484" xlink:href="#DejaVuSans-109"/>
      <use x="1245.808594" xlink:href="#DejaVuSans-111"/>
      <use x="1306.990234" xlink:href="#DejaVuSans-100"/>
      <use x="1370.466797" xlink:href="#DejaVuSans-101"/>
      <use x="1431.990234" xlink:href="#DejaVuSans-108"/>
      <use x="1459.773438" xlink:href="#DejaVuSans-117"/>
      <use x="1523.152344" xlink:href="#DejaVuSans-32"/>
      <use x="1554.939453" xlink:href="#DejaVuSans-66"/>
      <use x="1623.542969" xlink:href="#DejaVuSans-111"/>
      <use x="1684.724609" xlink:href="#DejaVuSans-105"/>
      <use x="1712.507812" xlink:href="#DejaVuSans-100"/>
      <use x="1775.984375" xlink:href="#DejaVuSans-115"/>
     </g>
    </g>
   </g>
  </g>
 </g>
 <defs>
  <clipPath id="ped9facf038">
   <rect height="266.112" width="357.12" x="38.234375" y="-0"/>
  </clipPath>
 </defs>
</svg>
