<?xml version="1.0" encoding="utf-8" standalone="no"?>
<!DOCTYPE svg PUBLIC "-//W3C//DTD SVG 1.1//EN"
  "http://www.w3.org/Graphics/SVG/1.1/DTD/svg11.dtd">
<!-- Created with matplotlib (https://matplotlib.org/) -->
<svg height="962.64pt" version="1.1" viewBox="0 0 1843.2 962.64" width="1843.2pt" xmlns="http://www.w3.org/2000/svg" xmlns:xlink="http://www.w3.org/1999/xlink">
 <metadata>
  <rdf:RDF xmlns:cc="http://creativecommons.org/ns#" xmlns:dc="http://purl.org/dc/elements/1.1/" xmlns:rdf="http://www.w3.org/1999/02/22-rdf-syntax-ns#">
   <cc:Work>
    <dc:type rdf:resource="http://purl.org/dc/dcmitype/StillImage"/>
    <dc:date>2023-02-28T20:17:07.706605</dc:date>
    <dc:format>image/svg+xml</dc:format>
    <dc:creator>
     <cc:Agent>
      <dc:title>Matplotlib v3.3.4, https://matplotlib.org/</dc:title>
     </cc:Agent>
    </dc:creator>
   </cc:Work>
  </rdf:RDF>
 </metadata>
 <defs>
  <style type="text/css">*{stroke-linecap:butt;stroke-linejoin:round;}</style>
 </defs>
 <g id="figure_1">
  <g id="patch_1">
   <path d="M 0 962.64 
L 1843.2 962.64 
L 1843.2 0 
L 0 0 
z
" style="fill:#ffffff;"/>
  </g>
  <g id="axes_1">
   <g id="patch_2">
    <path d="M 230.4 856.7496 
L 1658.88 856.7496 
L 1658.88 115.5168 
L 230.4 115.5168 
z
" style="fill:#ffffff;"/>
   </g>
   <g id="matplotlib.axis_1">
    <g id="xtick_1">
     <g id="line2d_1">
      <path clip-path="url(#p4cf448bb0b)" d="M 1658.88 856.7496 
L 1658.88 115.5168 
" style="fill:none;stroke:#b0b0b0;stroke-linecap:square;stroke-width:0.8;"/>
     </g>
     <g id="line2d_2">
      <defs>
       <path d="M 0 0 
L 0 3.5 
" id="me849b4203d" style="stroke:#000000;stroke-width:0.8;"/>
      </defs>
      <g>
       <use style="stroke:#000000;stroke-width:0.8;" x="1658.88" xlink:href="#me849b4203d" y="856.7496"/>
      </g>
     </g>
     <g id="text_1">
      <!-- 0.0 -->
      <g transform="translate(1650.928438 871.348038)scale(0.1 -0.1)">
       <defs>
        <path d="M 31.78125 66.40625 
Q 24.171875 66.40625 20.328125 58.90625 
Q 16.5 51.421875 16.5 36.375 
Q 16.5 21.390625 20.328125 13.890625 
Q 24.171875 6.390625 31.78125 6.390625 
Q 39.453125 6.390625 43.28125 13.890625 
Q 47.125 21.390625 47.125 36.375 
Q 47.125 51.421875 43.28125 58.90625 
Q 39.453125 66.40625 31.78125 66.40625 
z
M 31.78125 74.21875 
Q 44.046875 74.21875 50.515625 64.515625 
Q 56.984375 54.828125 56.984375 36.375 
Q 56.984375 17.96875 50.515625 8.265625 
Q 44.046875 -1.421875 31.78125 -1.421875 
Q 19.53125 -1.421875 13.0625 8.265625 
Q 6.59375 17.96875 6.59375 36.375 
Q 6.59375 54.828125 13.0625 64.515625 
Q 19.53125 74.21875 31.78125 74.21875 
z
" id="DejaVuSans-48"/>
        <path d="M 10.6875 12.40625 
L 21 12.40625 
L 21 0 
L 10.6875 0 
z
" id="DejaVuSans-46"/>
       </defs>
       <use xlink:href="#DejaVuSans-48"/>
       <use x="63.623047" xlink:href="#DejaVuSans-46"/>
       <use x="95.410156" xlink:href="#DejaVuSans-48"/>
      </g>
     </g>
    </g>
    <g id="xtick_2">
     <g id="line2d_3">
      <path clip-path="url(#p4cf448bb0b)" d="M 1582.807101 856.7496 
L 1582.807101 115.5168 
" style="fill:none;stroke:#b0b0b0;stroke-linecap:square;stroke-width:0.8;"/>
     </g>
     <g id="line2d_4">
      <g>
       <use style="stroke:#000000;stroke-width:0.8;" x="1582.807101" xlink:href="#me849b4203d" y="856.7496"/>
      </g>
     </g>
     <g id="text_2">
      <!-- 0.1 -->
      <g transform="translate(1574.855538 871.348038)scale(0.1 -0.1)">
       <defs>
        <path d="M 12.40625 8.296875 
L 28.515625 8.296875 
L 28.515625 63.921875 
L 10.984375 60.40625 
L 10.984375 69.390625 
L 28.421875 72.90625 
L 38.28125 72.90625 
L 38.28125 8.296875 
L 54.390625 8.296875 
L 54.390625 0 
L 12.40625 0 
z
" id="DejaVuSans-49"/>
       </defs>
       <use xlink:href="#DejaVuSans-48"/>
       <use x="63.623047" xlink:href="#DejaVuSans-46"/>
       <use x="95.410156" xlink:href="#DejaVuSans-49"/>
      </g>
     </g>
    </g>
    <g id="xtick_3">
     <g id="line2d_5">
      <path clip-path="url(#p4cf448bb0b)" d="M 1506.734201 856.7496 
L 1506.734201 115.5168 
" style="fill:none;stroke:#b0b0b0;stroke-linecap:square;stroke-width:0.8;"/>
     </g>
     <g id="line2d_6">
      <g>
       <use style="stroke:#000000;stroke-width:0.8;" x="1506.734201" xlink:href="#me849b4203d" y="856.7496"/>
      </g>
     </g>
     <g id="text_3">
      <!-- 0.2 -->
      <g transform="translate(1498.782639 871.348038)scale(0.1 -0.1)">
       <defs>
        <path d="M 19.1875 8.296875 
L 53.609375 8.296875 
L 53.609375 0 
L 7.328125 0 
L 7.328125 8.296875 
Q 12.9375 14.109375 22.625 23.890625 
Q 32.328125 33.6875 34.8125 36.53125 
Q 39.546875 41.84375 41.421875 45.53125 
Q 43.3125 49.21875 43.3125 52.78125 
Q 43.3125 58.59375 39.234375 62.25 
Q 35.15625 65.921875 28.609375 65.921875 
Q 23.96875 65.921875 18.8125 64.3125 
Q 13.671875 62.703125 7.8125 59.421875 
L 7.8125 69.390625 
Q 13.765625 71.78125 18.9375 73 
Q 24.125 74.21875 28.421875 74.21875 
Q 39.75 74.21875 46.484375 68.546875 
Q 53.21875 62.890625 53.21875 53.421875 
Q 53.21875 48.921875 51.53125 44.890625 
Q 49.859375 40.875 45.40625 35.40625 
Q 44.1875 33.984375 37.640625 27.21875 
Q 31.109375 20.453125 19.1875 8.296875 
z
" id="DejaVuSans-50"/>
       </defs>
       <use xlink:href="#DejaVuSans-48"/>
       <use x="63.623047" xlink:href="#DejaVuSans-46"/>
       <use x="95.410156" xlink:href="#DejaVuSans-50"/>
      </g>
     </g>
    </g>
    <g id="xtick_4">
     <g id="line2d_7">
      <path clip-path="url(#p4cf448bb0b)" d="M 1430.661302 856.7496 
L 1430.661302 115.5168 
" style="fill:none;stroke:#b0b0b0;stroke-linecap:square;stroke-width:0.8;"/>
     </g>
     <g id="line2d_8">
      <g>
       <use style="stroke:#000000;stroke-width:0.8;" x="1430.661302" xlink:href="#me849b4203d" y="856.7496"/>
      </g>
     </g>
     <g id="text_4">
      <!-- 0.3 -->
      <g transform="translate(1422.709739 871.348038)scale(0.1 -0.1)">
       <defs>
        <path d="M 40.578125 39.3125 
Q 47.65625 37.796875 51.625 33 
Q 55.609375 28.21875 55.609375 21.1875 
Q 55.609375 10.40625 48.1875 4.484375 
Q 40.765625 -1.421875 27.09375 -1.421875 
Q 22.515625 -1.421875 17.65625 -0.515625 
Q 12.796875 0.390625 7.625 2.203125 
L 7.625 11.71875 
Q 11.71875 9.328125 16.59375 8.109375 
Q 21.484375 6.890625 26.8125 6.890625 
Q 36.078125 6.890625 40.9375 10.546875 
Q 45.796875 14.203125 45.796875 21.1875 
Q 45.796875 27.640625 41.28125 31.265625 
Q 36.765625 34.90625 28.71875 34.90625 
L 20.21875 34.90625 
L 20.21875 43.015625 
L 29.109375 43.015625 
Q 36.375 43.015625 40.234375 45.921875 
Q 44.09375 48.828125 44.09375 54.296875 
Q 44.09375 59.90625 40.109375 62.90625 
Q 36.140625 65.921875 28.71875 65.921875 
Q 24.65625 65.921875 20.015625 65.03125 
Q 15.375 64.15625 9.8125 62.3125 
L 9.8125 71.09375 
Q 15.4375 72.65625 20.34375 73.4375 
Q 25.25 74.21875 29.59375 74.21875 
Q 40.828125 74.21875 47.359375 69.109375 
Q 53.90625 64.015625 53.90625 55.328125 
Q 53.90625 49.265625 50.4375 45.09375 
Q 46.96875 40.921875 40.578125 39.3125 
z
" id="DejaVuSans-51"/>
       </defs>
       <use xlink:href="#DejaVuSans-48"/>
       <use x="63.623047" xlink:href="#DejaVuSans-46"/>
       <use x="95.410156" xlink:href="#DejaVuSans-51"/>
      </g>
     </g>
    </g>
    <g id="xtick_5">
     <g id="line2d_9">
      <path clip-path="url(#p4cf448bb0b)" d="M 1354.588402 856.7496 
L 1354.588402 115.5168 
" style="fill:none;stroke:#b0b0b0;stroke-linecap:square;stroke-width:0.8;"/>
     </g>
     <g id="line2d_10">
      <g>
       <use style="stroke:#000000;stroke-width:0.8;" x="1354.588402" xlink:href="#me849b4203d" y="856.7496"/>
      </g>
     </g>
     <g id="text_5">
      <!-- 0.4 -->
      <g transform="translate(1346.63684 871.348038)scale(0.1 -0.1)">
       <defs>
        <path d="M 37.796875 64.3125 
L 12.890625 25.390625 
L 37.796875 25.390625 
z
M 35.203125 72.90625 
L 47.609375 72.90625 
L 47.609375 25.390625 
L 58.015625 25.390625 
L 58.015625 17.1875 
L 47.609375 17.1875 
L 47.609375 0 
L 37.796875 0 
L 37.796875 17.1875 
L 4.890625 17.1875 
L 4.890625 26.703125 
z
" id="DejaVuSans-52"/>
       </defs>
       <use xlink:href="#DejaVuSans-48"/>
       <use x="63.623047" xlink:href="#DejaVuSans-46"/>
       <use x="95.410156" xlink:href="#DejaVuSans-52"/>
      </g>
     </g>
    </g>
    <g id="xtick_6">
     <g id="line2d_11">
      <path clip-path="url(#p4cf448bb0b)" d="M 1278.515503 856.7496 
L 1278.515503 115.5168 
" style="fill:none;stroke:#b0b0b0;stroke-linecap:square;stroke-width:0.8;"/>
     </g>
     <g id="line2d_12">
      <g>
       <use style="stroke:#000000;stroke-width:0.8;" x="1278.515503" xlink:href="#me849b4203d" y="856.7496"/>
      </g>
     </g>
     <g id="text_6">
      <!-- 0.5 -->
      <g transform="translate(1270.56394 871.348038)scale(0.1 -0.1)">
       <defs>
        <path d="M 10.796875 72.90625 
L 49.515625 72.90625 
L 49.515625 64.59375 
L 19.828125 64.59375 
L 19.828125 46.734375 
Q 21.96875 47.46875 24.109375 47.828125 
Q 26.265625 48.1875 28.421875 48.1875 
Q 40.625 48.1875 47.75 41.5 
Q 54.890625 34.8125 54.890625 23.390625 
Q 54.890625 11.625 47.5625 5.09375 
Q 40.234375 -1.421875 26.90625 -1.421875 
Q 22.3125 -1.421875 17.546875 -0.640625 
Q 12.796875 0.140625 7.71875 1.703125 
L 7.71875 11.625 
Q 12.109375 9.234375 16.796875 8.0625 
Q 21.484375 6.890625 26.703125 6.890625 
Q 35.15625 6.890625 40.078125 11.328125 
Q 45.015625 15.765625 45.015625 23.390625 
Q 45.015625 31 40.078125 35.4375 
Q 35.15625 39.890625 26.703125 39.890625 
Q 22.75 39.890625 18.8125 39.015625 
Q 14.890625 38.140625 10.796875 36.28125 
z
" id="DejaVuSans-53"/>
       </defs>
       <use xlink:href="#DejaVuSans-48"/>
       <use x="63.623047" xlink:href="#DejaVuSans-46"/>
       <use x="95.410156" xlink:href="#DejaVuSans-53"/>
      </g>
     </g>
    </g>
    <g id="xtick_7">
     <g id="line2d_13">
      <path clip-path="url(#p4cf448bb0b)" d="M 1202.442604 856.7496 
L 1202.442604 115.5168 
" style="fill:none;stroke:#b0b0b0;stroke-linecap:square;stroke-width:0.8;"/>
     </g>
     <g id="line2d_14">
      <g>
       <use style="stroke:#000000;stroke-width:0.8;" x="1202.442604" xlink:href="#me849b4203d" y="856.7496"/>
      </g>
     </g>
     <g id="text_7">
      <!-- 0.6 -->
      <g transform="translate(1194.491041 871.348038)scale(0.1 -0.1)">
       <defs>
        <path d="M 33.015625 40.375 
Q 26.375 40.375 22.484375 35.828125 
Q 18.609375 31.296875 18.609375 23.390625 
Q 18.609375 15.53125 22.484375 10.953125 
Q 26.375 6.390625 33.015625 6.390625 
Q 39.65625 6.390625 43.53125 10.953125 
Q 47.40625 15.53125 47.40625 23.390625 
Q 47.40625 31.296875 43.53125 35.828125 
Q 39.65625 40.375 33.015625 40.375 
z
M 52.59375 71.296875 
L 52.59375 62.3125 
Q 48.875 64.0625 45.09375 64.984375 
Q 41.3125 65.921875 37.59375 65.921875 
Q 27.828125 65.921875 22.671875 59.328125 
Q 17.53125 52.734375 16.796875 39.40625 
Q 19.671875 43.65625 24.015625 45.921875 
Q 28.375 48.1875 33.59375 48.1875 
Q 44.578125 48.1875 50.953125 41.515625 
Q 57.328125 34.859375 57.328125 23.390625 
Q 57.328125 12.15625 50.6875 5.359375 
Q 44.046875 -1.421875 33.015625 -1.421875 
Q 20.359375 -1.421875 13.671875 8.265625 
Q 6.984375 17.96875 6.984375 36.375 
Q 6.984375 53.65625 15.1875 63.9375 
Q 23.390625 74.21875 37.203125 74.21875 
Q 40.921875 74.21875 44.703125 73.484375 
Q 48.484375 72.75 52.59375 71.296875 
z
" id="DejaVuSans-54"/>
       </defs>
       <use xlink:href="#DejaVuSans-48"/>
       <use x="63.623047" xlink:href="#DejaVuSans-46"/>
       <use x="95.410156" xlink:href="#DejaVuSans-54"/>
      </g>
     </g>
    </g>
    <g id="xtick_8">
     <g id="line2d_15">
      <path clip-path="url(#p4cf448bb0b)" d="M 1126.369704 856.7496 
L 1126.369704 115.5168 
" style="fill:none;stroke:#b0b0b0;stroke-linecap:square;stroke-width:0.8;"/>
     </g>
     <g id="line2d_16">
      <g>
       <use style="stroke:#000000;stroke-width:0.8;" x="1126.369704" xlink:href="#me849b4203d" y="856.7496"/>
      </g>
     </g>
     <g id="text_8">
      <!-- 0.7 -->
      <g transform="translate(1118.418142 871.348038)scale(0.1 -0.1)">
       <defs>
        <path d="M 8.203125 72.90625 
L 55.078125 72.90625 
L 55.078125 68.703125 
L 28.609375 0 
L 18.3125 0 
L 43.21875 64.59375 
L 8.203125 64.59375 
z
" id="DejaVuSans-55"/>
       </defs>
       <use xlink:href="#DejaVuSans-48"/>
       <use x="63.623047" xlink:href="#DejaVuSans-46"/>
       <use x="95.410156" xlink:href="#DejaVuSans-55"/>
      </g>
     </g>
    </g>
    <g id="xtick_9">
     <g id="line2d_17">
      <path clip-path="url(#p4cf448bb0b)" d="M 1050.296805 856.7496 
L 1050.296805 115.5168 
" style="fill:none;stroke:#b0b0b0;stroke-linecap:square;stroke-width:0.8;"/>
     </g>
     <g id="line2d_18">
      <g>
       <use style="stroke:#000000;stroke-width:0.8;" x="1050.296805" xlink:href="#me849b4203d" y="856.7496"/>
      </g>
     </g>
     <g id="text_9">
      <!-- 0.8 -->
      <g transform="translate(1042.345242 871.348038)scale(0.1 -0.1)">
       <defs>
        <path d="M 31.78125 34.625 
Q 24.75 34.625 20.71875 30.859375 
Q 16.703125 27.09375 16.703125 20.515625 
Q 16.703125 13.921875 20.71875 10.15625 
Q 24.75 6.390625 31.78125 6.390625 
Q 38.8125 6.390625 42.859375 10.171875 
Q 46.921875 13.96875 46.921875 20.515625 
Q 46.921875 27.09375 42.890625 30.859375 
Q 38.875 34.625 31.78125 34.625 
z
M 21.921875 38.8125 
Q 15.578125 40.375 12.03125 44.71875 
Q 8.5 49.078125 8.5 55.328125 
Q 8.5 64.0625 14.71875 69.140625 
Q 20.953125 74.21875 31.78125 74.21875 
Q 42.671875 74.21875 48.875 69.140625 
Q 55.078125 64.0625 55.078125 55.328125 
Q 55.078125 49.078125 51.53125 44.71875 
Q 48 40.375 41.703125 38.8125 
Q 48.828125 37.15625 52.796875 32.3125 
Q 56.78125 27.484375 56.78125 20.515625 
Q 56.78125 9.90625 50.3125 4.234375 
Q 43.84375 -1.421875 31.78125 -1.421875 
Q 19.734375 -1.421875 13.25 4.234375 
Q 6.78125 9.90625 6.78125 20.515625 
Q 6.78125 27.484375 10.78125 32.3125 
Q 14.796875 37.15625 21.921875 38.8125 
z
M 18.3125 54.390625 
Q 18.3125 48.734375 21.84375 45.5625 
Q 25.390625 42.390625 31.78125 42.390625 
Q 38.140625 42.390625 41.71875 45.5625 
Q 45.3125 48.734375 45.3125 54.390625 
Q 45.3125 60.0625 41.71875 63.234375 
Q 38.140625 66.40625 31.78125 66.40625 
Q 25.390625 66.40625 21.84375 63.234375 
Q 18.3125 60.0625 18.3125 54.390625 
z
" id="DejaVuSans-56"/>
       </defs>
       <use xlink:href="#DejaVuSans-48"/>
       <use x="63.623047" xlink:href="#DejaVuSans-46"/>
       <use x="95.410156" xlink:href="#DejaVuSans-56"/>
      </g>
     </g>
    </g>
    <g id="xtick_10">
     <g id="line2d_19">
      <path clip-path="url(#p4cf448bb0b)" d="M 974.223905 856.7496 
L 974.223905 115.5168 
" style="fill:none;stroke:#b0b0b0;stroke-linecap:square;stroke-width:0.8;"/>
     </g>
     <g id="line2d_20">
      <g>
       <use style="stroke:#000000;stroke-width:0.8;" x="974.223905" xlink:href="#me849b4203d" y="856.7496"/>
      </g>
     </g>
     <g id="text_10">
      <!-- 0.9 -->
      <g transform="translate(966.272343 871.348038)scale(0.1 -0.1)">
       <defs>
        <path d="M 10.984375 1.515625 
L 10.984375 10.5 
Q 14.703125 8.734375 18.5 7.8125 
Q 22.3125 6.890625 25.984375 6.890625 
Q 35.75 6.890625 40.890625 13.453125 
Q 46.046875 20.015625 46.78125 33.40625 
Q 43.953125 29.203125 39.59375 26.953125 
Q 35.25 24.703125 29.984375 24.703125 
Q 19.046875 24.703125 12.671875 31.3125 
Q 6.296875 37.9375 6.296875 49.421875 
Q 6.296875 60.640625 12.9375 67.421875 
Q 19.578125 74.21875 30.609375 74.21875 
Q 43.265625 74.21875 49.921875 64.515625 
Q 56.59375 54.828125 56.59375 36.375 
Q 56.59375 19.140625 48.40625 8.859375 
Q 40.234375 -1.421875 26.421875 -1.421875 
Q 22.703125 -1.421875 18.890625 -0.6875 
Q 15.09375 0.046875 10.984375 1.515625 
z
M 30.609375 32.421875 
Q 37.25 32.421875 41.125 36.953125 
Q 45.015625 41.5 45.015625 49.421875 
Q 45.015625 57.28125 41.125 61.84375 
Q 37.25 66.40625 30.609375 66.40625 
Q 23.96875 66.40625 20.09375 61.84375 
Q 16.21875 57.28125 16.21875 49.421875 
Q 16.21875 41.5 20.09375 36.953125 
Q 23.96875 32.421875 30.609375 32.421875 
z
" id="DejaVuSans-57"/>
       </defs>
       <use xlink:href="#DejaVuSans-48"/>
       <use x="63.623047" xlink:href="#DejaVuSans-46"/>
       <use x="95.410156" xlink:href="#DejaVuSans-57"/>
      </g>
     </g>
    </g>
    <g id="xtick_11">
     <g id="line2d_21">
      <path clip-path="url(#p4cf448bb0b)" d="M 898.151006 856.7496 
L 898.151006 115.5168 
" style="fill:none;stroke:#b0b0b0;stroke-linecap:square;stroke-width:0.8;"/>
     </g>
     <g id="line2d_22">
      <g>
       <use style="stroke:#000000;stroke-width:0.8;" x="898.151006" xlink:href="#me849b4203d" y="856.7496"/>
      </g>
     </g>
     <g id="text_11">
      <!-- 1.0 -->
      <g transform="translate(890.199443 871.348038)scale(0.1 -0.1)">
       <use xlink:href="#DejaVuSans-49"/>
       <use x="63.623047" xlink:href="#DejaVuSans-46"/>
       <use x="95.410156" xlink:href="#DejaVuSans-48"/>
      </g>
     </g>
    </g>
    <g id="xtick_12">
     <g id="line2d_23">
      <path clip-path="url(#p4cf448bb0b)" d="M 822.078107 856.7496 
L 822.078107 115.5168 
" style="fill:none;stroke:#b0b0b0;stroke-linecap:square;stroke-width:0.8;"/>
     </g>
     <g id="line2d_24">
      <g>
       <use style="stroke:#000000;stroke-width:0.8;" x="822.078107" xlink:href="#me849b4203d" y="856.7496"/>
      </g>
     </g>
     <g id="text_12">
      <!-- 1.1 -->
      <g transform="translate(814.126544 871.348038)scale(0.1 -0.1)">
       <use xlink:href="#DejaVuSans-49"/>
       <use x="63.623047" xlink:href="#DejaVuSans-46"/>
       <use x="95.410156" xlink:href="#DejaVuSans-49"/>
      </g>
     </g>
    </g>
    <g id="xtick_13">
     <g id="line2d_25">
      <path clip-path="url(#p4cf448bb0b)" d="M 746.005207 856.7496 
L 746.005207 115.5168 
" style="fill:none;stroke:#b0b0b0;stroke-linecap:square;stroke-width:0.8;"/>
     </g>
     <g id="line2d_26">
      <g>
       <use style="stroke:#000000;stroke-width:0.8;" x="746.005207" xlink:href="#me849b4203d" y="856.7496"/>
      </g>
     </g>
     <g id="text_13">
      <!-- 1.2 -->
      <g transform="translate(738.053645 871.348038)scale(0.1 -0.1)">
       <use xlink:href="#DejaVuSans-49"/>
       <use x="63.623047" xlink:href="#DejaVuSans-46"/>
       <use x="95.410156" xlink:href="#DejaVuSans-50"/>
      </g>
     </g>
    </g>
    <g id="xtick_14">
     <g id="line2d_27">
      <path clip-path="url(#p4cf448bb0b)" d="M 669.932308 856.7496 
L 669.932308 115.5168 
" style="fill:none;stroke:#b0b0b0;stroke-linecap:square;stroke-width:0.8;"/>
     </g>
     <g id="line2d_28">
      <g>
       <use style="stroke:#000000;stroke-width:0.8;" x="669.932308" xlink:href="#me849b4203d" y="856.7496"/>
      </g>
     </g>
     <g id="text_14">
      <!-- 1.3 -->
      <g transform="translate(661.980745 871.348038)scale(0.1 -0.1)">
       <use xlink:href="#DejaVuSans-49"/>
       <use x="63.623047" xlink:href="#DejaVuSans-46"/>
       <use x="95.410156" xlink:href="#DejaVuSans-51"/>
      </g>
     </g>
    </g>
    <g id="xtick_15">
     <g id="line2d_29">
      <path clip-path="url(#p4cf448bb0b)" d="M 593.859408 856.7496 
L 593.859408 115.5168 
" style="fill:none;stroke:#b0b0b0;stroke-linecap:square;stroke-width:0.8;"/>
     </g>
     <g id="line2d_30">
      <g>
       <use style="stroke:#000000;stroke-width:0.8;" x="593.859408" xlink:href="#me849b4203d" y="856.7496"/>
      </g>
     </g>
     <g id="text_15">
      <!-- 1.4 -->
      <g transform="translate(585.907846 871.348038)scale(0.1 -0.1)">
       <use xlink:href="#DejaVuSans-49"/>
       <use x="63.623047" xlink:href="#DejaVuSans-46"/>
       <use x="95.410156" xlink:href="#DejaVuSans-52"/>
      </g>
     </g>
    </g>
    <g id="xtick_16">
     <g id="line2d_31">
      <path clip-path="url(#p4cf448bb0b)" d="M 517.786509 856.7496 
L 517.786509 115.5168 
" style="fill:none;stroke:#b0b0b0;stroke-linecap:square;stroke-width:0.8;"/>
     </g>
     <g id="line2d_32">
      <g>
       <use style="stroke:#000000;stroke-width:0.8;" x="517.786509" xlink:href="#me849b4203d" y="856.7496"/>
      </g>
     </g>
     <g id="text_16">
      <!-- 1.5 -->
      <g transform="translate(509.834946 871.348038)scale(0.1 -0.1)">
       <use xlink:href="#DejaVuSans-49"/>
       <use x="63.623047" xlink:href="#DejaVuSans-46"/>
       <use x="95.410156" xlink:href="#DejaVuSans-53"/>
      </g>
     </g>
    </g>
    <g id="xtick_17">
     <g id="line2d_33">
      <path clip-path="url(#p4cf448bb0b)" d="M 441.713609 856.7496 
L 441.713609 115.5168 
" style="fill:none;stroke:#b0b0b0;stroke-linecap:square;stroke-width:0.8;"/>
     </g>
     <g id="line2d_34">
      <g>
       <use style="stroke:#000000;stroke-width:0.8;" x="441.713609" xlink:href="#me849b4203d" y="856.7496"/>
      </g>
     </g>
     <g id="text_17">
      <!-- 1.6 -->
      <g transform="translate(433.762047 871.348038)scale(0.1 -0.1)">
       <use xlink:href="#DejaVuSans-49"/>
       <use x="63.623047" xlink:href="#DejaVuSans-46"/>
       <use x="95.410156" xlink:href="#DejaVuSans-54"/>
      </g>
     </g>
    </g>
    <g id="xtick_18">
     <g id="line2d_35">
      <path clip-path="url(#p4cf448bb0b)" d="M 365.64071 856.7496 
L 365.64071 115.5168 
" style="fill:none;stroke:#b0b0b0;stroke-linecap:square;stroke-width:0.8;"/>
     </g>
     <g id="line2d_36">
      <g>
       <use style="stroke:#000000;stroke-width:0.8;" x="365.64071" xlink:href="#me849b4203d" y="856.7496"/>
      </g>
     </g>
     <g id="text_18">
      <!-- 1.7 -->
      <g transform="translate(357.689148 871.348038)scale(0.1 -0.1)">
       <use xlink:href="#DejaVuSans-49"/>
       <use x="63.623047" xlink:href="#DejaVuSans-46"/>
       <use x="95.410156" xlink:href="#DejaVuSans-55"/>
      </g>
     </g>
    </g>
    <g id="xtick_19">
     <g id="line2d_37">
      <path clip-path="url(#p4cf448bb0b)" d="M 289.567811 856.7496 
L 289.567811 115.5168 
" style="fill:none;stroke:#b0b0b0;stroke-linecap:square;stroke-width:0.8;"/>
     </g>
     <g id="line2d_38">
      <g>
       <use style="stroke:#000000;stroke-width:0.8;" x="289.567811" xlink:href="#me849b4203d" y="856.7496"/>
      </g>
     </g>
     <g id="text_19">
      <!-- 1.8 -->
      <g transform="translate(281.616248 871.348038)scale(0.1 -0.1)">
       <use xlink:href="#DejaVuSans-49"/>
       <use x="63.623047" xlink:href="#DejaVuSans-46"/>
       <use x="95.410156" xlink:href="#DejaVuSans-56"/>
      </g>
     </g>
    </g>
    <g id="text_20">
     <!-- Odległość Drapieżnika od centrum stada -->
     <g transform="translate(842.886094 885.426163)scale(0.1 -0.1)">
      <defs>
       <path d="M 39.40625 66.21875 
Q 28.65625 66.21875 22.328125 58.203125 
Q 16.015625 50.203125 16.015625 36.375 
Q 16.015625 22.609375 22.328125 14.59375 
Q 28.65625 6.59375 39.40625 6.59375 
Q 50.140625 6.59375 56.421875 14.59375 
Q 62.703125 22.609375 62.703125 36.375 
Q 62.703125 50.203125 56.421875 58.203125 
Q 50.140625 66.21875 39.40625 66.21875 
z
M 39.40625 74.21875 
Q 54.734375 74.21875 63.90625 63.9375 
Q 73.09375 53.65625 73.09375 36.375 
Q 73.09375 19.140625 63.90625 8.859375 
Q 54.734375 -1.421875 39.40625 -1.421875 
Q 24.03125 -1.421875 14.8125 8.828125 
Q 5.609375 19.09375 5.609375 36.375 
Q 5.609375 53.65625 14.8125 63.9375 
Q 24.03125 74.21875 39.40625 74.21875 
z
" id="DejaVuSans-79"/>
       <path d="M 45.40625 46.390625 
L 45.40625 75.984375 
L 54.390625 75.984375 
L 54.390625 0 
L 45.40625 0 
L 45.40625 8.203125 
Q 42.578125 3.328125 38.25 0.953125 
Q 33.9375 -1.421875 27.875 -1.421875 
Q 17.96875 -1.421875 11.734375 6.484375 
Q 5.515625 14.40625 5.515625 27.296875 
Q 5.515625 40.1875 11.734375 48.09375 
Q 17.96875 56 27.875 56 
Q 33.9375 56 38.25 53.625 
Q 42.578125 51.265625 45.40625 46.390625 
z
M 14.796875 27.296875 
Q 14.796875 17.390625 18.875 11.75 
Q 22.953125 6.109375 30.078125 6.109375 
Q 37.203125 6.109375 41.296875 11.75 
Q 45.40625 17.390625 45.40625 27.296875 
Q 45.40625 37.203125 41.296875 42.84375 
Q 37.203125 48.484375 30.078125 48.484375 
Q 22.953125 48.484375 18.875 42.84375 
Q 14.796875 37.203125 14.796875 27.296875 
z
" id="DejaVuSans-100"/>
       <path d="M 9.421875 75.984375 
L 18.40625 75.984375 
L 18.40625 0 
L 9.421875 0 
z
" id="DejaVuSans-108"/>
       <path d="M 56.203125 29.59375 
L 56.203125 25.203125 
L 14.890625 25.203125 
Q 15.484375 15.921875 20.484375 11.0625 
Q 25.484375 6.203125 34.421875 6.203125 
Q 39.59375 6.203125 44.453125 7.46875 
Q 49.3125 8.734375 54.109375 11.28125 
L 54.109375 2.78125 
Q 49.265625 0.734375 44.1875 -0.34375 
Q 39.109375 -1.421875 33.890625 -1.421875 
Q 20.796875 -1.421875 13.15625 6.1875 
Q 5.515625 13.8125 5.515625 26.8125 
Q 5.515625 40.234375 12.765625 48.109375 
Q 20.015625 56 32.328125 56 
Q 43.359375 56 49.78125 48.890625 
Q 56.203125 41.796875 56.203125 29.59375 
z
M 47.21875 32.234375 
Q 47.125 39.59375 43.09375 43.984375 
Q 39.0625 48.390625 32.421875 48.390625 
Q 24.90625 48.390625 20.390625 44.140625 
Q 15.875 39.890625 15.1875 32.171875 
z
" id="DejaVuSans-101"/>
       <path d="M 45.40625 27.984375 
Q 45.40625 37.75 41.375 43.109375 
Q 37.359375 48.484375 30.078125 48.484375 
Q 22.859375 48.484375 18.828125 43.109375 
Q 14.796875 37.75 14.796875 27.984375 
Q 14.796875 18.265625 18.828125 12.890625 
Q 22.859375 7.515625 30.078125 7.515625 
Q 37.359375 7.515625 41.375 12.890625 
Q 45.40625 18.265625 45.40625 27.984375 
z
M 54.390625 6.78125 
Q 54.390625 -7.171875 48.1875 -13.984375 
Q 42 -20.796875 29.203125 -20.796875 
Q 24.46875 -20.796875 20.265625 -20.09375 
Q 16.0625 -19.390625 12.109375 -17.921875 
L 12.109375 -9.1875 
Q 16.0625 -11.328125 19.921875 -12.34375 
Q 23.78125 -13.375 27.78125 -13.375 
Q 36.625 -13.375 41.015625 -8.765625 
Q 45.40625 -4.15625 45.40625 5.171875 
L 45.40625 9.625 
Q 42.625 4.78125 38.28125 2.390625 
Q 33.9375 0 27.875 0 
Q 17.828125 0 11.671875 7.65625 
Q 5.515625 15.328125 5.515625 27.984375 
Q 5.515625 40.671875 11.671875 48.328125 
Q 17.828125 56 27.875 56 
Q 33.9375 56 38.28125 53.609375 
Q 42.625 51.21875 45.40625 46.390625 
L 45.40625 54.6875 
L 54.390625 54.6875 
z
" id="DejaVuSans-103"/>
       <path d="M 9.71875 75.984375 
L 18.703125 75.984375 
L 18.703125 46.578125 
L 24.8125 50.984375 
L 28.515625 45.796875 
L 18.703125 38.921875 
L 18.703125 0 
L 9.71875 0 
L 9.71875 32.515625 
L 3.71875 28.21875 
L 0.09375 33.40625 
L 9.71875 40.28125 
z
" id="DejaVuSans-322"/>
       <path d="M 30.609375 48.390625 
Q 23.390625 48.390625 19.1875 42.75 
Q 14.984375 37.109375 14.984375 27.296875 
Q 14.984375 17.484375 19.15625 11.84375 
Q 23.34375 6.203125 30.609375 6.203125 
Q 37.796875 6.203125 41.984375 11.859375 
Q 46.1875 17.53125 46.1875 27.296875 
Q 46.1875 37.015625 41.984375 42.703125 
Q 37.796875 48.390625 30.609375 48.390625 
z
M 30.609375 56 
Q 42.328125 56 49.015625 48.375 
Q 55.71875 40.765625 55.71875 27.296875 
Q 55.71875 13.875 49.015625 6.21875 
Q 42.328125 -1.421875 30.609375 -1.421875 
Q 18.84375 -1.421875 12.171875 6.21875 
Q 5.515625 13.875 5.515625 27.296875 
Q 5.515625 40.765625 12.171875 48.375 
Q 18.84375 56 30.609375 56 
z
" id="DejaVuSans-111"/>
       <path d="M 35.03125 79.984375 
L 44.75 79.984375 
L 28.84375 61.625 
L 21.359375 61.625 
z
M 44.28125 53.078125 
L 44.28125 44.578125 
Q 40.484375 46.53125 36.375 47.5 
Q 32.28125 48.484375 27.875 48.484375 
Q 21.1875 48.484375 17.84375 46.4375 
Q 14.5 44.390625 14.5 40.28125 
Q 14.5 37.15625 16.890625 35.375 
Q 19.28125 33.59375 26.515625 31.984375 
L 29.59375 31.296875 
Q 39.15625 29.25 43.1875 25.515625 
Q 47.21875 21.78125 47.21875 15.09375 
Q 47.21875 7.46875 41.1875 3.015625 
Q 35.15625 -1.421875 24.609375 -1.421875 
Q 20.21875 -1.421875 15.453125 -0.5625 
Q 10.6875 0.296875 5.421875 2 
L 5.421875 11.28125 
Q 10.40625 8.6875 15.234375 7.390625 
Q 20.0625 6.109375 24.8125 6.109375 
Q 31.15625 6.109375 34.5625 8.28125 
Q 37.984375 10.453125 37.984375 14.40625 
Q 37.984375 18.0625 35.515625 20.015625 
Q 33.0625 21.96875 24.703125 23.78125 
L 21.578125 24.515625 
Q 13.234375 26.265625 9.515625 29.90625 
Q 5.8125 33.546875 5.8125 39.890625 
Q 5.8125 47.609375 11.28125 51.796875 
Q 16.75 56 26.8125 56 
Q 31.78125 56 36.171875 55.265625 
Q 40.578125 54.546875 44.28125 53.078125 
z
" id="DejaVuSans-347"/>
       <path d="M 48.78125 52.59375 
L 48.78125 44.1875 
Q 44.96875 46.296875 41.140625 47.34375 
Q 37.3125 48.390625 33.40625 48.390625 
Q 24.65625 48.390625 19.8125 42.84375 
Q 14.984375 37.3125 14.984375 27.296875 
Q 14.984375 17.28125 19.8125 11.734375 
Q 24.65625 6.203125 33.40625 6.203125 
Q 37.3125 6.203125 41.140625 7.25 
Q 44.96875 8.296875 48.78125 10.40625 
L 48.78125 2.09375 
Q 45.015625 0.34375 40.984375 -0.53125 
Q 36.96875 -1.421875 32.421875 -1.421875 
Q 20.0625 -1.421875 12.78125 6.34375 
Q 5.515625 14.109375 5.515625 27.296875 
Q 5.515625 40.671875 12.859375 48.328125 
Q 20.21875 56 33.015625 56 
Q 37.15625 56 41.109375 55.140625 
Q 45.0625 54.296875 48.78125 52.59375 
z
M 38.53125 79.984375 
L 48.25 79.984375 
L 32.34375 61.625 
L 24.859375 61.625 
z
" id="DejaVuSans-263"/>
       <path id="DejaVuSans-32"/>
       <path d="M 19.671875 64.796875 
L 19.671875 8.109375 
L 31.59375 8.109375 
Q 46.6875 8.109375 53.6875 14.9375 
Q 60.6875 21.78125 60.6875 36.53125 
Q 60.6875 51.171875 53.6875 57.984375 
Q 46.6875 64.796875 31.59375 64.796875 
z
M 9.8125 72.90625 
L 30.078125 72.90625 
Q 51.265625 72.90625 61.171875 64.09375 
Q 71.09375 55.28125 71.09375 36.53125 
Q 71.09375 17.671875 61.125 8.828125 
Q 51.171875 0 30.078125 0 
L 9.8125 0 
z
" id="DejaVuSans-68"/>
       <path d="M 41.109375 46.296875 
Q 39.59375 47.171875 37.8125 47.578125 
Q 36.03125 48 33.890625 48 
Q 26.265625 48 22.1875 43.046875 
Q 18.109375 38.09375 18.109375 28.8125 
L 18.109375 0 
L 9.078125 0 
L 9.078125 54.6875 
L 18.109375 54.6875 
L 18.109375 46.1875 
Q 20.953125 51.171875 25.484375 53.578125 
Q 30.03125 56 36.53125 56 
Q 37.453125 56 38.578125 55.875 
Q 39.703125 55.765625 41.0625 55.515625 
z
" id="DejaVuSans-114"/>
       <path d="M 34.28125 27.484375 
Q 23.390625 27.484375 19.1875 25 
Q 14.984375 22.515625 14.984375 16.5 
Q 14.984375 11.71875 18.140625 8.90625 
Q 21.296875 6.109375 26.703125 6.109375 
Q 34.1875 6.109375 38.703125 11.40625 
Q 43.21875 16.703125 43.21875 25.484375 
L 43.21875 27.484375 
z
M 52.203125 31.203125 
L 52.203125 0 
L 43.21875 0 
L 43.21875 8.296875 
Q 40.140625 3.328125 35.546875 0.953125 
Q 30.953125 -1.421875 24.3125 -1.421875 
Q 15.921875 -1.421875 10.953125 3.296875 
Q 6 8.015625 6 15.921875 
Q 6 25.140625 12.171875 29.828125 
Q 18.359375 34.515625 30.609375 34.515625 
L 43.21875 34.515625 
L 43.21875 35.40625 
Q 43.21875 41.609375 39.140625 45 
Q 35.0625 48.390625 27.6875 48.390625 
Q 23 48.390625 18.546875 47.265625 
Q 14.109375 46.140625 10.015625 43.890625 
L 10.015625 52.203125 
Q 14.9375 54.109375 19.578125 55.046875 
Q 24.21875 56 28.609375 56 
Q 40.484375 56 46.34375 49.84375 
Q 52.203125 43.703125 52.203125 31.203125 
z
" id="DejaVuSans-97"/>
       <path d="M 18.109375 8.203125 
L 18.109375 -20.796875 
L 9.078125 -20.796875 
L 9.078125 54.6875 
L 18.109375 54.6875 
L 18.109375 46.390625 
Q 20.953125 51.265625 25.265625 53.625 
Q 29.59375 56 35.59375 56 
Q 45.5625 56 51.78125 48.09375 
Q 58.015625 40.1875 58.015625 27.296875 
Q 58.015625 14.40625 51.78125 6.484375 
Q 45.5625 -1.421875 35.59375 -1.421875 
Q 29.59375 -1.421875 25.265625 0.953125 
Q 20.953125 3.328125 18.109375 8.203125 
z
M 48.6875 27.296875 
Q 48.6875 37.203125 44.609375 42.84375 
Q 40.53125 48.484375 33.40625 48.484375 
Q 26.265625 48.484375 22.1875 42.84375 
Q 18.109375 37.203125 18.109375 27.296875 
Q 18.109375 17.390625 22.1875 11.75 
Q 26.265625 6.109375 33.40625 6.109375 
Q 40.53125 6.109375 44.609375 11.75 
Q 48.6875 17.390625 48.6875 27.296875 
z
" id="DejaVuSans-112"/>
       <path d="M 9.421875 54.6875 
L 18.40625 54.6875 
L 18.40625 0 
L 9.421875 0 
z
M 9.421875 75.984375 
L 18.40625 75.984375 
L 18.40625 64.59375 
L 9.421875 64.59375 
z
" id="DejaVuSans-105"/>
       <path d="M 21.53125 75.984375 
L 30.515625 75.984375 
L 30.515625 64.59375 
L 21.53125 64.59375 
z
M 26.125 56 
z
M 5.515625 54.6875 
L 48.1875 54.6875 
L 48.1875 46.484375 
L 14.40625 7.171875 
L 48.1875 7.171875 
L 48.1875 0 
L 4.296875 0 
L 4.296875 8.203125 
L 38.09375 47.515625 
L 5.515625 47.515625 
z
" id="DejaVuSans-380"/>
       <path d="M 54.890625 33.015625 
L 54.890625 0 
L 45.90625 0 
L 45.90625 32.71875 
Q 45.90625 40.484375 42.875 44.328125 
Q 39.84375 48.1875 33.796875 48.1875 
Q 26.515625 48.1875 22.3125 43.546875 
Q 18.109375 38.921875 18.109375 30.90625 
L 18.109375 0 
L 9.078125 0 
L 9.078125 54.6875 
L 18.109375 54.6875 
L 18.109375 46.1875 
Q 21.34375 51.125 25.703125 53.5625 
Q 30.078125 56 35.796875 56 
Q 45.21875 56 50.046875 50.171875 
Q 54.890625 44.34375 54.890625 33.015625 
z
" id="DejaVuSans-110"/>
       <path d="M 9.078125 75.984375 
L 18.109375 75.984375 
L 18.109375 31.109375 
L 44.921875 54.6875 
L 56.390625 54.6875 
L 27.390625 29.109375 
L 57.625 0 
L 45.90625 0 
L 18.109375 26.703125 
L 18.109375 0 
L 9.078125 0 
z
" id="DejaVuSans-107"/>
       <path d="M 48.78125 52.59375 
L 48.78125 44.1875 
Q 44.96875 46.296875 41.140625 47.34375 
Q 37.3125 48.390625 33.40625 48.390625 
Q 24.65625 48.390625 19.8125 42.84375 
Q 14.984375 37.3125 14.984375 27.296875 
Q 14.984375 17.28125 19.8125 11.734375 
Q 24.65625 6.203125 33.40625 6.203125 
Q 37.3125 6.203125 41.140625 7.25 
Q 44.96875 8.296875 48.78125 10.40625 
L 48.78125 2.09375 
Q 45.015625 0.34375 40.984375 -0.53125 
Q 36.96875 -1.421875 32.421875 -1.421875 
Q 20.0625 -1.421875 12.78125 6.34375 
Q 5.515625 14.109375 5.515625 27.296875 
Q 5.515625 40.671875 12.859375 48.328125 
Q 20.21875 56 33.015625 56 
Q 37.15625 56 41.109375 55.140625 
Q 45.0625 54.296875 48.78125 52.59375 
z
" id="DejaVuSans-99"/>
       <path d="M 18.3125 70.21875 
L 18.3125 54.6875 
L 36.8125 54.6875 
L 36.8125 47.703125 
L 18.3125 47.703125 
L 18.3125 18.015625 
Q 18.3125 11.328125 20.140625 9.421875 
Q 21.96875 7.515625 27.59375 7.515625 
L 36.8125 7.515625 
L 36.8125 0 
L 27.59375 0 
Q 17.1875 0 13.234375 3.875 
Q 9.28125 7.765625 9.28125 18.015625 
L 9.28125 47.703125 
L 2.6875 47.703125 
L 2.6875 54.6875 
L 9.28125 54.6875 
L 9.28125 70.21875 
z
" id="DejaVuSans-116"/>
       <path d="M 8.5 21.578125 
L 8.5 54.6875 
L 17.484375 54.6875 
L 17.484375 21.921875 
Q 17.484375 14.15625 20.5 10.265625 
Q 23.53125 6.390625 29.59375 6.390625 
Q 36.859375 6.390625 41.078125 11.03125 
Q 45.3125 15.671875 45.3125 23.6875 
L 45.3125 54.6875 
L 54.296875 54.6875 
L 54.296875 0 
L 45.3125 0 
L 45.3125 8.40625 
Q 42.046875 3.421875 37.71875 1 
Q 33.40625 -1.421875 27.6875 -1.421875 
Q 18.265625 -1.421875 13.375 4.4375 
Q 8.5 10.296875 8.5 21.578125 
z
M 31.109375 56 
z
" id="DejaVuSans-117"/>
       <path d="M 52 44.1875 
Q 55.375 50.25 60.0625 53.125 
Q 64.75 56 71.09375 56 
Q 79.640625 56 84.28125 50.015625 
Q 88.921875 44.046875 88.921875 33.015625 
L 88.921875 0 
L 79.890625 0 
L 79.890625 32.71875 
Q 79.890625 40.578125 77.09375 44.375 
Q 74.3125 48.1875 68.609375 48.1875 
Q 61.625 48.1875 57.5625 43.546875 
Q 53.515625 38.921875 53.515625 30.90625 
L 53.515625 0 
L 44.484375 0 
L 44.484375 32.71875 
Q 44.484375 40.625 41.703125 44.40625 
Q 38.921875 48.1875 33.109375 48.1875 
Q 26.21875 48.1875 22.15625 43.53125 
Q 18.109375 38.875 18.109375 30.90625 
L 18.109375 0 
L 9.078125 0 
L 9.078125 54.6875 
L 18.109375 54.6875 
L 18.109375 46.1875 
Q 21.1875 51.21875 25.484375 53.609375 
Q 29.78125 56 35.6875 56 
Q 41.65625 56 45.828125 52.96875 
Q 50 49.953125 52 44.1875 
z
" id="DejaVuSans-109"/>
       <path d="M 44.28125 53.078125 
L 44.28125 44.578125 
Q 40.484375 46.53125 36.375 47.5 
Q 32.28125 48.484375 27.875 48.484375 
Q 21.1875 48.484375 17.84375 46.4375 
Q 14.5 44.390625 14.5 40.28125 
Q 14.5 37.15625 16.890625 35.375 
Q 19.28125 33.59375 26.515625 31.984375 
L 29.59375 31.296875 
Q 39.15625 29.25 43.1875 25.515625 
Q 47.21875 21.78125 47.21875 15.09375 
Q 47.21875 7.46875 41.1875 3.015625 
Q 35.15625 -1.421875 24.609375 -1.421875 
Q 20.21875 -1.421875 15.453125 -0.5625 
Q 10.6875 0.296875 5.421875 2 
L 5.421875 11.28125 
Q 10.40625 8.6875 15.234375 7.390625 
Q 20.0625 6.109375 24.8125 6.109375 
Q 31.15625 6.109375 34.5625 8.28125 
Q 37.984375 10.453125 37.984375 14.40625 
Q 37.984375 18.0625 35.515625 20.015625 
Q 33.0625 21.96875 24.703125 23.78125 
L 21.578125 24.515625 
Q 13.234375 26.265625 9.515625 29.90625 
Q 5.8125 33.546875 5.8125 39.890625 
Q 5.8125 47.609375 11.28125 51.796875 
Q 16.75 56 26.8125 56 
Q 31.78125 56 36.171875 55.265625 
Q 40.578125 54.546875 44.28125 53.078125 
z
" id="DejaVuSans-115"/>
      </defs>
      <use xlink:href="#DejaVuSans-79"/>
      <use x="78.710938" xlink:href="#DejaVuSans-100"/>
      <use x="142.1875" xlink:href="#DejaVuSans-108"/>
      <use x="169.970703" xlink:href="#DejaVuSans-101"/>
      <use x="231.494141" xlink:href="#DejaVuSans-103"/>
      <use x="294.970703" xlink:href="#DejaVuSans-322"/>
      <use x="323.388672" xlink:href="#DejaVuSans-111"/>
      <use x="384.570312" xlink:href="#DejaVuSans-347"/>
      <use x="436.669922" xlink:href="#DejaVuSans-263"/>
      <use x="491.650391" xlink:href="#DejaVuSans-32"/>
      <use x="523.4375" xlink:href="#DejaVuSans-68"/>
      <use x="600.439453" xlink:href="#DejaVuSans-114"/>
      <use x="641.552734" xlink:href="#DejaVuSans-97"/>
      <use x="702.832031" xlink:href="#DejaVuSans-112"/>
      <use x="766.308594" xlink:href="#DejaVuSans-105"/>
      <use x="794.091797" xlink:href="#DejaVuSans-101"/>
      <use x="855.615234" xlink:href="#DejaVuSans-380"/>
      <use x="908.105469" xlink:href="#DejaVuSans-110"/>
      <use x="971.484375" xlink:href="#DejaVuSans-105"/>
      <use x="999.267578" xlink:href="#DejaVuSans-107"/>
      <use x="1055.427734" xlink:href="#DejaVuSans-97"/>
      <use x="1116.707031" xlink:href="#DejaVuSans-32"/>
      <use x="1148.494141" xlink:href="#DejaVuSans-111"/>
      <use x="1209.675781" xlink:href="#DejaVuSans-100"/>
      <use x="1273.152344" xlink:href="#DejaVuSans-32"/>
      <use x="1304.939453" xlink:href="#DejaVuSans-99"/>
      <use x="1359.919922" xlink:href="#DejaVuSans-101"/>
      <use x="1421.443359" xlink:href="#DejaVuSans-110"/>
      <use x="1484.822266" xlink:href="#DejaVuSans-116"/>
      <use x="1524.03125" xlink:href="#DejaVuSans-114"/>
      <use x="1565.144531" xlink:href="#DejaVuSans-117"/>
      <use x="1628.523438" xlink:href="#DejaVuSans-109"/>
      <use x="1725.935547" xlink:href="#DejaVuSans-32"/>
      <use x="1757.722656" xlink:href="#DejaVuSans-115"/>
      <use x="1809.822266" xlink:href="#DejaVuSans-116"/>
      <use x="1849.03125" xlink:href="#DejaVuSans-97"/>
      <use x="1910.310547" xlink:href="#DejaVuSans-100"/>
      <use x="1973.787109" xlink:href="#DejaVuSans-97"/>
     </g>
    </g>
   </g>
   <g id="matplotlib.axis_2">
    <g id="ytick_1">
     <g id="line2d_39">
      <path clip-path="url(#p4cf448bb0b)" d="M 230.4 811.740009 
L 1658.88 811.740009 
" style="fill:none;stroke:#b0b0b0;stroke-linecap:square;stroke-width:0.8;"/>
     </g>
     <g id="line2d_40">
      <defs>
       <path d="M 0 0 
L -3.5 0 
" id="ma0c150aa91" style="stroke:#000000;stroke-width:0.8;"/>
      </defs>
      <g>
       <use style="stroke:#000000;stroke-width:0.8;" x="230.4" xlink:href="#ma0c150aa91" y="811.740009"/>
      </g>
     </g>
     <g id="text_21">
      <!-- 1.0 -->
      <g transform="translate(207.496875 815.539228)scale(0.1 -0.1)">
       <use xlink:href="#DejaVuSans-49"/>
       <use x="63.623047" xlink:href="#DejaVuSans-46"/>
       <use x="95.410156" xlink:href="#DejaVuSans-48"/>
      </g>
     </g>
    </g>
    <g id="ytick_2">
     <g id="line2d_41">
      <path clip-path="url(#p4cf448bb0b)" d="M 230.4 723.311078 
L 1658.88 723.311078 
" style="fill:none;stroke:#b0b0b0;stroke-linecap:square;stroke-width:0.8;"/>
     </g>
     <g id="line2d_42">
      <g>
       <use style="stroke:#000000;stroke-width:0.8;" x="230.4" xlink:href="#ma0c150aa91" y="723.311078"/>
      </g>
     </g>
     <g id="text_22">
      <!-- 1.2 -->
      <g transform="translate(207.496875 727.110297)scale(0.1 -0.1)">
       <use xlink:href="#DejaVuSans-49"/>
       <use x="63.623047" xlink:href="#DejaVuSans-46"/>
       <use x="95.410156" xlink:href="#DejaVuSans-50"/>
      </g>
     </g>
    </g>
    <g id="ytick_3">
     <g id="line2d_43">
      <path clip-path="url(#p4cf448bb0b)" d="M 230.4 634.882147 
L 1658.88 634.882147 
" style="fill:none;stroke:#b0b0b0;stroke-linecap:square;stroke-width:0.8;"/>
     </g>
     <g id="line2d_44">
      <g>
       <use style="stroke:#000000;stroke-width:0.8;" x="230.4" xlink:href="#ma0c150aa91" y="634.882147"/>
      </g>
     </g>
     <g id="text_23">
      <!-- 1.4 -->
      <g transform="translate(207.496875 638.681366)scale(0.1 -0.1)">
       <use xlink:href="#DejaVuSans-49"/>
       <use x="63.623047" xlink:href="#DejaVuSans-46"/>
       <use x="95.410156" xlink:href="#DejaVuSans-52"/>
      </g>
     </g>
    </g>
    <g id="ytick_4">
     <g id="line2d_45">
      <path clip-path="url(#p4cf448bb0b)" d="M 230.4 546.453216 
L 1658.88 546.453216 
" style="fill:none;stroke:#b0b0b0;stroke-linecap:square;stroke-width:0.8;"/>
     </g>
     <g id="line2d_46">
      <g>
       <use style="stroke:#000000;stroke-width:0.8;" x="230.4" xlink:href="#ma0c150aa91" y="546.453216"/>
      </g>
     </g>
     <g id="text_24">
      <!-- 1.6 -->
      <g transform="translate(207.496875 550.252434)scale(0.1 -0.1)">
       <use xlink:href="#DejaVuSans-49"/>
       <use x="63.623047" xlink:href="#DejaVuSans-46"/>
       <use x="95.410156" xlink:href="#DejaVuSans-54"/>
      </g>
     </g>
    </g>
    <g id="ytick_5">
     <g id="line2d_47">
      <path clip-path="url(#p4cf448bb0b)" d="M 230.4 458.024285 
L 1658.88 458.024285 
" style="fill:none;stroke:#b0b0b0;stroke-linecap:square;stroke-width:0.8;"/>
     </g>
     <g id="line2d_48">
      <g>
       <use style="stroke:#000000;stroke-width:0.8;" x="230.4" xlink:href="#ma0c150aa91" y="458.024285"/>
      </g>
     </g>
     <g id="text_25">
      <!-- 1.8 -->
      <g transform="translate(207.496875 461.823503)scale(0.1 -0.1)">
       <use xlink:href="#DejaVuSans-49"/>
       <use x="63.623047" xlink:href="#DejaVuSans-46"/>
       <use x="95.410156" xlink:href="#DejaVuSans-56"/>
      </g>
     </g>
    </g>
    <g id="ytick_6">
     <g id="line2d_49">
      <path clip-path="url(#p4cf448bb0b)" d="M 230.4 369.595354 
L 1658.88 369.595354 
" style="fill:none;stroke:#b0b0b0;stroke-linecap:square;stroke-width:0.8;"/>
     </g>
     <g id="line2d_50">
      <g>
       <use style="stroke:#000000;stroke-width:0.8;" x="230.4" xlink:href="#ma0c150aa91" y="369.595354"/>
      </g>
     </g>
     <g id="text_26">
      <!-- 2.0 -->
      <g transform="translate(207.496875 373.394572)scale(0.1 -0.1)">
       <use xlink:href="#DejaVuSans-50"/>
       <use x="63.623047" xlink:href="#DejaVuSans-46"/>
       <use x="95.410156" xlink:href="#DejaVuSans-48"/>
      </g>
     </g>
    </g>
    <g id="ytick_7">
     <g id="line2d_51">
      <path clip-path="url(#p4cf448bb0b)" d="M 230.4 281.166423 
L 1658.88 281.166423 
" style="fill:none;stroke:#b0b0b0;stroke-linecap:square;stroke-width:0.8;"/>
     </g>
     <g id="line2d_52">
      <g>
       <use style="stroke:#000000;stroke-width:0.8;" x="230.4" xlink:href="#ma0c150aa91" y="281.166423"/>
      </g>
     </g>
     <g id="text_27">
      <!-- 2.2 -->
      <g transform="translate(207.496875 284.965641)scale(0.1 -0.1)">
       <use xlink:href="#DejaVuSans-50"/>
       <use x="63.623047" xlink:href="#DejaVuSans-46"/>
       <use x="95.410156" xlink:href="#DejaVuSans-50"/>
      </g>
     </g>
    </g>
    <g id="ytick_8">
     <g id="line2d_53">
      <path clip-path="url(#p4cf448bb0b)" d="M 230.4 192.737492 
L 1658.88 192.737492 
" style="fill:none;stroke:#b0b0b0;stroke-linecap:square;stroke-width:0.8;"/>
     </g>
     <g id="line2d_54">
      <g>
       <use style="stroke:#000000;stroke-width:0.8;" x="230.4" xlink:href="#ma0c150aa91" y="192.737492"/>
      </g>
     </g>
     <g id="text_28">
      <!-- 2.4 -->
      <g transform="translate(207.496875 196.53671)scale(0.1 -0.1)">
       <use xlink:href="#DejaVuSans-50"/>
       <use x="63.623047" xlink:href="#DejaVuSans-46"/>
       <use x="95.410156" xlink:href="#DejaVuSans-52"/>
      </g>
     </g>
    </g>
    <g id="text_29">
     <!-- Średnia odległość owiec od centrum stada -->
     <g transform="translate(201.417188 592.28945)rotate(-90)scale(0.1 -0.1)">
      <defs>
       <path d="M 34.9375 92.515625 
L 43.96875 92.515625 
L 32.84375 79.625 
L 25.359375 79.625 
z
M 53.515625 70.515625 
L 53.515625 60.890625 
Q 47.90625 63.578125 42.921875 64.890625 
Q 37.9375 66.21875 33.296875 66.21875 
Q 25.25 66.21875 20.875 63.09375 
Q 16.5 59.96875 16.5 54.203125 
Q 16.5 49.359375 19.40625 46.890625 
Q 22.3125 44.4375 30.421875 42.921875 
L 36.375 41.703125 
Q 47.40625 39.59375 52.65625 34.296875 
Q 57.90625 29 57.90625 20.125 
Q 57.90625 9.515625 50.796875 4.046875 
Q 43.703125 -1.421875 29.984375 -1.421875 
Q 24.8125 -1.421875 18.96875 -0.25 
Q 13.140625 0.921875 6.890625 3.21875 
L 6.890625 13.375 
Q 12.890625 10.015625 18.65625 8.296875 
Q 24.421875 6.59375 29.984375 6.59375 
Q 38.421875 6.59375 43.015625 9.90625 
Q 47.609375 13.234375 47.609375 19.390625 
Q 47.609375 24.75 44.3125 27.78125 
Q 41.015625 30.8125 33.5 32.328125 
L 27.484375 33.5 
Q 16.453125 35.6875 11.515625 40.375 
Q 6.59375 45.0625 6.59375 53.421875 
Q 6.59375 63.09375 13.40625 68.65625 
Q 20.21875 74.21875 32.171875 74.21875 
Q 37.3125 74.21875 42.625 73.28125 
Q 47.953125 72.359375 53.515625 70.515625 
z
" id="DejaVuSans-346"/>
       <path d="M 4.203125 54.6875 
L 13.1875 54.6875 
L 24.421875 12.015625 
L 35.59375 54.6875 
L 46.1875 54.6875 
L 57.421875 12.015625 
L 68.609375 54.6875 
L 77.59375 54.6875 
L 63.28125 0 
L 52.6875 0 
L 40.921875 44.828125 
L 29.109375 0 
L 18.5 0 
z
" id="DejaVuSans-119"/>
      </defs>
      <use xlink:href="#DejaVuSans-346"/>
      <use x="63.476562" xlink:href="#DejaVuSans-114"/>
      <use x="102.339844" xlink:href="#DejaVuSans-101"/>
      <use x="163.863281" xlink:href="#DejaVuSans-100"/>
      <use x="227.339844" xlink:href="#DejaVuSans-110"/>
      <use x="290.71875" xlink:href="#DejaVuSans-105"/>
      <use x="318.501953" xlink:href="#DejaVuSans-97"/>
      <use x="379.78125" xlink:href="#DejaVuSans-32"/>
      <use x="411.568359" xlink:href="#DejaVuSans-111"/>
      <use x="472.75" xlink:href="#DejaVuSans-100"/>
      <use x="536.226562" xlink:href="#DejaVuSans-108"/>
      <use x="564.009766" xlink:href="#DejaVuSans-101"/>
      <use x="625.533203" xlink:href="#DejaVuSans-103"/>
      <use x="689.009766" xlink:href="#DejaVuSans-322"/>
      <use x="717.427734" xlink:href="#DejaVuSans-111"/>
      <use x="778.609375" xlink:href="#DejaVuSans-347"/>
      <use x="830.708984" xlink:href="#DejaVuSans-263"/>
      <use x="885.689453" xlink:href="#DejaVuSans-32"/>
      <use x="917.476562" xlink:href="#DejaVuSans-111"/>
      <use x="978.658203" xlink:href="#DejaVuSans-119"/>
      <use x="1060.445312" xlink:href="#DejaVuSans-105"/>
      <use x="1088.228516" xlink:href="#DejaVuSans-101"/>
      <use x="1149.751953" xlink:href="#DejaVuSans-99"/>
      <use x="1204.732422" xlink:href="#DejaVuSans-32"/>
      <use x="1236.519531" xlink:href="#DejaVuSans-111"/>
      <use x="1297.701172" xlink:href="#DejaVuSans-100"/>
      <use x="1361.177734" xlink:href="#DejaVuSans-32"/>
      <use x="1392.964844" xlink:href="#DejaVuSans-99"/>
      <use x="1447.945312" xlink:href="#DejaVuSans-101"/>
      <use x="1509.46875" xlink:href="#DejaVuSans-110"/>
      <use x="1572.847656" xlink:href="#DejaVuSans-116"/>
      <use x="1612.056641" xlink:href="#DejaVuSans-114"/>
      <use x="1653.169922" xlink:href="#DejaVuSans-117"/>
      <use x="1716.548828" xlink:href="#DejaVuSans-109"/>
      <use x="1813.960938" xlink:href="#DejaVuSans-32"/>
      <use x="1845.748047" xlink:href="#DejaVuSans-115"/>
      <use x="1897.847656" xlink:href="#DejaVuSans-116"/>
      <use x="1937.056641" xlink:href="#DejaVuSans-97"/>
      <use x="1998.335938" xlink:href="#DejaVuSans-100"/>
      <use x="2061.8125" xlink:href="#DejaVuSans-97"/>
     </g>
    </g>
   </g>
   <g id="LineCollection_1">
    <path clip-path="url(#p4cf448bb0b)" d="M 306.472899 254.931852 
L 306.472899 150.482964 
" style="fill:none;stroke:#808080;stroke-width:1.5;"/>
    <path clip-path="url(#p4cf448bb0b)" d="M 323.377988 282.231558 
L 323.377988 181.973172 
" style="fill:none;stroke:#808080;stroke-width:1.5;"/>
    <path clip-path="url(#p4cf448bb0b)" d="M 340.283077 296.41857 
L 340.283077 196.884421 
" style="fill:none;stroke:#808080;stroke-width:1.5;"/>
    <path clip-path="url(#p4cf448bb0b)" d="M 357.188166 263.586115 
L 357.188166 163.594161 
" style="fill:none;stroke:#808080;stroke-width:1.5;"/>
    <path clip-path="url(#p4cf448bb0b)" d="M 374.093254 247.353877 
L 374.093254 149.2092 
" style="fill:none;stroke:#808080;stroke-width:1.5;"/>
    <path clip-path="url(#p4cf448bb0b)" d="M 390.998343 285.018356 
L 390.998343 188.302506 
" style="fill:none;stroke:#808080;stroke-width:1.5;"/>
    <path clip-path="url(#p4cf448bb0b)" d="M 407.903432 271.745269 
L 407.903432 182.023231 
" style="fill:none;stroke:#808080;stroke-width:1.5;"/>
    <path clip-path="url(#p4cf448bb0b)" d="M 424.808521 291.695071 
L 424.808521 200.482234 
" style="fill:none;stroke:#808080;stroke-width:1.5;"/>
    <path clip-path="url(#p4cf448bb0b)" d="M 441.713609 302.085566 
L 441.713609 207.999428 
" style="fill:none;stroke:#808080;stroke-width:1.5;"/>
    <path clip-path="url(#p4cf448bb0b)" d="M 458.618698 298.019514 
L 458.618698 205.564865 
" style="fill:none;stroke:#808080;stroke-width:1.5;"/>
    <path clip-path="url(#p4cf448bb0b)" d="M 475.523787 338.173365 
L 475.523787 251.90229 
" style="fill:none;stroke:#808080;stroke-width:1.5;"/>
    <path clip-path="url(#p4cf448bb0b)" d="M 492.428876 317.728692 
L 492.428876 227.228179 
" style="fill:none;stroke:#808080;stroke-width:1.5;"/>
    <path clip-path="url(#p4cf448bb0b)" d="M 509.333964 325.332935 
L 509.333964 234.245155 
" style="fill:none;stroke:#808080;stroke-width:1.5;"/>
    <path clip-path="url(#p4cf448bb0b)" d="M 526.239053 311.641626 
L 526.239053 225.025182 
" style="fill:none;stroke:#808080;stroke-width:1.5;"/>
    <path clip-path="url(#p4cf448bb0b)" d="M 543.144142 306.709428 
L 543.144142 215.346424 
" style="fill:none;stroke:#808080;stroke-width:1.5;"/>
    <path clip-path="url(#p4cf448bb0b)" d="M 560.049231 330.459579 
L 560.049231 243.148371 
" style="fill:none;stroke:#808080;stroke-width:1.5;"/>
    <path clip-path="url(#p4cf448bb0b)" d="M 576.95432 328.51476 
L 576.95432 236.392857 
" style="fill:none;stroke:#808080;stroke-width:1.5;"/>
    <path clip-path="url(#p4cf448bb0b)" d="M 593.859408 334.231899 
L 593.859408 244.88036 
" style="fill:none;stroke:#808080;stroke-width:1.5;"/>
    <path clip-path="url(#p4cf448bb0b)" d="M 610.764497 367.101173 
L 610.764497 277.756259 
" style="fill:none;stroke:#808080;stroke-width:1.5;"/>
    <path clip-path="url(#p4cf448bb0b)" d="M 627.669586 330.28372 
L 627.669586 237.495188 
" style="fill:none;stroke:#808080;stroke-width:1.5;"/>
    <path clip-path="url(#p4cf448bb0b)" d="M 644.574675 292.528912 
L 644.574675 208.008998 
" style="fill:none;stroke:#808080;stroke-width:1.5;"/>
    <path clip-path="url(#p4cf448bb0b)" d="M 661.479763 345.91318 
L 661.479763 255.769366 
" style="fill:none;stroke:#808080;stroke-width:1.5;"/>
    <path clip-path="url(#p4cf448bb0b)" d="M 678.384852 333.900692 
L 678.384852 247.098906 
" style="fill:none;stroke:#808080;stroke-width:1.5;"/>
    <path clip-path="url(#p4cf448bb0b)" d="M 695.289941 316.97433 
L 695.289941 226.557285 
" style="fill:none;stroke:#808080;stroke-width:1.5;"/>
    <path clip-path="url(#p4cf448bb0b)" d="M 712.19503 380.016698 
L 712.19503 296.208238 
" style="fill:none;stroke:#808080;stroke-width:1.5;"/>
    <path clip-path="url(#p4cf448bb0b)" d="M 729.100118 382.942865 
L 729.100118 301.058147 
" style="fill:none;stroke:#808080;stroke-width:1.5;"/>
    <path clip-path="url(#p4cf448bb0b)" d="M 746.005207 300.321726 
L 746.005207 210.891098 
" style="fill:none;stroke:#808080;stroke-width:1.5;"/>
    <path clip-path="url(#p4cf448bb0b)" d="M 762.910296 328.745873 
L 762.910296 244.482033 
" style="fill:none;stroke:#808080;stroke-width:1.5;"/>
    <path clip-path="url(#p4cf448bb0b)" d="M 779.815385 347.185704 
L 779.815385 266.559072 
" style="fill:none;stroke:#808080;stroke-width:1.5;"/>
    <path clip-path="url(#p4cf448bb0b)" d="M 796.720473 416.322409 
L 796.720473 335.008409 
" style="fill:none;stroke:#808080;stroke-width:1.5;"/>
    <path clip-path="url(#p4cf448bb0b)" d="M 813.625562 401.589341 
L 813.625562 327.254628 
" style="fill:none;stroke:#808080;stroke-width:1.5;"/>
    <path clip-path="url(#p4cf448bb0b)" d="M 830.530651 441.286794 
L 830.530651 374.568427 
" style="fill:none;stroke:#808080;stroke-width:1.5;"/>
    <path clip-path="url(#p4cf448bb0b)" d="M 847.43574 383.508679 
L 847.43574 317.461975 
" style="fill:none;stroke:#808080;stroke-width:1.5;"/>
    <path clip-path="url(#p4cf448bb0b)" d="M 864.340828 393.698683 
L 864.340828 332.056861 
" style="fill:none;stroke:#808080;stroke-width:1.5;"/>
    <path clip-path="url(#p4cf448bb0b)" d="M 881.245917 385.382886 
L 881.245917 323.691824 
" style="fill:none;stroke:#808080;stroke-width:1.5;"/>
    <path clip-path="url(#p4cf448bb0b)" d="M 898.151006 352.765582 
L 898.151006 293.171117 
" style="fill:none;stroke:#808080;stroke-width:1.5;"/>
    <path clip-path="url(#p4cf448bb0b)" d="M 915.056095 382.143075 
L 915.056095 323.943919 
" style="fill:none;stroke:#808080;stroke-width:1.5;"/>
    <path clip-path="url(#p4cf448bb0b)" d="M 931.961183 380.028145 
L 931.961183 312.320402 
" style="fill:none;stroke:#808080;stroke-width:1.5;"/>
    <path clip-path="url(#p4cf448bb0b)" d="M 948.866272 407.932972 
L 948.866272 348.351251 
" style="fill:none;stroke:#808080;stroke-width:1.5;"/>
    <path clip-path="url(#p4cf448bb0b)" d="M 965.771361 373.010053 
L 965.771361 320.651568 
" style="fill:none;stroke:#808080;stroke-width:1.5;"/>
    <path clip-path="url(#p4cf448bb0b)" d="M 982.67645 525.800857 
L 982.67645 478.756027 
" style="fill:none;stroke:#808080;stroke-width:1.5;"/>
    <path clip-path="url(#p4cf448bb0b)" d="M 999.581538 444.353563 
L 999.581538 400.681003 
" style="fill:none;stroke:#808080;stroke-width:1.5;"/>
    <path clip-path="url(#p4cf448bb0b)" d="M 1016.486627 593.370796 
L 1016.486627 561.22539 
" style="fill:none;stroke:#808080;stroke-width:1.5;"/>
    <path clip-path="url(#p4cf448bb0b)" d="M 1033.391716 640.855812 
L 1033.391716 605.250216 
" style="fill:none;stroke:#808080;stroke-width:1.5;"/>
    <path clip-path="url(#p4cf448bb0b)" d="M 1050.296805 631.586401 
L 1050.296805 600.561997 
" style="fill:none;stroke:#808080;stroke-width:1.5;"/>
    <path clip-path="url(#p4cf448bb0b)" d="M 1067.201893 617.793019 
L 1067.201893 590.303409 
" style="fill:none;stroke:#808080;stroke-width:1.5;"/>
    <path clip-path="url(#p4cf448bb0b)" d="M 1084.106982 621.661177 
L 1084.106982 588.464222 
" style="fill:none;stroke:#808080;stroke-width:1.5;"/>
    <path clip-path="url(#p4cf448bb0b)" d="M 1101.012071 665.039134 
L 1101.012071 629.082438 
" style="fill:none;stroke:#808080;stroke-width:1.5;"/>
    <path clip-path="url(#p4cf448bb0b)" d="M 1117.91716 668.418731 
L 1117.91716 629.147292 
" style="fill:none;stroke:#808080;stroke-width:1.5;"/>
    <path clip-path="url(#p4cf448bb0b)" d="M 1134.822249 727.15651 
L 1134.822249 692.690624 
" style="fill:none;stroke:#808080;stroke-width:1.5;"/>
    <path clip-path="url(#p4cf448bb0b)" d="M 1151.727337 762.521159 
L 1151.727337 732.303404 
" style="fill:none;stroke:#808080;stroke-width:1.5;"/>
    <path clip-path="url(#p4cf448bb0b)" d="M 1168.632426 823.0572 
L 1168.632426 800.422818 
" style="fill:none;stroke:#808080;stroke-width:1.5;"/>
    <path clip-path="url(#p4cf448bb0b)" d="M 1185.537515 782.070835 
L 1185.537515 748.300214 
" style="fill:none;stroke:#808080;stroke-width:1.5;"/>
    <path clip-path="url(#p4cf448bb0b)" d="M 1202.442604 764.090999 
L 1202.442604 713.053219 
" style="fill:none;stroke:#808080;stroke-width:1.5;"/>
    <path clip-path="url(#p4cf448bb0b)" d="M 1219.347692 797.731433 
L 1219.347692 759.737905 
" style="fill:none;stroke:#808080;stroke-width:1.5;"/>
    <path clip-path="url(#p4cf448bb0b)" d="M 1236.252781 821.441966 
L 1236.252781 789.567333 
" style="fill:none;stroke:#808080;stroke-width:1.5;"/>
    <path clip-path="url(#p4cf448bb0b)" d="M 1253.15787 750.895887 
L 1253.15787 711.596 
" style="fill:none;stroke:#808080;stroke-width:1.5;"/>
    <path clip-path="url(#p4cf448bb0b)" d="M 1270.062959 768.633822 
L 1270.062959 732.528187 
" style="fill:none;stroke:#808080;stroke-width:1.5;"/>
    <path clip-path="url(#p4cf448bb0b)" d="M 1286.968047 724.510332 
L 1286.968047 685.164053 
" style="fill:none;stroke:#808080;stroke-width:1.5;"/>
    <path clip-path="url(#p4cf448bb0b)" d="M 1303.873136 787.747451 
L 1303.873136 764.922244 
" style="fill:none;stroke:#808080;stroke-width:1.5;"/>
    <path clip-path="url(#p4cf448bb0b)" d="M 1320.778225 763.542893 
L 1320.778225 740.934008 
" style="fill:none;stroke:#808080;stroke-width:1.5;"/>
    <path clip-path="url(#p4cf448bb0b)" d="M 1337.683314 723.895001 
L 1337.683314 696.100499 
" style="fill:none;stroke:#808080;stroke-width:1.5;"/>
    <path clip-path="url(#p4cf448bb0b)" d="M 1354.588402 712.652499 
L 1354.588402 687.363171 
" style="fill:none;stroke:#808080;stroke-width:1.5;"/>
    <path clip-path="url(#p4cf448bb0b)" d="M 1371.493491 742.431334 
L 1371.493491 705.627724 
" style="fill:none;stroke:#808080;stroke-width:1.5;"/>
    <path clip-path="url(#p4cf448bb0b)" d="M 1388.39858 688.63709 
L 1388.39858 645.72326 
" style="fill:none;stroke:#808080;stroke-width:1.5;"/>
    <path clip-path="url(#p4cf448bb0b)" d="M 1405.303669 717.283781 
L 1405.303669 676.442199 
" style="fill:none;stroke:#808080;stroke-width:1.5;"/>
    <path clip-path="url(#p4cf448bb0b)" d="M 1422.208757 703.310741 
L 1422.208757 663.788063 
" style="fill:none;stroke:#808080;stroke-width:1.5;"/>
    <path clip-path="url(#p4cf448bb0b)" d="M 1439.113846 727.500992 
L 1439.113846 689.84444 
" style="fill:none;stroke:#808080;stroke-width:1.5;"/>
    <path clip-path="url(#p4cf448bb0b)" d="M 1456.018935 731.18406 
L 1456.018935 689.934595 
" style="fill:none;stroke:#808080;stroke-width:1.5;"/>
    <path clip-path="url(#p4cf448bb0b)" d="M 1472.924024 704.888783 
L 1472.924024 666.29776 
" style="fill:none;stroke:#808080;stroke-width:1.5;"/>
    <path clip-path="url(#p4cf448bb0b)" d="M 1489.829112 691.203611 
L 1489.829112 667.304883 
" style="fill:none;stroke:#808080;stroke-width:1.5;"/>
    <path clip-path="url(#p4cf448bb0b)" d="M 1506.734201 653.831588 
L 1506.734201 628.494279 
" style="fill:none;stroke:#808080;stroke-width:1.5;"/>
    <path clip-path="url(#p4cf448bb0b)" d="M 1523.63929 651.030041 
L 1523.63929 624.5809 
" style="fill:none;stroke:#808080;stroke-width:1.5;"/>
    <path clip-path="url(#p4cf448bb0b)" d="M 1540.544379 670.683759 
L 1540.544379 626.050521 
" style="fill:none;stroke:#808080;stroke-width:1.5;"/>
    <path clip-path="url(#p4cf448bb0b)" d="M 1557.449467 619.264928 
L 1557.449467 574.916219 
" style="fill:none;stroke:#808080;stroke-width:1.5;"/>
    <path clip-path="url(#p4cf448bb0b)" d="M 1574.354556 588.941873 
L 1574.354556 423.442616 
" style="fill:none;stroke:#808080;stroke-width:1.5;"/>
   </g>
   <g id="LineCollection_2">
    <path clip-path="url(#p4cf448bb0b)" d="M 306.472899 758.022268 
L 306.472899 742.027299 
" style="fill:none;stroke:#808080;stroke-width:1.5;"/>
    <path clip-path="url(#p4cf448bb0b)" d="M 323.377988 766.287785 
L 323.377988 750.140884 
" style="fill:none;stroke:#808080;stroke-width:1.5;"/>
    <path clip-path="url(#p4cf448bb0b)" d="M 340.283077 767.828214 
L 340.283077 751.731703 
" style="fill:none;stroke:#808080;stroke-width:1.5;"/>
    <path clip-path="url(#p4cf448bb0b)" d="M 357.188166 784.07005 
L 357.188166 767.88966 
" style="fill:none;stroke:#808080;stroke-width:1.5;"/>
    <path clip-path="url(#p4cf448bb0b)" d="M 374.093254 784.78936 
L 374.093254 769.015375 
" style="fill:none;stroke:#808080;stroke-width:1.5;"/>
    <path clip-path="url(#p4cf448bb0b)" d="M 390.998343 774.574936 
L 390.998343 759.118668 
" style="fill:none;stroke:#808080;stroke-width:1.5;"/>
    <path clip-path="url(#p4cf448bb0b)" d="M 407.903432 780.689452 
L 407.903432 764.065199 
" style="fill:none;stroke:#808080;stroke-width:1.5;"/>
    <path clip-path="url(#p4cf448bb0b)" d="M 424.808521 763.399227 
L 424.808521 745.512476 
" style="fill:none;stroke:#808080;stroke-width:1.5;"/>
    <path clip-path="url(#p4cf448bb0b)" d="M 441.713609 782.434407 
L 441.713609 761.453952 
" style="fill:none;stroke:#808080;stroke-width:1.5;"/>
    <path clip-path="url(#p4cf448bb0b)" d="M 458.618698 776.130788 
L 458.618698 753.102861 
" style="fill:none;stroke:#808080;stroke-width:1.5;"/>
    <path clip-path="url(#p4cf448bb0b)" d="M 475.523787 777.847392 
L 475.523787 754.604423 
" style="fill:none;stroke:#808080;stroke-width:1.5;"/>
    <path clip-path="url(#p4cf448bb0b)" d="M 492.428876 774.839392 
L 492.428876 750.515914 
" style="fill:none;stroke:#808080;stroke-width:1.5;"/>
    <path clip-path="url(#p4cf448bb0b)" d="M 509.333964 784.761417 
L 509.333964 759.216702 
" style="fill:none;stroke:#808080;stroke-width:1.5;"/>
    <path clip-path="url(#p4cf448bb0b)" d="M 526.239053 773.143328 
L 526.239053 746.495917 
" style="fill:none;stroke:#808080;stroke-width:1.5;"/>
    <path clip-path="url(#p4cf448bb0b)" d="M 543.144142 782.862254 
L 543.144142 756.415753 
" style="fill:none;stroke:#808080;stroke-width:1.5;"/>
    <path clip-path="url(#p4cf448bb0b)" d="M 560.049231 779.736432 
L 560.049231 754.505143 
" style="fill:none;stroke:#808080;stroke-width:1.5;"/>
    <path clip-path="url(#p4cf448bb0b)" d="M 576.95432 774.775894 
L 576.95432 747.652307 
" style="fill:none;stroke:#808080;stroke-width:1.5;"/>
    <path clip-path="url(#p4cf448bb0b)" d="M 593.859408 766.003826 
L 593.859408 739.538145 
" style="fill:none;stroke:#808080;stroke-width:1.5;"/>
    <path clip-path="url(#p4cf448bb0b)" d="M 610.764497 760.692596 
L 610.764497 734.553852 
" style="fill:none;stroke:#808080;stroke-width:1.5;"/>
    <path clip-path="url(#p4cf448bb0b)" d="M 627.669586 762.345718 
L 627.669586 735.332375 
" style="fill:none;stroke:#808080;stroke-width:1.5;"/>
    <path clip-path="url(#p4cf448bb0b)" d="M 644.574675 774.910094 
L 644.574675 748.471433 
" style="fill:none;stroke:#808080;stroke-width:1.5;"/>
    <path clip-path="url(#p4cf448bb0b)" d="M 661.479763 772.026436 
L 661.479763 743.794138 
" style="fill:none;stroke:#808080;stroke-width:1.5;"/>
    <path clip-path="url(#p4cf448bb0b)" d="M 678.384852 774.910068 
L 678.384852 745.483814 
" style="fill:none;stroke:#808080;stroke-width:1.5;"/>
    <path clip-path="url(#p4cf448bb0b)" d="M 695.289941 778.774314 
L 695.289941 748.121178 
" style="fill:none;stroke:#808080;stroke-width:1.5;"/>
    <path clip-path="url(#p4cf448bb0b)" d="M 712.19503 776.101089 
L 712.19503 744.564885 
" style="fill:none;stroke:#808080;stroke-width:1.5;"/>
    <path clip-path="url(#p4cf448bb0b)" d="M 729.100118 769.983338 
L 729.100118 738.774712 
" style="fill:none;stroke:#808080;stroke-width:1.5;"/>
    <path clip-path="url(#p4cf448bb0b)" d="M 746.005207 780.610246 
L 746.005207 748.702233 
" style="fill:none;stroke:#808080;stroke-width:1.5;"/>
    <path clip-path="url(#p4cf448bb0b)" d="M 762.910296 774.070049 
L 762.910296 742.113968 
" style="fill:none;stroke:#808080;stroke-width:1.5;"/>
    <path clip-path="url(#p4cf448bb0b)" d="M 779.815385 785.553396 
L 779.815385 752.103489 
" style="fill:none;stroke:#808080;stroke-width:1.5;"/>
    <path clip-path="url(#p4cf448bb0b)" d="M 796.720473 784.370326 
L 796.720473 752.355762 
" style="fill:none;stroke:#808080;stroke-width:1.5;"/>
    <path clip-path="url(#p4cf448bb0b)" d="M 813.625562 777.679515 
L 813.625562 744.398375 
" style="fill:none;stroke:#808080;stroke-width:1.5;"/>
    <path clip-path="url(#p4cf448bb0b)" d="M 830.530651 784.123586 
L 830.530651 750.405522 
" style="fill:none;stroke:#808080;stroke-width:1.5;"/>
    <path clip-path="url(#p4cf448bb0b)" d="M 847.43574 782.146328 
L 847.43574 747.926514 
" style="fill:none;stroke:#808080;stroke-width:1.5;"/>
    <path clip-path="url(#p4cf448bb0b)" d="M 864.340828 793.919065 
L 864.340828 758.38672 
" style="fill:none;stroke:#808080;stroke-width:1.5;"/>
    <path clip-path="url(#p4cf448bb0b)" d="M 881.245917 781.607487 
L 881.245917 745.357165 
" style="fill:none;stroke:#808080;stroke-width:1.5;"/>
    <path clip-path="url(#p4cf448bb0b)" d="M 898.151006 780.984714 
L 898.151006 746.202418 
" style="fill:none;stroke:#808080;stroke-width:1.5;"/>
    <path clip-path="url(#p4cf448bb0b)" d="M 915.056095 782.980725 
L 915.056095 746.152294 
" style="fill:none;stroke:#808080;stroke-width:1.5;"/>
    <path clip-path="url(#p4cf448bb0b)" d="M 931.961183 783.730481 
L 931.961183 746.834316 
" style="fill:none;stroke:#808080;stroke-width:1.5;"/>
    <path clip-path="url(#p4cf448bb0b)" d="M 948.866272 781.383727 
L 948.866272 745.59493 
" style="fill:none;stroke:#808080;stroke-width:1.5;"/>
    <path clip-path="url(#p4cf448bb0b)" d="M 965.771361 785.251448 
L 965.771361 749.030182 
" style="fill:none;stroke:#808080;stroke-width:1.5;"/>
    <path clip-path="url(#p4cf448bb0b)" d="M 982.67645 789.678717 
L 982.67645 753.038896 
" style="fill:none;stroke:#808080;stroke-width:1.5;"/>
    <path clip-path="url(#p4cf448bb0b)" d="M 999.581538 793.746644 
L 999.581538 756.441261 
" style="fill:none;stroke:#808080;stroke-width:1.5;"/>
    <path clip-path="url(#p4cf448bb0b)" d="M 1016.486627 788.688046 
L 1016.486627 753.458664 
" style="fill:none;stroke:#808080;stroke-width:1.5;"/>
    <path clip-path="url(#p4cf448bb0b)" d="M 1033.391716 785.067457 
L 1033.391716 749.057503 
" style="fill:none;stroke:#808080;stroke-width:1.5;"/>
    <path clip-path="url(#p4cf448bb0b)" d="M 1050.296805 783.416082 
L 1050.296805 746.330503 
" style="fill:none;stroke:#808080;stroke-width:1.5;"/>
    <path clip-path="url(#p4cf448bb0b)" d="M 1067.201893 786.652177 
L 1067.201893 751.846585 
" style="fill:none;stroke:#808080;stroke-width:1.5;"/>
    <path clip-path="url(#p4cf448bb0b)" d="M 1084.106982 793.699858 
L 1084.106982 756.994833 
" style="fill:none;stroke:#808080;stroke-width:1.5;"/>
    <path clip-path="url(#p4cf448bb0b)" d="M 1101.012071 781.94349 
L 1101.012071 744.5968 
" style="fill:none;stroke:#808080;stroke-width:1.5;"/>
    <path clip-path="url(#p4cf448bb0b)" d="M 1117.91716 782.071586 
L 1117.91716 745.74243 
" style="fill:none;stroke:#808080;stroke-width:1.5;"/>
    <path clip-path="url(#p4cf448bb0b)" d="M 1134.822249 783.572305 
L 1134.822249 746.528619 
" style="fill:none;stroke:#808080;stroke-width:1.5;"/>
    <path clip-path="url(#p4cf448bb0b)" d="M 1151.727337 772.53734 
L 1151.727337 738.420884 
" style="fill:none;stroke:#808080;stroke-width:1.5;"/>
    <path clip-path="url(#p4cf448bb0b)" d="M 1168.632426 774.159724 
L 1168.632426 737.265787 
" style="fill:none;stroke:#808080;stroke-width:1.5;"/>
    <path clip-path="url(#p4cf448bb0b)" d="M 1185.537515 790.821654 
L 1185.537515 754.012314 
" style="fill:none;stroke:#808080;stroke-width:1.5;"/>
    <path clip-path="url(#p4cf448bb0b)" d="M 1202.442604 764.000363 
L 1202.442604 728.091024 
" style="fill:none;stroke:#808080;stroke-width:1.5;"/>
    <path clip-path="url(#p4cf448bb0b)" d="M 1219.347692 777.032829 
L 1219.347692 739.474249 
" style="fill:none;stroke:#808080;stroke-width:1.5;"/>
    <path clip-path="url(#p4cf448bb0b)" d="M 1236.252781 772.427152 
L 1236.252781 736.793455 
" style="fill:none;stroke:#808080;stroke-width:1.5;"/>
    <path clip-path="url(#p4cf448bb0b)" d="M 1253.15787 770.448574 
L 1253.15787 735.03578 
" style="fill:none;stroke:#808080;stroke-width:1.5;"/>
    <path clip-path="url(#p4cf448bb0b)" d="M 1270.062959 782.731141 
L 1270.062959 752.669934 
" style="fill:none;stroke:#808080;stroke-width:1.5;"/>
    <path clip-path="url(#p4cf448bb0b)" d="M 1286.968047 790.988714 
L 1286.968047 761.4921 
" style="fill:none;stroke:#808080;stroke-width:1.5;"/>
    <path clip-path="url(#p4cf448bb0b)" d="M 1303.873136 782.532142 
L 1303.873136 754.473951 
" style="fill:none;stroke:#808080;stroke-width:1.5;"/>
    <path clip-path="url(#p4cf448bb0b)" d="M 1320.778225 770.309103 
L 1320.778225 743.400088 
" style="fill:none;stroke:#808080;stroke-width:1.5;"/>
    <path clip-path="url(#p4cf448bb0b)" d="M 1337.683314 776.205878 
L 1337.683314 750.123933 
" style="fill:none;stroke:#808080;stroke-width:1.5;"/>
    <path clip-path="url(#p4cf448bb0b)" d="M 1354.588402 778.170589 
L 1354.588402 750.31221 
" style="fill:none;stroke:#808080;stroke-width:1.5;"/>
    <path clip-path="url(#p4cf448bb0b)" d="M 1371.493491 764.830927 
L 1371.493491 739.139338 
" style="fill:none;stroke:#808080;stroke-width:1.5;"/>
    <path clip-path="url(#p4cf448bb0b)" d="M 1388.39858 771.967176 
L 1388.39858 745.973265 
" style="fill:none;stroke:#808080;stroke-width:1.5;"/>
    <path clip-path="url(#p4cf448bb0b)" d="M 1405.303669 769.669352 
L 1405.303669 743.688184 
" style="fill:none;stroke:#808080;stroke-width:1.5;"/>
    <path clip-path="url(#p4cf448bb0b)" d="M 1422.208757 767.422095 
L 1422.208757 741.866205 
" style="fill:none;stroke:#808080;stroke-width:1.5;"/>
    <path clip-path="url(#p4cf448bb0b)" d="M 1439.113846 776.86656 
L 1439.113846 751.211661 
" style="fill:none;stroke:#808080;stroke-width:1.5;"/>
    <path clip-path="url(#p4cf448bb0b)" d="M 1456.018935 765.78517 
L 1456.018935 741.271709 
" style="fill:none;stroke:#808080;stroke-width:1.5;"/>
    <path clip-path="url(#p4cf448bb0b)" d="M 1472.924024 770.262122 
L 1472.924024 747.046015 
" style="fill:none;stroke:#808080;stroke-width:1.5;"/>
    <path clip-path="url(#p4cf448bb0b)" d="M 1489.829112 771.5566 
L 1489.829112 749.136916 
" style="fill:none;stroke:#808080;stroke-width:1.5;"/>
    <path clip-path="url(#p4cf448bb0b)" d="M 1506.734201 766.896515 
L 1506.734201 746.019579 
" style="fill:none;stroke:#808080;stroke-width:1.5;"/>
    <path clip-path="url(#p4cf448bb0b)" d="M 1523.63929 772.545281 
L 1523.63929 753.4032 
" style="fill:none;stroke:#808080;stroke-width:1.5;"/>
    <path clip-path="url(#p4cf448bb0b)" d="M 1540.544379 757.773386 
L 1540.544379 740.197612 
" style="fill:none;stroke:#808080;stroke-width:1.5;"/>
    <path clip-path="url(#p4cf448bb0b)" d="M 1557.449467 781.679894 
L 1557.449467 764.016724 
" style="fill:none;stroke:#808080;stroke-width:1.5;"/>
    <path clip-path="url(#p4cf448bb0b)" d="M 1574.354556 822.688497 
L 1574.354556 800.791521 
" style="fill:none;stroke:#808080;stroke-width:1.5;"/>
    <path clip-path="url(#p4cf448bb0b)" d="M 1591.259645 806.259908 
L 1591.259645 776.514404 
" style="fill:none;stroke:#808080;stroke-width:1.5;"/>
    <path clip-path="url(#p4cf448bb0b)" d="M 1608.164734 723.157493 
L 1608.164734 679.969939 
" style="fill:none;stroke:#808080;stroke-width:1.5;"/>
   </g>
   <g id="line2d_55">
    <defs>
     <path d="M 0 1.5 
C 0.397805 1.5 0.77937 1.341951 1.06066 1.06066 
C 1.341951 0.77937 1.5 0.397805 1.5 0 
C 1.5 -0.397805 1.341951 -0.77937 1.06066 -1.06066 
C 0.77937 -1.341951 0.397805 -1.5 0 -1.5 
C -0.397805 -1.5 -0.77937 -1.341951 -1.06066 -1.06066 
C -1.341951 -0.77937 -1.5 -0.397805 -1.5 0 
C -1.5 0.397805 -1.341951 0.77937 -1.06066 1.06066 
C -0.77937 1.341951 -0.397805 1.5 0 1.5 
z
" id="meb7d3886af" style="stroke:#000000;"/>
    </defs>
    <g clip-path="url(#p4cf448bb0b)">
     <use style="fill-opacity:0;stroke:#000000;" x="306.472899" xlink:href="#meb7d3886af" y="202.707408"/>
     <use style="fill-opacity:0;stroke:#000000;" x="323.377988" xlink:href="#meb7d3886af" y="232.102365"/>
     <use style="fill-opacity:0;stroke:#000000;" x="340.283077" xlink:href="#meb7d3886af" y="246.651496"/>
     <use style="fill-opacity:0;stroke:#000000;" x="357.188166" xlink:href="#meb7d3886af" y="213.590138"/>
     <use style="fill-opacity:0;stroke:#000000;" x="374.093254" xlink:href="#meb7d3886af" y="198.281538"/>
     <use style="fill-opacity:0;stroke:#000000;" x="390.998343" xlink:href="#meb7d3886af" y="236.660431"/>
     <use style="fill-opacity:0;stroke:#000000;" x="407.903432" xlink:href="#meb7d3886af" y="226.88425"/>
     <use style="fill-opacity:0;stroke:#000000;" x="424.808521" xlink:href="#meb7d3886af" y="246.088653"/>
     <use style="fill-opacity:0;stroke:#000000;" x="441.713609" xlink:href="#meb7d3886af" y="255.042497"/>
     <use style="fill-opacity:0;stroke:#000000;" x="458.618698" xlink:href="#meb7d3886af" y="251.79219"/>
     <use style="fill-opacity:0;stroke:#000000;" x="475.523787" xlink:href="#meb7d3886af" y="295.037827"/>
     <use style="fill-opacity:0;stroke:#000000;" x="492.428876" xlink:href="#meb7d3886af" y="272.478435"/>
     <use style="fill-opacity:0;stroke:#000000;" x="509.333964" xlink:href="#meb7d3886af" y="279.789045"/>
     <use style="fill-opacity:0;stroke:#000000;" x="526.239053" xlink:href="#meb7d3886af" y="268.333404"/>
     <use style="fill-opacity:0;stroke:#000000;" x="543.144142" xlink:href="#meb7d3886af" y="261.027926"/>
     <use style="fill-opacity:0;stroke:#000000;" x="560.049231" xlink:href="#meb7d3886af" y="286.803975"/>
     <use style="fill-opacity:0;stroke:#000000;" x="576.95432" xlink:href="#meb7d3886af" y="282.453809"/>
     <use style="fill-opacity:0;stroke:#000000;" x="593.859408" xlink:href="#meb7d3886af" y="289.55613"/>
     <use style="fill-opacity:0;stroke:#000000;" x="610.764497" xlink:href="#meb7d3886af" y="322.428716"/>
     <use style="fill-opacity:0;stroke:#000000;" x="627.669586" xlink:href="#meb7d3886af" y="283.889454"/>
     <use style="fill-opacity:0;stroke:#000000;" x="644.574675" xlink:href="#meb7d3886af" y="250.268955"/>
     <use style="fill-opacity:0;stroke:#000000;" x="661.479763" xlink:href="#meb7d3886af" y="300.841273"/>
     <use style="fill-opacity:0;stroke:#000000;" x="678.384852" xlink:href="#meb7d3886af" y="290.499799"/>
     <use style="fill-opacity:0;stroke:#000000;" x="695.289941" xlink:href="#meb7d3886af" y="271.765808"/>
     <use style="fill-opacity:0;stroke:#000000;" x="712.19503" xlink:href="#meb7d3886af" y="338.112468"/>
     <use style="fill-opacity:0;stroke:#000000;" x="729.100118" xlink:href="#meb7d3886af" y="342.000506"/>
     <use style="fill-opacity:0;stroke:#000000;" x="746.005207" xlink:href="#meb7d3886af" y="255.606412"/>
     <use style="fill-opacity:0;stroke:#000000;" x="762.910296" xlink:href="#meb7d3886af" y="286.613953"/>
     <use style="fill-opacity:0;stroke:#000000;" x="779.815385" xlink:href="#meb7d3886af" y="306.872388"/>
     <use style="fill-opacity:0;stroke:#000000;" x="796.720473" xlink:href="#meb7d3886af" y="375.665409"/>
     <use style="fill-opacity:0;stroke:#000000;" x="813.625562" xlink:href="#meb7d3886af" y="364.421985"/>
     <use style="fill-opacity:0;stroke:#000000;" x="830.530651" xlink:href="#meb7d3886af" y="407.927611"/>
     <use style="fill-opacity:0;stroke:#000000;" x="847.43574" xlink:href="#meb7d3886af" y="350.485327"/>
     <use style="fill-opacity:0;stroke:#000000;" x="864.340828" xlink:href="#meb7d3886af" y="362.877772"/>
     <use style="fill-opacity:0;stroke:#000000;" x="881.245917" xlink:href="#meb7d3886af" y="354.537355"/>
     <use style="fill-opacity:0;stroke:#000000;" x="898.151006" xlink:href="#meb7d3886af" y="322.96835"/>
     <use style="fill-opacity:0;stroke:#000000;" x="915.056095" xlink:href="#meb7d3886af" y="353.043497"/>
     <use style="fill-opacity:0;stroke:#000000;" x="931.961183" xlink:href="#meb7d3886af" y="346.174273"/>
     <use style="fill-opacity:0;stroke:#000000;" x="948.866272" xlink:href="#meb7d3886af" y="378.142111"/>
     <use style="fill-opacity:0;stroke:#000000;" x="965.771361" xlink:href="#meb7d3886af" y="346.83081"/>
     <use style="fill-opacity:0;stroke:#000000;" x="982.67645" xlink:href="#meb7d3886af" y="502.278442"/>
     <use style="fill-opacity:0;stroke:#000000;" x="999.581538" xlink:href="#meb7d3886af" y="422.517283"/>
     <use style="fill-opacity:0;stroke:#000000;" x="1016.486627" xlink:href="#meb7d3886af" y="577.298093"/>
     <use style="fill-opacity:0;stroke:#000000;" x="1033.391716" xlink:href="#meb7d3886af" y="623.053014"/>
     <use style="fill-opacity:0;stroke:#000000;" x="1050.296805" xlink:href="#meb7d3886af" y="616.074199"/>
     <use style="fill-opacity:0;stroke:#000000;" x="1067.201893" xlink:href="#meb7d3886af" y="604.048214"/>
     <use style="fill-opacity:0;stroke:#000000;" x="1084.106982" xlink:href="#meb7d3886af" y="605.0627"/>
     <use style="fill-opacity:0;stroke:#000000;" x="1101.012071" xlink:href="#meb7d3886af" y="647.060786"/>
     <use style="fill-opacity:0;stroke:#000000;" x="1117.91716" xlink:href="#meb7d3886af" y="648.783011"/>
     <use style="fill-opacity:0;stroke:#000000;" x="1134.822249" xlink:href="#meb7d3886af" y="709.923567"/>
     <use style="fill-opacity:0;stroke:#000000;" x="1151.727337" xlink:href="#meb7d3886af" y="747.412282"/>
     <use style="fill-opacity:0;stroke:#000000;" x="1168.632426" xlink:href="#meb7d3886af" y="811.740009"/>
     <use style="fill-opacity:0;stroke:#000000;" x="1185.537515" xlink:href="#meb7d3886af" y="765.185524"/>
     <use style="fill-opacity:0;stroke:#000000;" x="1202.442604" xlink:href="#meb7d3886af" y="738.572109"/>
     <use style="fill-opacity:0;stroke:#000000;" x="1219.347692" xlink:href="#meb7d3886af" y="778.734669"/>
     <use style="fill-opacity:0;stroke:#000000;" x="1236.252781" xlink:href="#meb7d3886af" y="805.504649"/>
     <use style="fill-opacity:0;stroke:#000000;" x="1253.15787" xlink:href="#meb7d3886af" y="731.245943"/>
     <use style="fill-opacity:0;stroke:#000000;" x="1270.062959" xlink:href="#meb7d3886af" y="750.581004"/>
     <use style="fill-opacity:0;stroke:#000000;" x="1286.968047" xlink:href="#meb7d3886af" y="704.837192"/>
     <use style="fill-opacity:0;stroke:#000000;" x="1303.873136" xlink:href="#meb7d3886af" y="776.334847"/>
     <use style="fill-opacity:0;stroke:#000000;" x="1320.778225" xlink:href="#meb7d3886af" y="752.238451"/>
     <use style="fill-opacity:0;stroke:#000000;" x="1337.683314" xlink:href="#meb7d3886af" y="709.99775"/>
     <use style="fill-opacity:0;stroke:#000000;" x="1354.588402" xlink:href="#meb7d3886af" y="700.007835"/>
     <use style="fill-opacity:0;stroke:#000000;" x="1371.493491" xlink:href="#meb7d3886af" y="724.029529"/>
     <use style="fill-opacity:0;stroke:#000000;" x="1388.39858" xlink:href="#meb7d3886af" y="667.180175"/>
     <use style="fill-opacity:0;stroke:#000000;" x="1405.303669" xlink:href="#meb7d3886af" y="696.86299"/>
     <use style="fill-opacity:0;stroke:#000000;" x="1422.208757" xlink:href="#meb7d3886af" y="683.549402"/>
     <use style="fill-opacity:0;stroke:#000000;" x="1439.113846" xlink:href="#meb7d3886af" y="708.672716"/>
     <use style="fill-opacity:0;stroke:#000000;" x="1456.018935" xlink:href="#meb7d3886af" y="710.559327"/>
     <use style="fill-opacity:0;stroke:#000000;" x="1472.924024" xlink:href="#meb7d3886af" y="685.593271"/>
     <use style="fill-opacity:0;stroke:#000000;" x="1489.829112" xlink:href="#meb7d3886af" y="679.254247"/>
     <use style="fill-opacity:0;stroke:#000000;" x="1506.734201" xlink:href="#meb7d3886af" y="641.162934"/>
     <use style="fill-opacity:0;stroke:#000000;" x="1523.63929" xlink:href="#meb7d3886af" y="637.80547"/>
     <use style="fill-opacity:0;stroke:#000000;" x="1540.544379" xlink:href="#meb7d3886af" y="648.36714"/>
     <use style="fill-opacity:0;stroke:#000000;" x="1557.449467" xlink:href="#meb7d3886af" y="597.090573"/>
     <use style="fill-opacity:0;stroke:#000000;" x="1574.354556" xlink:href="#meb7d3886af" y="506.192244"/>
    </g>
   </g>
   <g id="line2d_56">
    <defs>
     <path d="M 0 -3 
L -2.598076 -1.5 
L -2.598076 1.5 
L -0 3 
L 2.598076 1.5 
L 2.598076 -1.5 
z
" id="mf8bc52bdc2" style="stroke:#8b0000;stroke-linejoin:miter;"/>
    </defs>
    <g clip-path="url(#p4cf448bb0b)">
     <use style="fill-opacity:0;stroke:#8b0000;stroke-linejoin:miter;" x="306.472899" xlink:href="#mf8bc52bdc2" y="750.024783"/>
     <use style="fill-opacity:0;stroke:#8b0000;stroke-linejoin:miter;" x="323.377988" xlink:href="#mf8bc52bdc2" y="758.214334"/>
     <use style="fill-opacity:0;stroke:#8b0000;stroke-linejoin:miter;" x="340.283077" xlink:href="#mf8bc52bdc2" y="759.779958"/>
     <use style="fill-opacity:0;stroke:#8b0000;stroke-linejoin:miter;" x="357.188166" xlink:href="#mf8bc52bdc2" y="775.979855"/>
     <use style="fill-opacity:0;stroke:#8b0000;stroke-linejoin:miter;" x="374.093254" xlink:href="#mf8bc52bdc2" y="776.902368"/>
     <use style="fill-opacity:0;stroke:#8b0000;stroke-linejoin:miter;" x="390.998343" xlink:href="#mf8bc52bdc2" y="766.846802"/>
     <use style="fill-opacity:0;stroke:#8b0000;stroke-linejoin:miter;" x="407.903432" xlink:href="#mf8bc52bdc2" y="772.377325"/>
     <use style="fill-opacity:0;stroke:#8b0000;stroke-linejoin:miter;" x="424.808521" xlink:href="#mf8bc52bdc2" y="754.455851"/>
     <use style="fill-opacity:0;stroke:#8b0000;stroke-linejoin:miter;" x="441.713609" xlink:href="#mf8bc52bdc2" y="771.94418"/>
     <use style="fill-opacity:0;stroke:#8b0000;stroke-linejoin:miter;" x="458.618698" xlink:href="#mf8bc52bdc2" y="764.616825"/>
     <use style="fill-opacity:0;stroke:#8b0000;stroke-linejoin:miter;" x="475.523787" xlink:href="#mf8bc52bdc2" y="766.225907"/>
     <use style="fill-opacity:0;stroke:#8b0000;stroke-linejoin:miter;" x="492.428876" xlink:href="#mf8bc52bdc2" y="762.677653"/>
     <use style="fill-opacity:0;stroke:#8b0000;stroke-linejoin:miter;" x="509.333964" xlink:href="#mf8bc52bdc2" y="771.989059"/>
     <use style="fill-opacity:0;stroke:#8b0000;stroke-linejoin:miter;" x="526.239053" xlink:href="#mf8bc52bdc2" y="759.819622"/>
     <use style="fill-opacity:0;stroke:#8b0000;stroke-linejoin:miter;" x="543.144142" xlink:href="#mf8bc52bdc2" y="769.639003"/>
     <use style="fill-opacity:0;stroke:#8b0000;stroke-linejoin:miter;" x="560.049231" xlink:href="#mf8bc52bdc2" y="767.120787"/>
     <use style="fill-opacity:0;stroke:#8b0000;stroke-linejoin:miter;" x="576.95432" xlink:href="#mf8bc52bdc2" y="761.214101"/>
     <use style="fill-opacity:0;stroke:#8b0000;stroke-linejoin:miter;" x="593.859408" xlink:href="#mf8bc52bdc2" y="752.770985"/>
     <use style="fill-opacity:0;stroke:#8b0000;stroke-linejoin:miter;" x="610.764497" xlink:href="#mf8bc52bdc2" y="747.623224"/>
     <use style="fill-opacity:0;stroke:#8b0000;stroke-linejoin:miter;" x="627.669586" xlink:href="#mf8bc52bdc2" y="748.839046"/>
     <use style="fill-opacity:0;stroke:#8b0000;stroke-linejoin:miter;" x="644.574675" xlink:href="#mf8bc52bdc2" y="761.690764"/>
     <use style="fill-opacity:0;stroke:#8b0000;stroke-linejoin:miter;" x="661.479763" xlink:href="#mf8bc52bdc2" y="757.910287"/>
     <use style="fill-opacity:0;stroke:#8b0000;stroke-linejoin:miter;" x="678.384852" xlink:href="#mf8bc52bdc2" y="760.196941"/>
     <use style="fill-opacity:0;stroke:#8b0000;stroke-linejoin:miter;" x="695.289941" xlink:href="#mf8bc52bdc2" y="763.447746"/>
     <use style="fill-opacity:0;stroke:#8b0000;stroke-linejoin:miter;" x="712.19503" xlink:href="#mf8bc52bdc2" y="760.332987"/>
     <use style="fill-opacity:0;stroke:#8b0000;stroke-linejoin:miter;" x="729.100118" xlink:href="#mf8bc52bdc2" y="754.379025"/>
     <use style="fill-opacity:0;stroke:#8b0000;stroke-linejoin:miter;" x="746.005207" xlink:href="#mf8bc52bdc2" y="764.656239"/>
     <use style="fill-opacity:0;stroke:#8b0000;stroke-linejoin:miter;" x="762.910296" xlink:href="#mf8bc52bdc2" y="758.092009"/>
     <use style="fill-opacity:0;stroke:#8b0000;stroke-linejoin:miter;" x="779.815385" xlink:href="#mf8bc52bdc2" y="768.828443"/>
     <use style="fill-opacity:0;stroke:#8b0000;stroke-linejoin:miter;" x="796.720473" xlink:href="#mf8bc52bdc2" y="768.363044"/>
     <use style="fill-opacity:0;stroke:#8b0000;stroke-linejoin:miter;" x="813.625562" xlink:href="#mf8bc52bdc2" y="761.038945"/>
     <use style="fill-opacity:0;stroke:#8b0000;stroke-linejoin:miter;" x="830.530651" xlink:href="#mf8bc52bdc2" y="767.264554"/>
     <use style="fill-opacity:0;stroke:#8b0000;stroke-linejoin:miter;" x="847.43574" xlink:href="#mf8bc52bdc2" y="765.036421"/>
     <use style="fill-opacity:0;stroke:#8b0000;stroke-linejoin:miter;" x="864.340828" xlink:href="#mf8bc52bdc2" y="776.152893"/>
     <use style="fill-opacity:0;stroke:#8b0000;stroke-linejoin:miter;" x="881.245917" xlink:href="#mf8bc52bdc2" y="763.482326"/>
     <use style="fill-opacity:0;stroke:#8b0000;stroke-linejoin:miter;" x="898.151006" xlink:href="#mf8bc52bdc2" y="763.593566"/>
     <use style="fill-opacity:0;stroke:#8b0000;stroke-linejoin:miter;" x="915.056095" xlink:href="#mf8bc52bdc2" y="764.566509"/>
     <use style="fill-opacity:0;stroke:#8b0000;stroke-linejoin:miter;" x="931.961183" xlink:href="#mf8bc52bdc2" y="765.282399"/>
     <use style="fill-opacity:0;stroke:#8b0000;stroke-linejoin:miter;" x="948.866272" xlink:href="#mf8bc52bdc2" y="763.489328"/>
     <use style="fill-opacity:0;stroke:#8b0000;stroke-linejoin:miter;" x="965.771361" xlink:href="#mf8bc52bdc2" y="767.140815"/>
     <use style="fill-opacity:0;stroke:#8b0000;stroke-linejoin:miter;" x="982.67645" xlink:href="#mf8bc52bdc2" y="771.358807"/>
     <use style="fill-opacity:0;stroke:#8b0000;stroke-linejoin:miter;" x="999.581538" xlink:href="#mf8bc52bdc2" y="775.093953"/>
     <use style="fill-opacity:0;stroke:#8b0000;stroke-linejoin:miter;" x="1016.486627" xlink:href="#mf8bc52bdc2" y="771.073355"/>
     <use style="fill-opacity:0;stroke:#8b0000;stroke-linejoin:miter;" x="1033.391716" xlink:href="#mf8bc52bdc2" y="767.06248"/>
     <use style="fill-opacity:0;stroke:#8b0000;stroke-linejoin:miter;" x="1050.296805" xlink:href="#mf8bc52bdc2" y="764.873293"/>
     <use style="fill-opacity:0;stroke:#8b0000;stroke-linejoin:miter;" x="1067.201893" xlink:href="#mf8bc52bdc2" y="769.249381"/>
     <use style="fill-opacity:0;stroke:#8b0000;stroke-linejoin:miter;" x="1084.106982" xlink:href="#mf8bc52bdc2" y="775.347345"/>
     <use style="fill-opacity:0;stroke:#8b0000;stroke-linejoin:miter;" x="1101.012071" xlink:href="#mf8bc52bdc2" y="763.270145"/>
     <use style="fill-opacity:0;stroke:#8b0000;stroke-linejoin:miter;" x="1117.91716" xlink:href="#mf8bc52bdc2" y="763.907008"/>
     <use style="fill-opacity:0;stroke:#8b0000;stroke-linejoin:miter;" x="1134.822249" xlink:href="#mf8bc52bdc2" y="765.050462"/>
     <use style="fill-opacity:0;stroke:#8b0000;stroke-linejoin:miter;" x="1151.727337" xlink:href="#mf8bc52bdc2" y="755.479112"/>
     <use style="fill-opacity:0;stroke:#8b0000;stroke-linejoin:miter;" x="1168.632426" xlink:href="#mf8bc52bdc2" y="755.712756"/>
     <use style="fill-opacity:0;stroke:#8b0000;stroke-linejoin:miter;" x="1185.537515" xlink:href="#mf8bc52bdc2" y="772.416984"/>
     <use style="fill-opacity:0;stroke:#8b0000;stroke-linejoin:miter;" x="1202.442604" xlink:href="#mf8bc52bdc2" y="746.045694"/>
     <use style="fill-opacity:0;stroke:#8b0000;stroke-linejoin:miter;" x="1219.347692" xlink:href="#mf8bc52bdc2" y="758.253539"/>
     <use style="fill-opacity:0;stroke:#8b0000;stroke-linejoin:miter;" x="1236.252781" xlink:href="#mf8bc52bdc2" y="754.610303"/>
     <use style="fill-opacity:0;stroke:#8b0000;stroke-linejoin:miter;" x="1253.15787" xlink:href="#mf8bc52bdc2" y="752.742177"/>
     <use style="fill-opacity:0;stroke:#8b0000;stroke-linejoin:miter;" x="1270.062959" xlink:href="#mf8bc52bdc2" y="767.700537"/>
     <use style="fill-opacity:0;stroke:#8b0000;stroke-linejoin:miter;" x="1286.968047" xlink:href="#mf8bc52bdc2" y="776.240407"/>
     <use style="fill-opacity:0;stroke:#8b0000;stroke-linejoin:miter;" x="1303.873136" xlink:href="#mf8bc52bdc2" y="768.503047"/>
     <use style="fill-opacity:0;stroke:#8b0000;stroke-linejoin:miter;" x="1320.778225" xlink:href="#mf8bc52bdc2" y="756.854595"/>
     <use style="fill-opacity:0;stroke:#8b0000;stroke-linejoin:miter;" x="1337.683314" xlink:href="#mf8bc52bdc2" y="763.164905"/>
     <use style="fill-opacity:0;stroke:#8b0000;stroke-linejoin:miter;" x="1354.588402" xlink:href="#mf8bc52bdc2" y="764.241399"/>
     <use style="fill-opacity:0;stroke:#8b0000;stroke-linejoin:miter;" x="1371.493491" xlink:href="#mf8bc52bdc2" y="751.985133"/>
     <use style="fill-opacity:0;stroke:#8b0000;stroke-linejoin:miter;" x="1388.39858" xlink:href="#mf8bc52bdc2" y="758.97022"/>
     <use style="fill-opacity:0;stroke:#8b0000;stroke-linejoin:miter;" x="1405.303669" xlink:href="#mf8bc52bdc2" y="756.678768"/>
     <use style="fill-opacity:0;stroke:#8b0000;stroke-linejoin:miter;" x="1422.208757" xlink:href="#mf8bc52bdc2" y="754.64415"/>
     <use style="fill-opacity:0;stroke:#8b0000;stroke-linejoin:miter;" x="1439.113846" xlink:href="#mf8bc52bdc2" y="764.03911"/>
     <use style="fill-opacity:0;stroke:#8b0000;stroke-linejoin:miter;" x="1456.018935" xlink:href="#mf8bc52bdc2" y="753.528439"/>
     <use style="fill-opacity:0;stroke:#8b0000;stroke-linejoin:miter;" x="1472.924024" xlink:href="#mf8bc52bdc2" y="758.654069"/>
     <use style="fill-opacity:0;stroke:#8b0000;stroke-linejoin:miter;" x="1489.829112" xlink:href="#mf8bc52bdc2" y="760.346758"/>
     <use style="fill-opacity:0;stroke:#8b0000;stroke-linejoin:miter;" x="1506.734201" xlink:href="#mf8bc52bdc2" y="756.458047"/>
     <use style="fill-opacity:0;stroke:#8b0000;stroke-linejoin:miter;" x="1523.63929" xlink:href="#mf8bc52bdc2" y="762.974241"/>
     <use style="fill-opacity:0;stroke:#8b0000;stroke-linejoin:miter;" x="1540.544379" xlink:href="#mf8bc52bdc2" y="748.985499"/>
     <use style="fill-opacity:0;stroke:#8b0000;stroke-linejoin:miter;" x="1557.449467" xlink:href="#mf8bc52bdc2" y="772.848309"/>
     <use style="fill-opacity:0;stroke:#8b0000;stroke-linejoin:miter;" x="1574.354556" xlink:href="#mf8bc52bdc2" y="811.740009"/>
     <use style="fill-opacity:0;stroke:#8b0000;stroke-linejoin:miter;" x="1591.259645" xlink:href="#mf8bc52bdc2" y="791.387156"/>
     <use style="fill-opacity:0;stroke:#8b0000;stroke-linejoin:miter;" x="1608.164734" xlink:href="#mf8bc52bdc2" y="701.563716"/>
    </g>
   </g>
   <g id="patch_3">
    <path d="M 230.4 856.7496 
L 230.4 115.5168 
" style="fill:none;stroke:#000000;stroke-linecap:square;stroke-linejoin:miter;stroke-width:0.8;"/>
   </g>
   <g id="patch_4">
    <path d="M 1658.88 856.7496 
L 1658.88 115.5168 
" style="fill:none;stroke:#000000;stroke-linecap:square;stroke-linejoin:miter;stroke-width:0.8;"/>
   </g>
   <g id="patch_5">
    <path d="M 230.4 856.7496 
L 1658.88 856.7496 
" style="fill:none;stroke:#000000;stroke-linecap:square;stroke-linejoin:miter;stroke-width:0.8;"/>
   </g>
   <g id="patch_6">
    <path d="M 230.4 115.5168 
L 1658.88 115.5168 
" style="fill:none;stroke:#000000;stroke-linecap:square;stroke-linejoin:miter;stroke-width:0.8;"/>
   </g>
   <g id="legend_1">
    <g id="patch_7">
     <path d="M 1437.069063 152.87305 
L 1651.88 152.87305 
Q 1653.88 152.87305 1653.88 150.87305 
L 1653.88 122.5168 
Q 1653.88 120.5168 1651.88 120.5168 
L 1437.069063 120.5168 
Q 1435.069063 120.5168 1435.069063 122.5168 
L 1435.069063 150.87305 
Q 1435.069063 152.87305 1437.069063 152.87305 
z
" style="fill:#ffffff;opacity:0.8;stroke:#cccccc;stroke-linejoin:miter;"/>
    </g>
    <g id="LineCollection_3">
     <path d="M 1449.069063 133.615238 
L 1449.069063 123.615238 
" style="fill:none;stroke:#808080;stroke-width:1.5;"/>
    </g>
    <g id="line2d_57"/>
    <g id="line2d_58">
     <g>
      <use style="fill-opacity:0;stroke:#000000;" x="1449.069063" xlink:href="#meb7d3886af" y="128.615238"/>
     </g>
    </g>
    <g id="text_30">
     <!-- Wyniki dostosowanego modelu -->
     <g transform="translate(1467.069063 132.115238)scale(0.1 -0.1)">
      <defs>
       <path d="M 3.328125 72.90625 
L 13.28125 72.90625 
L 28.609375 11.28125 
L 43.890625 72.90625 
L 54.984375 72.90625 
L 70.3125 11.28125 
L 85.59375 72.90625 
L 95.609375 72.90625 
L 77.296875 0 
L 64.890625 0 
L 49.515625 63.28125 
L 33.984375 0 
L 21.578125 0 
z
" id="DejaVuSans-87"/>
       <path d="M 32.171875 -5.078125 
Q 28.375 -14.84375 24.75 -17.8125 
Q 21.140625 -20.796875 15.09375 -20.796875 
L 7.90625 -20.796875 
L 7.90625 -13.28125 
L 13.1875 -13.28125 
Q 16.890625 -13.28125 18.9375 -11.515625 
Q 21 -9.765625 23.484375 -3.21875 
L 25.09375 0.875 
L 2.984375 54.6875 
L 12.5 54.6875 
L 29.59375 11.921875 
L 46.6875 54.6875 
L 56.203125 54.6875 
z
" id="DejaVuSans-121"/>
      </defs>
      <use xlink:href="#DejaVuSans-87"/>
      <use x="97.126953" xlink:href="#DejaVuSans-121"/>
      <use x="156.306641" xlink:href="#DejaVuSans-110"/>
      <use x="219.685547" xlink:href="#DejaVuSans-105"/>
      <use x="247.46875" xlink:href="#DejaVuSans-107"/>
      <use x="305.378906" xlink:href="#DejaVuSans-105"/>
      <use x="333.162109" xlink:href="#DejaVuSans-32"/>
      <use x="364.949219" xlink:href="#DejaVuSans-100"/>
      <use x="428.425781" xlink:href="#DejaVuSans-111"/>
      <use x="489.607422" xlink:href="#DejaVuSans-115"/>
      <use x="541.707031" xlink:href="#DejaVuSans-116"/>
      <use x="580.916016" xlink:href="#DejaVuSans-111"/>
      <use x="642.097656" xlink:href="#DejaVuSans-115"/>
      <use x="694.197266" xlink:href="#DejaVuSans-111"/>
      <use x="755.378906" xlink:href="#DejaVuSans-119"/>
      <use x="837.166016" xlink:href="#DejaVuSans-97"/>
      <use x="898.445312" xlink:href="#DejaVuSans-110"/>
      <use x="961.824219" xlink:href="#DejaVuSans-101"/>
      <use x="1023.347656" xlink:href="#DejaVuSans-103"/>
      <use x="1086.824219" xlink:href="#DejaVuSans-111"/>
      <use x="1148.005859" xlink:href="#DejaVuSans-32"/>
      <use x="1179.792969" xlink:href="#DejaVuSans-109"/>
      <use x="1277.205078" xlink:href="#DejaVuSans-111"/>
      <use x="1338.386719" xlink:href="#DejaVuSans-100"/>
      <use x="1401.863281" xlink:href="#DejaVuSans-101"/>
      <use x="1463.386719" xlink:href="#DejaVuSans-108"/>
      <use x="1491.169922" xlink:href="#DejaVuSans-117"/>
     </g>
    </g>
    <g id="LineCollection_4">
     <path d="M 1449.069063 148.293363 
L 1449.069063 138.293363 
" style="fill:none;stroke:#808080;stroke-width:1.5;"/>
    </g>
    <g id="line2d_59"/>
    <g id="line2d_60">
     <g>
      <use style="fill-opacity:0;stroke:#8b0000;stroke-linejoin:miter;" x="1449.069063" xlink:href="#mf8bc52bdc2" y="143.293363"/>
     </g>
    </g>
    <g id="text_31">
     <!-- Wyniki podstawowego modelu Boids -->
     <g transform="translate(1467.069063 146.793363)scale(0.1 -0.1)">
      <defs>
       <path d="M 19.671875 34.8125 
L 19.671875 8.109375 
L 35.5 8.109375 
Q 43.453125 8.109375 47.28125 11.40625 
Q 51.125 14.703125 51.125 21.484375 
Q 51.125 28.328125 47.28125 31.5625 
Q 43.453125 34.8125 35.5 34.8125 
z
M 19.671875 64.796875 
L 19.671875 42.828125 
L 34.28125 42.828125 
Q 41.5 42.828125 45.03125 45.53125 
Q 48.578125 48.25 48.578125 53.8125 
Q 48.578125 59.328125 45.03125 62.0625 
Q 41.5 64.796875 34.28125 64.796875 
z
M 9.8125 72.90625 
L 35.015625 72.90625 
Q 46.296875 72.90625 52.390625 68.21875 
Q 58.5 63.53125 58.5 54.890625 
Q 58.5 48.1875 55.375 44.234375 
Q 52.25 40.28125 46.1875 39.3125 
Q 53.46875 37.75 57.5 32.78125 
Q 61.53125 27.828125 61.53125 20.40625 
Q 61.53125 10.640625 54.890625 5.3125 
Q 48.25 0 35.984375 0 
L 9.8125 0 
z
" id="DejaVuSans-66"/>
      </defs>
      <use xlink:href="#DejaVuSans-87"/>
      <use x="97.126953" xlink:href="#DejaVuSans-121"/>
      <use x="156.306641" xlink:href="#DejaVuSans-110"/>
      <use x="219.685547" xlink:href="#DejaVuSans-105"/>
      <use x="247.46875" xlink:href="#DejaVuSans-107"/>
      <use x="305.378906" xlink:href="#DejaVuSans-105"/>
      <use x="333.162109" xlink:href="#DejaVuSans-32"/>
      <use x="364.949219" xlink:href="#DejaVuSans-112"/>
      <use x="428.425781" xlink:href="#DejaVuSans-111"/>
      <use x="489.607422" xlink:href="#DejaVuSans-100"/>
      <use x="553.083984" xlink:href="#DejaVuSans-115"/>
      <use x="605.183594" xlink:href="#DejaVuSans-116"/>
      <use x="644.392578" xlink:href="#DejaVuSans-97"/>
      <use x="705.671875" xlink:href="#DejaVuSans-119"/>
      <use x="787.458984" xlink:href="#DejaVuSans-111"/>
      <use x="848.640625" xlink:href="#DejaVuSans-119"/>
      <use x="930.427734" xlink:href="#DejaVuSans-101"/>
      <use x="991.951172" xlink:href="#DejaVuSans-103"/>
      <use x="1055.427734" xlink:href="#DejaVuSans-111"/>
      <use x="1116.609375" xlink:href="#DejaVuSans-32"/>
      <use x="1148.396484" xlink:href="#DejaVuSans-109"/>
      <use x="1245.808594" xlink:href="#DejaVuSans-111"/>
      <use x="1306.990234" xlink:href="#DejaVuSans-100"/>
      <use x="1370.466797" xlink:href="#DejaVuSans-101"/>
      <use x="1431.990234" xlink:href="#DejaVuSans-108"/>
      <use x="1459.773438" xlink:href="#DejaVuSans-117"/>
      <use x="1523.152344" xlink:href="#DejaVuSans-32"/>
      <use x="1554.939453" xlink:href="#DejaVuSans-66"/>
      <use x="1623.542969" xlink:href="#DejaVuSans-111"/>
      <use x="1684.724609" xlink:href="#DejaVuSans-105"/>
      <use x="1712.507812" xlink:href="#DejaVuSans-100"/>
      <use x="1775.984375" xlink:href="#DejaVuSans-115"/>
     </g>
    </g>
   </g>
  </g>
 </g>
 <defs>
  <clipPath id="p4cf448bb0b">
   <rect height="741.2328" width="1428.48" x="230.4" y="115.5168"/>
  </clipPath>
 </defs>
</svg>
