<svg xmlns="http://www.w3.org/2000/svg" width="1000.0" height="600.0"><ellipse stroke="black" stroke-width="1" transform="rotate(-63.86961 223.1576 252.56768)" cx="223.1576" cy="252.56768" rx="5.5" ry="7" fill="transparent"/> <ellipse stroke="black" stroke-width="1" transform="rotate(-63.86961 223.1576 252.56768)" cx="223.1576" cy="246.56768" rx="3" ry="5" fill="black"/><ellipse stroke="black" stroke-width="1" transform="rotate(-63.31248 217.6427 272.6691)" cx="217.6427" cy="272.6691" rx="5.5" ry="7" fill="transparent"/> <ellipse stroke="black" stroke-width="1" transform="rotate(-63.31248 217.6427 272.6691)" cx="217.6427" cy="266.6691" rx="3" ry="5" fill="black"/><ellipse stroke="black" stroke-width="1" transform="rotate(-67.57648 270.4942 183.657)" cx="270.4942" cy="183.657" rx="5.5" ry="7" fill="transparent"/> <ellipse stroke="black" stroke-width="1" transform="rotate(-67.57648 270.4942 183.657)" cx="270.4942" cy="177.657" rx="3" ry="5" fill="black"/><ellipse stroke="black" stroke-width="1" transform="rotate(-66.51995 288.322 191.7495)" cx="288.322" cy="191.7495" rx="5.5" ry="7" fill="transparent"/> <ellipse stroke="black" stroke-width="1" transform="rotate(-66.51995 288.322 191.7495)" cx="288.322" cy="185.7495" rx="3" ry="5" fill="black"/><ellipse stroke="black" stroke-width="1" transform="rotate(-68.18169 239.17149999999998 271.37703)" cx="239.17149999999998" cy="271.37703" rx="5.5" ry="7" fill="transparent"/> <ellipse stroke="black" stroke-width="1" transform="rotate(-68.18169 239.17149999999998 271.37703)" cx="239.17149999999998" cy="265.37703" rx="3" ry="5" fill="black"/><ellipse stroke="black" stroke-width="1" transform="rotate(-67.90647 243.53000000000003 248.39078999999998)" cx="243.53000000000003" cy="248.39078999999998" rx="5.5" ry="7" fill="transparent"/> <ellipse stroke="black" stroke-width="1" transform="rotate(-67.90647 243.53000000000003 248.39078999999998)" cx="243.53000000000003" cy="242.39078999999998" rx="3" ry="5" fill="black"/><ellipse stroke="black" stroke-width="1" transform="rotate(-65.34396 219.7917 233.7495)" cx="219.7917" cy="233.7495" rx="5.5" ry="7" fill="transparent"/> <ellipse stroke="black" stroke-width="1" transform="rotate(-65.34396 219.7917 233.7495)" cx="219.7917" cy="227.7495" rx="3" ry="5" fill="black"/><ellipse stroke="black" stroke-width="1" transform="rotate(-67.93977 272.9104 205.922)" cx="272.9104" cy="205.922" rx="5.5" ry="7" fill="transparent"/> <ellipse stroke="black" stroke-width="1" transform="rotate(-67.93977 272.9104 205.922)" cx="272.9104" cy="199.922" rx="3" ry="5" fill="black"/><ellipse stroke="black" stroke-width="1" transform="rotate(-65.30894 280.4308 243.99388)" cx="280.4308" cy="243.99388" rx="5.5" ry="7" fill="transparent"/> <ellipse stroke="black" stroke-width="1" transform="rotate(-65.30894 280.4308 243.99388)" cx="280.4308" cy="237.99388" rx="3" ry="5" fill="black"/><ellipse stroke="black" stroke-width="1" transform="rotate(-68.05618 260.21999999999997 238.52699)" cx="260.21999999999997" cy="238.52699" rx="5.5" ry="7" fill="transparent"/> <ellipse stroke="black" stroke-width="1" transform="rotate(-68.05618 260.21999999999997 238.52699)" cx="260.21999999999997" cy="232.52699" rx="3" ry="5" fill="black"/><ellipse stroke="black" stroke-width="1" transform="rotate(-68.05218 253.4864 195.5213)" cx="253.4864" cy="195.5213" rx="5.5" ry="7" fill="transparent"/> <ellipse stroke="black" stroke-width="1" transform="rotate(-68.05218 253.4864 195.5213)" cx="253.4864" cy="189.5213" rx="3" ry="5" fill="black"/><ellipse stroke="black" stroke-width="1" transform="rotate(-68.24753 251.1488 281.54715)" cx="251.1488" cy="281.54715" rx="5.5" ry="7" fill="transparent"/> <ellipse stroke="black" stroke-width="1" transform="rotate(-68.24753 251.1488 281.54715)" cx="251.1488" cy="275.54715" rx="3" ry="5" fill="black"/><ellipse stroke="black" stroke-width="1" transform="rotate(-65.51124 291.6915 216.59902)" cx="291.6915" cy="216.59902" rx="5.5" ry="7" fill="transparent"/> <ellipse stroke="black" stroke-width="1" transform="rotate(-65.51124 291.6915 216.59902)" cx="291.6915" cy="210.59902" rx="3" ry="5" fill="black"/><ellipse stroke="black" stroke-width="1" transform="rotate(-68.96938 239.3766 207.09611999999998)" cx="239.3766" cy="207.09611999999998" rx="5.5" ry="7" fill="transparent"/> <ellipse stroke="black" stroke-width="1" transform="rotate(-68.96938 239.3766 207.09611999999998)" cx="239.3766" cy="201.09611999999998" rx="3" ry="5" fill="black"/><ellipse stroke="black" stroke-width="1" transform="rotate(-64.36008 273.1097 265.88243)" cx="273.1097" cy="265.88243" rx="5.5" ry="7" fill="transparent"/> <ellipse stroke="black" stroke-width="1" transform="rotate(-64.36008 273.1097 265.88243)" cx="273.1097" cy="259.88243" rx="3" ry="5" fill="black"/><ellipse stroke="black" stroke-width="1" transform="rotate(-68.00517 260.2644 258.8438)" cx="260.2644" cy="258.8438" rx="5.5" ry="7" fill="transparent"/> <ellipse stroke="black" stroke-width="1" transform="rotate(-68.00517 260.2644 258.8438)" cx="260.2644" cy="252.8438" rx="3" ry="5" fill="black"/><ellipse stroke="black" stroke-width="1" transform="rotate(-65.87389 221.44349999999997 214.30382)" cx="221.44349999999997" cy="214.30382" rx="5.5" ry="7" fill="transparent"/> <ellipse stroke="black" stroke-width="1" transform="rotate(-65.87389 221.44349999999997 214.30382)" cx="221.44349999999997" cy="208.30382" rx="3" ry="5" fill="black"/><ellipse stroke="black" stroke-width="1" transform="rotate(-68.2826 241.0743 227.84010999999998)" cx="241.0743" cy="227.84010999999998" rx="5.5" ry="7" fill="transparent"/> <ellipse stroke="black" stroke-width="1" transform="rotate(-68.2826 241.0743 227.84010999999998)" cx="241.0743" cy="221.84010999999998" rx="3" ry="5" fill="black"/><ellipse stroke="black" stroke-width="1" transform="rotate(-66.45674 275.1459 225.96169)" cx="275.1459" cy="225.96169" rx="5.5" ry="7" fill="transparent"/> <ellipse stroke="black" stroke-width="1" transform="rotate(-66.45674 275.1459 225.96169)" cx="275.1459" cy="219.96169" rx="3" ry="5" fill="black"/><ellipse stroke="black" stroke-width="1" transform="rotate(-67.62576 259.2592 219.36162)" cx="259.2592" cy="219.36162" rx="5.5" ry="7" fill="transparent"/> <ellipse stroke="black" stroke-width="1" transform="rotate(-67.62576 259.2592 219.36162)" cx="259.2592" cy="213.36162" rx="3" ry="5" fill="black"/><polygon stroke="black" stroke-width="2" transform="rotate(-66.71962 479.43623 342.42254)" points="471.43623 352.42254 487.43623 352.42254 479.43623 332.42254" fill="grey"/></svg>