<svg xmlns="http://www.w3.org/2000/svg" width="1200.0" height="800.0"><ellipse stroke="black" stroke-width="1" transform="rotate(-358.1024 519.46358 510.62239999999997)" cx="519.46358" cy="510.62239999999997" rx="5.5" ry="7" fill="transparent"/> <ellipse stroke="black" stroke-width="1" transform="rotate(-358.1024 519.46358 510.62239999999997)" cx="519.46358" cy="504.62239999999997" rx="3" ry="5" fill="black"/><ellipse stroke="black" stroke-width="1" transform="rotate(-23.44102 623.94678 444.19329)" cx="623.94678" cy="444.19329" rx="5.5" ry="7" fill="transparent"/> <ellipse stroke="black" stroke-width="1" transform="rotate(-23.44102 623.94678 444.19329)" cx="623.94678" cy="438.19329" rx="3" ry="5" fill="black"/><ellipse stroke="black" stroke-width="1" transform="rotate(-144.7991 678.73305 282.68219999999997)" cx="678.73305" cy="282.68219999999997" rx="5.5" ry="7" fill="transparent"/> <ellipse stroke="black" stroke-width="1" transform="rotate(-144.7991 678.73305 282.68219999999997)" cx="678.73305" cy="276.68219999999997" rx="3" ry="5" fill="black"/><ellipse stroke="black" stroke-width="1" transform="rotate(-80.32563 696.16993 398.970533)" cx="696.16993" cy="398.970533" rx="5.5" ry="7" fill="transparent"/> <ellipse stroke="black" stroke-width="1" transform="rotate(-80.32563 696.16993 398.970533)" cx="696.16993" cy="392.970533" rx="3" ry="5" fill="black"/><ellipse stroke="black" stroke-width="1" transform="rotate(-174.4833 588.27947 320.51027999999997)" cx="588.27947" cy="320.51027999999997" rx="5.5" ry="7" fill="transparent"/> <ellipse stroke="black" stroke-width="1" transform="rotate(-174.4833 588.27947 320.51027999999997)" cx="588.27947" cy="314.51027999999997" rx="3" ry="5" fill="black"/><ellipse stroke="black" stroke-width="1" transform="rotate(-63.23792 757.6179999999999 430.05008)" cx="757.6179999999999" cy="430.05008" rx="5.5" ry="7" fill="transparent"/> <ellipse stroke="black" stroke-width="1" transform="rotate(-63.23792 757.6179999999999 430.05008)" cx="757.6179999999999" cy="424.05008" rx="3" ry="5" fill="black"/><ellipse stroke="black" stroke-width="1" transform="rotate(-351.6106 513.93296 432.80825)" cx="513.93296" cy="432.80825" rx="5.5" ry="7" fill="transparent"/> <ellipse stroke="black" stroke-width="1" transform="rotate(-351.6106 513.93296 432.80825)" cx="513.93296" cy="426.80825" rx="3" ry="5" fill="black"/><ellipse stroke="black" stroke-width="1" transform="rotate(-189.4496 504.28266 281.9597)" cx="504.28266" cy="281.9597" rx="5.5" ry="7" fill="transparent"/> <ellipse stroke="black" stroke-width="1" transform="rotate(-189.4496 504.28266 281.9597)" cx="504.28266" cy="275.9597" rx="3" ry="5" fill="black"/><ellipse stroke="black" stroke-width="1" transform="rotate(-63.52028 707.3855 461.04802)" cx="707.3855" cy="461.04802" rx="5.5" ry="7" fill="transparent"/> <ellipse stroke="black" stroke-width="1" transform="rotate(-63.52028 707.3855 461.04802)" cx="707.3855" cy="455.04802" rx="3" ry="5" fill="black"/><ellipse stroke="black" stroke-width="1" transform="rotate(-155.226 639.86818 347.67027)" cx="639.86818" cy="347.67027" rx="5.5" ry="7" fill="transparent"/> <ellipse stroke="black" stroke-width="1" transform="rotate(-155.226 639.86818 347.67027)" cx="639.86818" cy="341.67027" rx="3" ry="5" fill="black"/><ellipse stroke="black" stroke-width="1" transform="rotate(-9.094185 503.69421 539.1469)" cx="503.69421" cy="539.1469" rx="5.5" ry="7" fill="transparent"/> <ellipse stroke="black" stroke-width="1" transform="rotate(-9.094185 503.69421 539.1469)" cx="503.69421" cy="533.1469" rx="3" ry="5" fill="black"/><ellipse stroke="black" stroke-width="1" transform="rotate(-154.686 583.0151 361.64922)" cx="583.0151" cy="361.64922" rx="5.5" ry="7" fill="transparent"/> <ellipse stroke="black" stroke-width="1" transform="rotate(-154.686 583.0151 361.64922)" cx="583.0151" cy="355.64922" rx="3" ry="5" fill="black"/><ellipse stroke="black" stroke-width="1" transform="rotate(-26.64998 657.46732 483.14908)" cx="657.46732" cy="483.14908" rx="5.5" ry="7" fill="transparent"/> <ellipse stroke="black" stroke-width="1" transform="rotate(-26.64998 657.46732 483.14908)" cx="657.46732" cy="477.14908" rx="3" ry="5" fill="black"/><ellipse stroke="black" stroke-width="1" transform="rotate(-42.69663 666.05646 515.615)" cx="666.05646" cy="515.615" rx="5.5" ry="7" fill="transparent"/> <ellipse stroke="black" stroke-width="1" transform="rotate(-42.69663 666.05646 515.615)" cx="666.05646" cy="509.615" rx="3" ry="5" fill="black"/><ellipse stroke="black" stroke-width="1" transform="rotate(-194.8103 590.853395 267.2536)" cx="590.853395" cy="267.2536" rx="5.5" ry="7" fill="transparent"/> <ellipse stroke="black" stroke-width="1" transform="rotate(-194.8103 590.853395 267.2536)" cx="590.853395" cy="261.2536" rx="3" ry="5" fill="black"/><ellipse stroke="black" stroke-width="1" transform="rotate(-76.87294 734.2619 423.61576)" cx="734.2619" cy="423.61576" rx="5.5" ry="7" fill="transparent"/> <ellipse stroke="black" stroke-width="1" transform="rotate(-76.87294 734.2619 423.61576)" cx="734.2619" cy="417.61576" rx="3" ry="5" fill="black"/><ellipse stroke="black" stroke-width="1" transform="rotate(-157.4642 575.65461 292.2027)" cx="575.65461" cy="292.2027" rx="5.5" ry="7" fill="transparent"/> <ellipse stroke="black" stroke-width="1" transform="rotate(-157.4642 575.65461 292.2027)" cx="575.65461" cy="286.2027" rx="3" ry="5" fill="black"/><ellipse stroke="black" stroke-width="1" transform="rotate(-177.8354 450.9336 280.581)" cx="450.9336" cy="280.581" rx="5.5" ry="7" fill="transparent"/> <ellipse stroke="black" stroke-width="1" transform="rotate(-177.8354 450.9336 280.581)" cx="450.9336" cy="274.581" rx="3" ry="5" fill="black"/><ellipse stroke="black" stroke-width="1" transform="rotate(-45.65191 626.44096 470.57443)" cx="626.44096" cy="470.57443" rx="5.5" ry="7" fill="transparent"/> <ellipse stroke="black" stroke-width="1" transform="rotate(-45.65191 626.44096 470.57443)" cx="626.44096" cy="464.57443" rx="3" ry="5" fill="black"/><ellipse stroke="black" stroke-width="1" transform="rotate(-147.3338 685.40922 315.34556)" cx="685.40922" cy="315.34556" rx="5.5" ry="7" fill="transparent"/> <ellipse stroke="black" stroke-width="1" transform="rotate(-147.3338 685.40922 315.34556)" cx="685.40922" cy="309.34556" rx="3" ry="5" fill="black"/><polygon stroke="black" stroke-width="2" transform="rotate(-60.83713 1096.1843 676.8887)" points="1088.1843 686.8887 1104.1843 686.8887 1096.1843 666.8887" fill="grey"/></svg>