<svg xmlns="http://www.w3.org/2000/svg" width="1200.0" height="800.0"><ellipse stroke="black" stroke-width="1" transform="rotate(-358.1246 519.42097 511.9152)" cx="519.42097" cy="511.9152" rx="5.5" ry="7" fill="transparent"/> <ellipse stroke="black" stroke-width="1" transform="rotate(-358.1246 519.42097 511.9152)" cx="519.42097" cy="505.9152" rx="3" ry="5" fill="black"/><ellipse stroke="black" stroke-width="1" transform="rotate(-21.83332 624.49264 445.49281)" cx="624.49264" cy="445.49281" rx="5.5" ry="7" fill="transparent"/> <ellipse stroke="black" stroke-width="1" transform="rotate(-21.83332 624.49264 445.49281)" cx="624.49264" cy="439.49281" rx="3" ry="5" fill="black"/><ellipse stroke="black" stroke-width="1" transform="rotate(-153.6744 679.28871 281.7466)" cx="679.28871" cy="281.7466" rx="5.5" ry="7" fill="transparent"/> <ellipse stroke="black" stroke-width="1" transform="rotate(-153.6744 679.28871 281.7466)" cx="679.28871" cy="275.7466" rx="3" ry="5" fill="black"/><ellipse stroke="black" stroke-width="1" transform="rotate(-81.66337 699.14027 399.4483881)" cx="699.14027" cy="399.4483881" rx="5.5" ry="7" fill="transparent"/> <ellipse stroke="black" stroke-width="1" transform="rotate(-81.66337 699.14027 399.4483881)" cx="699.14027" cy="393.4483881" rx="3" ry="5" fill="black"/><ellipse stroke="black" stroke-width="1" transform="rotate(-174.472 588.37504 319.65466)" cx="588.37504" cy="319.65466" rx="5.5" ry="7" fill="transparent"/> <ellipse stroke="black" stroke-width="1" transform="rotate(-174.472 588.37504 319.65466)" cx="588.37504" cy="313.65466" rx="3" ry="5" fill="black"/><ellipse stroke="black" stroke-width="1" transform="rotate(-63.51017 763.5854 433.04352)" cx="763.5854" cy="433.04352" rx="5.5" ry="7" fill="transparent"/> <ellipse stroke="black" stroke-width="1" transform="rotate(-63.51017 763.5854 433.04352)" cx="763.5854" cy="427.04352" rx="3" ry="5" fill="black"/><ellipse stroke="black" stroke-width="1" transform="rotate(-351.6851 513.88683 433.12227)" cx="513.88683" cy="433.12227" rx="5.5" ry="7" fill="transparent"/> <ellipse stroke="black" stroke-width="1" transform="rotate(-351.6851 513.88683 433.12227)" cx="513.88683" cy="427.12227" rx="3" ry="5" fill="black"/><ellipse stroke="black" stroke-width="1" transform="rotate(-189.4136 504.03331000000003 280.459)" cx="504.03331000000003" cy="280.459" rx="5.5" ry="7" fill="transparent"/> <ellipse stroke="black" stroke-width="1" transform="rotate(-189.4136 504.03331000000003 280.459)" cx="504.03331000000003" cy="274.459" rx="3" ry="5" fill="black"/><ellipse stroke="black" stroke-width="1" transform="rotate(-63.37628 712.4353 463.56918)" cx="712.4353" cy="463.56918" rx="5.5" ry="7" fill="transparent"/> <ellipse stroke="black" stroke-width="1" transform="rotate(-63.37628 712.4353 463.56918)" cx="712.4353" cy="457.56918" rx="3" ry="5" fill="black"/><ellipse stroke="black" stroke-width="1" transform="rotate(-170.2682 640.10456 346.95883000000003)" cx="640.10456" cy="346.95883000000003" rx="5.5" ry="7" fill="transparent"/> <ellipse stroke="black" stroke-width="1" transform="rotate(-170.2682 640.10456 346.95883000000003)" cx="640.10456" cy="340.95883000000003" rx="3" ry="5" fill="black"/><ellipse stroke="black" stroke-width="1" transform="rotate(-9.002007 503.89248 540.3911)" cx="503.89248" cy="540.3911" rx="5.5" ry="7" fill="transparent"/> <ellipse stroke="black" stroke-width="1" transform="rotate(-9.002007 503.89248 540.3911)" cx="503.89248" cy="534.3911" rx="3" ry="5" fill="black"/><ellipse stroke="black" stroke-width="1" transform="rotate(-154.918 583.27011 361.10752)" cx="583.27011" cy="361.10752" rx="5.5" ry="7" fill="transparent"/> <ellipse stroke="black" stroke-width="1" transform="rotate(-154.918 583.27011 361.10752)" cx="583.27011" cy="355.10752" rx="3" ry="5" fill="black"/><ellipse stroke="black" stroke-width="1" transform="rotate(-23.38144 658.65556 485.66164000000003)" cx="658.65556" cy="485.66164000000003" rx="5.5" ry="7" fill="transparent"/> <ellipse stroke="black" stroke-width="1" transform="rotate(-23.38144 658.65556 485.66164000000003)" cx="658.65556" cy="479.66164000000003" rx="3" ry="5" fill="black"/><ellipse stroke="black" stroke-width="1" transform="rotate(-40.50748 669.47396 519.4392)" cx="669.47396" cy="519.4392" rx="5.5" ry="7" fill="transparent"/> <ellipse stroke="black" stroke-width="1" transform="rotate(-40.50748 669.47396 519.4392)" cx="669.47396" cy="513.4392" rx="3" ry="5" fill="black"/><ellipse stroke="black" stroke-width="1" transform="rotate(-194.3711 590.612468 266.3298)" cx="590.612468" cy="266.3298" rx="5.5" ry="7" fill="transparent"/> <ellipse stroke="black" stroke-width="1" transform="rotate(-194.3711 590.612468 266.3298)" cx="590.612468" cy="260.3298" rx="3" ry="5" fill="black"/><ellipse stroke="black" stroke-width="1" transform="rotate(-77.1676 739.704 424.87139)" cx="739.704" cy="424.87139" rx="5.5" ry="7" fill="transparent"/> <ellipse stroke="black" stroke-width="1" transform="rotate(-77.1676 739.704 424.87139)" cx="739.704" cy="418.87139" rx="3" ry="5" fill="black"/><ellipse stroke="black" stroke-width="1" transform="rotate(-157.5929 575.98492 291.403)" cx="575.98492" cy="291.403" rx="5.5" ry="7" fill="transparent"/> <ellipse stroke="black" stroke-width="1" transform="rotate(-157.5929 575.98492 291.403)" cx="575.98492" cy="285.403" rx="3" ry="5" fill="black"/><ellipse stroke="black" stroke-width="1" transform="rotate(-177.7596 450.9912 279.0804)" cx="450.9912" cy="279.0804" rx="5.5" ry="7" fill="transparent"/> <ellipse stroke="black" stroke-width="1" transform="rotate(-177.7596 450.9912 279.0804)" cx="450.9912" cy="273.0804" rx="3" ry="5" fill="black"/><ellipse stroke="black" stroke-width="1" transform="rotate(-51.94585 627.11629 471.39882)" cx="627.11629" cy="471.39882" rx="5.5" ry="7" fill="transparent"/> <ellipse stroke="black" stroke-width="1" transform="rotate(-51.94585 627.11629 471.39882)" cx="627.11629" cy="465.39882" rx="3" ry="5" fill="black"/><ellipse stroke="black" stroke-width="1" transform="rotate(-162.7146 686.04514 314.14007)" cx="686.04514" cy="314.14007" rx="5.5" ry="7" fill="transparent"/> <ellipse stroke="black" stroke-width="1" transform="rotate(-162.7146 686.04514 314.14007)" cx="686.04514" cy="308.14007" rx="3" ry="5" fill="black"/><polygon stroke="black" stroke-width="2" transform="rotate(-60.83669 1111.5532 685.4651)" points="1103.5532 695.4651 1119.5532 695.4651 1111.5532 675.4651" fill="grey"/></svg>