<svg xmlns="http://www.w3.org/2000/svg" width="1200.0" height="800.0"><ellipse stroke="black" stroke-width="1" transform="rotate(-358.1135 519.44229 511.2665)" cx="519.44229" cy="511.2665" rx="5.5" ry="7" fill="transparent"/> <ellipse stroke="black" stroke-width="1" transform="rotate(-358.1135 519.44229 511.2665)" cx="519.44229" cy="505.2665" rx="3" ry="5" fill="black"/><ellipse stroke="black" stroke-width="1" transform="rotate(-22.64535 624.24578 444.89248)" cx="624.24578" cy="444.89248" rx="5.5" ry="7" fill="transparent"/> <ellipse stroke="black" stroke-width="1" transform="rotate(-22.64535 624.24578 444.89248)" cx="624.24578" cy="438.89248" rx="3" ry="5" fill="black"/><ellipse stroke="black" stroke-width="1" transform="rotate(-150.2204 679.03294 282.2211)" cx="679.03294" cy="282.2211" rx="5.5" ry="7" fill="transparent"/> <ellipse stroke="black" stroke-width="1" transform="rotate(-150.2204 679.03294 282.2211)" cx="679.03294" cy="276.2211" rx="3" ry="5" fill="black"/><ellipse stroke="black" stroke-width="1" transform="rotate(-80.95393 697.73428 399.2308811)" cx="697.73428" cy="399.2308811" rx="5.5" ry="7" fill="transparent"/> <ellipse stroke="black" stroke-width="1" transform="rotate(-80.95393 697.73428 399.2308811)" cx="697.73428" cy="393.2308811" rx="3" ry="5" fill="black"/><ellipse stroke="black" stroke-width="1" transform="rotate(-174.4776 588.327 320.0848)" cx="588.327" cy="320.0848" rx="5.5" ry="7" fill="transparent"/> <ellipse stroke="black" stroke-width="1" transform="rotate(-174.4776 588.327 320.0848)" cx="588.327" cy="314.0848" rx="3" ry="5" fill="black"/><ellipse stroke="black" stroke-width="1" transform="rotate(-63.38145 760.6610000000001 431.58106)" cx="760.6610000000001" cy="431.58106" rx="5.5" ry="7" fill="transparent"/> <ellipse stroke="black" stroke-width="1" transform="rotate(-63.38145 760.6610000000001 431.58106)" cx="760.6610000000001" cy="425.58106" rx="3" ry="5" fill="black"/><ellipse stroke="black" stroke-width="1" transform="rotate(-351.6479 513.90991 432.96481)" cx="513.90991" cy="432.96481" rx="5.5" ry="7" fill="transparent"/> <ellipse stroke="black" stroke-width="1" transform="rotate(-351.6479 513.90991 432.96481)" cx="513.90991" cy="426.96481" rx="3" ry="5" fill="black"/><ellipse stroke="black" stroke-width="1" transform="rotate(-189.4314 504.15831000000003 281.21209999999996)" cx="504.15831000000003" cy="281.21209999999996" rx="5.5" ry="7" fill="transparent"/> <ellipse stroke="black" stroke-width="1" transform="rotate(-189.4314 504.15831000000003 281.21209999999996)" cx="504.15831000000003" cy="275.21209999999996" rx="3" ry="5" fill="black"/><ellipse stroke="black" stroke-width="1" transform="rotate(-63.4649 709.9789 462.34096999999997)" cx="709.9789" cy="462.34096999999997" rx="5.5" ry="7" fill="transparent"/> <ellipse stroke="black" stroke-width="1" transform="rotate(-63.4649 709.9789 462.34096999999997)" cx="709.9789" cy="456.34096999999997" rx="3" ry="5" fill="black"/><ellipse stroke="black" stroke-width="1" transform="rotate(-163.2265 640.01233 347.33109)" cx="640.01233" cy="347.33109" rx="5.5" ry="7" fill="transparent"/> <ellipse stroke="black" stroke-width="1" transform="rotate(-163.2265 640.01233 347.33109)" cx="640.01233" cy="341.33109" rx="3" ry="5" fill="black"/><ellipse stroke="black" stroke-width="1" transform="rotate(-9.047892 503.79333 539.7672)" cx="503.79333" cy="539.7672" rx="5.5" ry="7" fill="transparent"/> <ellipse stroke="black" stroke-width="1" transform="rotate(-9.047892 503.79333 539.7672)" cx="503.79333" cy="533.7672" rx="3" ry="5" fill="black"/><ellipse stroke="black" stroke-width="1" transform="rotate(-154.8072 583.14255 361.37919999999997)" cx="583.14255" cy="361.37919999999997" rx="5.5" ry="7" fill="transparent"/> <ellipse stroke="black" stroke-width="1" transform="rotate(-154.8072 583.14255 361.37919999999997)" cx="583.14255" cy="355.37919999999997" rx="3" ry="5" fill="black"/><ellipse stroke="black" stroke-width="1" transform="rotate(-25.08424 658.10877 484.45981)" cx="658.10877" cy="484.45981" rx="5.5" ry="7" fill="transparent"/> <ellipse stroke="black" stroke-width="1" transform="rotate(-25.08424 658.10877 484.45981)" cx="658.10877" cy="478.45981" rx="3" ry="5" fill="black"/><ellipse stroke="black" stroke-width="1" transform="rotate(-41.64357 667.83255 517.5662)" cx="667.83255" cy="517.5662" rx="5.5" ry="7" fill="transparent"/> <ellipse stroke="black" stroke-width="1" transform="rotate(-41.64357 667.83255 517.5662)" cx="667.83255" cy="511.5662" rx="3" ry="5" fill="black"/><ellipse stroke="black" stroke-width="1" transform="rotate(-194.5954 590.732002 266.7917)" cx="590.732002" cy="266.7917" rx="5.5" ry="7" fill="transparent"/> <ellipse stroke="black" stroke-width="1" transform="rotate(-194.5954 590.732002 266.7917)" cx="590.732002" cy="260.7917" rx="3" ry="5" fill="black"/><ellipse stroke="black" stroke-width="1" transform="rotate(-77.03353 737.0599 424.26509)" cx="737.0599" cy="424.26509" rx="5.5" ry="7" fill="transparent"/> <ellipse stroke="black" stroke-width="1" transform="rotate(-77.03353 737.0599 424.26509)" cx="737.0599" cy="418.26509" rx="3" ry="5" fill="black"/><ellipse stroke="black" stroke-width="1" transform="rotate(-157.5317 575.81982 291.8034)" cx="575.81982" cy="291.8034" rx="5.5" ry="7" fill="transparent"/> <ellipse stroke="black" stroke-width="1" transform="rotate(-157.5317 575.81982 291.8034)" cx="575.81982" cy="285.8034" rx="3" ry="5" fill="black"/><ellipse stroke="black" stroke-width="1" transform="rotate(-177.7976 450.96209999999996 279.8334)" cx="450.96209999999996" cy="279.8334" rx="5.5" ry="7" fill="transparent"/> <ellipse stroke="black" stroke-width="1" transform="rotate(-177.7976 450.96209999999996 279.8334)" cx="450.96209999999996" cy="273.8334" rx="3" ry="5" fill="black"/><ellipse stroke="black" stroke-width="1" transform="rotate(-47.23743 626.80556 471.03069)" cx="626.80556" cy="471.03069" rx="5.5" ry="7" fill="transparent"/> <ellipse stroke="black" stroke-width="1" transform="rotate(-47.23743 626.80556 471.03069)" cx="626.80556" cy="465.03069" rx="3" ry="5" fill="black"/><ellipse stroke="black" stroke-width="1" transform="rotate(-155.3346 685.76542 314.73541)" cx="685.76542" cy="314.73541" rx="5.5" ry="7" fill="transparent"/> <ellipse stroke="black" stroke-width="1" transform="rotate(-155.3346 685.76542 314.73541)" cx="685.76542" cy="308.73541" rx="3" ry="5" fill="black"/><polygon stroke="black" stroke-width="2" transform="rotate(-60.83669 1103.8688 681.1768999999999)" points="1095.8688 691.1768999999999 1111.8688 691.1768999999999 1103.8688 671.1768999999999" fill="grey"/></svg>