<svg xmlns="http://www.w3.org/2000/svg" width="1400.0" height="800.0"><ellipse stroke="black" stroke-width="1" cx="673.97292" cy="690.115" rx="10" ry="13" fill="transparent"/> <ellipse stroke="black" stroke-width="1" cx="673.97292" cy="680.115" rx="5" ry="7" fill="black"/><ellipse stroke="black" stroke-width="1" cx="656.61088" cy="437.26838" rx="10" ry="13" fill="transparent"/> <ellipse stroke="black" stroke-width="1" cx="656.61088" cy="427.26838" rx="5" ry="7" fill="black"/><ellipse stroke="black" stroke-width="1" cx="861.0218" cy="420.28692" rx="10" ry="13" fill="transparent"/> <ellipse stroke="black" stroke-width="1" cx="861.0218" cy="410.28692" rx="5" ry="7" fill="black"/><ellipse stroke="black" stroke-width="1" cx="557.1101" cy="715.6656" rx="10" ry="13" fill="transparent"/> <ellipse stroke="black" stroke-width="1" cx="557.1101" cy="705.6656" rx="5" ry="7" fill="black"/><ellipse stroke="black" stroke-width="1" cx="756.21352" cy="487.64294" rx="10" ry="13" fill="transparent"/> <ellipse stroke="black" stroke-width="1" cx="756.21352" cy="477.64294" rx="5" ry="7" fill="black"/><ellipse stroke="black" stroke-width="1" cx="803.7498" cy="241.9598" rx="10" ry="13" fill="transparent"/> <ellipse stroke="black" stroke-width="1" cx="803.7498" cy="231.9598" rx="5" ry="7" fill="black"/><ellipse stroke="black" stroke-width="1" cx="538.3878" cy="524.3795" rx="10" ry="13" fill="transparent"/> <ellipse stroke="black" stroke-width="1" cx="538.3878" cy="514.3795" rx="5" ry="7" fill="black"/><ellipse stroke="black" stroke-width="1" cx="727.46658" cy="266.7985" rx="10" ry="13" fill="transparent"/> <ellipse stroke="black" stroke-width="1" cx="727.46658" cy="256.7985" rx="5" ry="7" fill="black"/><ellipse stroke="black" stroke-width="1" cx="655.5706" cy="244.826" rx="10" ry="13" fill="transparent"/> <ellipse stroke="black" stroke-width="1" cx="655.5706" cy="234.826" rx="5" ry="7" fill="black"/><ellipse stroke="black" stroke-width="1" cx="649.06245" cy="301.94078" rx="10" ry="13" fill="transparent"/> <ellipse stroke="black" stroke-width="1" cx="649.06245" cy="291.94078" rx="5" ry="7" fill="black"/><ellipse stroke="black" stroke-width="1" cx="534.47" cy="574.1419000000001" rx="10" ry="13" fill="transparent"/> <ellipse stroke="black" stroke-width="1" cx="534.47" cy="564.1419000000001" rx="5" ry="7" fill="black"/><ellipse stroke="black" stroke-width="1" cx="633.29973" cy="269.18420000000003" rx="10" ry="13" fill="transparent"/> <ellipse stroke="black" stroke-width="1" cx="633.29973" cy="259.18420000000003" rx="5" ry="7" fill="black"/><ellipse stroke="black" stroke-width="1" cx="598.3752" cy="299.8522" rx="10" ry="13" fill="transparent"/> <ellipse stroke="black" stroke-width="1" cx="598.3752" cy="289.8522" rx="5" ry="7" fill="black"/><ellipse stroke="black" stroke-width="1" cx="782.7744299999999" cy="300.76202" rx="10" ry="13" fill="transparent"/> <ellipse stroke="black" stroke-width="1" cx="782.7744299999999" cy="290.76202" rx="5" ry="7" fill="black"/><ellipse stroke="black" stroke-width="1" cx="866.3562" cy="315.61185" rx="10" ry="13" fill="transparent"/> <ellipse stroke="black" stroke-width="1" cx="866.3562" cy="305.61185" rx="5" ry="7" fill="black"/><ellipse stroke="black" stroke-width="1" cx="561.4207" cy="420.38676" rx="10" ry="13" fill="transparent"/> <ellipse stroke="black" stroke-width="1" cx="561.4207" cy="410.38676" rx="5" ry="7" fill="black"/><ellipse stroke="black" stroke-width="1" cx="829.2789" cy="362.00213" rx="10" ry="13" fill="transparent"/> <ellipse stroke="black" stroke-width="1" cx="829.2789" cy="352.00213" rx="5" ry="7" fill="black"/><ellipse stroke="black" stroke-width="1" cx="820.7764" cy="700.4998" rx="10" ry="13" fill="transparent"/> <ellipse stroke="black" stroke-width="1" cx="820.7764" cy="690.4998" rx="5" ry="7" fill="black"/><ellipse stroke="black" stroke-width="1" cx="847.6544" cy="490.45225" rx="10" ry="13" fill="transparent"/> <ellipse stroke="black" stroke-width="1" cx="847.6544" cy="480.45225" rx="5" ry="7" fill="black"/><ellipse stroke="black" stroke-width="1" cx="816.6144" cy="488.58144" rx="10" ry="13" fill="transparent"/> <ellipse stroke="black" stroke-width="1" cx="816.6144" cy="478.58144" rx="5" ry="7" fill="black"/></svg>