<svg xmlns="http://www.w3.org/2000/svg" width="1200.0" height="800.0"><ellipse stroke="black" stroke-width="1" transform="rotate(-358.1079 519.45293 510.9439)" cx="519.45293" cy="510.9439" rx="5.5" ry="7" fill="transparent"/> <ellipse stroke="black" stroke-width="1" transform="rotate(-358.1079 519.45293 510.9439)" cx="519.45293" cy="504.9439" rx="3" ry="5" fill="black"/><ellipse stroke="black" stroke-width="1" transform="rotate(-23.04471 624.10321 444.55576)" cx="624.10321" cy="444.55576" rx="5.5" ry="7" fill="transparent"/> <ellipse stroke="black" stroke-width="1" transform="rotate(-23.04471 624.10321 444.55576)" cx="624.10321" cy="438.55576" rx="3" ry="5" fill="black"/><ellipse stroke="black" stroke-width="1" transform="rotate(-147.7364 678.88976 282.4537)" cx="678.88976" cy="282.4537" rx="5.5" ry="7" fill="transparent"/> <ellipse stroke="black" stroke-width="1" transform="rotate(-147.7364 678.88976 282.4537)" cx="678.88976" cy="276.4537" rx="3" ry="5" fill="black"/><ellipse stroke="black" stroke-width="1" transform="rotate(-80.63183 696.97202 399.1061945)" cx="696.97202" cy="399.1061945" rx="5.5" ry="7" fill="transparent"/> <ellipse stroke="black" stroke-width="1" transform="rotate(-80.63183 696.97202 399.1061945)" cx="696.97202" cy="393.1061945" rx="3" ry="5" fill="black"/><ellipse stroke="black" stroke-width="1" transform="rotate(-174.4804 588.30318 320.29812)" cx="588.30318" cy="320.29812" rx="5.5" ry="7" fill="transparent"/> <ellipse stroke="black" stroke-width="1" transform="rotate(-174.4804 588.30318 320.29812)" cx="588.30318" cy="314.29812" rx="3" ry="5" fill="black"/><ellipse stroke="black" stroke-width="1" transform="rotate(-63.31138 759.1542 430.82412999999997)" cx="759.1542" cy="430.82412999999997" rx="5.5" ry="7" fill="transparent"/> <ellipse stroke="black" stroke-width="1" transform="rotate(-63.31138 759.1542 430.82412999999997)" cx="759.1542" cy="424.82412999999997" rx="3" ry="5" fill="black"/><ellipse stroke="black" stroke-width="1" transform="rotate(-351.6294 513.92144 432.88642)" cx="513.92144" cy="432.88642" rx="5.5" ry="7" fill="transparent"/> <ellipse stroke="black" stroke-width="1" transform="rotate(-351.6294 513.92144 432.88642)" cx="513.92144" cy="426.88642" rx="3" ry="5" fill="black"/><ellipse stroke="black" stroke-width="1" transform="rotate(-189.4405 504.22056 281.5866)" cx="504.22056" cy="281.5866" rx="5.5" ry="7" fill="transparent"/> <ellipse stroke="black" stroke-width="1" transform="rotate(-189.4405 504.22056 281.5866)" cx="504.22056" cy="275.5866" rx="3" ry="5" fill="black"/><ellipse stroke="black" stroke-width="1" transform="rotate(-63.49665 708.6991 461.70253)" cx="708.6991" cy="461.70253" rx="5.5" ry="7" fill="transparent"/> <ellipse stroke="black" stroke-width="1" transform="rotate(-63.49665 708.6991 461.70253)" cx="708.6991" cy="455.70253" rx="3" ry="5" fill="black"/><ellipse stroke="black" stroke-width="1" transform="rotate(-159.2261 639.94763 347.50535)" cx="639.94763" cy="347.50535" rx="5.5" ry="7" fill="transparent"/> <ellipse stroke="black" stroke-width="1" transform="rotate(-159.2261 639.94763 347.50535)" cx="639.94763" cy="341.50535" rx="3" ry="5" fill="black"/><ellipse stroke="black" stroke-width="1" transform="rotate(-9.070991 503.74376 539.4566)" cx="503.74376" cy="539.4566" rx="5.5" ry="7" fill="transparent"/> <ellipse stroke="black" stroke-width="1" transform="rotate(-9.070991 503.74376 539.4566)" cx="503.74376" cy="533.4566" rx="3" ry="5" fill="black"/><ellipse stroke="black" stroke-width="1" transform="rotate(-154.7481 583.07881 361.51441)" cx="583.07881" cy="361.51441" rx="5.5" ry="7" fill="transparent"/> <ellipse stroke="black" stroke-width="1" transform="rotate(-154.7481 583.07881 361.51441)" cx="583.07881" cy="355.51441" rx="3" ry="5" fill="black"/><ellipse stroke="black" stroke-width="1" transform="rotate(-25.88227 657.80021 483.81809)" cx="657.80021" cy="483.81809" rx="5.5" ry="7" fill="transparent"/> <ellipse stroke="black" stroke-width="1" transform="rotate(-25.88227 657.80021 483.81809)" cx="657.80021" cy="477.81809" rx="3" ry="5" fill="black"/><ellipse stroke="black" stroke-width="1" transform="rotate(-42.17976 666.9612999999999 516.6001)" cx="666.9612999999999" cy="516.6001" rx="5.5" ry="7" fill="transparent"/> <ellipse stroke="black" stroke-width="1" transform="rotate(-42.17976 666.9612999999999 516.6001)" cx="666.9612999999999" cy="510.6001" rx="3" ry="5" fill="black"/><ellipse stroke="black" stroke-width="1" transform="rotate(-194.7041 590.792471 267.0227)" cx="590.792471" cy="267.0227" rx="5.5" ry="7" fill="transparent"/> <ellipse stroke="black" stroke-width="1" transform="rotate(-194.7041 590.792471 267.0227)" cx="590.792471" cy="261.0227" rx="3" ry="5" fill="black"/><ellipse stroke="black" stroke-width="1" transform="rotate(-76.9564 735.6798 423.94587)" cx="735.6798" cy="423.94587" rx="5.5" ry="7" fill="transparent"/> <ellipse stroke="black" stroke-width="1" transform="rotate(-76.9564 735.6798 423.94587)" cx="735.6798" cy="417.94587" rx="3" ry="5" fill="black"/><ellipse stroke="black" stroke-width="1" transform="rotate(-157.4987 575.73723 292.0032)" cx="575.73723" cy="292.0032" rx="5.5" ry="7" fill="transparent"/> <ellipse stroke="black" stroke-width="1" transform="rotate(-157.4987 575.73723 292.0032)" cx="575.73723" cy="286.0032" rx="3" ry="5" fill="black"/><ellipse stroke="black" stroke-width="1" transform="rotate(-177.8165 450.94780000000003 280.2078)" cx="450.94780000000003" cy="280.2078" rx="5.5" ry="7" fill="transparent"/> <ellipse stroke="black" stroke-width="1" transform="rotate(-177.8165 450.94780000000003 280.2078)" cx="450.94780000000003" cy="274.2078" rx="3" ry="5" fill="black"/><ellipse stroke="black" stroke-width="1" transform="rotate(-46.37787 626.63043 470.814)" cx="626.63043" cy="470.814" rx="5.5" ry="7" fill="transparent"/> <ellipse stroke="black" stroke-width="1" transform="rotate(-46.37787 626.63043 470.814)" cx="626.63043" cy="464.814" rx="3" ry="5" fill="black"/><ellipse stroke="black" stroke-width="1" transform="rotate(-151.3341 685.60007 315.04675)" cx="685.60007" cy="315.04675" rx="5.5" ry="7" fill="transparent"/> <ellipse stroke="black" stroke-width="1" transform="rotate(-151.3341 685.60007 315.04675)" cx="685.60007" cy="309.04675" rx="3" ry="5" fill="black"/><polygon stroke="black" stroke-width="2" transform="rotate(-60.83713 1100.0265 679.0328)" points="1092.0265 689.0328 1108.0265 689.0328 1100.0265 669.0328" fill="grey"/></svg>