<svg xmlns="http://www.w3.org/2000/svg" width="1200.0" height="800.0"><ellipse stroke="black" stroke-width="1" transform="rotate(-358.119 519.43163 511.5903)" cx="519.43163" cy="511.5903" rx="5.5" ry="7" fill="transparent"/> <ellipse stroke="black" stroke-width="1" transform="rotate(-358.119 519.43163 511.5903)" cx="519.43163" cy="505.5903" rx="3" ry="5" fill="black"/><ellipse stroke="black" stroke-width="1" transform="rotate(-22.24186 624.3753 445.20446)" cx="624.3753" cy="445.20446" rx="5.5" ry="7" fill="transparent"/> <ellipse stroke="black" stroke-width="1" transform="rotate(-22.24186 624.3753 445.20446)" cx="624.3753" cy="439.20446" rx="3" ry="5" fill="black"/><ellipse stroke="black" stroke-width="1" transform="rotate(-152.1925 679.16508 281.9852)" cx="679.16508" cy="281.9852" rx="5.5" ry="7" fill="transparent"/> <ellipse stroke="black" stroke-width="1" transform="rotate(-152.1925 679.16508 281.9852)" cx="679.16508" cy="275.9852" rx="3" ry="5" fill="black"/><ellipse stroke="black" stroke-width="1" transform="rotate(-81.29508 698.45693 399.3448633)" cx="698.45693" cy="399.3448633" rx="5.5" ry="7" fill="transparent"/> <ellipse stroke="black" stroke-width="1" transform="rotate(-81.29508 698.45693 399.3448633)" cx="698.45693" cy="393.3448633" rx="3" ry="5" fill="black"/><ellipse stroke="black" stroke-width="1" transform="rotate(-174.4748 588.35095 319.87031)" cx="588.35095" cy="319.87031" rx="5.5" ry="7" fill="transparent"/> <ellipse stroke="black" stroke-width="1" transform="rotate(-174.4748 588.35095 319.87031)" cx="588.35095" cy="313.87031" rx="3" ry="5" fill="black"/><ellipse stroke="black" stroke-width="1" transform="rotate(-63.44778 762.1383000000001 432.32086)" cx="762.1383000000001" cy="432.32086" rx="5.5" ry="7" fill="transparent"/> <ellipse stroke="black" stroke-width="1" transform="rotate(-63.44778 762.1383000000001 432.32086)" cx="762.1383000000001" cy="426.32086" rx="3" ry="5" fill="black"/><ellipse stroke="black" stroke-width="1" transform="rotate(-351.6665 513.89837 433.04343)" cx="513.89837" cy="433.04343" rx="5.5" ry="7" fill="transparent"/> <ellipse stroke="black" stroke-width="1" transform="rotate(-351.6665 513.89837 433.04343)" cx="513.89837" cy="427.04343" rx="3" ry="5" fill="black"/><ellipse stroke="black" stroke-width="1" transform="rotate(-189.4225 504.09589 280.83619999999996)" cx="504.09589" cy="280.83619999999996" rx="5.5" ry="7" fill="transparent"/> <ellipse stroke="black" stroke-width="1" transform="rotate(-189.4225 504.09589 280.83619999999996)" cx="504.09589" cy="274.83619999999996" rx="3" ry="5" fill="black"/><ellipse stroke="black" stroke-width="1" transform="rotate(-63.42484 711.2245 462.96322)" cx="711.2245" cy="462.96322" rx="5.5" ry="7" fill="transparent"/> <ellipse stroke="black" stroke-width="1" transform="rotate(-63.42484 711.2245 462.96322)" cx="711.2245" cy="456.96322" rx="3" ry="5" fill="black"/><ellipse stroke="black" stroke-width="1" transform="rotate(-167.093 640.06403 347.14854)" cx="640.06403" cy="347.14854" rx="5.5" ry="7" fill="transparent"/> <ellipse stroke="black" stroke-width="1" transform="rotate(-167.093 640.06403 347.14854)" cx="640.06403" cy="341.14854" rx="3" ry="5" fill="black"/><ellipse stroke="black" stroke-width="1" transform="rotate(-9.024872 503.8429 540.0787)" cx="503.8429" cy="540.0787" rx="5.5" ry="7" fill="transparent"/> <ellipse stroke="black" stroke-width="1" transform="rotate(-9.024872 503.8429 540.0787)" cx="503.8429" cy="534.0787" rx="3" ry="5" fill="black"/><ellipse stroke="black" stroke-width="1" transform="rotate(-154.8637 583.20631 361.24357)" cx="583.20631" cy="361.24357" rx="5.5" ry="7" fill="transparent"/> <ellipse stroke="black" stroke-width="1" transform="rotate(-154.8637 583.20631 361.24357)" cx="583.20631" cy="355.24357" rx="3" ry="5" fill="black"/><ellipse stroke="black" stroke-width="1" transform="rotate(-24.25208 658.39365 485.07428000000004)" cx="658.39365" cy="485.07428000000004" rx="5.5" ry="7" fill="transparent"/> <ellipse stroke="black" stroke-width="1" transform="rotate(-24.25208 658.39365 485.07428000000004)" cx="658.39365" cy="479.07428000000004" rx="3" ry="5" fill="black"/><ellipse stroke="black" stroke-width="1" transform="rotate(-41.08667 668.67013 518.5127)" cx="668.67013" cy="518.5127" rx="5.5" ry="7" fill="transparent"/> <ellipse stroke="black" stroke-width="1" transform="rotate(-41.08667 668.67013 518.5127)" cx="668.67013" cy="512.5127" rx="3" ry="5" fill="black"/><ellipse stroke="black" stroke-width="1" transform="rotate(-194.4845 590.671998 266.5608)" cx="590.671998" cy="266.5608" rx="5.5" ry="7" fill="transparent"/> <ellipse stroke="black" stroke-width="1" transform="rotate(-194.4845 590.671998 266.5608)" cx="590.671998" cy="260.5608" rx="3" ry="5" fill="black"/><ellipse stroke="black" stroke-width="1" transform="rotate(-77.10404 738.4014999999999 424.57356)" cx="738.4014999999999" cy="424.57356" rx="5.5" ry="7" fill="transparent"/> <ellipse stroke="black" stroke-width="1" transform="rotate(-77.10404 738.4014999999999 424.57356)" cx="738.4014999999999" cy="418.57356" rx="3" ry="5" fill="black"/><ellipse stroke="black" stroke-width="1" transform="rotate(-157.5631 575.90238 291.6033)" cx="575.90238" cy="291.6033" rx="5.5" ry="7" fill="transparent"/> <ellipse stroke="black" stroke-width="1" transform="rotate(-157.5631 575.90238 291.6033)" cx="575.90238" cy="285.6033" rx="3" ry="5" fill="black"/><ellipse stroke="black" stroke-width="1" transform="rotate(-177.7786 450.97659999999996 279.4576)" cx="450.97659999999996" cy="279.4576" rx="5.5" ry="7" fill="transparent"/> <ellipse stroke="black" stroke-width="1" transform="rotate(-177.7786 450.97659999999996 279.4576)" cx="450.97659999999996" cy="273.4576" rx="3" ry="5" fill="black"/><ellipse stroke="black" stroke-width="1" transform="rotate(-48.24741 626.96723 471.22534)" cx="626.96723" cy="471.22534" rx="5.5" ry="7" fill="transparent"/> <ellipse stroke="black" stroke-width="1" transform="rotate(-48.24741 626.96723 471.22534)" cx="626.96723" cy="465.22534" rx="3" ry="5" fill="black"/><ellipse stroke="black" stroke-width="1" transform="rotate(-159.2853 685.90716 314.41234)" cx="685.90716" cy="314.41234" rx="5.5" ry="7" fill="transparent"/> <ellipse stroke="black" stroke-width="1" transform="rotate(-159.2853 685.90716 314.41234)" cx="685.90716" cy="308.41234" rx="3" ry="5" fill="black"/><polygon stroke="black" stroke-width="2" transform="rotate(-60.83713 1107.711 683.321)" points="1099.711 693.321 1115.711 693.321 1107.711 673.321" fill="grey"/></svg>