<svg xmlns="http://www.w3.org/2000/svg" width="1200.0" height="800.0"><ellipse stroke="black" stroke-width="1" transform="rotate(-358.1301 519.41031 512.2413)" cx="519.41031" cy="512.2413" rx="5.5" ry="7" fill="transparent"/> <ellipse stroke="black" stroke-width="1" transform="rotate(-358.1301 519.41031 512.2413)" cx="519.41031" cy="506.2413" rx="3" ry="5" fill="black"/><ellipse stroke="black" stroke-width="1" transform="rotate(-21.4189 624.59862 445.7587)" cx="624.59862" cy="445.7587" rx="5.5" ry="7" fill="transparent"/> <ellipse stroke="black" stroke-width="1" transform="rotate(-21.4189 624.59862 445.7587)" cx="624.59862" cy="439.7587" rx="3" ry="5" fill="black"/><ellipse stroke="black" stroke-width="1" transform="rotate(-154.5689 679.40643 281.5057)" cx="679.40643" cy="281.5057" rx="5.5" ry="7" fill="transparent"/> <ellipse stroke="black" stroke-width="1" transform="rotate(-154.5689 679.40643 281.5057)" cx="679.40643" cy="275.5057" rx="3" ry="5" fill="black"/><ellipse stroke="black" stroke-width="1" transform="rotate(-82.05862 699.78471 399.5417117)" cx="699.78471" cy="399.5417117" rx="5.5" ry="7" fill="transparent"/> <ellipse stroke="black" stroke-width="1" transform="rotate(-82.05862 699.78471 399.5417117)" cx="699.78471" cy="393.5417117" rx="3" ry="5" fill="black"/><ellipse stroke="black" stroke-width="1" transform="rotate(-174.4693 588.39928 319.43782999999996)" cx="588.39928" cy="319.43782999999996" rx="5.5" ry="7" fill="transparent"/> <ellipse stroke="black" stroke-width="1" transform="rotate(-174.4693 588.39928 319.43782999999996)" cx="588.39928" cy="313.43782999999996" rx="3" ry="5" fill="black"/><ellipse stroke="black" stroke-width="1" transform="rotate(-63.56845 765.0019 433.74901)" cx="765.0019" cy="433.74901" rx="5.5" ry="7" fill="transparent"/> <ellipse stroke="black" stroke-width="1" transform="rotate(-63.56845 765.0019 433.74901)" cx="765.0019" cy="427.74901" rx="3" ry="5" fill="black"/><ellipse stroke="black" stroke-width="1" transform="rotate(-351.7036 513.87528 433.20133)" cx="513.87528" cy="433.20133" rx="5.5" ry="7" fill="transparent"/> <ellipse stroke="black" stroke-width="1" transform="rotate(-351.7036 513.87528 433.20133)" cx="513.87528" cy="427.20133" rx="3" ry="5" fill="black"/><ellipse stroke="black" stroke-width="1" transform="rotate(-189.4048 503.97056 280.0804)" cx="503.97056" cy="280.0804" rx="5.5" ry="7" fill="transparent"/> <ellipse stroke="black" stroke-width="1" transform="rotate(-189.4048 503.97056 280.0804)" cx="503.97056" cy="274.0804" rx="3" ry="5" fill="black"/><ellipse stroke="black" stroke-width="1" transform="rotate(-63.31896 713.6107 464.15876000000003)" cx="713.6107" cy="464.15876000000003" rx="5.5" ry="7" fill="transparent"/> <ellipse stroke="black" stroke-width="1" transform="rotate(-63.31896 713.6107 464.15876000000003)" cx="713.6107" cy="458.15876000000003" rx="3" ry="5" fill="black"/><ellipse stroke="black" stroke-width="1" transform="rotate(-172.7263 640.1358 346.76311)" cx="640.1358" cy="346.76311" rx="5.5" ry="7" fill="transparent"/> <ellipse stroke="black" stroke-width="1" transform="rotate(-172.7263 640.1358 346.76311)" cx="640.1358" cy="340.76311" rx="3" ry="5" fill="black"/><ellipse stroke="black" stroke-width="1" transform="rotate(-8.979258 503.94207 540.7043)" cx="503.94207" cy="540.7043" rx="5.5" ry="7" fill="transparent"/> <ellipse stroke="black" stroke-width="1" transform="rotate(-8.979258 503.94207 540.7043)" cx="503.94207" cy="534.7043" rx="3" ry="5" fill="black"/><ellipse stroke="black" stroke-width="1" transform="rotate(-154.9704 583.33395 360.97102)" cx="583.33395" cy="360.97102" rx="5.5" ry="7" fill="transparent"/> <ellipse stroke="black" stroke-width="1" transform="rotate(-154.9704 583.33395 360.97102)" cx="583.33395" cy="354.97102" rx="3" ry="5" fill="black"/><ellipse stroke="black" stroke-width="1" transform="rotate(-20.94385 658.89519 486.22208)" cx="658.89519" cy="486.22208" rx="5.5" ry="7" fill="transparent"/> <ellipse stroke="black" stroke-width="1" transform="rotate(-20.94385 658.89519 486.22208)" cx="658.89519" cy="480.22208" rx="3" ry="5" fill="black"/><ellipse stroke="black" stroke-width="1" transform="rotate(-39.9041 670.24401 520.3454)" cx="670.24401" cy="520.3454" rx="5.5" ry="7" fill="transparent"/> <ellipse stroke="black" stroke-width="1" transform="rotate(-39.9041 670.24401 520.3454)" cx="670.24401" cy="514.3454" rx="3" ry="5" fill="black"/><ellipse stroke="black" stroke-width="1" transform="rotate(-194.2554 590.553418 266.0988)" cx="590.553418" cy="266.0988" rx="5.5" ry="7" fill="transparent"/> <ellipse stroke="black" stroke-width="1" transform="rotate(-194.2554 590.553418 266.0988)" cx="590.553418" cy="260.0988" rx="3" ry="5" fill="black"/><ellipse stroke="black" stroke-width="1" transform="rotate(-77.22393 740.9667999999999 425.15871)" cx="740.9667999999999" cy="425.15871" rx="5.5" ry="7" fill="transparent"/> <ellipse stroke="black" stroke-width="1" transform="rotate(-77.22393 740.9667999999999 425.15871)" cx="740.9667999999999" cy="419.15871" rx="3" ry="5" fill="black"/><ellipse stroke="black" stroke-width="1" transform="rotate(-157.6211 576.06744 291.2024)" cx="576.06744" cy="291.2024" rx="5.5" ry="7" fill="transparent"/> <ellipse stroke="black" stroke-width="1" transform="rotate(-157.6211 576.06744 291.2024)" cx="576.06744" cy="285.2024" rx="3" ry="5" fill="black"/><ellipse stroke="black" stroke-width="1" transform="rotate(-177.7405 451.0061 278.7019)" cx="451.0061" cy="278.7019" rx="5.5" ry="7" fill="transparent"/> <ellipse stroke="black" stroke-width="1" transform="rotate(-177.7405 451.0061 278.7019)" cx="451.0061" cy="272.7019" rx="3" ry="5" fill="black"/><ellipse stroke="black" stroke-width="1" transform="rotate(-55.93169 627.2536 471.55201999999997)" cx="627.2536" cy="471.55201999999997" rx="5.5" ry="7" fill="transparent"/> <ellipse stroke="black" stroke-width="1" transform="rotate(-55.93169 627.2536 471.55201999999997)" cx="627.2536" cy="465.55201999999997" rx="3" ry="5" fill="black"/><ellipse stroke="black" stroke-width="1" transform="rotate(-162.7118 686.16304 313.85935)" cx="686.16304" cy="313.85935" rx="5.5" ry="7" fill="transparent"/> <ellipse stroke="black" stroke-width="1" transform="rotate(-162.7118 686.16304 313.85935)" cx="686.16304" cy="307.85935" rx="3" ry="5" fill="black"/><polygon stroke="black" stroke-width="2" transform="rotate(-60.83669 1115.3955 687.6092)" points="1107.3955 697.6092 1123.3955 697.6092 1115.3955 677.6092" fill="grey"/></svg>