<svg xmlns="http://www.w3.org/2000/svg" width="900.0" height="700.0"><rect stroke="transparent" x="250.0" y="200.0" width="650.0" height="400.0" fill="white"/><ellipse stroke="black" stroke-width="1" transform="rotate(-164.799 279.6633 314.86544)" cx="279.6633" cy="314.86544" rx="5.5" ry="7" fill="white"/> <ellipse stroke="black" stroke-width="1" transform="rotate(-164.799 279.6633 314.86544)" cx="279.6633" cy="308.86544" rx="3" ry="5" fill="black"/><ellipse stroke="black" stroke-width="1" transform="rotate(-64.56497 506.40681 368.30774)" cx="506.40681" cy="368.30774" rx="5.5" ry="7" fill="white"/> <ellipse stroke="black" stroke-width="1" transform="rotate(-64.56497 506.40681 368.30774)" cx="506.40681" cy="362.30774" rx="3" ry="5" fill="black"/><ellipse stroke="black" stroke-width="1" transform="rotate(-165.0415 339.5711 313.88238)" cx="339.5711" cy="313.88238" rx="5.5" ry="7" fill="white"/> <ellipse stroke="black" stroke-width="1" transform="rotate(-165.0415 339.5711 313.88238)" cx="339.5711" cy="307.88238" rx="3" ry="5" fill="black"/><ellipse stroke="black" stroke-width="1" transform="rotate(-55.91466 429.03997 392.26228)" cx="429.03997" cy="392.26228" rx="5.5" ry="7" fill="white"/> <ellipse stroke="black" stroke-width="1" transform="rotate(-55.91466 429.03997 392.26228)" cx="429.03997" cy="386.26228" rx="3" ry="5" fill="black"/><ellipse stroke="black" stroke-width="1" transform="rotate(-47.04668 380.49934 400.26511)" cx="380.49934" cy="400.26511" rx="5.5" ry="7" fill="white"/> <ellipse stroke="black" stroke-width="1" transform="rotate(-47.04668 380.49934 400.26511)" cx="380.49934" cy="394.26511" rx="3" ry="5" fill="black"/><ellipse stroke="black" stroke-width="1" transform="rotate(-211.0168 341.7729 282.24951)" cx="341.7729" cy="282.24951" rx="5.5" ry="7" fill="white"/> <ellipse stroke="black" stroke-width="1" transform="rotate(-211.0168 341.7729 282.24951)" cx="341.7729" cy="276.24951" rx="3" ry="5" fill="black"/><ellipse stroke="black" stroke-width="1" transform="rotate(-35.84027 358.59742 436.06534999999997)" cx="358.59742" cy="436.06534999999997" rx="5.5" ry="7" fill="white"/> <ellipse stroke="black" stroke-width="1" transform="rotate(-35.84027 358.59742 436.06534999999997)" cx="358.59742" cy="430.06534999999997" rx="3" ry="5" fill="black"/><ellipse stroke="black" stroke-width="1" transform="rotate(-22.02625 326.06510000000003 410.48529)" cx="326.06510000000003" cy="410.48529" rx="5.5" ry="7" fill="white"/> <ellipse stroke="black" stroke-width="1" transform="rotate(-22.02625 326.06510000000003 410.48529)" cx="326.06510000000003" cy="404.48529" rx="3" ry="5" fill="black"/><ellipse stroke="black" stroke-width="1" transform="rotate(-284.9797 300.6411 354.980575)" cx="300.6411" cy="354.980575" rx="5.5" ry="7" fill="white"/> <ellipse stroke="black" stroke-width="1" transform="rotate(-284.9797 300.6411 354.980575)" cx="300.6411" cy="348.980575" rx="3" ry="5" fill="black"/><ellipse stroke="black" stroke-width="1" transform="rotate(-185.6021 291.0769 275.60488)" cx="291.0769" cy="275.60488" rx="5.5" ry="7" fill="white"/> <ellipse stroke="black" stroke-width="1" transform="rotate(-185.6021 291.0769 275.60488)" cx="291.0769" cy="269.60488" rx="3" ry="5" fill="black"/><ellipse stroke="black" stroke-width="1" transform="rotate(-24.99911 293.1972 393.75345)" cx="293.1972" cy="393.75345" rx="5.5" ry="7" fill="white"/> <ellipse stroke="black" stroke-width="1" transform="rotate(-24.99911 293.1972 393.75345)" cx="293.1972" cy="387.75345" rx="3" ry="5" fill="black"/><ellipse stroke="black" stroke-width="1" transform="rotate(-133.8078 358.95745 352.932723)" cx="358.95745" cy="352.932723" rx="5.5" ry="7" fill="white"/> <ellipse stroke="black" stroke-width="1" transform="rotate(-133.8078 358.95745 352.932723)" cx="358.95745" cy="346.932723" rx="3" ry="5" fill="black"/><ellipse stroke="black" stroke-width="1" transform="rotate(-42.79445 396.89474 358.986745)" cx="396.89474" cy="358.986745" rx="5.5" ry="7" fill="white"/> <ellipse stroke="black" stroke-width="1" transform="rotate(-42.79445 396.89474 358.986745)" cx="396.89474" cy="352.986745" rx="3" ry="5" fill="black"/><ellipse stroke="black" stroke-width="1" transform="rotate(-53.77935 455.520077 410.59885)" cx="455.520077" cy="410.59885" rx="5.5" ry="7" fill="white"/> <ellipse stroke="black" stroke-width="1" transform="rotate(-53.77935 455.520077 410.59885)" cx="455.520077" cy="404.59885" rx="3" ry="5" fill="black"/><ellipse stroke="black" stroke-width="1" transform="rotate(-74.09756 449.4954143 345.000326)" cx="449.4954143" cy="345.000326" rx="5.5" ry="7" fill="white"/> <ellipse stroke="black" stroke-width="1" transform="rotate(-74.09756 449.4954143 345.000326)" cx="449.4954143" cy="339.000326" rx="3" ry="5" fill="black"/><ellipse stroke="black" stroke-width="1" transform="rotate(-67.4227 484.73033 352.392763)" cx="484.73033" cy="352.392763" rx="5.5" ry="7" fill="white"/> <ellipse stroke="black" stroke-width="1" transform="rotate(-67.4227 484.73033 352.392763)" cx="484.73033" cy="346.392763" rx="3" ry="5" fill="black"/><ellipse stroke="black" stroke-width="1" transform="rotate(-80.37469 519.03542 331.47063)" cx="519.03542" cy="331.47063" rx="5.5" ry="7" fill="white"/> <ellipse stroke="black" stroke-width="1" transform="rotate(-80.37469 519.03542 331.47063)" cx="519.03542" cy="325.47063" rx="3" ry="5" fill="black"/><ellipse stroke="black" stroke-width="1" transform="rotate(-90.00106 486.93501 298.85137)" cx="486.93501" cy="298.85137" rx="5.5" ry="7" fill="white"/> <ellipse stroke="black" stroke-width="1" transform="rotate(-90.00106 486.93501 298.85137)" cx="486.93501" cy="292.85137" rx="3" ry="5" fill="black"/><ellipse stroke="black" stroke-width="1" transform="rotate(-121.7962 397.10325 303.7962)" cx="397.10325" cy="303.7962" rx="5.5" ry="7" fill="white"/> <ellipse stroke="black" stroke-width="1" transform="rotate(-121.7962 397.10325 303.7962)" cx="397.10325" cy="297.7962" rx="3" ry="5" fill="black"/><ellipse stroke="black" stroke-width="1" transform="rotate(-61.48181 478.35095 384.16816)" cx="478.35095" cy="384.16816" rx="5.5" ry="7" fill="white"/> <ellipse stroke="black" stroke-width="1" transform="rotate(-61.48181 478.35095 384.16816)" cx="478.35095" cy="378.16816" rx="3" ry="5" fill="black"/><polygon stroke="black" stroke-width="2" transform="rotate(-60.93811 831.836 562.1956)" points="823.836 572.1956 839.836 572.1956 831.836 552.1956" fill="grey"/></svg>