<svg xmlns="http://www.w3.org/2000/svg" width="900.0" height="700.0"><rect stroke="transparent" x="150.0" y="150.0" width="600.0" height="400.0" fill="white"/><ellipse stroke="black" stroke-width="1" transform="rotate(-177.2402 279.55039999999997 301.52177)" cx="279.55039999999997" cy="301.52177" rx="5.5" ry="7" fill="white"/> <ellipse stroke="black" stroke-width="1" transform="rotate(-177.2402 279.55039999999997 301.52177)" cx="279.55039999999997" cy="295.52177" rx="3" ry="5" fill="black"/><ellipse stroke="black" stroke-width="1" transform="rotate(-359.7201 575.1204 407.69554)" cx="575.1204" cy="407.69554" rx="5.5" ry="7" fill="white"/> <ellipse stroke="black" stroke-width="1" transform="rotate(-359.7201 575.1204 407.69554)" cx="575.1204" cy="401.69554" rx="3" ry="5" fill="black"/><ellipse stroke="black" stroke-width="1" transform="rotate(-181.8946 339.5424 301.8123)" cx="339.5424" cy="301.8123" rx="5.5" ry="7" fill="white"/> <ellipse stroke="black" stroke-width="1" transform="rotate(-181.8946 339.5424 301.8123)" cx="339.5424" cy="295.8123" rx="3" ry="5" fill="black"/><ellipse stroke="black" stroke-width="1" transform="rotate(-6.324156 449.4647419 422.02255)" cx="449.4647419" cy="422.02255" rx="5.5" ry="7" fill="white"/> <ellipse stroke="black" stroke-width="1" transform="rotate(-6.324156 449.4647419 422.02255)" cx="449.4647419" cy="416.02255" rx="3" ry="5" fill="black"/><ellipse stroke="black" stroke-width="1" transform="rotate(-358.7142 383.56288 421.62377000000004)" cx="383.56288" cy="421.62377000000004" rx="5.5" ry="7" fill="white"/> <ellipse stroke="black" stroke-width="1" transform="rotate(-358.7142 383.56288 421.62377000000004)" cx="383.56288" cy="415.62377000000004" rx="3" ry="5" fill="black"/><ellipse stroke="black" stroke-width="1" transform="rotate(-204.4192 332.9732 270.19509)" cx="332.9732" cy="270.19509" rx="5.5" ry="7" fill="white"/> <ellipse stroke="black" stroke-width="1" transform="rotate(-204.4192 332.9732 270.19509)" cx="332.9732" cy="264.19509" rx="3" ry="5" fill="black"/><ellipse stroke="black" stroke-width="1" transform="rotate(-350.8499 358.98659 463.8003)" cx="358.98659" cy="463.8003" rx="5.5" ry="7" fill="white"/> <ellipse stroke="black" stroke-width="1" transform="rotate(-350.8499 358.98659 463.8003)" cx="358.98659" cy="457.8003" rx="3" ry="5" fill="black"/><ellipse stroke="black" stroke-width="1" transform="rotate(-350.0824 324.93 434.29186)" cx="324.93" cy="434.29186" rx="5.5" ry="7" fill="white"/> <ellipse stroke="black" stroke-width="1" transform="rotate(-350.0824 324.93 434.29186)" cx="324.93" cy="428.29186" rx="3" ry="5" fill="black"/><ellipse stroke="black" stroke-width="1" transform="rotate(-279.0338 298.92920000000004 353.675464)" cx="298.92920000000004" cy="353.675464" rx="5.5" ry="7" fill="white"/> <ellipse stroke="black" stroke-width="1" transform="rotate(-279.0338 298.92920000000004 353.675464)" cx="298.92920000000004" cy="347.675464" rx="3" ry="5" fill="black"/><ellipse stroke="black" stroke-width="1" transform="rotate(-177.4557 290.9207 254.05424)" cx="290.9207" cy="254.05424" rx="5.5" ry="7" fill="white"/> <ellipse stroke="black" stroke-width="1" transform="rotate(-177.4557 290.9207 254.05424)" cx="290.9207" cy="248.05424" rx="3" ry="5" fill="black"/><ellipse stroke="black" stroke-width="1" transform="rotate(-9.013052 296.5129 406.44932)" cx="296.5129" cy="406.44932" rx="5.5" ry="7" fill="white"/> <ellipse stroke="black" stroke-width="1" transform="rotate(-9.013052 296.5129 406.44932)" cx="296.5129" cy="400.44932" rx="3" ry="5" fill="black"/><ellipse stroke="black" stroke-width="1" transform="rotate(-179.8338 358.78384 351.027091)" cx="358.78384" cy="351.027091" rx="5.5" ry="7" fill="white"/> <ellipse stroke="black" stroke-width="1" transform="rotate(-179.8338 358.78384 351.027091)" cx="358.78384" cy="345.027091" rx="3" ry="5" fill="black"/><ellipse stroke="black" stroke-width="1" transform="rotate(-275.0623 398.91211 366.89116)" cx="398.91211" cy="366.89116" rx="5.5" ry="7" fill="white"/> <ellipse stroke="black" stroke-width="1" transform="rotate(-275.0623 398.91211 366.89116)" cx="398.91211" cy="360.89116" rx="3" ry="5" fill="black"/><ellipse stroke="black" stroke-width="1" transform="rotate(-18.93798 498.42276 461.7916)" cx="498.42276" cy="461.7916" rx="5.5" ry="7" fill="white"/> <ellipse stroke="black" stroke-width="1" transform="rotate(-18.93798 498.42276 461.7916)" cx="498.42276" cy="455.7916" rx="3" ry="5" fill="black"/><ellipse stroke="black" stroke-width="1" transform="rotate(-118.4815 474.80957 349.7747282)" cx="474.80957" cy="349.7747282" rx="5.5" ry="7" fill="white"/> <ellipse stroke="black" stroke-width="1" transform="rotate(-118.4815 474.80957 349.7747282)" cx="474.80957" cy="343.7747282" rx="3" ry="5" fill="black"/><ellipse stroke="black" stroke-width="1" transform="rotate(-58.52147 531.24846 374.24942)" cx="531.24846" cy="374.24942" rx="5.5" ry="7" fill="white"/> <ellipse stroke="black" stroke-width="1" transform="rotate(-58.52147 531.24846 374.24942)" cx="531.24846" cy="368.24942" rx="3" ry="5" fill="black"/><ellipse stroke="black" stroke-width="1" transform="rotate(-115.2537 584.4033 347.202121)" cx="584.4033" cy="347.202121" rx="5.5" ry="7" fill="white"/> <ellipse stroke="black" stroke-width="1" transform="rotate(-115.2537 584.4033 347.202121)" cx="584.4033" cy="341.202121" rx="3" ry="5" fill="black"/><ellipse stroke="black" stroke-width="1" transform="rotate(-163.2317 511.80272 273.94536)" cx="511.80272" cy="273.94536" rx="5.5" ry="7" fill="white"/> <ellipse stroke="black" stroke-width="1" transform="rotate(-163.2317 511.80272 273.94536)" cx="511.80272" cy="267.94536" rx="3" ry="5" fill="black"/><ellipse stroke="black" stroke-width="1" transform="rotate(-189.2524 396.64702 283.43014)" cx="396.64702" cy="283.43014" rx="5.5" ry="7" fill="white"/> <ellipse stroke="black" stroke-width="1" transform="rotate(-189.2524 396.64702 283.43014)" cx="396.64702" cy="277.43014" rx="3" ry="5" fill="black"/><ellipse stroke="black" stroke-width="1" transform="rotate(-13.85665 527.71891 430.69743)" cx="527.71891" cy="430.69743" rx="5.5" ry="7" fill="white"/> <ellipse stroke="black" stroke-width="1" transform="rotate(-13.85665 527.71891 430.69743)" cx="527.71891" cy="424.69743" rx="3" ry="5" fill="black"/></svg>