<svg xmlns="http://www.w3.org/2000/svg" width="1200.0" height="800.0"><ellipse stroke="black" stroke-width="1" transform="rotate(-175.1304 29.448499999999967 561.5219)" cx="29.448499999999967" cy="561.5219" rx="5.5" ry="7" fill="white"/> <ellipse stroke="black" stroke-width="1" transform="rotate(-175.1304 29.448499999999967 561.5219)" cx="29.448499999999967" cy="555.5219" rx="3" ry="5" fill="black"/><ellipse stroke="black" stroke-width="1" transform="rotate(-177.0395 114.76349999999996 575.1251)" cx="114.76349999999996" cy="575.1251" rx="5.5" ry="7" fill="white"/> <ellipse stroke="black" stroke-width="1" transform="rotate(-177.0395 114.76349999999996 575.1251)" cx="114.76349999999996" cy="569.1251" rx="3" ry="5" fill="black"/><ellipse stroke="black" stroke-width="1" transform="rotate(-171.9077 50.105999999999995 550.4594999999999)" cx="50.105999999999995" cy="550.4594999999999" rx="5.5" ry="7" fill="white"/> <ellipse stroke="black" stroke-width="1" transform="rotate(-171.9077 50.105999999999995 550.4594999999999)" cx="50.105999999999995" cy="544.4594999999999" rx="3" ry="5" fill="black"/><ellipse stroke="black" stroke-width="1" transform="rotate(-176.8822 88.60129999999998 577.6335)" cx="88.60129999999998" cy="577.6335" rx="5.5" ry="7" fill="white"/> <ellipse stroke="black" stroke-width="1" transform="rotate(-176.8822 88.60129999999998 577.6335)" cx="88.60129999999998" cy="571.6335" rx="3" ry="5" fill="black"/><ellipse stroke="black" stroke-width="1" transform="rotate(-176.838 69.53060000000005 575.5249)" cx="69.53060000000005" cy="575.5249" rx="5.5" ry="7" fill="white"/> <ellipse stroke="black" stroke-width="1" transform="rotate(-176.838 69.53060000000005 575.5249)" cx="69.53060000000005" cy="569.5249" rx="3" ry="5" fill="black"/><ellipse stroke="black" stroke-width="1" transform="rotate(-172.8555 46.08529999999996 535.2138)" cx="46.08529999999996" cy="535.2138" rx="5.5" ry="7" fill="white"/> <ellipse stroke="black" stroke-width="1" transform="rotate(-172.8555 46.08529999999996 535.2138)" cx="46.08529999999996" cy="529.2138" rx="3" ry="5" fill="black"/><ellipse stroke="black" stroke-width="1" transform="rotate(-176.3421 64.88169999999991 590.4752)" cx="64.88169999999991" cy="590.4752" rx="5.5" ry="7" fill="white"/> <ellipse stroke="black" stroke-width="1" transform="rotate(-176.3421 64.88169999999991 590.4752)" cx="64.88169999999991" cy="584.4752" rx="3" ry="5" fill="black"/><ellipse stroke="black" stroke-width="1" transform="rotate(-181.575 48.77999999999997 598.014)" cx="48.77999999999997" cy="598.014" rx="5.5" ry="7" fill="white"/> <ellipse stroke="black" stroke-width="1" transform="rotate(-181.575 48.77999999999997 598.014)" cx="48.77999999999997" cy="592.014" rx="3" ry="5" fill="black"/><ellipse stroke="black" stroke-width="1" transform="rotate(-172.6594 53.202800000000025 566.1936000000001)" cx="53.202800000000025" cy="566.1936000000001" rx="5.5" ry="7" fill="white"/> <ellipse stroke="black" stroke-width="1" transform="rotate(-172.6594 53.202800000000025 566.1936000000001)" cx="53.202800000000025" cy="560.1936000000001" rx="3" ry="5" fill="black"/><ellipse stroke="black" stroke-width="1" transform="rotate(-167.8026 26.416500000000042 548.558)" cx="26.416500000000042" cy="548.558" rx="5.5" ry="7" fill="white"/> <ellipse stroke="black" stroke-width="1" transform="rotate(-167.8026 26.416500000000042 548.558)" cx="26.416500000000042" cy="542.558" rx="3" ry="5" fill="black"/><ellipse stroke="black" stroke-width="1" transform="rotate(-174.6596 37.72339999999997 580.1115)" cx="37.72339999999997" cy="580.1115" rx="5.5" ry="7" fill="white"/> <ellipse stroke="black" stroke-width="1" transform="rotate(-174.6596 37.72339999999997 580.1115)" cx="37.72339999999997" cy="574.1115" rx="3" ry="5" fill="black"/><ellipse stroke="black" stroke-width="1" transform="rotate(-171.5221 73.42319999999995 558.7194)" cx="73.42319999999995" cy="558.7194" rx="5.5" ry="7" fill="white"/> <ellipse stroke="black" stroke-width="1" transform="rotate(-171.5221 73.42319999999995 558.7194)" cx="73.42319999999995" cy="552.7194" rx="3" ry="5" fill="black"/><ellipse stroke="black" stroke-width="1" transform="rotate(-175.1886 93.90070000000003 560.5796)" cx="93.90070000000003" cy="560.5796" rx="5.5" ry="7" fill="white"/> <ellipse stroke="black" stroke-width="1" transform="rotate(-175.1886 93.90070000000003 560.5796)" cx="93.90070000000003" cy="554.5796" rx="3" ry="5" fill="black"/><ellipse stroke="black" stroke-width="1" transform="rotate(-175.036 81.7305 599.8371)" cx="81.7305" cy="599.8371" rx="5.5" ry="7" fill="white"/> <ellipse stroke="black" stroke-width="1" transform="rotate(-175.036 81.7305 599.8371)" cx="81.7305" cy="593.8371" rx="3" ry="5" fill="black"/><ellipse stroke="black" stroke-width="1" transform="rotate(-178.6047 92.60829999999999 544.8151)" cx="92.60829999999999" cy="544.8151" rx="5.5" ry="7" fill="white"/> <ellipse stroke="black" stroke-width="1" transform="rotate(-178.6047 92.60829999999999 544.8151)" cx="92.60829999999999" cy="538.8151" rx="3" ry="5" fill="black"/><ellipse stroke="black" stroke-width="1" transform="rotate(-178.839 114.2387 558.5209)" cx="114.2387" cy="558.5209" rx="5.5" ry="7" fill="white"/> <ellipse stroke="black" stroke-width="1" transform="rotate(-178.839 114.2387 558.5209)" cx="114.2387" cy="552.5209" rx="3" ry="5" fill="black"/><ellipse stroke="black" stroke-width="1" transform="rotate(-176.7348 70.08960000000002 528.1861)" cx="70.08960000000002" cy="528.1861" rx="5.5" ry="7" fill="white"/> <ellipse stroke="black" stroke-width="1" transform="rotate(-176.7348 70.08960000000002 528.1861)" cx="70.08960000000002" cy="522.1861" rx="3" ry="5" fill="black"/><ellipse stroke="black" stroke-width="1" transform="rotate(-173.7567 22.018100000000004 534.8968)" cx="22.018100000000004" cy="534.8968" rx="5.5" ry="7" fill="white"/> <ellipse stroke="black" stroke-width="1" transform="rotate(-173.7567 22.018100000000004 534.8968)" cx="22.018100000000004" cy="528.8968" rx="3" ry="5" fill="black"/><ellipse stroke="black" stroke-width="1" transform="rotate(-176.1954 70.03250000000003 541.5149)" cx="70.03250000000003" cy="541.5149" rx="5.5" ry="7" fill="white"/> <ellipse stroke="black" stroke-width="1" transform="rotate(-176.1954 70.03250000000003 541.5149)" cx="70.03250000000003" cy="535.5149" rx="3" ry="5" fill="black"/><ellipse stroke="black" stroke-width="1" transform="rotate(-171.7455 103.42430000000002 590.4016)" cx="103.42430000000002" cy="590.4016" rx="5.5" ry="7" fill="white"/> <ellipse stroke="black" stroke-width="1" transform="rotate(-171.7455 103.42430000000002 590.4016)" cx="103.42430000000002" cy="584.4016" rx="3" ry="5" fill="black"/><polygon stroke="black" stroke-width="2" transform="rotate(-146.0726 110.11130000000003 376.73827)" points="102.11130000000003 386.73827 118.11130000000003 386.73827 110.11130000000003 366.73827" fill="grey"/></svg>