<svg xmlns="http://www.w3.org/2000/svg" width="1200.0" height="800.0"><ellipse stroke="black" stroke-width="1" transform="rotate(-164.0739 39.96720000000005 495.82455)" cx="39.96720000000005" cy="495.82455" rx="5.5" ry="7" fill="white"/> <ellipse stroke="black" stroke-width="1" transform="rotate(-164.0739 39.96720000000005 495.82455)" cx="39.96720000000005" cy="489.82455" rx="3" ry="5" fill="black"/><ellipse stroke="black" stroke-width="1" transform="rotate(-165.7334 122.99930000000006 515.9736)" cx="122.99930000000006" cy="515.9736" rx="5.5" ry="7" fill="white"/> <ellipse stroke="black" stroke-width="1" transform="rotate(-165.7334 122.99930000000006 515.9736)" cx="122.99930000000006" cy="509.97360000000003" rx="3" ry="5" fill="black"/><ellipse stroke="black" stroke-width="1" transform="rotate(-166.3619 60.53480000000002 487.76579)" cx="60.53480000000002" cy="487.76579" rx="5.5" ry="7" fill="white"/> <ellipse stroke="black" stroke-width="1" transform="rotate(-166.3619 60.53480000000002 487.76579)" cx="60.53480000000002" cy="481.76579" rx="3" ry="5" fill="black"/><ellipse stroke="black" stroke-width="1" transform="rotate(-165.9401 96.48490000000004 517.4667)" cx="96.48490000000004" cy="517.4667" rx="5.5" ry="7" fill="white"/> <ellipse stroke="black" stroke-width="1" transform="rotate(-165.9401 96.48490000000004 517.4667)" cx="96.48490000000004" cy="511.46669999999995" rx="3" ry="5" fill="black"/><ellipse stroke="black" stroke-width="1" transform="rotate(-165.2805 77.81590000000006 516.2658)" cx="77.81590000000006" cy="516.2658" rx="5.5" ry="7" fill="white"/> <ellipse stroke="black" stroke-width="1" transform="rotate(-165.2805 77.81590000000006 516.2658)" cx="77.81590000000006" cy="510.2658" rx="3" ry="5" fill="black"/><ellipse stroke="black" stroke-width="1" transform="rotate(-164.9787 57.98919999999998 468.19521)" cx="57.98919999999998" cy="468.19521" rx="5.5" ry="7" fill="white"/> <ellipse stroke="black" stroke-width="1" transform="rotate(-164.9787 57.98919999999998 468.19521)" cx="57.98919999999998" cy="462.19521" rx="3" ry="5" fill="black"/><ellipse stroke="black" stroke-width="1" transform="rotate(-163.2879 74.08820000000003 534.1326)" cx="74.08820000000003" cy="534.1326" rx="5.5" ry="7" fill="white"/> <ellipse stroke="black" stroke-width="1" transform="rotate(-163.2879 74.08820000000003 534.1326)" cx="74.08820000000003" cy="528.1326" rx="3" ry="5" fill="black"/><ellipse stroke="black" stroke-width="1" transform="rotate(-162.268 58.074299999999994 528.2065)" cx="58.074299999999994" cy="528.2065" rx="5.5" ry="7" fill="white"/> <ellipse stroke="black" stroke-width="1" transform="rotate(-162.268 58.074299999999994 528.2065)" cx="58.074299999999994" cy="522.2065" rx="3" ry="5" fill="black"/><ellipse stroke="black" stroke-width="1" transform="rotate(-163.4007 68.4837 502.8091)" cx="68.4837" cy="502.8091" rx="5.5" ry="7" fill="white"/> <ellipse stroke="black" stroke-width="1" transform="rotate(-163.4007 68.4837 502.8091)" cx="68.4837" cy="496.8091" rx="3" ry="5" fill="black"/><ellipse stroke="black" stroke-width="1" transform="rotate(-161.7722 42.039800000000014 481.88679)" cx="42.039800000000014" cy="481.88679" rx="5.5" ry="7" fill="white"/> <ellipse stroke="black" stroke-width="1" transform="rotate(-161.7722 42.039800000000014 481.88679)" cx="42.039800000000014" cy="475.88679" rx="3" ry="5" fill="black"/><ellipse stroke="black" stroke-width="1" transform="rotate(-162.7778 48.724699999999984 513.5346)" cx="48.724699999999984" cy="513.5346" rx="5.5" ry="7" fill="white"/> <ellipse stroke="black" stroke-width="1" transform="rotate(-162.7778 48.724699999999984 513.5346)" cx="48.724699999999984" cy="507.53459999999995" rx="3" ry="5" fill="black"/><ellipse stroke="black" stroke-width="1" transform="rotate(-164.5371 89.6329 493.63176)" cx="89.6329" cy="493.63176" rx="5.5" ry="7" fill="white"/> <ellipse stroke="black" stroke-width="1" transform="rotate(-164.5371 89.6329 493.63176)" cx="89.6329" cy="487.63176" rx="3" ry="5" fill="black"/><ellipse stroke="black" stroke-width="1" transform="rotate(-164.3602 103.10419999999999 504.8942)" cx="103.10419999999999" cy="504.8942" rx="5.5" ry="7" fill="white"/> <ellipse stroke="black" stroke-width="1" transform="rotate(-164.3602 103.10419999999999 504.8942)" cx="103.10419999999999" cy="498.8942" rx="3" ry="5" fill="black"/><ellipse stroke="black" stroke-width="1" transform="rotate(-157.8862 93.1377 537.967)" cx="93.1377" cy="537.967" rx="5.5" ry="7" fill="white"/> <ellipse stroke="black" stroke-width="1" transform="rotate(-157.8862 93.1377 537.967)" cx="93.1377" cy="531.967" rx="3" ry="5" fill="black"/><ellipse stroke="black" stroke-width="1" transform="rotate(-169.5933 101.2955 480.99145999999996)" cx="101.2955" cy="480.99145999999996" rx="5.5" ry="7" fill="white"/> <ellipse stroke="black" stroke-width="1" transform="rotate(-169.5933 101.2955 480.99145999999996)" cx="101.2955" cy="474.99145999999996" rx="3" ry="5" fill="black"/><ellipse stroke="black" stroke-width="1" transform="rotate(-171.7609 119.14859999999999 496.71442)" cx="119.14859999999999" cy="496.71442" rx="5.5" ry="7" fill="white"/> <ellipse stroke="black" stroke-width="1" transform="rotate(-171.7609 119.14859999999999 496.71442)" cx="119.14859999999999" cy="490.71442" rx="3" ry="5" fill="black"/><ellipse stroke="black" stroke-width="1" transform="rotate(-167.4559 78.90070000000003 462.8313)" cx="78.90070000000003" cy="462.8313" rx="5.5" ry="7" fill="white"/> <ellipse stroke="black" stroke-width="1" transform="rotate(-167.4559 78.90070000000003 462.8313)" cx="78.90070000000003" cy="456.8313" rx="3" ry="5" fill="black"/><ellipse stroke="black" stroke-width="1" transform="rotate(-163.3893 36.307199999999966 465.59938)" cx="36.307199999999966" cy="465.59938" rx="5.5" ry="7" fill="white"/> <ellipse stroke="black" stroke-width="1" transform="rotate(-163.3893 36.307199999999966 465.59938)" cx="36.307199999999966" cy="459.59938" rx="3" ry="5" fill="black"/><ellipse stroke="black" stroke-width="1" transform="rotate(-166.5872 78.10019999999997 478.1837)" cx="78.10019999999997" cy="478.1837" rx="5.5" ry="7" fill="white"/> <ellipse stroke="black" stroke-width="1" transform="rotate(-166.5872 78.10019999999997 478.1837)" cx="78.10019999999997" cy="472.1837" rx="3" ry="5" fill="black"/><ellipse stroke="black" stroke-width="1" transform="rotate(-163.8702 115.47899999999998 531.3513)" cx="115.47899999999998" cy="531.3513" rx="5.5" ry="7" fill="white"/> <ellipse stroke="black" stroke-width="1" transform="rotate(-163.8702 115.47899999999998 531.3513)" cx="115.47899999999998" cy="525.3513" rx="3" ry="5" fill="black"/><polygon stroke="black" stroke-width="2" transform="rotate(-100.1124 161.1037 306.59909)" points="153.1037 316.59909 169.1037 316.59909 161.1037 296.59909" fill="grey"/></svg>