<svg xmlns="http://www.w3.org/2000/svg" width="1200.0" height="800.0"><ellipse stroke="black" stroke-width="1" transform="rotate(-142.3884 70.9411 438.05848000000003)" cx="70.9411" cy="438.05848000000003" rx="5.5" ry="7" fill="white"/> <ellipse stroke="black" stroke-width="1" transform="rotate(-142.3884 70.9411 438.05848000000003)" cx="70.9411" cy="432.05848000000003" rx="3" ry="5" fill="black"/><ellipse stroke="black" stroke-width="1" transform="rotate(-149.5504 145.87440000000004 458.92539)" cx="145.87440000000004" cy="458.92539" rx="5.5" ry="7" fill="white"/> <ellipse stroke="black" stroke-width="1" transform="rotate(-149.5504 145.87440000000004 458.92539)" cx="145.87440000000004" cy="452.92539" rx="3" ry="5" fill="black"/><ellipse stroke="black" stroke-width="1" transform="rotate(-143.0706 90.66339999999997 428.81178)" cx="90.66339999999997" cy="428.81178" rx="5.5" ry="7" fill="white"/> <ellipse stroke="black" stroke-width="1" transform="rotate(-143.0706 90.66339999999997 428.81178)" cx="90.66339999999997" cy="422.81178" rx="3" ry="5" fill="black"/><ellipse stroke="black" stroke-width="1" transform="rotate(-140.3244 122.01099999999997 466.8379)" cx="122.01099999999997" cy="466.8379" rx="5.5" ry="7" fill="white"/> <ellipse stroke="black" stroke-width="1" transform="rotate(-140.3244 122.01099999999997 466.8379)" cx="122.01099999999997" cy="460.8379" rx="3" ry="5" fill="black"/><ellipse stroke="black" stroke-width="1" transform="rotate(-142.4387 106.10889999999995 458.47867)" cx="106.10889999999995" cy="458.47867" rx="5.5" ry="7" fill="white"/> <ellipse stroke="black" stroke-width="1" transform="rotate(-142.4387 106.10889999999995 458.47867)" cx="106.10889999999995" cy="452.47867" rx="3" ry="5" fill="black"/><ellipse stroke="black" stroke-width="1" transform="rotate(-140.182 92.33159999999998 406.964939)" cx="92.33159999999998" cy="406.964939" rx="5.5" ry="7" fill="white"/> <ellipse stroke="black" stroke-width="1" transform="rotate(-140.182 92.33159999999998 406.964939)" cx="92.33159999999998" cy="400.964939" rx="3" ry="5" fill="black"/><ellipse stroke="black" stroke-width="1" transform="rotate(-136.1829 101.21370000000002 481.52383)" cx="101.21370000000002" cy="481.52383" rx="5.5" ry="7" fill="white"/> <ellipse stroke="black" stroke-width="1" transform="rotate(-136.1829 101.21370000000002 481.52383)" cx="101.21370000000002" cy="475.52383" rx="3" ry="5" fill="black"/><ellipse stroke="black" stroke-width="1" transform="rotate(-144.1152 90.6447 466.91166)" cx="90.6447" cy="466.91166" rx="5.5" ry="7" fill="white"/> <ellipse stroke="black" stroke-width="1" transform="rotate(-144.1152 90.6447 466.91166)" cx="90.6447" cy="460.91166" rx="3" ry="5" fill="black"/><ellipse stroke="black" stroke-width="1" transform="rotate(-139.9399 99.339 442.87636)" cx="99.339" cy="442.87636" rx="5.5" ry="7" fill="white"/> <ellipse stroke="black" stroke-width="1" transform="rotate(-139.9399 99.339 442.87636)" cx="99.339" cy="436.87636" rx="3" ry="5" fill="black"/><ellipse stroke="black" stroke-width="1" transform="rotate(-143.3933 73.06299999999999 419.50129)" cx="73.06299999999999" cy="419.50129" rx="5.5" ry="7" fill="white"/> <ellipse stroke="black" stroke-width="1" transform="rotate(-143.3933 73.06299999999999 419.50129)" cx="73.06299999999999" cy="413.50129" rx="3" ry="5" fill="black"/><ellipse stroke="black" stroke-width="1" transform="rotate(-144.5297 79.85900000000004 454.21811)" cx="79.85900000000004" cy="454.21811" rx="5.5" ry="7" fill="white"/> <ellipse stroke="black" stroke-width="1" transform="rotate(-144.5297 79.85900000000004 454.21811)" cx="79.85900000000004" cy="448.21811" rx="3" ry="5" fill="black"/><ellipse stroke="black" stroke-width="1" transform="rotate(-145.0395 116.4579 436.31367)" cx="116.4579" cy="436.31367" rx="5.5" ry="7" fill="white"/> <ellipse stroke="black" stroke-width="1" transform="rotate(-145.0395 116.4579 436.31367)" cx="116.4579" cy="430.31367" rx="3" ry="5" fill="black"/><ellipse stroke="black" stroke-width="1" transform="rotate(-144.2531 127.62799999999999 451.54403)" cx="127.62799999999999" cy="451.54403" rx="5.5" ry="7" fill="white"/> <ellipse stroke="black" stroke-width="1" transform="rotate(-144.2531 127.62799999999999 451.54403)" cx="127.62799999999999" cy="445.54403" rx="3" ry="5" fill="black"/><ellipse stroke="black" stroke-width="1" transform="rotate(-139.468 126.51249999999999 486.86948)" cx="126.51249999999999" cy="486.86948" rx="5.5" ry="7" fill="white"/> <ellipse stroke="black" stroke-width="1" transform="rotate(-139.468 126.51249999999999 486.86948)" cx="126.51249999999999" cy="480.86948" rx="3" ry="5" fill="black"/><ellipse stroke="black" stroke-width="1" transform="rotate(-142.3208 126.21010000000001 423.57872)" cx="126.21010000000001" cy="423.57872" rx="5.5" ry="7" fill="white"/> <ellipse stroke="black" stroke-width="1" transform="rotate(-142.3208 126.21010000000001 423.57872)" cx="126.21010000000001" cy="417.57872" rx="3" ry="5" fill="black"/><ellipse stroke="black" stroke-width="1" transform="rotate(-150.1919 140.3927 436.98044)" cx="140.3927" cy="436.98044" rx="5.5" ry="7" fill="white"/> <ellipse stroke="black" stroke-width="1" transform="rotate(-150.1919 140.3927 436.98044)" cx="140.3927" cy="430.98044" rx="3" ry="5" fill="black"/><ellipse stroke="black" stroke-width="1" transform="rotate(-146.2066 105.93029999999999 398.577915)" cx="105.93029999999999" cy="398.577915" rx="5.5" ry="7" fill="white"/> <ellipse stroke="black" stroke-width="1" transform="rotate(-146.2066 105.93029999999999 398.577915)" cx="105.93029999999999" cy="392.577915" rx="3" ry="5" fill="black"/><ellipse stroke="black" stroke-width="1" transform="rotate(-142.654 70.822 399.5445463)" cx="70.822" cy="399.5445463" rx="5.5" ry="7" fill="white"/> <ellipse stroke="black" stroke-width="1" transform="rotate(-142.654 70.822 399.5445463)" cx="70.822" cy="393.5445463" rx="3" ry="5" fill="black"/><ellipse stroke="black" stroke-width="1" transform="rotate(-143.0195 107.51730000000003 419.20159)" cx="107.51730000000003" cy="419.20159" rx="5.5" ry="7" fill="white"/> <ellipse stroke="black" stroke-width="1" transform="rotate(-143.0195 107.51730000000003 419.20159)" cx="107.51730000000003" cy="413.20159" rx="3" ry="5" fill="black"/><ellipse stroke="black" stroke-width="1" transform="rotate(-142.8994 143.58020000000005 478.88223)" cx="143.58020000000005" cy="478.88223" rx="5.5" ry="7" fill="white"/> <ellipse stroke="black" stroke-width="1" transform="rotate(-142.8994 143.58020000000005 478.88223)" cx="143.58020000000005" cy="472.88223" rx="3" ry="5" fill="black"/><polygon stroke="black" stroke-width="2" transform="rotate(-100.1124 247.73699999999997 291.148)" points="239.73699999999997 301.148 255.73699999999997 301.148 247.73699999999997 281.148" fill="grey"/></svg>