<svg xmlns="http://www.w3.org/2000/svg" width="2000.0" height="2000.0"><rect stroke="transparent" x="150.0" y="150.0" width="2000.0" height="2000.0" fill="white"/><ellipse stroke="black" stroke-width="1" transform="rotate(-7.608933 892.6819 738.5698)" cx="892.6819" cy="738.5698" rx="5.5" ry="7" fill="white"/> <ellipse stroke="black" stroke-width="1" transform="rotate(-7.608933 892.6819 738.5698)" cx="892.6819" cy="732.5698" rx="3" ry="5" fill="black"/><ellipse stroke="black" stroke-width="1" transform="rotate(-11.28092 925.0776 739.0507)" cx="925.0776" cy="739.0507" rx="5.5" ry="7" fill="white"/> <ellipse stroke="black" stroke-width="1" transform="rotate(-11.28092 925.0776 739.0507)" cx="925.0776" cy="733.0507" rx="3" ry="5" fill="black"/><ellipse stroke="black" stroke-width="1" transform="rotate(-24.64626 963.63749 746.8039)" cx="963.63749" cy="746.8039" rx="5.5" ry="7" fill="white"/> <ellipse stroke="black" stroke-width="1" transform="rotate(-24.64626 963.63749 746.8039)" cx="963.63749" cy="740.8039" rx="3" ry="5" fill="black"/><ellipse stroke="black" stroke-width="1" transform="rotate(-329.1657 1054.84651 769.5823)" cx="1054.84651" cy="769.5823" rx="5.5" ry="7" fill="white"/> <ellipse stroke="black" stroke-width="1" transform="rotate(-329.1657 1054.84651 769.5823)" cx="1054.84651" cy="763.5823" rx="3" ry="5" fill="black"/><ellipse stroke="black" stroke-width="1" transform="rotate(-322.2303 1106.5908 789.3259)" cx="1106.5908" cy="789.3259" rx="5.5" ry="7" fill="white"/> <ellipse stroke="black" stroke-width="1" transform="rotate(-322.2303 1106.5908 789.3259)" cx="1106.5908" cy="783.3259" rx="3" ry="5" fill="black"/><ellipse stroke="black" stroke-width="1" transform="rotate(-307.1955 1150.2859 810.976)" cx="1150.2859" cy="810.976" rx="5.5" ry="7" fill="white"/> <ellipse stroke="black" stroke-width="1" transform="rotate(-307.1955 1150.2859 810.976)" cx="1150.2859" cy="804.976" rx="3" ry="5" fill="black"/><ellipse stroke="black" stroke-width="1" transform="rotate(-297.0695 1193.2574 830.9017)" cx="1193.2574" cy="830.9017" rx="5.5" ry="7" fill="white"/> <ellipse stroke="black" stroke-width="1" transform="rotate(-297.0695 1193.2574 830.9017)" cx="1193.2574" cy="824.9017" rx="3" ry="5" fill="black"/><ellipse stroke="black" stroke-width="1" transform="rotate(-290.4371 1229.0504 847.492)" cx="1229.0504" cy="847.492" rx="5.5" ry="7" fill="white"/> <ellipse stroke="black" stroke-width="1" transform="rotate(-290.4371 1229.0504 847.492)" cx="1229.0504" cy="841.492" rx="3" ry="5" fill="black"/><ellipse stroke="black" stroke-width="1" transform="rotate(-282.2083 1262.7244 860.3882)" cx="1262.7244" cy="860.3882" rx="5.5" ry="7" fill="white"/> <ellipse stroke="black" stroke-width="1" transform="rotate(-282.2083 1262.7244 860.3882)" cx="1262.7244" cy="854.3882" rx="3" ry="5" fill="black"/><ellipse stroke="black" stroke-width="1" transform="rotate(-275.8819 1290.0603 867.5916)" cx="1290.0603" cy="867.5916" rx="5.5" ry="7" fill="white"/> <ellipse stroke="black" stroke-width="1" transform="rotate(-275.8819 1290.0603 867.5916)" cx="1290.0603" cy="861.5916" rx="3" ry="5" fill="black"/><ellipse stroke="black" stroke-width="1" transform="rotate(-276.3599 1314.8869 870.7852)" cx="1314.8869" cy="870.7852" rx="5.5" ry="7" fill="white"/> <ellipse stroke="black" stroke-width="1" transform="rotate(-276.3599 1314.8869 870.7852)" cx="1314.8869" cy="864.7852" rx="3" ry="5" fill="black"/><ellipse stroke="black" stroke-width="1" transform="rotate(-270.3806 1340.277 874.9817)" cx="1340.277" cy="874.9817" rx="5.5" ry="7" fill="white"/> <ellipse stroke="black" stroke-width="1" transform="rotate(-270.3806 1340.277 874.9817)" cx="1340.277" cy="868.9817" rx="3" ry="5" fill="black"/><ellipse stroke="black" stroke-width="1" transform="rotate(-5.193657 910.54162 738.0145)" cx="910.54162" cy="738.0145" rx="5.5" ry="7" fill="white"/> <ellipse stroke="black" stroke-width="1" transform="rotate(-5.193657 910.54162 738.0145)" cx="910.54162" cy="732.0145" rx="3" ry="5" fill="black"/><ellipse stroke="black" stroke-width="1" transform="rotate(-14.57879 937.65699 741.2039)" cx="937.65699" cy="741.2039" rx="5.5" ry="7" fill="white"/> <ellipse stroke="black" stroke-width="1" transform="rotate(-14.57879 937.65699 741.2039)" cx="937.65699" cy="735.2039" rx="3" ry="5" fill="black"/><ellipse stroke="black" stroke-width="1" transform="rotate(-342.7971 1008.499889 758.1905)" cx="1008.499889" cy="758.1905" rx="5.5" ry="7" fill="white"/> <ellipse stroke="black" stroke-width="1" transform="rotate(-342.7971 1008.499889 758.1905)" cx="1008.499889" cy="752.1905" rx="3" ry="5" fill="black"/><ellipse stroke="black" stroke-width="1" transform="rotate(-323.5822 1080.80557 781.8189)" cx="1080.80557" cy="781.8189" rx="5.5" ry="7" fill="white"/> <ellipse stroke="black" stroke-width="1" transform="rotate(-323.5822 1080.80557 781.8189)" cx="1080.80557" cy="775.8189" rx="3" ry="5" fill="black"/><ellipse stroke="black" stroke-width="1" transform="rotate(-313.1393 1133.1372999999999 804.9611)" cx="1133.1372999999999" cy="804.9611" rx="5.5" ry="7" fill="white"/> <ellipse stroke="black" stroke-width="1" transform="rotate(-313.1393 1133.1372999999999 804.9611)" cx="1133.1372999999999" cy="798.9611" rx="3" ry="5" fill="black"/><ellipse stroke="black" stroke-width="1" transform="rotate(-301.3424 1178.987 827.5278000000001)" cx="1178.987" cy="827.5278000000001" rx="5.5" ry="7" fill="white"/> <ellipse stroke="black" stroke-width="1" transform="rotate(-301.3424 1178.987 827.5278000000001)" cx="1178.987" cy="821.5278000000001" rx="3" ry="5" fill="black"/><ellipse stroke="black" stroke-width="1" transform="rotate(-296.0561 1213.1466 845.4842)" cx="1213.1466" cy="845.4842" rx="5.5" ry="7" fill="white"/> <ellipse stroke="black" stroke-width="1" transform="rotate(-296.0561 1213.1466 845.4842)" cx="1213.1466" cy="839.4842" rx="3" ry="5" fill="black"/><ellipse stroke="black" stroke-width="1" transform="rotate(-290.4021 1243.689 859.5081)" cx="1243.689" cy="859.5081" rx="5.5" ry="7" fill="white"/> <ellipse stroke="black" stroke-width="1" transform="rotate(-290.4021 1243.689 859.5081)" cx="1243.689" cy="853.5081" rx="3" ry="5" fill="black"/><ellipse stroke="black" stroke-width="1" transform="rotate(-282.3893 1276.0719 871.4243)" cx="1276.0719" cy="871.4243" rx="5.5" ry="7" fill="white"/> <ellipse stroke="black" stroke-width="1" transform="rotate(-282.3893 1276.0719 871.4243)" cx="1276.0719" cy="865.4243" rx="3" ry="5" fill="black"/><ellipse stroke="black" stroke-width="1" transform="rotate(-281.2729 1303.9975 878.8484)" cx="1303.9975" cy="878.8484" rx="5.5" ry="7" fill="white"/> <ellipse stroke="black" stroke-width="1" transform="rotate(-281.2729 1303.9975 878.8484)" cx="1303.9975" cy="872.8484" rx="3" ry="5" fill="black"/><ellipse stroke="black" stroke-width="1" transform="rotate(-277.9635 1328.2048 882.6360999999999)" cx="1328.2048" cy="882.6360999999999" rx="5.5" ry="7" fill="white"/> <ellipse stroke="black" stroke-width="1" transform="rotate(-277.9635 1328.2048 882.6360999999999)" cx="1328.2048" cy="876.6360999999999" rx="3" ry="5" fill="black"/><ellipse stroke="black" stroke-width="1" transform="rotate(-9.62641 900.46827 746.0708999999999)" cx="900.46827" cy="746.0708999999999" rx="5.5" ry="7" fill="white"/> <ellipse stroke="black" stroke-width="1" transform="rotate(-9.62641 900.46827 746.0708999999999)" cx="900.46827" cy="740.0708999999999" rx="3" ry="5" fill="black"/><ellipse stroke="black" stroke-width="1" transform="rotate(-14.382 928.38404 748.9776)" cx="928.38404" cy="748.9776" rx="5.5" ry="7" fill="white"/> <ellipse stroke="black" stroke-width="1" transform="rotate(-14.382 928.38404 748.9776)" cx="928.38404" cy="742.9776" rx="3" ry="5" fill="black"/><ellipse stroke="black" stroke-width="1" transform="rotate(-11.15283 971.52707 754.4706)" cx="971.52707" cy="754.4706" rx="5.5" ry="7" fill="white"/> <ellipse stroke="black" stroke-width="1" transform="rotate(-11.15283 971.52707 754.4706)" cx="971.52707" cy="748.4706" rx="3" ry="5" fill="black"/><ellipse stroke="black" stroke-width="1" transform="rotate(-324.4202 1062.00864 779.2475999999999)" cx="1062.00864" cy="779.2475999999999" rx="5.5" ry="7" fill="white"/> <ellipse stroke="black" stroke-width="1" transform="rotate(-324.4202 1062.00864 779.2475999999999)" cx="1062.00864" cy="773.2475999999999" rx="3" ry="5" fill="black"/><ellipse stroke="black" stroke-width="1" transform="rotate(-312.0793 1111.6965 800.7145)" cx="1111.6965" cy="800.7145" rx="5.5" ry="7" fill="white"/> <ellipse stroke="black" stroke-width="1" transform="rotate(-312.0793 1111.6965 800.7145)" cx="1111.6965" cy="794.7145" rx="3" ry="5" fill="black"/><ellipse stroke="black" stroke-width="1" transform="rotate(-300.4952 1159.019 823.2157)" cx="1159.019" cy="823.2157" rx="5.5" ry="7" fill="white"/> <ellipse stroke="black" stroke-width="1" transform="rotate(-300.4952 1159.019 823.2157)" cx="1159.019" cy="817.2157" rx="3" ry="5" fill="black"/><ellipse stroke="black" stroke-width="1" transform="rotate(-297.9475 1194.0524 843.2332)" cx="1194.0524" cy="843.2332" rx="5.5" ry="7" fill="white"/> <ellipse stroke="black" stroke-width="1" transform="rotate(-297.9475 1194.0524 843.2332)" cx="1194.0524" cy="837.2332" rx="3" ry="5" fill="black"/><ellipse stroke="black" stroke-width="1" transform="rotate(-292.8297 1226.6896 860.3772)" cx="1226.6896" cy="860.3772" rx="5.5" ry="7" fill="white"/> <ellipse stroke="black" stroke-width="1" transform="rotate(-292.8297 1226.6896 860.3772)" cx="1226.6896" cy="854.3772" rx="3" ry="5" fill="black"/><ellipse stroke="black" stroke-width="1" transform="rotate(-286.048 1259.5158999999999 873.8792)" cx="1259.5158999999999" cy="873.8792" rx="5.5" ry="7" fill="white"/> <ellipse stroke="black" stroke-width="1" transform="rotate(-286.048 1259.5158999999999 873.8792)" cx="1259.5158999999999" cy="867.8792" rx="3" ry="5" fill="black"/><ellipse stroke="black" stroke-width="1" transform="rotate(-282.7932 1290.5068999999999 883.9482)" cx="1290.5068999999999" cy="883.9482" rx="5.5" ry="7" fill="white"/> <ellipse stroke="black" stroke-width="1" transform="rotate(-282.7932 1290.5068999999999 883.9482)" cx="1290.5068999999999" cy="877.9482" rx="3" ry="5" fill="black"/><ellipse stroke="black" stroke-width="1" transform="rotate(-283.7121 1315.1086 889.7411)" cx="1315.1086" cy="889.7411" rx="5.5" ry="7" fill="white"/> <ellipse stroke="black" stroke-width="1" transform="rotate(-283.7121 1315.1086 889.7411)" cx="1315.1086" cy="883.7411" rx="3" ry="5" fill="black"/><ellipse stroke="black" stroke-width="1" transform="rotate(-292.0411 1341.1227 892.7463)" cx="1341.1227" cy="892.7463" rx="5.5" ry="7" fill="white"/> <ellipse stroke="black" stroke-width="1" transform="rotate(-292.0411 1341.1227 892.7463)" cx="1341.1227" cy="886.7463" rx="3" ry="5" fill="black"/><ellipse stroke="black" stroke-width="1" transform="rotate(-13.20444 916.53481 748.9054)" cx="916.53481" cy="748.9054" rx="5.5" ry="7" fill="white"/> <ellipse stroke="black" stroke-width="1" transform="rotate(-13.20444 916.53481 748.9054)" cx="916.53481" cy="742.9054" rx="3" ry="5" fill="black"/><ellipse stroke="black" stroke-width="1" transform="rotate(-22.3782 945.14046 749.6373)" cx="945.14046" cy="749.6373" rx="5.5" ry="7" fill="white"/> <ellipse stroke="black" stroke-width="1" transform="rotate(-22.3782 945.14046 749.6373)" cx="945.14046" cy="743.6373" rx="3" ry="5" fill="black"/><ellipse stroke="black" stroke-width="1" transform="rotate(-333.6594 1025.71497 766.1995999999999)" cx="1025.71497" cy="766.1995999999999" rx="5.5" ry="7" fill="white"/> <ellipse stroke="black" stroke-width="1" transform="rotate(-333.6594 1025.71497 766.1995999999999)" cx="1025.71497" cy="760.1995999999999" rx="3" ry="5" fill="black"/><ellipse stroke="black" stroke-width="1" transform="rotate(-318.9207 1095.29378 793.8688)" cx="1095.29378" cy="793.8688" rx="5.5" ry="7" fill="white"/> <ellipse stroke="black" stroke-width="1" transform="rotate(-318.9207 1095.29378 793.8688)" cx="1095.29378" cy="787.8688" rx="3" ry="5" fill="black"/><ellipse stroke="black" stroke-width="1" transform="rotate(-307.3281 1142.1756 818.9159999999999)" cx="1142.1756" cy="818.9159999999999" rx="5.5" ry="7" fill="white"/> <ellipse stroke="black" stroke-width="1" transform="rotate(-307.3281 1142.1756 818.9159999999999)" cx="1142.1756" cy="812.9159999999999" rx="3" ry="5" fill="black"/><ellipse stroke="black" stroke-width="1" transform="rotate(-302.009 1179.8739 840.082)" cx="1179.8739" cy="840.082" rx="5.5" ry="7" fill="white"/> <ellipse stroke="black" stroke-width="1" transform="rotate(-302.009 1179.8739 840.082)" cx="1179.8739" cy="834.082" rx="3" ry="5" fill="black"/><ellipse stroke="black" stroke-width="1" transform="rotate(-296.743 1215.103 859.5629)" cx="1215.103" cy="859.5629" rx="5.5" ry="7" fill="white"/> <ellipse stroke="black" stroke-width="1" transform="rotate(-296.743 1215.103 859.5629)" cx="1215.103" cy="853.5629" rx="3" ry="5" fill="black"/><ellipse stroke="black" stroke-width="1" transform="rotate(-287.7783 1247.9209 875.6679)" cx="1247.9209" cy="875.6679" rx="5.5" ry="7" fill="white"/> <ellipse stroke="black" stroke-width="1" transform="rotate(-287.7783 1247.9209 875.6679)" cx="1247.9209" cy="869.6679" rx="3" ry="5" fill="black"/><ellipse stroke="black" stroke-width="1" transform="rotate(-286.1017 1276.3283999999999 887.7277)" cx="1276.3283999999999" cy="887.7277" rx="5.5" ry="7" fill="white"/> <ellipse stroke="black" stroke-width="1" transform="rotate(-286.1017 1276.3283999999999 887.7277)" cx="1276.3283999999999" cy="881.7277" rx="3" ry="5" fill="black"/><ellipse stroke="black" stroke-width="1" transform="rotate(-287.9022 1302.7247 896.6858)" cx="1302.7247" cy="896.6858" rx="5.5" ry="7" fill="white"/> <ellipse stroke="black" stroke-width="1" transform="rotate(-287.9022 1302.7247 896.6858)" cx="1302.7247" cy="890.6858" rx="3" ry="5" fill="black"/><ellipse stroke="black" stroke-width="1" transform="rotate(-290.8337 1327.3438999999998 901.82704)" cx="1327.3438999999998" cy="901.82704" rx="5.5" ry="7" fill="white"/> <ellipse stroke="black" stroke-width="1" transform="rotate(-290.8337 1327.3438999999998 901.82704)" cx="1327.3438999999998" cy="895.82704" rx="3" ry="5" fill="black"/><polygon stroke="black" stroke-width="2" transform="rotate(-299.3578 979.17567 1011.71439)" points="971.17567 1021.71439 987.17567 1021.71439 979.17567 1001.71439" fill="grey"/></svg>