<svg xmlns="http://www.w3.org/2000/svg" width="1200.0" height="800.0"><ellipse stroke="black" stroke-width="1" transform="rotate(-347.0262 505.99379 537.443)" cx="505.99379" cy="537.443" rx="5.5" ry="7" fill="transparent"/> <ellipse stroke="black" stroke-width="1" transform="rotate(-347.0262 505.99379 537.443)" cx="505.99379" cy="531.443" rx="3" ry="5" fill="black"/><ellipse stroke="black" stroke-width="1" transform="rotate(-180.8583 403.3975 319.20814)" cx="403.3975" cy="319.20814" rx="5.5" ry="7" fill="transparent"/> <ellipse stroke="black" stroke-width="1" transform="rotate(-180.8583 403.3975 319.20814)" cx="403.3975" cy="313.20814" rx="3" ry="5" fill="black"/><ellipse stroke="black" stroke-width="1" transform="rotate(-358.1742 418.8242 534.4626000000001)" cx="418.8242" cy="534.4626000000001" rx="5.5" ry="7" fill="transparent"/> <ellipse stroke="black" stroke-width="1" transform="rotate(-358.1742 418.8242 534.4626000000001)" cx="418.8242" cy="528.4626000000001" rx="3" ry="5" fill="black"/><ellipse stroke="black" stroke-width="1" transform="rotate(-0.5289278 474.05010000000004 512.5522)" cx="474.05010000000004" cy="512.5522" rx="5.5" ry="7" fill="transparent"/> <ellipse stroke="black" stroke-width="1" transform="rotate(-0.5289278 474.05010000000004 512.5522)" cx="474.05010000000004" cy="506.55219999999997" rx="3" ry="5" fill="black"/><ellipse stroke="black" stroke-width="1" transform="rotate(-112.5783 702.3061 399.96436761)" cx="702.3061" cy="399.96436761" rx="5.5" ry="7" fill="transparent"/> <ellipse stroke="black" stroke-width="1" transform="rotate(-112.5783 702.3061 399.96436761)" cx="702.3061" cy="393.96436761" rx="3" ry="5" fill="black"/><ellipse stroke="black" stroke-width="1" transform="rotate(-163.0093 513.11122 262.6567)" cx="513.11122" cy="262.6567" rx="5.5" ry="7" fill="transparent"/> <ellipse stroke="black" stroke-width="1" transform="rotate(-163.0093 513.11122 262.6567)" cx="513.11122" cy="256.6567" rx="3" ry="5" fill="black"/><ellipse stroke="black" stroke-width="1" transform="rotate(-172.1592 639.90797 274.35069999999996)" cx="639.90797" cy="274.35069999999996" rx="5.5" ry="7" fill="transparent"/> <ellipse stroke="black" stroke-width="1" transform="rotate(-172.1592 639.90797 274.35069999999996)" cx="639.90797" cy="268.35069999999996" rx="3" ry="5" fill="black"/><ellipse stroke="black" stroke-width="1" transform="rotate(-215.5746 440.6925 343.01076)" cx="440.6925" cy="343.01076" rx="5.5" ry="7" fill="transparent"/> <ellipse stroke="black" stroke-width="1" transform="rotate(-215.5746 440.6925 343.01076)" cx="440.6925" cy="337.01076" rx="3" ry="5" fill="black"/><ellipse stroke="black" stroke-width="1" transform="rotate(-191.7809 427.5743 383.38369)" cx="427.5743" cy="383.38369" rx="5.5" ry="7" fill="transparent"/> <ellipse stroke="black" stroke-width="1" transform="rotate(-191.7809 427.5743 383.38369)" cx="427.5743" cy="377.38369" rx="3" ry="5" fill="black"/><ellipse stroke="black" stroke-width="1" transform="rotate(-173.5342 691.65832 254.6508)" cx="691.65832" cy="254.6508" rx="5.5" ry="7" fill="transparent"/> <ellipse stroke="black" stroke-width="1" transform="rotate(-173.5342 691.65832 254.6508)" cx="691.65832" cy="248.6508" rx="3" ry="5" fill="black"/><ellipse stroke="black" stroke-width="1" transform="rotate(-191.9305 583.70006 262.34590000000003)" cx="583.70006" cy="262.34590000000003" rx="5.5" ry="7" fill="transparent"/> <ellipse stroke="black" stroke-width="1" transform="rotate(-191.9305 583.70006 262.34590000000003)" cx="583.70006" cy="256.34590000000003" rx="3" ry="5" fill="black"/><ellipse stroke="black" stroke-width="1" transform="rotate(-14.62748 643.0146 476.8821)" cx="643.0146" cy="476.8821" rx="5.5" ry="7" fill="transparent"/> <ellipse stroke="black" stroke-width="1" transform="rotate(-14.62748 643.0146 476.8821)" cx="643.0146" cy="470.8821" rx="3" ry="5" fill="black"/><ellipse stroke="black" stroke-width="1" transform="rotate(-161.0991 673.6462300000001 325.05764)" cx="673.6462300000001" cy="325.05764" rx="5.5" ry="7" fill="transparent"/> <ellipse stroke="black" stroke-width="1" transform="rotate(-161.0991 673.6462300000001 325.05764)" cx="673.6462300000001" cy="319.05764" rx="3" ry="5" fill="black"/><ellipse stroke="black" stroke-width="1" transform="rotate(-153.0449 777.9957999999999 256.74350000000004)" cx="777.9957999999999" cy="256.74350000000004" rx="5.5" ry="7" fill="transparent"/> <ellipse stroke="black" stroke-width="1" transform="rotate(-153.0449 777.9957999999999 256.74350000000004)" cx="777.9957999999999" cy="250.74350000000004" rx="3" ry="5" fill="black"/><ellipse stroke="black" stroke-width="1" transform="rotate(-178.7415 542.46625 327.66787999999997)" cx="542.46625" cy="327.66787999999997" rx="5.5" ry="7" fill="transparent"/> <ellipse stroke="black" stroke-width="1" transform="rotate(-178.7415 542.46625 327.66787999999997)" cx="542.46625" cy="321.66787999999997" rx="3" ry="5" fill="black"/><ellipse stroke="black" stroke-width="1" transform="rotate(-30.09021 645.12622 421.16559)" cx="645.12622" cy="421.16559" rx="5.5" ry="7" fill="transparent"/> <ellipse stroke="black" stroke-width="1" transform="rotate(-30.09021 645.12622 421.16559)" cx="645.12622" cy="415.16559" rx="3" ry="5" fill="black"/><ellipse stroke="black" stroke-width="1" transform="rotate(-177.3907 549.33572 266.16790000000003)" cx="549.33572" cy="266.16790000000003" rx="5.5" ry="7" fill="transparent"/> <ellipse stroke="black" stroke-width="1" transform="rotate(-177.3907 549.33572 266.16790000000003)" cx="549.33572" cy="260.16790000000003" rx="3" ry="5" fill="black"/><ellipse stroke="black" stroke-width="1" transform="rotate(-1.375229 554.82391 464.46653000000003)" cx="554.82391" cy="464.46653000000003" rx="5.5" ry="7" fill="transparent"/> <ellipse stroke="black" stroke-width="1" transform="rotate(-1.375229 554.82391 464.46653000000003)" cx="554.82391" cy="458.46653000000003" rx="3" ry="5" fill="black"/><ellipse stroke="black" stroke-width="1" transform="rotate(-178.7537 551.81652 229.26500000000001)" cx="551.81652" cy="229.26500000000001" rx="5.5" ry="7" fill="transparent"/> <ellipse stroke="black" stroke-width="1" transform="rotate(-178.7537 551.81652 229.26500000000001)" cx="551.81652" cy="223.26500000000001" rx="3" ry="5" fill="black"/><polygon stroke="black" stroke-width="2" transform="rotate(-7.866239 713.995 534.4339)" points="705.995 544.4339 721.995 544.4339 713.995 524.4339" fill="grey"/></svg>