<svg xmlns="http://www.w3.org/2000/svg" width="1200.0" height="800.0"><ellipse stroke="black" stroke-width="1" transform="rotate(-345.407 515.10674 499.53573)" cx="515.10674" cy="499.53573" rx="5.5" ry="7" fill="transparent"/> <ellipse stroke="black" stroke-width="1" transform="rotate(-345.407 515.10674 499.53573)" cx="515.10674" cy="493.53573" rx="3" ry="5" fill="black"/><ellipse stroke="black" stroke-width="1" transform="rotate(-182.8937 403.7233 341.70768)" cx="403.7233" cy="341.70768" rx="5.5" ry="7" fill="transparent"/> <ellipse stroke="black" stroke-width="1" transform="rotate(-182.8937 403.7233 341.70768)" cx="403.7233" cy="335.70768" rx="3" ry="5" fill="black"/><ellipse stroke="black" stroke-width="1" transform="rotate(-356.6883 420.5229 495.4136)" cx="420.5229" cy="495.4136" rx="5.5" ry="7" fill="transparent"/> <ellipse stroke="black" stroke-width="1" transform="rotate(-356.6883 420.5229 495.4136)" cx="420.5229" cy="489.4136" rx="3" ry="5" fill="black"/><ellipse stroke="black" stroke-width="1" transform="rotate(-356.6384 474.996 473.31941)" cx="474.996" cy="473.31941" rx="5.5" ry="7" fill="transparent"/> <ellipse stroke="black" stroke-width="1" transform="rotate(-356.6384 474.996 473.31941)" cx="474.996" cy="467.31941" rx="3" ry="5" fill="black"/><ellipse stroke="black" stroke-width="1" transform="rotate(-136.8631 695.32486 403.735169)" cx="695.32486" cy="403.735169" rx="5.5" ry="7" fill="transparent"/> <ellipse stroke="black" stroke-width="1" transform="rotate(-136.8631 695.32486 403.735169)" cx="695.32486" cy="397.735169" rx="3" ry="5" fill="black"/><ellipse stroke="black" stroke-width="1" transform="rotate(-162.8273 500.99346 308.17771)" cx="500.99346" cy="308.17771" rx="5.5" ry="7" fill="transparent"/> <ellipse stroke="black" stroke-width="1" transform="rotate(-162.8273 500.99346 308.17771)" cx="500.99346" cy="302.17771" rx="3" ry="5" fill="black"/><ellipse stroke="black" stroke-width="1" transform="rotate(-168.1091 631.74788 313.75012)" cx="631.74788" cy="313.75012" rx="5.5" ry="7" fill="transparent"/> <ellipse stroke="black" stroke-width="1" transform="rotate(-168.1091 631.74788 313.75012)" cx="631.74788" cy="307.75012" rx="3" ry="5" fill="black"/><ellipse stroke="black" stroke-width="1" transform="rotate(-222.6934 451.0312 354.68352)" cx="451.0312" cy="354.68352" rx="5.5" ry="7" fill="transparent"/> <ellipse stroke="black" stroke-width="1" transform="rotate(-222.6934 451.0312 354.68352)" cx="451.0312" cy="348.68352" rx="3" ry="5" fill="black"/><ellipse stroke="black" stroke-width="1" transform="rotate(-195.0434 430.8925 396.565504)" cx="430.8925" cy="396.565504" rx="5.5" ry="7" fill="transparent"/> <ellipse stroke="black" stroke-width="1" transform="rotate(-195.0434 430.8925 396.565504)" cx="430.8925" cy="390.565504" rx="3" ry="5" fill="black"/><ellipse stroke="black" stroke-width="1" transform="rotate(-172.6201 685.90401 299.0849)" cx="685.90401" cy="299.0849" rx="5.5" ry="7" fill="transparent"/> <ellipse stroke="black" stroke-width="1" transform="rotate(-172.6201 685.90401 299.0849)" cx="685.90401" cy="293.0849" rx="3" ry="5" fill="black"/><ellipse stroke="black" stroke-width="1" transform="rotate(-180.9578 589.24979 310.12211)" cx="589.24979" cy="310.12211" rx="5.5" ry="7" fill="transparent"/> <ellipse stroke="black" stroke-width="1" transform="rotate(-180.9578 589.24979 310.12211)" cx="589.24979" cy="304.12211" rx="3" ry="5" fill="black"/><ellipse stroke="black" stroke-width="1" transform="rotate(-20.80277 638.24211 461.84823)" cx="638.24211" cy="461.84823" rx="5.5" ry="7" fill="transparent"/> <ellipse stroke="black" stroke-width="1" transform="rotate(-20.80277 638.24211 461.84823)" cx="638.24211" cy="455.84823" rx="3" ry="5" fill="black"/><ellipse stroke="black" stroke-width="1" transform="rotate(-159.7247 667.07411 352.78683)" cx="667.07411" cy="352.78683" rx="5.5" ry="7" fill="transparent"/> <ellipse stroke="black" stroke-width="1" transform="rotate(-159.7247 667.07411 352.78683)" cx="667.07411" cy="346.78683" rx="3" ry="5" fill="black"/><ellipse stroke="black" stroke-width="1" transform="rotate(-150.2754 753.1129 302.74294)" cx="753.1129" cy="302.74294" rx="5.5" ry="7" fill="transparent"/> <ellipse stroke="black" stroke-width="1" transform="rotate(-150.2754 753.1129 302.74294)" cx="753.1129" cy="296.74294" rx="3" ry="5" fill="black"/><ellipse stroke="black" stroke-width="1" transform="rotate(-187.3791 542.49636 351.47687)" cx="542.49636" cy="351.47687" rx="5.5" ry="7" fill="transparent"/> <ellipse stroke="black" stroke-width="1" transform="rotate(-187.3791 542.49636 351.47687)" cx="542.49636" cy="345.47687" rx="3" ry="5" fill="black"/><ellipse stroke="black" stroke-width="1" transform="rotate(-49.15409 635.95907 412.5078)" cx="635.95907" cy="412.5078" rx="5.5" ry="7" fill="transparent"/> <ellipse stroke="black" stroke-width="1" transform="rotate(-49.15409 635.95907 412.5078)" cx="635.95907" cy="406.5078" rx="3" ry="5" fill="black"/><ellipse stroke="black" stroke-width="1" transform="rotate(-176.0191 547.42806 304.31047)" cx="547.42806" cy="304.31047" rx="5.5" ry="7" fill="transparent"/> <ellipse stroke="black" stroke-width="1" transform="rotate(-176.0191 547.42806 304.31047)" cx="547.42806" cy="298.31047" rx="3" ry="5" fill="black"/><ellipse stroke="black" stroke-width="1" transform="rotate(-2.350756 554.26524 446.79646)" cx="554.26524" cy="446.79646" rx="5.5" ry="7" fill="transparent"/> <ellipse stroke="black" stroke-width="1" transform="rotate(-2.350756 554.26524 446.79646)" cx="554.26524" cy="440.79646" rx="3" ry="5" fill="black"/><ellipse stroke="black" stroke-width="1" transform="rotate(-172.5315 549.4184 270.245)" cx="549.4184" cy="270.245" rx="5.5" ry="7" fill="transparent"/> <ellipse stroke="black" stroke-width="1" transform="rotate(-172.5315 549.4184 270.245)" cx="549.4184" cy="264.245" rx="3" ry="5" fill="black"/><polygon stroke="black" stroke-width="2" transform="rotate(-14.01715 706.7667 495.89611)" points="698.7667 505.89611 714.7667 505.89611 706.7667 485.89611" fill="grey"/></svg>