<svg xmlns="http://www.w3.org/2000/svg" width="900.0" height="700.0"><rect stroke="transparent" x="150.0" y="150.0" width="600.0" height="400.0" fill="white"/><ellipse stroke="black" stroke-width="1" transform="rotate(-164.0739 -110.03279999999995 445.82455)" cx="-110.03279999999995" cy="445.82455" rx="5.5" ry="7" fill="white"/> <ellipse stroke="black" stroke-width="1" transform="rotate(-164.0739 -110.03279999999995 445.82455)" cx="-110.03279999999995" cy="439.82455" rx="3" ry="5" fill="black"/><ellipse stroke="black" stroke-width="1" transform="rotate(-165.7334 -27.000699999999938 465.97360000000003)" cx="-27.000699999999938" cy="465.97360000000003" rx="5.5" ry="7" fill="white"/> <ellipse stroke="black" stroke-width="1" transform="rotate(-165.7334 -27.000699999999938 465.97360000000003)" cx="-27.000699999999938" cy="459.97360000000003" rx="3" ry="5" fill="black"/><ellipse stroke="black" stroke-width="1" transform="rotate(-166.3619 -89.46519999999998 437.76579)" cx="-89.46519999999998" cy="437.76579" rx="5.5" ry="7" fill="white"/> <ellipse stroke="black" stroke-width="1" transform="rotate(-166.3619 -89.46519999999998 437.76579)" cx="-89.46519999999998" cy="431.76579" rx="3" ry="5" fill="black"/><ellipse stroke="black" stroke-width="1" transform="rotate(-165.9401 -53.51509999999996 467.4667)" cx="-53.51509999999996" cy="467.4667" rx="5.5" ry="7" fill="white"/> <ellipse stroke="black" stroke-width="1" transform="rotate(-165.9401 -53.51509999999996 467.4667)" cx="-53.51509999999996" cy="461.4667" rx="3" ry="5" fill="black"/><ellipse stroke="black" stroke-width="1" transform="rotate(-165.2805 -72.18409999999994 466.2658)" cx="-72.18409999999994" cy="466.2658" rx="5.5" ry="7" fill="white"/> <ellipse stroke="black" stroke-width="1" transform="rotate(-165.2805 -72.18409999999994 466.2658)" cx="-72.18409999999994" cy="460.2658" rx="3" ry="5" fill="black"/><ellipse stroke="black" stroke-width="1" transform="rotate(-164.9787 -92.01080000000002 418.19521)" cx="-92.01080000000002" cy="418.19521" rx="5.5" ry="7" fill="white"/> <ellipse stroke="black" stroke-width="1" transform="rotate(-164.9787 -92.01080000000002 418.19521)" cx="-92.01080000000002" cy="412.19521" rx="3" ry="5" fill="black"/><ellipse stroke="black" stroke-width="1" transform="rotate(-163.2879 -75.91179999999997 484.1326)" cx="-75.91179999999997" cy="484.1326" rx="5.5" ry="7" fill="white"/> <ellipse stroke="black" stroke-width="1" transform="rotate(-163.2879 -75.91179999999997 484.1326)" cx="-75.91179999999997" cy="478.1326" rx="3" ry="5" fill="black"/><ellipse stroke="black" stroke-width="1" transform="rotate(-162.268 -91.9257 478.2065)" cx="-91.9257" cy="478.2065" rx="5.5" ry="7" fill="white"/> <ellipse stroke="black" stroke-width="1" transform="rotate(-162.268 -91.9257 478.2065)" cx="-91.9257" cy="472.2065" rx="3" ry="5" fill="black"/><ellipse stroke="black" stroke-width="1" transform="rotate(-163.4007 -81.5163 452.8091)" cx="-81.5163" cy="452.8091" rx="5.5" ry="7" fill="white"/> <ellipse stroke="black" stroke-width="1" transform="rotate(-163.4007 -81.5163 452.8091)" cx="-81.5163" cy="446.8091" rx="3" ry="5" fill="black"/><ellipse stroke="black" stroke-width="1" transform="rotate(-161.7722 -107.96019999999999 431.88679)" cx="-107.96019999999999" cy="431.88679" rx="5.5" ry="7" fill="white"/> <ellipse stroke="black" stroke-width="1" transform="rotate(-161.7722 -107.96019999999999 431.88679)" cx="-107.96019999999999" cy="425.88679" rx="3" ry="5" fill="black"/><ellipse stroke="black" stroke-width="1" transform="rotate(-162.7778 -101.27530000000002 463.5346)" cx="-101.27530000000002" cy="463.5346" rx="5.5" ry="7" fill="white"/> <ellipse stroke="black" stroke-width="1" transform="rotate(-162.7778 -101.27530000000002 463.5346)" cx="-101.27530000000002" cy="457.5346" rx="3" ry="5" fill="black"/><ellipse stroke="black" stroke-width="1" transform="rotate(-164.5371 -60.36709999999999 443.63176)" cx="-60.36709999999999" cy="443.63176" rx="5.5" ry="7" fill="white"/> <ellipse stroke="black" stroke-width="1" transform="rotate(-164.5371 -60.36709999999999 443.63176)" cx="-60.36709999999999" cy="437.63176" rx="3" ry="5" fill="black"/><ellipse stroke="black" stroke-width="1" transform="rotate(-164.3602 -46.89580000000001 454.8942)" cx="-46.89580000000001" cy="454.8942" rx="5.5" ry="7" fill="white"/> <ellipse stroke="black" stroke-width="1" transform="rotate(-164.3602 -46.89580000000001 454.8942)" cx="-46.89580000000001" cy="448.8942" rx="3" ry="5" fill="black"/><ellipse stroke="black" stroke-width="1" transform="rotate(-157.8862 -56.862300000000005 487.967)" cx="-56.862300000000005" cy="487.967" rx="5.5" ry="7" fill="white"/> <ellipse stroke="black" stroke-width="1" transform="rotate(-157.8862 -56.862300000000005 487.967)" cx="-56.862300000000005" cy="481.967" rx="3" ry="5" fill="black"/><ellipse stroke="black" stroke-width="1" transform="rotate(-169.5933 -48.704499999999996 430.99145999999996)" cx="-48.704499999999996" cy="430.99145999999996" rx="5.5" ry="7" fill="white"/> <ellipse stroke="black" stroke-width="1" transform="rotate(-169.5933 -48.704499999999996 430.99145999999996)" cx="-48.704499999999996" cy="424.99145999999996" rx="3" ry="5" fill="black"/><ellipse stroke="black" stroke-width="1" transform="rotate(-171.7609 -30.851400000000012 446.71442)" cx="-30.851400000000012" cy="446.71442" rx="5.5" ry="7" fill="white"/> <ellipse stroke="black" stroke-width="1" transform="rotate(-171.7609 -30.851400000000012 446.71442)" cx="-30.851400000000012" cy="440.71442" rx="3" ry="5" fill="black"/><ellipse stroke="black" stroke-width="1" transform="rotate(-167.4559 -71.09929999999997 412.8313)" cx="-71.09929999999997" cy="412.8313" rx="5.5" ry="7" fill="white"/> <ellipse stroke="black" stroke-width="1" transform="rotate(-167.4559 -71.09929999999997 412.8313)" cx="-71.09929999999997" cy="406.8313" rx="3" ry="5" fill="black"/><ellipse stroke="black" stroke-width="1" transform="rotate(-163.3893 -113.69280000000003 415.59938)" cx="-113.69280000000003" cy="415.59938" rx="5.5" ry="7" fill="white"/> <ellipse stroke="black" stroke-width="1" transform="rotate(-163.3893 -113.69280000000003 415.59938)" cx="-113.69280000000003" cy="409.59938" rx="3" ry="5" fill="black"/><ellipse stroke="black" stroke-width="1" transform="rotate(-166.5872 -71.89980000000003 428.1837)" cx="-71.89980000000003" cy="428.1837" rx="5.5" ry="7" fill="white"/> <ellipse stroke="black" stroke-width="1" transform="rotate(-166.5872 -71.89980000000003 428.1837)" cx="-71.89980000000003" cy="422.1837" rx="3" ry="5" fill="black"/><ellipse stroke="black" stroke-width="1" transform="rotate(-163.8702 -34.521000000000015 481.35130000000004)" cx="-34.521000000000015" cy="481.35130000000004" rx="5.5" ry="7" fill="white"/> <ellipse stroke="black" stroke-width="1" transform="rotate(-163.8702 -34.521000000000015 481.35130000000004)" cx="-34.521000000000015" cy="475.35130000000004" rx="3" ry="5" fill="black"/><ellipse stroke="black" stroke-width="1" transform="rotate(-100.1124 11.103700000000003 256.59909)" cx="11.103700000000003" cy="256.59909" rx="5.5" ry="7" fill="white"/> <ellipse stroke="black" stroke-width="1" transform="rotate(-100.1124 11.103700000000003 256.59909)" cx="11.103700000000003" cy="250.59909" rx="3" ry="5" fill="black"/></svg>