<svg xmlns="http://www.w3.org/2000/svg" width="1200.0" height="800.0"><ellipse stroke="black" stroke-width="1" transform="rotate(-346.8047 509.26248 523.3319)" cx="509.26248" cy="523.3319" rx="5.5" ry="7" fill="transparent"/> <ellipse stroke="black" stroke-width="1" transform="rotate(-346.8047 509.26248 523.3319)" cx="509.26248" cy="517.3319" rx="3" ry="5" fill="black"/><ellipse stroke="black" stroke-width="1" transform="rotate(-180.1679 403.45820000000003 327.18948)" cx="403.45820000000003" cy="327.18948" rx="5.5" ry="7" fill="transparent"/> <ellipse stroke="black" stroke-width="1" transform="rotate(-180.1679 403.45820000000003 327.18948)" cx="403.45820000000003" cy="321.18948" rx="3" ry="5" fill="black"/><ellipse stroke="black" stroke-width="1" transform="rotate(-357.7217 419.3519 519.6898)" cx="419.3519" cy="519.6898" rx="5.5" ry="7" fill="transparent"/> <ellipse stroke="black" stroke-width="1" transform="rotate(-357.7217 419.3519 519.6898)" cx="419.3519" cy="513.6898" rx="3" ry="5" fill="black"/><ellipse stroke="black" stroke-width="1" transform="rotate(-359.0927 474.1032 497.59461999999996)" cx="474.1032" cy="497.59461999999996" rx="5.5" ry="7" fill="transparent"/> <ellipse stroke="black" stroke-width="1" transform="rotate(-359.0927 474.1032 497.59461999999996)" cx="474.1032" cy="491.59461999999996" rx="3" ry="5" fill="black"/><ellipse stroke="black" stroke-width="1" transform="rotate(-114.1983 699.71272 401.06859)" cx="699.71272" cy="401.06859" rx="5.5" ry="7" fill="transparent"/> <ellipse stroke="black" stroke-width="1" transform="rotate(-114.1983 699.71272 401.06859)" cx="699.71272" cy="395.06859" rx="3" ry="5" fill="black"/><ellipse stroke="black" stroke-width="1" transform="rotate(-164.4576 507.93611 280.4584)" cx="507.93611" cy="280.4584" rx="5.5" ry="7" fill="transparent"/> <ellipse stroke="black" stroke-width="1" transform="rotate(-164.4576 507.93611 280.4584)" cx="507.93611" cy="274.4584" rx="3" ry="5" fill="black"/><ellipse stroke="black" stroke-width="1" transform="rotate(-167.9917 636.91048 289.3922)" cx="636.91048" cy="289.3922" rx="5.5" ry="7" fill="transparent"/> <ellipse stroke="black" stroke-width="1" transform="rotate(-167.9917 636.91048 289.3922)" cx="636.91048" cy="283.3922" rx="3" ry="5" fill="black"/><ellipse stroke="black" stroke-width="1" transform="rotate(-216.6703 443.5211 346.87603)" cx="443.5211" cy="346.87603" rx="5.5" ry="7" fill="transparent"/> <ellipse stroke="black" stroke-width="1" transform="rotate(-216.6703 443.5211 346.87603)" cx="443.5211" cy="340.87603" rx="3" ry="5" fill="black"/><ellipse stroke="black" stroke-width="1" transform="rotate(-193.265 428.78139999999996 388.29861)" cx="428.78139999999996" cy="388.29861" rx="5.5" ry="7" fill="transparent"/> <ellipse stroke="black" stroke-width="1" transform="rotate(-193.265 428.78139999999996 388.29861)" cx="428.78139999999996" cy="382.29861" rx="3" ry="5" fill="black"/><ellipse stroke="black" stroke-width="1" transform="rotate(-172.5813 689.56623 271.81039999999996)" cx="689.56623" cy="271.81039999999996" rx="5.5" ry="7" fill="transparent"/> <ellipse stroke="black" stroke-width="1" transform="rotate(-172.5813 689.56623 271.81039999999996)" cx="689.56623" cy="265.81039999999996" rx="3" ry="5" fill="black"/><ellipse stroke="black" stroke-width="1" transform="rotate(-188.056 586.83934 280.2357)" cx="586.83934" cy="280.2357" rx="5.5" ry="7" fill="transparent"/> <ellipse stroke="black" stroke-width="1" transform="rotate(-188.056 586.83934 280.2357)" cx="586.83934" cy="274.2357" rx="3" ry="5" fill="black"/><ellipse stroke="black" stroke-width="1" transform="rotate(-16.81884 641.39004 471.12055)" cx="641.39004" cy="471.12055" rx="5.5" ry="7" fill="transparent"/> <ellipse stroke="black" stroke-width="1" transform="rotate(-16.81884 641.39004 471.12055)" cx="641.39004" cy="465.12055" rx="3" ry="5" fill="black"/><ellipse stroke="black" stroke-width="1" transform="rotate(-167.8816 671.25496 335.33353999999997)" cx="671.25496" cy="335.33353999999997" rx="5.5" ry="7" fill="transparent"/> <ellipse stroke="black" stroke-width="1" transform="rotate(-167.8816 671.25496 335.33353999999997)" cx="671.25496" cy="329.33353999999997" rx="3" ry="5" fill="black"/><ellipse stroke="black" stroke-width="1" transform="rotate(-151.918 769.1902 273.6204)" cx="769.1902" cy="273.6204" rx="5.5" ry="7" fill="transparent"/> <ellipse stroke="black" stroke-width="1" transform="rotate(-151.918 769.1902 273.6204)" cx="769.1902" cy="267.6204" rx="3" ry="5" fill="black"/><ellipse stroke="black" stroke-width="1" transform="rotate(-178.6809 542.27337 336.24064)" cx="542.27337" cy="336.24064" rx="5.5" ry="7" fill="transparent"/> <ellipse stroke="black" stroke-width="1" transform="rotate(-178.6809 542.27337 336.24064)" cx="542.27337" cy="330.24064" rx="3" ry="5" fill="black"/><ellipse stroke="black" stroke-width="1" transform="rotate(-51.89899 642.22828 418.24451)" cx="642.22828" cy="418.24451" rx="5.5" ry="7" fill="transparent"/> <ellipse stroke="black" stroke-width="1" transform="rotate(-51.89899 642.22828 418.24451)" cx="642.22828" cy="412.24451" rx="3" ry="5" fill="black"/><ellipse stroke="black" stroke-width="1" transform="rotate(-177.3984 548.66908 281.7742)" cx="548.66908" cy="281.7742" rx="5.5" ry="7" fill="transparent"/> <ellipse stroke="black" stroke-width="1" transform="rotate(-177.3984 548.66908 281.7742)" cx="548.66908" cy="275.7742" rx="3" ry="5" fill="black"/><ellipse stroke="black" stroke-width="1" transform="rotate(-1.663889 554.65099 457.93251)" cx="554.65099" cy="457.93251" rx="5.5" ry="7" fill="transparent"/> <ellipse stroke="black" stroke-width="1" transform="rotate(-1.663889 554.65099 457.93251)" cx="554.65099" cy="451.93251" rx="3" ry="5" fill="black"/><ellipse stroke="black" stroke-width="1" transform="rotate(-178.7393 551.48064 244.5368)" cx="551.48064" cy="244.5368" rx="5.5" ry="7" fill="transparent"/> <ellipse stroke="black" stroke-width="1" transform="rotate(-178.7393 551.48064 244.5368)" cx="551.48064" cy="238.5368" rx="3" ry="5" fill="black"/><polygon stroke="black" stroke-width="2" transform="rotate(-9.734152 711.7399 519.8254)" points="703.7399 529.8254 719.7399 529.8254 711.7399 509.82539999999995" fill="grey"/></svg>