<svg xmlns="http://www.w3.org/2000/svg" width="1200.0" height="800.0"><ellipse stroke="black" stroke-width="1" transform="rotate(-346.6879 510.00933 520.1613)" cx="510.00933" cy="520.1613" rx="5.5" ry="7" fill="transparent"/> <ellipse stroke="black" stroke-width="1" transform="rotate(-346.6879 510.00933 520.1613)" cx="510.00933" cy="514.1613" rx="3" ry="5" fill="black"/><ellipse stroke="black" stroke-width="1" transform="rotate(-180.1412 403.46299999999997 329.0379)" cx="403.46299999999997" cy="329.0379" rx="5.5" ry="7" fill="transparent"/> <ellipse stroke="black" stroke-width="1" transform="rotate(-180.1412 403.46299999999997 329.0379)" cx="403.46299999999997" cy="323.0379" rx="3" ry="5" fill="black"/><ellipse stroke="black" stroke-width="1" transform="rotate(-357.6061 419.4857 516.414)" cx="419.4857" cy="516.414" rx="5.5" ry="7" fill="transparent"/> <ellipse stroke="black" stroke-width="1" transform="rotate(-357.6061 419.4857 516.414)" cx="419.4857" cy="510.414" rx="3" ry="5" fill="black"/><ellipse stroke="black" stroke-width="1" transform="rotate(-358.7791 474.1649 494.29760999999996)" cx="474.1649" cy="494.29760999999996" rx="5.5" ry="7" fill="transparent"/> <ellipse stroke="black" stroke-width="1" transform="rotate(-358.7791 474.1649 494.29760999999996)" cx="474.1649" cy="488.29760999999996" rx="3" ry="5" fill="black"/><ellipse stroke="black" stroke-width="1" transform="rotate(-114.3111 699.17754 401.300573)" cx="699.17754" cy="401.300573" rx="5.5" ry="7" fill="transparent"/> <ellipse stroke="black" stroke-width="1" transform="rotate(-114.3111 699.17754 401.300573)" cx="699.17754" cy="395.300573" rx="3" ry="5" fill="black"/><ellipse stroke="black" stroke-width="1" transform="rotate(-164.707 506.84545 284.4154)" cx="506.84545" cy="284.4154" rx="5.5" ry="7" fill="transparent"/> <ellipse stroke="black" stroke-width="1" transform="rotate(-164.707 506.84545 284.4154)" cx="506.84545" cy="278.4154" rx="3" ry="5" fill="black"/><ellipse stroke="black" stroke-width="1" transform="rotate(-167.9644 636.2079200000001 292.6905)" cx="636.2079200000001" cy="292.6905" rx="5.5" ry="7" fill="transparent"/> <ellipse stroke="black" stroke-width="1" transform="rotate(-167.9644 636.2079200000001 292.6905)" cx="636.2079200000001" cy="286.6905" rx="3" ry="5" fill="black"/><ellipse stroke="black" stroke-width="1" transform="rotate(-216.9794 444.2036 347.78748)" cx="444.2036" cy="347.78748" rx="5.5" ry="7" fill="transparent"/> <ellipse stroke="black" stroke-width="1" transform="rotate(-216.9794 444.2036 347.78748)" cx="444.2036" cy="341.78748" rx="3" ry="5" fill="black"/><ellipse stroke="black" stroke-width="1" transform="rotate(-193.6538 429.05280000000005 389.43157)" cx="429.05280000000005" cy="389.43157" rx="5.5" ry="7" fill="transparent"/> <ellipse stroke="black" stroke-width="1" transform="rotate(-193.6538 429.05280000000005 389.43157)" cx="429.05280000000005" cy="383.43157" rx="3" ry="5" fill="black"/><ellipse stroke="black" stroke-width="1" transform="rotate(-172.3748 689.06018 275.6402)" cx="689.06018" cy="275.6402" rx="5.5" ry="7" fill="transparent"/> <ellipse stroke="black" stroke-width="1" transform="rotate(-172.3748 689.06018 275.6402)" cx="689.06018" cy="269.6402" rx="3" ry="5" fill="black"/><ellipse stroke="black" stroke-width="1" transform="rotate(-187.1863 587.37067 284.21709999999996)" cx="587.37067" cy="284.21709999999996" rx="5.5" ry="7" fill="transparent"/> <ellipse stroke="black" stroke-width="1" transform="rotate(-187.1863 587.37067 284.21709999999996)" cx="587.37067" cy="278.21709999999996" rx="3" ry="5" fill="black"/><ellipse stroke="black" stroke-width="1" transform="rotate(-17.31911 641.00049 469.8528)" cx="641.00049" cy="469.8528" rx="5.5" ry="7" fill="transparent"/> <ellipse stroke="black" stroke-width="1" transform="rotate(-17.31911 641.00049 469.8528)" cx="641.00049" cy="463.8528" rx="3" ry="5" fill="black"/><ellipse stroke="black" stroke-width="1" transform="rotate(-167.9497 670.74514 337.71506999999997)" cx="670.74514" cy="337.71506999999997" rx="5.5" ry="7" fill="transparent"/> <ellipse stroke="black" stroke-width="1" transform="rotate(-167.9497 670.74514 337.71506999999997)" cx="670.74514" cy="331.71506999999997" rx="3" ry="5" fill="black"/><ellipse stroke="black" stroke-width="1" transform="rotate(-151.6986 767.1361999999999 277.4514)" cx="767.1361999999999" cy="277.4514" rx="5.5" ry="7" fill="transparent"/> <ellipse stroke="black" stroke-width="1" transform="rotate(-151.6986 767.1361999999999 277.4514)" cx="767.1361999999999" cy="271.4514" rx="3" ry="5" fill="black"/><ellipse stroke="black" stroke-width="1" transform="rotate(-178.6665 542.22854 338.17669)" cx="542.22854" cy="338.17669" rx="5.5" ry="7" fill="transparent"/> <ellipse stroke="black" stroke-width="1" transform="rotate(-178.6665 542.22854 338.17669)" cx="542.22854" cy="332.17669" rx="3" ry="5" fill="black"/><ellipse stroke="black" stroke-width="1" transform="rotate(-51.97984 641.43571 417.56205)" cx="641.43571" cy="417.56205" rx="5.5" ry="7" fill="transparent"/> <ellipse stroke="black" stroke-width="1" transform="rotate(-51.97984 641.43571 417.56205)" cx="641.43571" cy="411.56205" rx="3" ry="5" fill="black"/><ellipse stroke="black" stroke-width="1" transform="rotate(-177.242 548.51766 285.0071)" cx="548.51766" cy="285.0071" rx="5.5" ry="7" fill="transparent"/> <ellipse stroke="black" stroke-width="1" transform="rotate(-177.242 548.51766 285.0071)" cx="548.51766" cy="279.0071" rx="3" ry="5" fill="black"/><ellipse stroke="black" stroke-width="1" transform="rotate(-1.738746 554.60714 456.45708)" cx="554.60714" cy="456.45708" rx="5.5" ry="7" fill="transparent"/> <ellipse stroke="black" stroke-width="1" transform="rotate(-1.738746 554.60714 456.45708)" cx="554.60714" cy="450.45708" rx="3" ry="5" fill="black"/><ellipse stroke="black" stroke-width="1" transform="rotate(-178.7521 551.40623 247.9334)" cx="551.40623" cy="247.9334" rx="5.5" ry="7" fill="transparent"/> <ellipse stroke="black" stroke-width="1" transform="rotate(-178.7521 551.40623 247.9334)" cx="551.40623" cy="241.9334" rx="3" ry="5" fill="black"/><polygon stroke="black" stroke-width="2" transform="rotate(-10.21255 711.1705 516.5907)" points="703.1705 526.5907 719.1705 526.5907 711.1705 506.59069999999997" fill="grey"/></svg>