<svg xmlns="http://www.w3.org/2000/svg" width="900.0" height="700.0"><rect stroke="transparent" x="150.0" y="150.0" width="600.0" height="400.0" fill="white"/><ellipse stroke="black" stroke-width="1" transform="rotate(-315.6589 389.52359 299.33127)" cx="389.52359" cy="299.33127" rx="5.5" ry="7" fill="white"/> <ellipse stroke="black" stroke-width="1" transform="rotate(-315.6589 389.52359 299.33127)" cx="389.52359" cy="293.33127" rx="3" ry="5" fill="black"/><ellipse stroke="black" stroke-width="1" transform="rotate(-317.2843 476.9145 330.77664)" cx="476.9145" cy="330.77664" rx="5.5" ry="7" fill="white"/> <ellipse stroke="black" stroke-width="1" transform="rotate(-317.2843 476.9145 330.77664)" cx="476.9145" cy="324.77664" rx="3" ry="5" fill="black"/><ellipse stroke="black" stroke-width="1" transform="rotate(-313.2115 411.0231 305.58049)" cx="411.0231" cy="305.58049" rx="5.5" ry="7" fill="white"/> <ellipse stroke="black" stroke-width="1" transform="rotate(-313.2115 411.0231 305.58049)" cx="411.0231" cy="299.58049" rx="3" ry="5" fill="black"/><ellipse stroke="black" stroke-width="1" transform="rotate(-313.0321 449.1612064 354.717404)" cx="449.1612064" cy="354.717404" rx="5.5" ry="7" fill="white"/> <ellipse stroke="black" stroke-width="1" transform="rotate(-313.0321 449.1612064 354.717404)" cx="449.1612064" cy="348.717404" rx="3" ry="5" fill="black"/><ellipse stroke="black" stroke-width="1" transform="rotate(-314.7485 415.48903 331.15752)" cx="415.48903" cy="331.15752" rx="5.5" ry="7" fill="white"/> <ellipse stroke="black" stroke-width="1" transform="rotate(-314.7485 415.48903 331.15752)" cx="415.48903" cy="325.15752" rx="3" ry="5" fill="black"/><ellipse stroke="black" stroke-width="1" transform="rotate(-312.8438 438.4792 297.21434)" cx="438.4792" cy="297.21434" rx="5.5" ry="7" fill="white"/> <ellipse stroke="black" stroke-width="1" transform="rotate(-312.8438 438.4792 297.21434)" cx="438.4792" cy="291.21434" rx="3" ry="5" fill="black"/><ellipse stroke="black" stroke-width="1" transform="rotate(-314.0276 426.629 351.197239)" cx="426.629" cy="351.197239" rx="5.5" ry="7" fill="white"/> <ellipse stroke="black" stroke-width="1" transform="rotate(-314.0276 426.629 351.197239)" cx="426.629" cy="345.197239" rx="3" ry="5" fill="black"/><ellipse stroke="black" stroke-width="1" transform="rotate(-312.8122 439.78561 367.06303)" cx="439.78561" cy="367.06303" rx="5.5" ry="7" fill="white"/> <ellipse stroke="black" stroke-width="1" transform="rotate(-312.8122 439.78561 367.06303)" cx="439.78561" cy="361.06303" rx="3" ry="5" fill="black"/><ellipse stroke="black" stroke-width="1" transform="rotate(-315.6079 398.70221 319.75873)" cx="398.70221" cy="319.75873" rx="5.5" ry="7" fill="white"/> <ellipse stroke="black" stroke-width="1" transform="rotate(-315.6079 398.70221 319.75873)" cx="398.70221" cy="313.75873" rx="3" ry="5" fill="black"/><ellipse stroke="black" stroke-width="1" transform="rotate(-312.8237 402.04447 284.56345)" cx="402.04447" cy="284.56345" rx="5.5" ry="7" fill="white"/> <ellipse stroke="black" stroke-width="1" transform="rotate(-312.8237 402.04447 284.56345)" cx="402.04447" cy="278.56345" rx="3" ry="5" fill="black"/><ellipse stroke="black" stroke-width="1" transform="rotate(-316.9442 407.0905 344.358785)" cx="407.0905" cy="344.358785" rx="5.5" ry="7" fill="white"/> <ellipse stroke="black" stroke-width="1" transform="rotate(-316.9442 407.0905 344.358785)" cx="407.0905" cy="338.358785" rx="3" ry="5" fill="black"/><ellipse stroke="black" stroke-width="1" transform="rotate(-313.9583 434.09901 337.18085)" cx="434.09901" cy="337.18085" rx="5.5" ry="7" fill="white"/> <ellipse stroke="black" stroke-width="1" transform="rotate(-313.9583 434.09901 337.18085)" cx="434.09901" cy="331.18085" rx="3" ry="5" fill="black"/><ellipse stroke="black" stroke-width="1" transform="rotate(-313.45 456.148849 337.69303)" cx="456.148849" cy="337.69303" rx="5.5" ry="7" fill="white"/> <ellipse stroke="black" stroke-width="1" transform="rotate(-313.45 456.148849 337.69303)" cx="456.148849" cy="331.69303" rx="3" ry="5" fill="black"/><ellipse stroke="black" stroke-width="1" transform="rotate(-313.1898 468.00789 368.43304)" cx="468.00789" cy="368.43304" rx="5.5" ry="7" fill="white"/> <ellipse stroke="black" stroke-width="1" transform="rotate(-313.1898 468.00789 368.43304)" cx="468.00789" cy="362.43304" rx="3" ry="5" fill="black"/><ellipse stroke="black" stroke-width="1" transform="rotate(-315.6783 455.61361 301.13883)" cx="455.61361" cy="301.13883" rx="5.5" ry="7" fill="white"/> <ellipse stroke="black" stroke-width="1" transform="rotate(-315.6783 455.61361 301.13883)" cx="455.61361" cy="295.13883" rx="3" ry="5" fill="black"/><ellipse stroke="black" stroke-width="1" transform="rotate(-318.1797 467.98313 313.11736)" cx="467.98313" cy="313.11736" rx="5.5" ry="7" fill="white"/> <ellipse stroke="black" stroke-width="1" transform="rotate(-318.1797 467.98313 313.11736)" cx="467.98313" cy="307.11736" rx="3" ry="5" fill="black"/><ellipse stroke="black" stroke-width="1" transform="rotate(-312.4695 444.758661 321.25426)" cx="444.758661" cy="321.25426" rx="5.5" ry="7" fill="white"/> <ellipse stroke="black" stroke-width="1" transform="rotate(-312.4695 444.758661 321.25426)" cx="444.758661" cy="315.25426" rx="3" ry="5" fill="black"/><ellipse stroke="black" stroke-width="1" transform="rotate(-314.0612 423.19671 287.7468)" cx="423.19671" cy="287.7468" rx="5.5" ry="7" fill="white"/> <ellipse stroke="black" stroke-width="1" transform="rotate(-314.0612 423.19671 287.7468)" cx="423.19671" cy="281.7468" rx="3" ry="5" fill="black"/><ellipse stroke="black" stroke-width="1" transform="rotate(-313.4773 427.20261 314.97637)" cx="427.20261" cy="314.97637" rx="5.5" ry="7" fill="white"/> <ellipse stroke="black" stroke-width="1" transform="rotate(-313.4773 427.20261 314.97637)" cx="427.20261" cy="308.97637" rx="3" ry="5" fill="black"/><ellipse stroke="black" stroke-width="1" transform="rotate(-313.75 473.92261 352.626507)" cx="473.92261" cy="352.626507" rx="5.5" ry="7" fill="white"/> <ellipse stroke="black" stroke-width="1" transform="rotate(-313.75 473.92261 352.626507)" cx="473.92261" cy="346.626507" rx="3" ry="5" fill="black"/><ellipse stroke="black" stroke-width="1" transform="rotate(-323.4231 244.4954 525.6225)" cx="244.4954" cy="525.6225" rx="5.5" ry="7" fill="white"/> <ellipse stroke="black" stroke-width="1" transform="rotate(-323.4231 244.4954 525.6225)" cx="244.4954" cy="519.6225" rx="3" ry="5" fill="black"/></svg>