<svg xmlns="http://www.w3.org/2000/svg" width="900.0" height="700.0"><rect stroke="transparent" x="150.0" y="150.0" width="600.0" height="400.0" fill="white"/><ellipse stroke="black" stroke-width="1" transform="rotate(-316.4461 368.52799 321.07448999999997)" cx="368.52799" cy="321.07448999999997" rx="5.5" ry="7" fill="white"/> <ellipse stroke="black" stroke-width="1" transform="rotate(-316.4461 368.52799 321.07448999999997)" cx="368.52799" cy="315.07448999999997" rx="3" ry="5" fill="black"/><ellipse stroke="black" stroke-width="1" transform="rotate(-317.4757 456.6798 353.189253)" cx="456.6798" cy="353.189253" rx="5.5" ry="7" fill="white"/> <ellipse stroke="black" stroke-width="1" transform="rotate(-317.4757 456.6798 353.189253)" cx="456.6798" cy="347.189253" rx="3" ry="5" fill="black"/><ellipse stroke="black" stroke-width="1" transform="rotate(-313.0695 390.22153000000003 324.94129)" cx="390.22153000000003" cy="324.94129" rx="5.5" ry="7" fill="white"/> <ellipse stroke="black" stroke-width="1" transform="rotate(-313.0695 390.22153000000003 324.94129)" cx="390.22153000000003" cy="318.94129" rx="3" ry="5" fill="black"/><ellipse stroke="black" stroke-width="1" transform="rotate(-314.6861 428.89702 374.20364)" cx="428.89702" cy="374.20364" rx="5.5" ry="7" fill="white"/> <ellipse stroke="black" stroke-width="1" transform="rotate(-314.6861 428.89702 374.20364)" cx="428.89702" cy="368.20364" rx="3" ry="5" fill="black"/><ellipse stroke="black" stroke-width="1" transform="rotate(-315.2337 396.02962 350.7179239)" cx="396.02962" cy="350.7179239" rx="5.5" ry="7" fill="white"/> <ellipse stroke="black" stroke-width="1" transform="rotate(-315.2337 396.02962 350.7179239)" cx="396.02962" cy="344.7179239" rx="3" ry="5" fill="black"/><ellipse stroke="black" stroke-width="1" transform="rotate(-313.7992 418.48383 316.09881)" cx="418.48383" cy="316.09881" rx="5.5" ry="7" fill="white"/> <ellipse stroke="black" stroke-width="1" transform="rotate(-313.7992 418.48383 316.09881)" cx="418.48383" cy="310.09881" rx="3" ry="5" fill="black"/><ellipse stroke="black" stroke-width="1" transform="rotate(-314.796 407.39065 370.12463)" cx="407.39065" cy="370.12463" rx="5.5" ry="7" fill="white"/> <ellipse stroke="black" stroke-width="1" transform="rotate(-314.796 407.39065 370.12463)" cx="407.39065" cy="364.12463" rx="3" ry="5" fill="black"/><ellipse stroke="black" stroke-width="1" transform="rotate(-314.6111 419.06041 386.94144)" cx="419.06041" cy="386.94144" rx="5.5" ry="7" fill="white"/> <ellipse stroke="black" stroke-width="1" transform="rotate(-314.6111 419.06041 386.94144)" cx="419.06041" cy="380.94144" rx="3" ry="5" fill="black"/><ellipse stroke="black" stroke-width="1" transform="rotate(-316.8449 378.67331 340.476245)" cx="378.67331" cy="340.476245" rx="5.5" ry="7" fill="white"/> <ellipse stroke="black" stroke-width="1" transform="rotate(-316.8449 378.67331 340.476245)" cx="378.67331" cy="334.476245" rx="3" ry="5" fill="black"/><ellipse stroke="black" stroke-width="1" transform="rotate(-312.8832 380.47128 304.9027)" cx="380.47128" cy="304.9027" rx="5.5" ry="7" fill="white"/> <ellipse stroke="black" stroke-width="1" transform="rotate(-312.8832 380.47128 304.9027)" cx="380.47128" cy="298.9027" rx="3" ry="5" fill="black"/><ellipse stroke="black" stroke-width="1" transform="rotate(-317.439 388.17687 364.40034)" cx="388.17687" cy="364.40034" rx="5.5" ry="7" fill="white"/> <ellipse stroke="black" stroke-width="1" transform="rotate(-317.439 388.17687 364.40034)" cx="388.17687" cy="358.40034" rx="3" ry="5" fill="black"/><ellipse stroke="black" stroke-width="1" transform="rotate(-314.3995 414.60092 356.169305)" cx="414.60092" cy="356.169305" rx="5.5" ry="7" fill="white"/> <ellipse stroke="black" stroke-width="1" transform="rotate(-314.3995 414.60092 356.169305)" cx="414.60092" cy="350.169305" rx="3" ry="5" fill="black"/><ellipse stroke="black" stroke-width="1" transform="rotate(-314.4891 435.9223 357.27971)" cx="435.9223" cy="357.27971" rx="5.5" ry="7" fill="white"/> <ellipse stroke="black" stroke-width="1" transform="rotate(-314.4891 435.9223 357.27971)" cx="435.9223" cy="351.27971" rx="3" ry="5" fill="black"/><ellipse stroke="black" stroke-width="1" transform="rotate(-314.2655 446.141679 389.34263)" cx="446.141679" cy="389.34263" rx="5.5" ry="7" fill="white"/> <ellipse stroke="black" stroke-width="1" transform="rotate(-314.2655 446.141679 389.34263)" cx="446.141679" cy="383.34263" rx="3" ry="5" fill="black"/><ellipse stroke="black" stroke-width="1" transform="rotate(-315.3114 435.57182 321.4846)" cx="435.57182" cy="321.4846" rx="5.5" ry="7" fill="white"/> <ellipse stroke="black" stroke-width="1" transform="rotate(-315.3114 435.57182 321.4846)" cx="435.57182" cy="315.4846" rx="3" ry="5" fill="black"/><ellipse stroke="black" stroke-width="1" transform="rotate(-316.4057 448.031206 334.41634)" cx="448.031206" cy="334.41634" rx="5.5" ry="7" fill="white"/> <ellipse stroke="black" stroke-width="1" transform="rotate(-316.4057 448.031206 334.41634)" cx="448.031206" cy="328.41634" rx="3" ry="5" fill="black"/><ellipse stroke="black" stroke-width="1" transform="rotate(-313.3698 424.17111 340.220507)" cx="424.17111" cy="340.220507" rx="5.5" ry="7" fill="white"/> <ellipse stroke="black" stroke-width="1" transform="rotate(-313.3698 424.17111 340.220507)" cx="424.17111" cy="334.220507" rx="3" ry="5" fill="black"/><ellipse stroke="black" stroke-width="1" transform="rotate(-313.8918 402.11953 308.06963)" cx="402.11953" cy="308.06963" rx="5.5" ry="7" fill="white"/> <ellipse stroke="black" stroke-width="1" transform="rotate(-313.8918 402.11953 308.06963)" cx="402.11953" cy="302.06963" rx="3" ry="5" fill="black"/><ellipse stroke="black" stroke-width="1" transform="rotate(-312.5709 406.1249 334.79429)" cx="406.1249" cy="334.79429" rx="5.5" ry="7" fill="white"/> <ellipse stroke="black" stroke-width="1" transform="rotate(-312.5709 406.1249 334.79429)" cx="406.1249" cy="328.79429" rx="3" ry="5" fill="black"/><ellipse stroke="black" stroke-width="1" transform="rotate(-316.6161 452.78048 374.04228)" cx="452.78048" cy="374.04228" rx="5.5" ry="7" fill="white"/> <ellipse stroke="black" stroke-width="1" transform="rotate(-316.6161 452.78048 374.04228)" cx="452.78048" cy="368.04228" rx="3" ry="5" fill="black"/><ellipse stroke="black" stroke-width="1" transform="rotate(-323.4231 244.4954 525.6225)" cx="244.4954" cy="525.6225" rx="5.5" ry="7" fill="white"/> <ellipse stroke="black" stroke-width="1" transform="rotate(-323.4231 244.4954 525.6225)" cx="244.4954" cy="519.6225" rx="3" ry="5" fill="black"/></svg>