<svg xmlns="http://www.w3.org/2000/svg" width="1200.0" height="800.0"><ellipse stroke="black" stroke-width="1" transform="rotate(-346.985 505.13287 541.1752)" cx="505.13287" cy="541.1752" rx="5.5" ry="7" fill="transparent"/> <ellipse stroke="black" stroke-width="1" transform="rotate(-346.985 505.13287 541.1752)" cx="505.13287" cy="535.1752" rx="3" ry="5" fill="black"/><ellipse stroke="black" stroke-width="1" transform="rotate(-181.1617 403.3616 317.15251)" cx="403.3616" cy="317.15251" rx="5.5" ry="7" fill="transparent"/> <ellipse stroke="black" stroke-width="1" transform="rotate(-181.1617 403.3616 317.15251)" cx="403.3616" cy="311.15251" rx="3" ry="5" fill="black"/><ellipse stroke="black" stroke-width="1" transform="rotate(-358.2791 418.7011 538.4327000000001)" cx="418.7011" cy="538.4327000000001" rx="5.5" ry="7" fill="transparent"/> <ellipse stroke="black" stroke-width="1" transform="rotate(-358.2791 418.7011 538.4327000000001)" cx="418.7011" cy="532.4327000000001" rx="3" ry="5" fill="black"/><ellipse stroke="black" stroke-width="1" transform="rotate(-0.937892 474.1011 516.6002)" cx="474.1011" cy="516.6002" rx="5.5" ry="7" fill="transparent"/> <ellipse stroke="black" stroke-width="1" transform="rotate(-0.937892 474.1011 516.6002)" cx="474.1011" cy="510.6002" rx="3" ry="5" fill="black"/><ellipse stroke="black" stroke-width="1" transform="rotate(-113.0992 703.1967 399.5895582)" cx="703.1967" cy="399.5895582" rx="5.5" ry="7" fill="transparent"/> <ellipse stroke="black" stroke-width="1" transform="rotate(-113.0992 703.1967 399.5895582)" cx="703.1967" cy="393.5895582" rx="3" ry="5" fill="black"/><ellipse stroke="black" stroke-width="1" transform="rotate(-162.4854 514.59721 257.86580000000004)" cx="514.59721" cy="257.86580000000004" rx="5.5" ry="7" fill="transparent"/> <ellipse stroke="black" stroke-width="1" transform="rotate(-162.4854 514.59721 257.86580000000004)" cx="514.59721" cy="251.86580000000004" rx="3" ry="5" fill="black"/><ellipse stroke="black" stroke-width="1" transform="rotate(-172.1046 640.50461 270.03340000000003)" cx="640.50461" cy="270.03340000000003" rx="5.5" ry="7" fill="transparent"/> <ellipse stroke="black" stroke-width="1" transform="rotate(-172.1046 640.50461 270.03340000000003)" cx="640.50461" cy="264.03340000000003" rx="3" ry="5" fill="black"/><ellipse stroke="black" stroke-width="1" transform="rotate(-214.9023 439.9979 342.02755)" cx="439.9979" cy="342.02755" rx="5.5" ry="7" fill="transparent"/> <ellipse stroke="black" stroke-width="1" transform="rotate(-214.9023 439.9979 342.02755)" cx="439.9979" cy="336.02755" rx="3" ry="5" fill="black"/><ellipse stroke="black" stroke-width="1" transform="rotate(-191.7579 427.1672 382.40008)" cx="427.1672" cy="382.40008" rx="5.5" ry="7" fill="transparent"/> <ellipse stroke="black" stroke-width="1" transform="rotate(-191.7579 427.1672 382.40008)" cx="427.1672" cy="376.40008" rx="3" ry="5" fill="black"/><ellipse stroke="black" stroke-width="1" transform="rotate(-173.7954 692.16838 250.0614)" cx="692.16838" cy="250.0614" rx="5.5" ry="7" fill="transparent"/> <ellipse stroke="black" stroke-width="1" transform="rotate(-173.7954 692.16838 250.0614)" cx="692.16838" cy="244.0614" rx="3" ry="5" fill="black"/><ellipse stroke="black" stroke-width="1" transform="rotate(-193.0986 582.63368 257.52599999999995)" cx="582.63368" cy="257.52599999999995" rx="5.5" ry="7" fill="transparent"/> <ellipse stroke="black" stroke-width="1" transform="rotate(-193.0986 582.63368 257.52599999999995)" cx="582.63368" cy="251.52599999999995" rx="3" ry="5" fill="black"/><ellipse stroke="black" stroke-width="1" transform="rotate(-14.0544 643.41177 478.43434)" cx="643.41177" cy="478.43434" rx="5.5" ry="7" fill="transparent"/> <ellipse stroke="black" stroke-width="1" transform="rotate(-14.0544 643.41177 478.43434)" cx="643.41177" cy="472.43434" rx="3" ry="5" fill="black"/><ellipse stroke="black" stroke-width="1" transform="rotate(-161.43 674.45894 322.66245)" cx="674.45894" cy="322.66245" rx="5.5" ry="7" fill="transparent"/> <ellipse stroke="black" stroke-width="1" transform="rotate(-161.43 674.45894 322.66245)" cx="674.45894" cy="316.66245" rx="3" ry="5" fill="black"/><ellipse stroke="black" stroke-width="1" transform="rotate(-153.4054 780.2293 252.3193)" cx="780.2293" cy="252.3193" rx="5.5" ry="7" fill="transparent"/> <ellipse stroke="black" stroke-width="1" transform="rotate(-153.4054 780.2293 252.3193)" cx="780.2293" cy="246.3193" rx="3" ry="5" fill="black"/><ellipse stroke="black" stroke-width="1" transform="rotate(-178.7567 542.51555 325.4106)" cx="542.51555" cy="325.4106" rx="5.5" ry="7" fill="transparent"/> <ellipse stroke="black" stroke-width="1" transform="rotate(-178.7567 542.51555 325.4106)" cx="542.51555" cy="319.4106" rx="3" ry="5" fill="black"/><ellipse stroke="black" stroke-width="1" transform="rotate(-29.85826 645.59353 421.97566)" cx="645.59353" cy="421.97566" rx="5.5" ry="7" fill="transparent"/> <ellipse stroke="black" stroke-width="1" transform="rotate(-29.85826 645.59353 421.97566)" cx="645.59353" cy="415.97566" rx="3" ry="5" fill="black"/><ellipse stroke="black" stroke-width="1" transform="rotate(-177.3418 549.54913 261.5156)" cx="549.54913" cy="261.5156" rx="5.5" ry="7" fill="transparent"/> <ellipse stroke="black" stroke-width="1" transform="rotate(-177.3418 549.54913 261.5156)" cx="549.54913" cy="255.5156" rx="3" ry="5" fill="black"/><ellipse stroke="black" stroke-width="1" transform="rotate(-1.309109 554.86425 466.1869)" cx="554.86425" cy="466.1869" rx="5.5" ry="7" fill="transparent"/> <ellipse stroke="black" stroke-width="1" transform="rotate(-1.309109 554.86425 466.1869)" cx="554.86425" cy="460.1869" rx="3" ry="5" fill="black"/><ellipse stroke="black" stroke-width="1" transform="rotate(-178.7536 551.90387 225.245)" cx="551.90387" cy="225.245" rx="5.5" ry="7" fill="transparent"/> <ellipse stroke="black" stroke-width="1" transform="rotate(-178.7536 551.90387 225.245)" cx="551.90387" cy="219.245" rx="3" ry="5" fill="black"/><polygon stroke="black" stroke-width="2" transform="rotate(-7.433892 714.5236 538.3651)" points="706.5236 548.3651 722.5236 548.3651 714.5236 528.3651" fill="grey"/></svg>