<svg xmlns="http://www.w3.org/2000/svg" width="900.0" height="700.0"><rect stroke="transparent" x="150.0" y="150.0" width="600.0" height="400.0" fill="white"/><ellipse stroke="black" stroke-width="1" transform="rotate(-177.5759 -122.15150000000006 546.3206)" cx="-122.15150000000006" cy="546.3206" rx="5.5" ry="7" fill="white"/> <ellipse stroke="black" stroke-width="1" transform="rotate(-177.5759 -122.15150000000006 546.3206)" cx="-122.15150000000006" cy="540.3206" rx="3" ry="5" fill="black"/><ellipse stroke="black" stroke-width="1" transform="rotate(-180.3131 -35.62450000000001 556.7049)" cx="-35.62450000000001" cy="556.7049" rx="5.5" ry="7" fill="white"/> <ellipse stroke="black" stroke-width="1" transform="rotate(-180.3131 -35.62450000000001 556.7049)" cx="-35.62450000000001" cy="550.7049" rx="3" ry="5" fill="black"/><ellipse stroke="black" stroke-width="1" transform="rotate(-181.2595 -101.95680000000004 531.994)" cx="-101.95680000000004" cy="531.994" rx="5.5" ry="7" fill="white"/> <ellipse stroke="black" stroke-width="1" transform="rotate(-181.2595 -101.95680000000004 531.994)" cx="-101.95680000000004" cy="525.994" rx="3" ry="5" fill="black"/><ellipse stroke="black" stroke-width="1" transform="rotate(-185.0724 -61.27929999999998 558.3247)" cx="-61.27929999999998" cy="558.3247" rx="5.5" ry="7" fill="white"/> <ellipse stroke="black" stroke-width="1" transform="rotate(-185.0724 -61.27929999999998 558.3247)" cx="-61.27929999999998" cy="552.3247" rx="3" ry="5" fill="black"/><ellipse stroke="black" stroke-width="1" transform="rotate(-187.0799 -79.65409999999997 552.4476999999999)" cx="-79.65409999999997" cy="552.4476999999999" rx="5.5" ry="7" fill="white"/> <ellipse stroke="black" stroke-width="1" transform="rotate(-187.0799 -79.65409999999997 552.4476999999999)" cx="-79.65409999999997" cy="546.4476999999999" rx="3" ry="5" fill="black"/><ellipse stroke="black" stroke-width="1" transform="rotate(-183.0768 -105.04539999999997 517.5167)" cx="-105.04539999999997" cy="517.5167" rx="5.5" ry="7" fill="white"/> <ellipse stroke="black" stroke-width="1" transform="rotate(-183.0768 -105.04539999999997 517.5167)" cx="-105.04539999999997" cy="511.5167" rx="3" ry="5" fill="black"/><ellipse stroke="black" stroke-width="1" transform="rotate(-184.7352 -84.79640000000006 567.5373999999999)" cx="-84.79640000000006" cy="567.5373999999999" rx="5.5" ry="7" fill="white"/> <ellipse stroke="black" stroke-width="1" transform="rotate(-184.7352 -84.79640000000006 567.5373999999999)" cx="-84.79640000000006" cy="561.5373999999999" rx="3" ry="5" fill="black"/><ellipse stroke="black" stroke-width="1" transform="rotate(-188.5274 -98.35760000000005 580.8951)" cx="-98.35760000000005" cy="580.8951" rx="5.5" ry="7" fill="white"/> <ellipse stroke="black" stroke-width="1" transform="rotate(-188.5274 -98.35760000000005 580.8951)" cx="-98.35760000000005" cy="574.8951" rx="3" ry="5" fill="black"/><ellipse stroke="black" stroke-width="1" transform="rotate(-180.8674 -98.94460000000004 548.4512)" cx="-98.94460000000004" cy="548.4512" rx="5.5" ry="7" fill="white"/> <ellipse stroke="black" stroke-width="1" transform="rotate(-180.8674 -98.94460000000004 548.4512)" cx="-98.94460000000004" cy="542.4512" rx="3" ry="5" fill="black"/><ellipse stroke="black" stroke-width="1" transform="rotate(-178.6975 -127.8872 531.7395)" cx="-127.8872" cy="531.7395" rx="5.5" ry="7" fill="white"/> <ellipse stroke="black" stroke-width="1" transform="rotate(-178.6975 -127.8872 531.7395)" cx="-127.8872" cy="525.7395" rx="3" ry="5" fill="black"/><ellipse stroke="black" stroke-width="1" transform="rotate(-182.8631 -112.71429999999998 562.4388)" cx="-112.71429999999998" cy="562.4388" rx="5.5" ry="7" fill="white"/> <ellipse stroke="black" stroke-width="1" transform="rotate(-182.8631 -112.71429999999998 562.4388)" cx="-112.71429999999998" cy="556.4388" rx="3" ry="5" fill="black"/><ellipse stroke="black" stroke-width="1" transform="rotate(-183.6314 -77.65380000000005 536.4787)" cx="-77.65380000000005" cy="536.4787" rx="5.5" ry="7" fill="white"/> <ellipse stroke="black" stroke-width="1" transform="rotate(-183.6314 -77.65380000000005 536.4787)" cx="-77.65380000000005" cy="530.4787" rx="3" ry="5" fill="black"/><ellipse stroke="black" stroke-width="1" transform="rotate(-185.7653 -55.82680000000005 541.1045)" cx="-55.82680000000005" cy="541.1045" rx="5.5" ry="7" fill="white"/> <ellipse stroke="black" stroke-width="1" transform="rotate(-185.7653 -55.82680000000005 541.1045)" cx="-55.82680000000005" cy="535.1045" rx="3" ry="5" fill="black"/><ellipse stroke="black" stroke-width="1" transform="rotate(-177.6668 -71.19450000000006 580.7139999999999)" cx="-71.19450000000006" cy="580.7139999999999" rx="5.5" ry="7" fill="white"/> <ellipse stroke="black" stroke-width="1" transform="rotate(-177.6668 -71.19450000000006 580.7139999999999)" cx="-71.19450000000006" cy="574.7139999999999" rx="3" ry="5" fill="black"/><ellipse stroke="black" stroke-width="1" transform="rotate(-190.4136 -54.89930000000004 525.6688)" cx="-54.89930000000004" cy="525.6688" rx="5.5" ry="7" fill="white"/> <ellipse stroke="black" stroke-width="1" transform="rotate(-190.4136 -54.89930000000004 525.6688)" cx="-54.89930000000004" cy="519.6688" rx="3" ry="5" fill="black"/><ellipse stroke="black" stroke-width="1" transform="rotate(-188.052 -33.94440000000003 540.0745)" cx="-33.94440000000003" cy="540.0745" rx="5.5" ry="7" fill="white"/> <ellipse stroke="black" stroke-width="1" transform="rotate(-188.052 -33.94440000000003 540.0745)" cx="-33.94440000000003" cy="534.0745" rx="3" ry="5" fill="black"/><ellipse stroke="black" stroke-width="1" transform="rotate(-188.7229 -78.65430000000003 509.37080000000003)" cx="-78.65430000000003" cy="509.37080000000003" rx="5.5" ry="7" fill="white"/> <ellipse stroke="black" stroke-width="1" transform="rotate(-188.7229 -78.65430000000003 509.37080000000003)" cx="-78.65430000000003" cy="503.37080000000003" rx="3" ry="5" fill="black"/><ellipse stroke="black" stroke-width="1" transform="rotate(-185.5206 -128.17380000000003 517.8634999999999)" cx="-128.17380000000003" cy="517.8634999999999" rx="5.5" ry="7" fill="white"/> <ellipse stroke="black" stroke-width="1" transform="rotate(-185.5206 -128.17380000000003 517.8634999999999)" cx="-128.17380000000003" cy="511.86349999999993" rx="3" ry="5" fill="black"/><ellipse stroke="black" stroke-width="1" transform="rotate(-185.6742 -79.65870000000007 521.8995)" cx="-79.65870000000007" cy="521.8995" rx="5.5" ry="7" fill="white"/> <ellipse stroke="black" stroke-width="1" transform="rotate(-185.6742 -79.65870000000007 521.8995)" cx="-79.65870000000007" cy="515.8995" rx="3" ry="5" fill="black"/><ellipse stroke="black" stroke-width="1" transform="rotate(-177.8203 -49.594600000000014 574.5310999999999)" cx="-49.594600000000014" cy="574.5310999999999" rx="5.5" ry="7" fill="white"/> <ellipse stroke="black" stroke-width="1" transform="rotate(-177.8203 -49.594600000000014 574.5310999999999)" cx="-49.594600000000014" cy="568.5310999999999" rx="3" ry="5" fill="black"/><ellipse stroke="black" stroke-width="1" transform="rotate(-146.0725 -64.44690000000003 363.247)" cx="-64.44690000000003" cy="363.247" rx="5.5" ry="7" fill="white"/> <ellipse stroke="black" stroke-width="1" transform="rotate(-146.0725 -64.44690000000003 363.247)" cx="-64.44690000000003" cy="357.247" rx="3" ry="5" fill="black"/></svg>