<svg xmlns="http://www.w3.org/2000/svg" width="900.0" height="700.0"><rect stroke="transparent" x="150.0" y="150.0" width="600.0" height="400.0" fill="white"/><ellipse stroke="black" stroke-width="1" transform="rotate(-142.3884 -79.0589 388.05848000000003)" cx="-79.0589" cy="388.05848000000003" rx="5.5" ry="7" fill="white"/> <ellipse stroke="black" stroke-width="1" transform="rotate(-142.3884 -79.0589 388.05848000000003)" cx="-79.0589" cy="382.05848000000003" rx="3" ry="5" fill="black"/><ellipse stroke="black" stroke-width="1" transform="rotate(-149.5504 -4.125599999999963 408.92539)" cx="-4.125599999999963" cy="408.92539" rx="5.5" ry="7" fill="white"/> <ellipse stroke="black" stroke-width="1" transform="rotate(-149.5504 -4.125599999999963 408.92539)" cx="-4.125599999999963" cy="402.92539" rx="3" ry="5" fill="black"/><ellipse stroke="black" stroke-width="1" transform="rotate(-143.0706 -59.33660000000003 378.81178)" cx="-59.33660000000003" cy="378.81178" rx="5.5" ry="7" fill="white"/> <ellipse stroke="black" stroke-width="1" transform="rotate(-143.0706 -59.33660000000003 378.81178)" cx="-59.33660000000003" cy="372.81178" rx="3" ry="5" fill="black"/><ellipse stroke="black" stroke-width="1" transform="rotate(-140.3244 -27.989000000000033 416.8379)" cx="-27.989000000000033" cy="416.8379" rx="5.5" ry="7" fill="white"/> <ellipse stroke="black" stroke-width="1" transform="rotate(-140.3244 -27.989000000000033 416.8379)" cx="-27.989000000000033" cy="410.8379" rx="3" ry="5" fill="black"/><ellipse stroke="black" stroke-width="1" transform="rotate(-142.4387 -43.89110000000005 408.47867)" cx="-43.89110000000005" cy="408.47867" rx="5.5" ry="7" fill="white"/> <ellipse stroke="black" stroke-width="1" transform="rotate(-142.4387 -43.89110000000005 408.47867)" cx="-43.89110000000005" cy="402.47867" rx="3" ry="5" fill="black"/><ellipse stroke="black" stroke-width="1" transform="rotate(-140.182 -57.66840000000002 356.964939)" cx="-57.66840000000002" cy="356.964939" rx="5.5" ry="7" fill="white"/> <ellipse stroke="black" stroke-width="1" transform="rotate(-140.182 -57.66840000000002 356.964939)" cx="-57.66840000000002" cy="350.964939" rx="3" ry="5" fill="black"/><ellipse stroke="black" stroke-width="1" transform="rotate(-136.1829 -48.78629999999998 431.52383)" cx="-48.78629999999998" cy="431.52383" rx="5.5" ry="7" fill="white"/> <ellipse stroke="black" stroke-width="1" transform="rotate(-136.1829 -48.78629999999998 431.52383)" cx="-48.78629999999998" cy="425.52383" rx="3" ry="5" fill="black"/><ellipse stroke="black" stroke-width="1" transform="rotate(-144.1152 -59.3553 416.91166)" cx="-59.3553" cy="416.91166" rx="5.5" ry="7" fill="white"/> <ellipse stroke="black" stroke-width="1" transform="rotate(-144.1152 -59.3553 416.91166)" cx="-59.3553" cy="410.91166" rx="3" ry="5" fill="black"/><ellipse stroke="black" stroke-width="1" transform="rotate(-139.9399 -50.661 392.87636)" cx="-50.661" cy="392.87636" rx="5.5" ry="7" fill="white"/> <ellipse stroke="black" stroke-width="1" transform="rotate(-139.9399 -50.661 392.87636)" cx="-50.661" cy="386.87636" rx="3" ry="5" fill="black"/><ellipse stroke="black" stroke-width="1" transform="rotate(-143.3933 -76.93700000000001 369.50129)" cx="-76.93700000000001" cy="369.50129" rx="5.5" ry="7" fill="white"/> <ellipse stroke="black" stroke-width="1" transform="rotate(-143.3933 -76.93700000000001 369.50129)" cx="-76.93700000000001" cy="363.50129" rx="3" ry="5" fill="black"/><ellipse stroke="black" stroke-width="1" transform="rotate(-144.5297 -70.14099999999996 404.21811)" cx="-70.14099999999996" cy="404.21811" rx="5.5" ry="7" fill="white"/> <ellipse stroke="black" stroke-width="1" transform="rotate(-144.5297 -70.14099999999996 404.21811)" cx="-70.14099999999996" cy="398.21811" rx="3" ry="5" fill="black"/><ellipse stroke="black" stroke-width="1" transform="rotate(-145.0395 -33.542100000000005 386.31367)" cx="-33.542100000000005" cy="386.31367" rx="5.5" ry="7" fill="white"/> <ellipse stroke="black" stroke-width="1" transform="rotate(-145.0395 -33.542100000000005 386.31367)" cx="-33.542100000000005" cy="380.31367" rx="3" ry="5" fill="black"/><ellipse stroke="black" stroke-width="1" transform="rotate(-144.2531 -22.372000000000014 401.54403)" cx="-22.372000000000014" cy="401.54403" rx="5.5" ry="7" fill="white"/> <ellipse stroke="black" stroke-width="1" transform="rotate(-144.2531 -22.372000000000014 401.54403)" cx="-22.372000000000014" cy="395.54403" rx="3" ry="5" fill="black"/><ellipse stroke="black" stroke-width="1" transform="rotate(-139.468 -23.48750000000001 436.86948)" cx="-23.48750000000001" cy="436.86948" rx="5.5" ry="7" fill="white"/> <ellipse stroke="black" stroke-width="1" transform="rotate(-139.468 -23.48750000000001 436.86948)" cx="-23.48750000000001" cy="430.86948" rx="3" ry="5" fill="black"/><ellipse stroke="black" stroke-width="1" transform="rotate(-142.3208 -23.78989999999999 373.57872)" cx="-23.78989999999999" cy="373.57872" rx="5.5" ry="7" fill="white"/> <ellipse stroke="black" stroke-width="1" transform="rotate(-142.3208 -23.78989999999999 373.57872)" cx="-23.78989999999999" cy="367.57872" rx="3" ry="5" fill="black"/><ellipse stroke="black" stroke-width="1" transform="rotate(-150.1919 -9.60730000000001 386.98044)" cx="-9.60730000000001" cy="386.98044" rx="5.5" ry="7" fill="white"/> <ellipse stroke="black" stroke-width="1" transform="rotate(-150.1919 -9.60730000000001 386.98044)" cx="-9.60730000000001" cy="380.98044" rx="3" ry="5" fill="black"/><ellipse stroke="black" stroke-width="1" transform="rotate(-146.2066 -44.06970000000001 348.577915)" cx="-44.06970000000001" cy="348.577915" rx="5.5" ry="7" fill="white"/> <ellipse stroke="black" stroke-width="1" transform="rotate(-146.2066 -44.06970000000001 348.577915)" cx="-44.06970000000001" cy="342.577915" rx="3" ry="5" fill="black"/><ellipse stroke="black" stroke-width="1" transform="rotate(-142.654 -79.178 349.5445463)" cx="-79.178" cy="349.5445463" rx="5.5" ry="7" fill="white"/> <ellipse stroke="black" stroke-width="1" transform="rotate(-142.654 -79.178 349.5445463)" cx="-79.178" cy="343.5445463" rx="3" ry="5" fill="black"/><ellipse stroke="black" stroke-width="1" transform="rotate(-143.0195 -42.482699999999966 369.20159)" cx="-42.482699999999966" cy="369.20159" rx="5.5" ry="7" fill="white"/> <ellipse stroke="black" stroke-width="1" transform="rotate(-143.0195 -42.482699999999966 369.20159)" cx="-42.482699999999966" cy="363.20159" rx="3" ry="5" fill="black"/><ellipse stroke="black" stroke-width="1" transform="rotate(-142.8994 -6.419799999999952 428.88223)" cx="-6.419799999999952" cy="428.88223" rx="5.5" ry="7" fill="white"/> <ellipse stroke="black" stroke-width="1" transform="rotate(-142.8994 -6.419799999999952 428.88223)" cx="-6.419799999999952" cy="422.88223" rx="3" ry="5" fill="black"/><ellipse stroke="black" stroke-width="1" transform="rotate(-100.1124 97.73699999999997 241.14800000000002)" cx="97.73699999999997" cy="241.14800000000002" rx="5.5" ry="7" fill="white"/> <ellipse stroke="black" stroke-width="1" transform="rotate(-100.1124 97.73699999999997 241.14800000000002)" cx="97.73699999999997" cy="235.14800000000002" rx="3" ry="5" fill="black"/></svg>