<svg xmlns="http://www.w3.org/2000/svg" width="1200.0" height="800.0"><ellipse stroke="black" stroke-width="1" transform="rotate(-346.4055 511.45599000000004 514.1124)" cx="511.45599000000004" cy="514.1124" rx="5.5" ry="7" fill="transparent"/> <ellipse stroke="black" stroke-width="1" transform="rotate(-346.4055 511.45599000000004 514.1124)" cx="511.45599000000004" cy="508.1124" rx="3" ry="5" fill="black"/><ellipse stroke="black" stroke-width="1" transform="rotate(-180.3374 403.4746 332.62958000000003)" cx="403.4746" cy="332.62958000000003" rx="5.5" ry="7" fill="transparent"/> <ellipse stroke="black" stroke-width="1" transform="rotate(-180.3374 403.4746 332.62958000000003)" cx="403.4746" cy="326.62958000000003" rx="3" ry="5" fill="black"/><ellipse stroke="black" stroke-width="1" transform="rotate(-357.3689 419.75829999999996 510.2024)" cx="419.75829999999996" cy="510.2024" rx="5.5" ry="7" fill="transparent"/> <ellipse stroke="black" stroke-width="1" transform="rotate(-357.3689 419.75829999999996 510.2024)" cx="419.75829999999996" cy="504.2024" rx="3" ry="5" fill="black"/><ellipse stroke="black" stroke-width="1" transform="rotate(-358.1768 474.3312 488.06368)" cx="474.3312" cy="488.06368" rx="5.5" ry="7" fill="transparent"/> <ellipse stroke="black" stroke-width="1" transform="rotate(-358.1768 474.3312 488.06368)" cx="474.3312" cy="482.06368" rx="3" ry="5" fill="black"/><ellipse stroke="black" stroke-width="1" transform="rotate(-114.5353 698.10575 401.761775)" cx="698.10575" cy="401.761775" rx="5.5" ry="7" fill="transparent"/> <ellipse stroke="black" stroke-width="1" transform="rotate(-114.5353 698.10575 401.761775)" cx="698.10575" cy="395.761775" rx="3" ry="5" fill="black"/><ellipse stroke="black" stroke-width="1" transform="rotate(-165.1354 504.82124999999996 291.93330000000003)" cx="504.82124999999996" cy="291.93330000000003" rx="5.5" ry="7" fill="transparent"/> <ellipse stroke="black" stroke-width="1" transform="rotate(-165.1354 504.82124999999996 291.93330000000003)" cx="504.82124999999996" cy="285.93330000000003" rx="3" ry="5" fill="black"/><ellipse stroke="black" stroke-width="1" transform="rotate(-167.9641 634.87431 298.94280000000003)" cx="634.87431" cy="298.94280000000003" rx="5.5" ry="7" fill="transparent"/> <ellipse stroke="black" stroke-width="1" transform="rotate(-167.9641 634.87431 298.94280000000003)" cx="634.87431" cy="292.94280000000003" rx="3" ry="5" fill="black"/><ellipse stroke="black" stroke-width="1" transform="rotate(-219.7455 445.69219999999996 349.62138)" cx="445.69219999999996" cy="349.62138" rx="5.5" ry="7" fill="transparent"/> <ellipse stroke="black" stroke-width="1" transform="rotate(-219.7455 445.69219999999996 349.62138)" cx="445.69219999999996" cy="343.62138" rx="3" ry="5" fill="black"/><ellipse stroke="black" stroke-width="1" transform="rotate(-194.3217 429.5872 391.570896)" cx="429.5872" cy="391.570896" rx="5.5" ry="7" fill="transparent"/> <ellipse stroke="black" stroke-width="1" transform="rotate(-194.3217 429.5872 391.570896)" cx="429.5872" cy="385.570896" rx="3" ry="5" fill="black"/><ellipse stroke="black" stroke-width="1" transform="rotate(-171.9922 688.0584 282.932)" cx="688.0584" cy="282.932" rx="5.5" ry="7" fill="transparent"/> <ellipse stroke="black" stroke-width="1" transform="rotate(-171.9922 688.0584 282.932)" cx="688.0584" cy="276.932" rx="3" ry="5" fill="black"/><ellipse stroke="black" stroke-width="1" transform="rotate(-185.4606 588.20922 291.7993)" cx="588.20922" cy="291.7993" rx="5.5" ry="7" fill="transparent"/> <ellipse stroke="black" stroke-width="1" transform="rotate(-185.4606 588.20922 291.7993)" cx="588.20922" cy="285.7993" rx="3" ry="5" fill="black"/><ellipse stroke="black" stroke-width="1" transform="rotate(-18.29127 640.2323 467.46226)" cx="640.2323" cy="467.46226" rx="5.5" ry="7" fill="transparent"/> <ellipse stroke="black" stroke-width="1" transform="rotate(-18.29127 640.2323 467.46226)" cx="640.2323" cy="461.46226" rx="3" ry="5" fill="black"/><ellipse stroke="black" stroke-width="1" transform="rotate(-168.0928 669.77436 342.29086)" cx="669.77436" cy="342.29086" rx="5.5" ry="7" fill="transparent"/> <ellipse stroke="black" stroke-width="1" transform="rotate(-168.0928 669.77436 342.29086)" cx="669.77436" cy="336.29086" rx="3" ry="5" fill="black"/><ellipse stroke="black" stroke-width="1" transform="rotate(-151.294 763.1429 284.8031)" cx="763.1429" cy="284.8031" rx="5.5" ry="7" fill="transparent"/> <ellipse stroke="black" stroke-width="1" transform="rotate(-151.294 763.1429 284.8031)" cx="763.1429" cy="278.8031" rx="3" ry="5" fill="black"/><ellipse stroke="black" stroke-width="1" transform="rotate(-178.6381 542.14138 341.88085)" cx="542.14138" cy="341.88085" rx="5.5" ry="7" fill="transparent"/> <ellipse stroke="black" stroke-width="1" transform="rotate(-178.6381 542.14138 341.88085)" cx="542.14138" cy="335.88085" rx="3" ry="5" fill="black"/><ellipse stroke="black" stroke-width="1" transform="rotate(-52.23058 639.86289 416.1963)" cx="639.86289" cy="416.1963" rx="5.5" ry="7" fill="transparent"/> <ellipse stroke="black" stroke-width="1" transform="rotate(-52.23058 639.86289 416.1963)" cx="639.86289" cy="410.1963" rx="3" ry="5" fill="black"/><ellipse stroke="black" stroke-width="1" transform="rotate(-176.876 548.21156 290.97450000000003)" cx="548.21156" cy="290.97450000000003" rx="5.5" ry="7" fill="transparent"/> <ellipse stroke="black" stroke-width="1" transform="rotate(-176.876 548.21156 290.97450000000003)" cx="548.21156" cy="284.97450000000003" rx="3" ry="5" fill="black"/><ellipse stroke="black" stroke-width="1" transform="rotate(-1.893832 554.51762 453.63472)" cx="554.51762" cy="453.63472" rx="5.5" ry="7" fill="transparent"/> <ellipse stroke="black" stroke-width="1" transform="rotate(-1.893832 554.51762 453.63472)" cx="554.51762" cy="447.63472" rx="3" ry="5" fill="black"/><ellipse stroke="black" stroke-width="1" transform="rotate(-178.8123 551.26938 254.3494)" cx="551.26938" cy="254.3494" rx="5.5" ry="7" fill="transparent"/> <ellipse stroke="black" stroke-width="1" transform="rotate(-178.8123 551.26938 254.3494)" cx="551.26938" cy="248.3494" rx="3" ry="5" fill="black"/><polygon stroke="black" stroke-width="2" transform="rotate(-11.19555 710.0115000000001 510.4618)" points="702.0115000000001 520.4618 718.0115000000001 520.4618 710.0115000000001 500.4618" fill="grey"/></svg>