<svg xmlns="http://www.w3.org/2000/svg" width="2000.0" height="2000.0"><rect stroke="transparent" x="150.0" y="150.0" width="2000.0" height="2000.0" fill="white"/><ellipse stroke="black" stroke-width="1" transform="rotate(-64.43348 881.1912 718.7253000000001)" cx="881.1912" cy="718.7253000000001" rx="5.5" ry="7" fill="white"/> <ellipse stroke="black" stroke-width="1" transform="rotate(-64.43348 881.1912 718.7253000000001)" cx="881.1912" cy="712.7253000000001" rx="3" ry="5" fill="black"/><ellipse stroke="black" stroke-width="1" transform="rotate(-67.59355 904.08294 713.0319)" cx="904.08294" cy="713.0319" rx="5.5" ry="7" fill="white"/> <ellipse stroke="black" stroke-width="1" transform="rotate(-67.59355 904.08294 713.0319)" cx="904.08294" cy="707.0319" rx="3" ry="5" fill="black"/><ellipse stroke="black" stroke-width="1" transform="rotate(-68.64977 928.96843 715.4083)" cx="928.96843" cy="715.4083" rx="5.5" ry="7" fill="white"/> <ellipse stroke="black" stroke-width="1" transform="rotate(-68.64977 928.96843 715.4083)" cx="928.96843" cy="709.4083" rx="3" ry="5" fill="black"/><ellipse stroke="black" stroke-width="1" transform="rotate(-343.2563 1074.23821 726.6232)" cx="1074.23821" cy="726.6232" rx="5.5" ry="7" fill="white"/> <ellipse stroke="black" stroke-width="1" transform="rotate(-343.2563 1074.23821 726.6232)" cx="1074.23821" cy="720.6232" rx="3" ry="5" fill="black"/><ellipse stroke="black" stroke-width="1" transform="rotate(-335.0053 1139.4404 744.6381)" cx="1139.4404" cy="744.6381" rx="5.5" ry="7" fill="white"/> <ellipse stroke="black" stroke-width="1" transform="rotate(-335.0053 1139.4404 744.6381)" cx="1139.4404" cy="738.6381" rx="3" ry="5" fill="black"/><ellipse stroke="black" stroke-width="1" transform="rotate(-305.7617 1199.5811 774.159)" cx="1199.5811" cy="774.159" rx="5.5" ry="7" fill="white"/> <ellipse stroke="black" stroke-width="1" transform="rotate(-305.7617 1199.5811 774.159)" cx="1199.5811" cy="768.159" rx="3" ry="5" fill="black"/><ellipse stroke="black" stroke-width="1" transform="rotate(-295.3687 1247.7166 800.9819)" cx="1247.7166" cy="800.9819" rx="5.5" ry="7" fill="white"/> <ellipse stroke="black" stroke-width="1" transform="rotate(-295.3687 1247.7166 800.9819)" cx="1247.7166" cy="794.9819" rx="3" ry="5" fill="black"/><ellipse stroke="black" stroke-width="1" transform="rotate(-290.4012 1284.1727 824.4128000000001)" cx="1284.1727" cy="824.4128000000001" rx="5.5" ry="7" fill="white"/> <ellipse stroke="black" stroke-width="1" transform="rotate(-290.4012 1284.1727 824.4128000000001)" cx="1284.1727" cy="818.4128000000001" rx="3" ry="5" fill="black"/><ellipse stroke="black" stroke-width="1" transform="rotate(-281.6534 1322.2227 847.365)" cx="1322.2227" cy="847.365" rx="5.5" ry="7" fill="white"/> <ellipse stroke="black" stroke-width="1" transform="rotate(-281.6534 1322.2227 847.365)" cx="1322.2227" cy="841.365" rx="3" ry="5" fill="black"/><ellipse stroke="black" stroke-width="1" transform="rotate(-285.6245 1342.2513 857.592)" cx="1342.2513" cy="857.592" rx="5.5" ry="7" fill="white"/> <ellipse stroke="black" stroke-width="1" transform="rotate(-285.6245 1342.2513 857.592)" cx="1342.2513" cy="851.592" rx="3" ry="5" fill="black"/><ellipse stroke="black" stroke-width="1" transform="rotate(-287.7137 1357.8049 863.8133)" cx="1357.8049" cy="863.8133" rx="5.5" ry="7" fill="white"/> <ellipse stroke="black" stroke-width="1" transform="rotate(-287.7137 1357.8049 863.8133)" cx="1357.8049" cy="857.8133" rx="3" ry="5" fill="black"/><ellipse stroke="black" stroke-width="1" transform="rotate(-289.3731 1374.912 872.9118)" cx="1374.912" cy="872.9118" rx="5.5" ry="7" fill="white"/> <ellipse stroke="black" stroke-width="1" transform="rotate(-289.3731 1374.912 872.9118)" cx="1374.912" cy="866.9118" rx="3" ry="5" fill="black"/><ellipse stroke="black" stroke-width="1" transform="rotate(-70.19127 893.3262 714.515)" cx="893.3262" cy="714.515" rx="5.5" ry="7" fill="white"/> <ellipse stroke="black" stroke-width="1" transform="rotate(-70.19127 893.3262 714.515)" cx="893.3262" cy="708.515" rx="3" ry="5" fill="black"/><ellipse stroke="black" stroke-width="1" transform="rotate(-62.45978 914.02635 713.3967)" cx="914.02635" cy="713.3967" rx="5.5" ry="7" fill="white"/> <ellipse stroke="black" stroke-width="1" transform="rotate(-62.45978 914.02635 713.3967)" cx="914.02635" cy="707.3967" rx="3" ry="5" fill="black"/><ellipse stroke="black" stroke-width="1" transform="rotate(-39.65386 998.80089 717.5829)" cx="998.80089" cy="717.5829" rx="5.5" ry="7" fill="white"/> <ellipse stroke="black" stroke-width="1" transform="rotate(-39.65386 998.80089 717.5829)" cx="998.80089" cy="711.5829" rx="3" ry="5" fill="black"/><ellipse stroke="black" stroke-width="1" transform="rotate(-344.8017 1103.5563 734.5908)" cx="1103.5563" cy="734.5908" rx="5.5" ry="7" fill="white"/> <ellipse stroke="black" stroke-width="1" transform="rotate(-344.8017 1103.5563 734.5908)" cx="1103.5563" cy="728.5908" rx="3" ry="5" fill="black"/><ellipse stroke="black" stroke-width="1" transform="rotate(-325.486 1172.3937 760.9644000000001)" cx="1172.3937" cy="760.9644000000001" rx="5.5" ry="7" fill="white"/> <ellipse stroke="black" stroke-width="1" transform="rotate(-325.486 1172.3937 760.9644000000001)" cx="1172.3937" cy="754.9644000000001" rx="3" ry="5" fill="black"/><ellipse stroke="black" stroke-width="1" transform="rotate(-299.9933 1233.3955 793.4591)" cx="1233.3955" cy="793.4591" rx="5.5" ry="7" fill="white"/> <ellipse stroke="black" stroke-width="1" transform="rotate(-299.9933 1233.3955 793.4591)" cx="1233.3955" cy="787.4591" rx="3" ry="5" fill="black"/><ellipse stroke="black" stroke-width="1" transform="rotate(-292.1061 1271.5451 819.1007999999999)" cx="1271.5451" cy="819.1007999999999" rx="5.5" ry="7" fill="white"/> <ellipse stroke="black" stroke-width="1" transform="rotate(-292.1061 1271.5451 819.1007999999999)" cx="1271.5451" cy="813.1007999999999" rx="3" ry="5" fill="black"/><ellipse stroke="black" stroke-width="1" transform="rotate(-284.1609 1303.2257 841.5064)" cx="1303.2257" cy="841.5064" rx="5.5" ry="7" fill="white"/> <ellipse stroke="black" stroke-width="1" transform="rotate(-284.1609 1303.2257 841.5064)" cx="1303.2257" cy="835.5064" rx="3" ry="5" fill="black"/><ellipse stroke="black" stroke-width="1" transform="rotate(-282.8425 1330.6805 858.8889)" cx="1330.6805" cy="858.8889" rx="5.5" ry="7" fill="white"/> <ellipse stroke="black" stroke-width="1" transform="rotate(-282.8425 1330.6805 858.8889)" cx="1330.6805" cy="852.8889" rx="3" ry="5" fill="black"/><ellipse stroke="black" stroke-width="1" transform="rotate(-283.6607 1347.4322 868.6829)" cx="1347.4322" cy="868.6829" rx="5.5" ry="7" fill="white"/> <ellipse stroke="black" stroke-width="1" transform="rotate(-283.6607 1347.4322 868.6829)" cx="1347.4322" cy="862.6829" rx="3" ry="5" fill="black"/><ellipse stroke="black" stroke-width="1" transform="rotate(-285.1442 1361.701 873.7511)" cx="1361.701" cy="873.7511" rx="5.5" ry="7" fill="white"/> <ellipse stroke="black" stroke-width="1" transform="rotate(-285.1442 1361.701 873.7511)" cx="1361.701" cy="867.7511" rx="3" ry="5" fill="black"/><ellipse stroke="black" stroke-width="1" transform="rotate(-65.90881 885.7904 725.7222)" cx="885.7904" cy="725.7222" rx="5.5" ry="7" fill="white"/> <ellipse stroke="black" stroke-width="1" transform="rotate(-65.90881 885.7904 725.7222)" cx="885.7904" cy="719.7222" rx="3" ry="5" fill="black"/><ellipse stroke="black" stroke-width="1" transform="rotate(-69.16283 906.32312 724.7568)" cx="906.32312" cy="724.7568" rx="5.5" ry="7" fill="white"/> <ellipse stroke="black" stroke-width="1" transform="rotate(-69.16283 906.32312 724.7568)" cx="906.32312" cy="718.7568" rx="3" ry="5" fill="black"/><ellipse stroke="black" stroke-width="1" transform="rotate(-68.48018 940.3872 718.2124)" cx="940.3872" cy="718.2124" rx="5.5" ry="7" fill="white"/> <ellipse stroke="black" stroke-width="1" transform="rotate(-68.48018 940.3872 718.2124)" cx="940.3872" cy="712.2124" rx="3" ry="5" fill="black"/><ellipse stroke="black" stroke-width="1" transform="rotate(-347.2756 1089.43529 732.9119000000001)" cx="1089.43529" cy="732.9119000000001" rx="5.5" ry="7" fill="white"/> <ellipse stroke="black" stroke-width="1" transform="rotate(-347.2756 1089.43529 732.9119000000001)" cx="1089.43529" cy="726.9119000000001" rx="3" ry="5" fill="black"/><ellipse stroke="black" stroke-width="1" transform="rotate(-324.5725 1150.4413 754.2475)" cx="1150.4413" cy="754.2475" rx="5.5" ry="7" fill="white"/> <ellipse stroke="black" stroke-width="1" transform="rotate(-324.5725 1150.4413 754.2475)" cx="1150.4413" cy="748.2475" rx="3" ry="5" fill="black"/><ellipse stroke="black" stroke-width="1" transform="rotate(-306.4129 1214.5757 785.918)" cx="1214.5757" cy="785.918" rx="5.5" ry="7" fill="white"/> <ellipse stroke="black" stroke-width="1" transform="rotate(-306.4129 1214.5757 785.918)" cx="1214.5757" cy="779.918" rx="3" ry="5" fill="black"/><ellipse stroke="black" stroke-width="1" transform="rotate(-294.3318 1254.8122 814.1694)" cx="1254.8122" cy="814.1694" rx="5.5" ry="7" fill="white"/> <ellipse stroke="black" stroke-width="1" transform="rotate(-294.3318 1254.8122 814.1694)" cx="1254.8122" cy="808.1694" rx="3" ry="5" fill="black"/><ellipse stroke="black" stroke-width="1" transform="rotate(-287.7372 1287.6722 838.8124)" cx="1287.6722" cy="838.8124" rx="5.5" ry="7" fill="white"/> <ellipse stroke="black" stroke-width="1" transform="rotate(-287.7372 1287.6722 838.8124)" cx="1287.6722" cy="832.8124" rx="3" ry="5" fill="black"/><ellipse stroke="black" stroke-width="1" transform="rotate(-282.5869 1316.0981 858.7346)" cx="1316.0981" cy="858.7346" rx="5.5" ry="7" fill="white"/> <ellipse stroke="black" stroke-width="1" transform="rotate(-282.5869 1316.0981 858.7346)" cx="1316.0981" cy="852.7346" rx="3" ry="5" fill="black"/><ellipse stroke="black" stroke-width="1" transform="rotate(-281.9813 1338.0254 873.148)" cx="1338.0254" cy="873.148" rx="5.5" ry="7" fill="white"/> <ellipse stroke="black" stroke-width="1" transform="rotate(-281.9813 1338.0254 873.148)" cx="1338.0254" cy="867.148" rx="3" ry="5" fill="black"/><ellipse stroke="black" stroke-width="1" transform="rotate(-281.3825 1352.5689 880.364)" cx="1352.5689" cy="880.364" rx="5.5" ry="7" fill="white"/> <ellipse stroke="black" stroke-width="1" transform="rotate(-281.3825 1352.5689 880.364)" cx="1352.5689" cy="874.364" rx="3" ry="5" fill="black"/><ellipse stroke="black" stroke-width="1" transform="rotate(-283.3591 1371.3671 883.9066)" cx="1371.3671" cy="883.9066" rx="5.5" ry="7" fill="white"/> <ellipse stroke="black" stroke-width="1" transform="rotate(-283.3591 1371.3671 883.9066)" cx="1371.3671" cy="877.9066" rx="3" ry="5" fill="black"/><ellipse stroke="black" stroke-width="1" transform="rotate(-62.21569 896.3152 725.6665)" cx="896.3152" cy="725.6665" rx="5.5" ry="7" fill="white"/> <ellipse stroke="black" stroke-width="1" transform="rotate(-62.21569 896.3152 725.6665)" cx="896.3152" cy="719.6665" rx="3" ry="5" fill="black"/><ellipse stroke="black" stroke-width="1" transform="rotate(-70.47863 918.31307 722.3074)" cx="918.31307" cy="722.3074" rx="5.5" ry="7" fill="white"/> <ellipse stroke="black" stroke-width="1" transform="rotate(-70.47863 918.31307 722.3074)" cx="918.31307" cy="716.3074" rx="3" ry="5" fill="black"/><ellipse stroke="black" stroke-width="1" transform="rotate(-348.9787 1046.74722 723.2593999999999)" cx="1046.74722" cy="723.2593999999999" rx="5.5" ry="7" fill="white"/> <ellipse stroke="black" stroke-width="1" transform="rotate(-348.9787 1046.74722 723.2593999999999)" cx="1046.74722" cy="717.2593999999999" rx="3" ry="5" fill="black"/><ellipse stroke="black" stroke-width="1" transform="rotate(-342.7916 1121.9965 743.3478)" cx="1121.9965" cy="743.3478" rx="5.5" ry="7" fill="white"/> <ellipse stroke="black" stroke-width="1" transform="rotate(-342.7916 1121.9965 743.3478)" cx="1121.9965" cy="737.3478" rx="3" ry="5" fill="black"/><ellipse stroke="black" stroke-width="1" transform="rotate(-320.3427 1188.962 776.4221)" cx="1188.962" cy="776.4221" rx="5.5" ry="7" fill="white"/> <ellipse stroke="black" stroke-width="1" transform="rotate(-320.3427 1188.962 776.4221)" cx="1188.962" cy="770.4221" rx="3" ry="5" fill="black"/><ellipse stroke="black" stroke-width="1" transform="rotate(-299.7112 1237.7324 806.9667)" cx="1237.7324" cy="806.9667" rx="5.5" ry="7" fill="white"/> <ellipse stroke="black" stroke-width="1" transform="rotate(-299.7112 1237.7324 806.9667)" cx="1237.7324" cy="800.9667" rx="3" ry="5" fill="black"/><ellipse stroke="black" stroke-width="1" transform="rotate(-293.2307 1273.1593 832.1725)" cx="1273.1593" cy="832.1725" rx="5.5" ry="7" fill="white"/> <ellipse stroke="black" stroke-width="1" transform="rotate(-293.2307 1273.1593 832.1725)" cx="1273.1593" cy="826.1725" rx="3" ry="5" fill="black"/><ellipse stroke="black" stroke-width="1" transform="rotate(-285.294 1307.4323 857.6759999999999)" cx="1307.4323" cy="857.6759999999999" rx="5.5" ry="7" fill="white"/> <ellipse stroke="black" stroke-width="1" transform="rotate(-285.294 1307.4323 857.6759999999999)" cx="1307.4323" cy="851.6759999999999" rx="3" ry="5" fill="black"/><ellipse stroke="black" stroke-width="1" transform="rotate(-282.6538 1329.6619 874.6562)" cx="1329.6619" cy="874.6562" rx="5.5" ry="7" fill="white"/> <ellipse stroke="black" stroke-width="1" transform="rotate(-282.6538 1329.6619 874.6562)" cx="1329.6619" cy="868.6562" rx="3" ry="5" fill="black"/><ellipse stroke="black" stroke-width="1" transform="rotate(-279.8629 1345.6966 886.2512)" cx="1345.6966" cy="886.2512" rx="5.5" ry="7" fill="white"/> <ellipse stroke="black" stroke-width="1" transform="rotate(-279.8629 1345.6966 886.2512)" cx="1345.6966" cy="880.2512" rx="3" ry="5" fill="black"/><ellipse stroke="black" stroke-width="1" transform="rotate(-282.8398 1363.155 891.7635)" cx="1363.155" cy="891.7635" rx="5.5" ry="7" fill="white"/> <ellipse stroke="black" stroke-width="1" transform="rotate(-282.8398 1363.155 891.7635)" cx="1363.155" cy="885.7635" rx="3" ry="5" fill="black"/><polygon stroke="black" stroke-width="2" transform="rotate(-299.3578 1075.04897 957.78557)" points="1067.04897 967.78557 1083.04897 967.78557 1075.04897 947.78557" fill="grey"/></svg>