<svg xmlns="http://www.w3.org/2000/svg" width="1200.0" height="800.0"><ellipse stroke="black" stroke-width="1" transform="rotate(-346.8839 504.23928 545.028)" cx="504.23928" cy="545.028" rx="5.5" ry="7" fill="transparent"/> <ellipse stroke="black" stroke-width="1" transform="rotate(-346.8839 504.23928 545.028)" cx="504.23928" cy="539.028" rx="3" ry="5" fill="black"/><ellipse stroke="black" stroke-width="1" transform="rotate(-181.5076 403.31309999999996 315.04843)" cx="403.31309999999996" cy="315.04843" rx="5.5" ry="7" fill="transparent"/> <ellipse stroke="black" stroke-width="1" transform="rotate(-181.5076 403.31309999999996 315.04843)" cx="403.31309999999996" cy="309.04843" rx="3" ry="5" fill="black"/><ellipse stroke="black" stroke-width="1" transform="rotate(-358.3817 418.5805 542.5648)" cx="418.5805" cy="542.5648" rx="5.5" ry="7" fill="transparent"/> <ellipse stroke="black" stroke-width="1" transform="rotate(-358.3817 418.5805 542.5648)" cx="418.5805" cy="536.5648" rx="3" ry="5" fill="black"/><ellipse stroke="black" stroke-width="1" transform="rotate(-1.384054 474.1859 520.8292)" cx="474.1859" cy="520.8292" rx="5.5" ry="7" fill="transparent"/> <ellipse stroke="black" stroke-width="1" transform="rotate(-1.384054 474.1859 520.8292)" cx="474.1859" cy="514.8292" rx="3" ry="5" fill="black"/><ellipse stroke="black" stroke-width="1" transform="rotate(-113.6246 704.095 399.2017482)" cx="704.095" cy="399.2017482" rx="5.5" ry="7" fill="transparent"/> <ellipse stroke="black" stroke-width="1" transform="rotate(-113.6246 704.095 399.2017482)" cx="704.095" cy="393.2017482" rx="3" ry="5" fill="black"/><ellipse stroke="black" stroke-width="1" transform="rotate(-161.829 516.20377 252.8669)" cx="516.20377" cy="252.8669" rx="5.5" ry="7" fill="transparent"/> <ellipse stroke="black" stroke-width="1" transform="rotate(-161.829 516.20377 252.8669)" cx="516.20377" cy="246.8669" rx="3" ry="5" fill="black"/><ellipse stroke="black" stroke-width="1" transform="rotate(-167.2364 641.3384599999999 265.603)" cx="641.3384599999999" cy="265.603" rx="5.5" ry="7" fill="transparent"/> <ellipse stroke="black" stroke-width="1" transform="rotate(-167.2364 641.3384599999999 265.603)" cx="641.3384599999999" cy="259.603" rx="3" ry="5" fill="black"/><ellipse stroke="black" stroke-width="1" transform="rotate(-214.2354 439.3038 341.02026)" cx="439.3038" cy="341.02026" rx="5.5" ry="7" fill="transparent"/> <ellipse stroke="black" stroke-width="1" transform="rotate(-214.2354 439.3038 341.02026)" cx="439.3038" cy="335.02026" rx="3" ry="5" fill="black"/><ellipse stroke="black" stroke-width="1" transform="rotate(-191.7265 426.756 381.38652)" cx="426.756" cy="381.38652" rx="5.5" ry="7" fill="transparent"/> <ellipse stroke="black" stroke-width="1" transform="rotate(-191.7265 426.756 381.38652)" cx="426.756" cy="375.38652" rx="3" ry="5" fill="black"/><ellipse stroke="black" stroke-width="1" transform="rotate(-174.0973 692.67547 245.29059999999998)" cx="692.67547" cy="245.29059999999998" rx="5.5" ry="7" fill="transparent"/> <ellipse stroke="black" stroke-width="1" transform="rotate(-174.0973 692.67547 245.29059999999998)" cx="692.67547" cy="239.29059999999998" rx="3" ry="5" fill="black"/><ellipse stroke="black" stroke-width="1" transform="rotate(-193.9972 581.53512 252.8048)" cx="581.53512" cy="252.8048" rx="5.5" ry="7" fill="transparent"/> <ellipse stroke="black" stroke-width="1" transform="rotate(-193.9972 581.53512 252.8048)" cx="581.53512" cy="246.8048" rx="3" ry="5" fill="black"/><ellipse stroke="black" stroke-width="1" transform="rotate(-13.49549 643.80779 480.0483)" cx="643.80779" cy="480.0483" rx="5.5" ry="7" fill="transparent"/> <ellipse stroke="black" stroke-width="1" transform="rotate(-13.49549 643.80779 480.0483)" cx="643.80779" cy="474.0483" rx="3" ry="5" fill="black"/><ellipse stroke="black" stroke-width="1" transform="rotate(-161.7591 675.28015 320.19566)" cx="675.28015" cy="320.19566" rx="5.5" ry="7" fill="transparent"/> <ellipse stroke="black" stroke-width="1" transform="rotate(-161.7591 675.28015 320.19566)" cx="675.28015" cy="314.19566" rx="3" ry="5" fill="black"/><ellipse stroke="black" stroke-width="1" transform="rotate(-153.814 782.4914 247.7632)" cx="782.4914" cy="247.7632" rx="5.5" ry="7" fill="transparent"/> <ellipse stroke="black" stroke-width="1" transform="rotate(-153.814 782.4914 247.7632)" cx="782.4914" cy="241.7632" rx="3" ry="5" fill="black"/><ellipse stroke="black" stroke-width="1" transform="rotate(-178.7723 542.56577 323.08316)" cx="542.56577" cy="323.08316" rx="5.5" ry="7" fill="transparent"/> <ellipse stroke="black" stroke-width="1" transform="rotate(-178.7723 542.56577 323.08316)" cx="542.56577" cy="317.08316" rx="3" ry="5" fill="black"/><ellipse stroke="black" stroke-width="1" transform="rotate(-29.63264 646.06207 422.79543)" cx="646.06207" cy="422.79543" rx="5.5" ry="7" fill="transparent"/> <ellipse stroke="black" stroke-width="1" transform="rotate(-29.63264 646.06207 422.79543)" cx="646.06207" cy="416.79543" rx="3" ry="5" fill="black"/><ellipse stroke="black" stroke-width="1" transform="rotate(-177.2662 549.7779 256.63800000000003)" cx="549.7779" cy="256.63800000000003" rx="5.5" ry="7" fill="transparent"/> <ellipse stroke="black" stroke-width="1" transform="rotate(-177.2662 549.7779 256.63800000000003)" cx="549.7779" cy="250.63800000000003" rx="3" ry="5" fill="black"/><ellipse stroke="black" stroke-width="1" transform="rotate(-1.244571 554.90382 467.96052)" cx="554.90382" cy="467.96052" rx="5.5" ry="7" fill="transparent"/> <ellipse stroke="black" stroke-width="1" transform="rotate(-1.244571 554.90382 467.96052)" cx="554.90382" cy="461.96052" rx="3" ry="5" fill="black"/><ellipse stroke="black" stroke-width="1" transform="rotate(-178.8755 551.99042 221.134)" cx="551.99042" cy="221.134" rx="5.5" ry="7" fill="transparent"/> <ellipse stroke="black" stroke-width="1" transform="rotate(-178.8755 551.99042 221.134)" cx="551.99042" cy="215.134" rx="3" ry="5" fill="black"/><polygon stroke="black" stroke-width="2" transform="rotate(-7.010791 715.043 542.4588)" points="707.043 552.4588 723.043 552.4588 715.043 532.4588" fill="grey"/></svg>