<svg xmlns="http://www.w3.org/2000/svg" width="1200.0" height="800.0"><ellipse stroke="black" stroke-width="1" transform="rotate(-345.8102 513.79301 504.6554)" cx="513.79301" cy="504.6554" rx="5.5" ry="7" fill="transparent"/> <ellipse stroke="black" stroke-width="1" transform="rotate(-345.8102 513.79301 504.6554)" cx="513.79301" cy="498.6554" rx="3" ry="5" fill="black"/><ellipse stroke="black" stroke-width="1" transform="rotate(-181.8862 403.5867 338.44946)" cx="403.5867" cy="338.44946" rx="5.5" ry="7" fill="transparent"/> <ellipse stroke="black" stroke-width="1" transform="rotate(-181.8862 403.5867 338.44946)" cx="403.5867" cy="332.44946" rx="3" ry="5" fill="black"/><ellipse stroke="black" stroke-width="1" transform="rotate(-356.9473 420.2355 500.5809)" cx="420.2355" cy="500.5809" rx="5.5" ry="7" fill="transparent"/> <ellipse stroke="black" stroke-width="1" transform="rotate(-356.9473 420.2355 500.5809)" cx="420.2355" cy="494.5809" rx="3" ry="5" fill="black"/><ellipse stroke="black" stroke-width="1" transform="rotate(-357.1996 474.7192 478.45477)" cx="474.7192" cy="478.45477" rx="5.5" ry="7" fill="transparent"/> <ellipse stroke="black" stroke-width="1" transform="rotate(-357.1996 474.7192 478.45477)" cx="474.7192" cy="472.45477" rx="3" ry="5" fill="black"/><ellipse stroke="black" stroke-width="1" transform="rotate(-112.891 696.1982 402.550108)" cx="696.1982" cy="402.550108" rx="5.5" ry="7" fill="transparent"/> <ellipse stroke="black" stroke-width="1" transform="rotate(-112.891 696.1982 402.550108)" cx="696.1982" cy="396.550108" rx="3" ry="5" fill="black"/><ellipse stroke="black" stroke-width="1" transform="rotate(-163.0342 502.5483 302.76131)" cx="502.5483" cy="302.76131" rx="5.5" ry="7" fill="transparent"/> <ellipse stroke="black" stroke-width="1" transform="rotate(-163.0342 502.5483 302.76131)" cx="502.5483" cy="296.76131" rx="3" ry="5" fill="black"/><ellipse stroke="black" stroke-width="1" transform="rotate(-168.1864 632.82763 308.60006)" cx="632.82763" cy="308.60006" rx="5.5" ry="7" fill="transparent"/> <ellipse stroke="black" stroke-width="1" transform="rotate(-168.1864 632.82763 308.60006)" cx="632.82763" cy="302.60006" rx="3" ry="5" fill="black"/><ellipse stroke="black" stroke-width="1" transform="rotate(-221.6615 449.0712 352.8893)" cx="449.0712" cy="352.8893" rx="5.5" ry="7" fill="transparent"/> <ellipse stroke="black" stroke-width="1" transform="rotate(-221.6615 449.0712 352.8893)" cx="449.0712" cy="346.8893" rx="3" ry="5" fill="black"/><ellipse stroke="black" stroke-width="1" transform="rotate(-194.7447 430.4343 394.842119)" cx="430.4343" cy="394.842119" rx="5.5" ry="7" fill="transparent"/> <ellipse stroke="black" stroke-width="1" transform="rotate(-194.7447 430.4343 394.842119)" cx="430.4343" cy="388.842119" rx="3" ry="5" fill="black"/><ellipse stroke="black" stroke-width="1" transform="rotate(-172.7221 686.59917 293.6859)" cx="686.59917" cy="293.6859" rx="5.5" ry="7" fill="transparent"/> <ellipse stroke="black" stroke-width="1" transform="rotate(-172.7221 686.59917 293.6859)" cx="686.59917" cy="287.6859" rx="3" ry="5" fill="black"/><ellipse stroke="black" stroke-width="1" transform="rotate(-182.6322 589.04876 303.66268)" cx="589.04876" cy="303.66268" rx="5.5" ry="7" fill="transparent"/> <ellipse stroke="black" stroke-width="1" transform="rotate(-182.6322 589.04876 303.66268)" cx="589.04876" cy="297.66268" rx="3" ry="5" fill="black"/><ellipse stroke="black" stroke-width="1" transform="rotate(-19.85776 638.96449 463.79745)" cx="638.96449" cy="463.79745" rx="5.5" ry="7" fill="transparent"/> <ellipse stroke="black" stroke-width="1" transform="rotate(-19.85776 638.96449 463.79745)" cx="638.96449" cy="457.79745" rx="3" ry="5" fill="black"/><ellipse stroke="black" stroke-width="1" transform="rotate(-168.3428 668.26497 349.52713)" cx="668.26497" cy="349.52713" rx="5.5" ry="7" fill="transparent"/> <ellipse stroke="black" stroke-width="1" transform="rotate(-168.3428 668.26497 349.52713)" cx="668.26497" cy="343.52713" rx="3" ry="5" fill="black"/><ellipse stroke="black" stroke-width="1" transform="rotate(-150.653 756.7029 296.4076)" cx="756.7029" cy="296.4076" rx="5.5" ry="7" fill="transparent"/> <ellipse stroke="black" stroke-width="1" transform="rotate(-150.653 756.7029 296.4076)" cx="756.7029" cy="290.4076" rx="3" ry="5" fill="black"/><ellipse stroke="black" stroke-width="1" transform="rotate(-186.6105 542.11849 347.83426)" cx="542.11849" cy="347.83426" rx="5.5" ry="7" fill="transparent"/> <ellipse stroke="black" stroke-width="1" transform="rotate(-186.6105 542.11849 347.83426)" cx="542.11849" cy="341.83426" rx="3" ry="5" fill="black"/><ellipse stroke="black" stroke-width="1" transform="rotate(-50.99699 637.3042 413.87462)" cx="637.3042" cy="413.87462" rx="5.5" ry="7" fill="transparent"/> <ellipse stroke="black" stroke-width="1" transform="rotate(-50.99699 637.3042 413.87462)" cx="637.3042" cy="407.87462" rx="3" ry="5" fill="black"/><ellipse stroke="black" stroke-width="1" transform="rotate(-176.6366 547.71895 299.7839)" cx="547.71895" cy="299.7839" rx="5.5" ry="7" fill="transparent"/> <ellipse stroke="black" stroke-width="1" transform="rotate(-176.6366 547.71895 299.7839)" cx="547.71895" cy="293.7839" rx="3" ry="5" fill="black"/><ellipse stroke="black" stroke-width="1" transform="rotate(-2.174783 554.36038 449.20362)" cx="554.36038" cy="449.20362" rx="5.5" ry="7" fill="transparent"/> <ellipse stroke="black" stroke-width="1" transform="rotate(-2.174783 554.36038 449.20362)" cx="554.36038" cy="443.20362" rx="3" ry="5" fill="black"/><ellipse stroke="black" stroke-width="1" transform="rotate(-172.9622 550.11104 264.8023)" cx="550.11104" cy="264.8023" rx="5.5" ry="7" fill="transparent"/> <ellipse stroke="black" stroke-width="1" transform="rotate(-172.9622 550.11104 264.8023)" cx="550.11104" cy="258.8023" rx="3" ry="5" fill="black"/><polygon stroke="black" stroke-width="2" transform="rotate(-12.94441 707.9862 500.9812)" points="699.9862 510.9812 715.9862 510.9812 707.9862 490.9812" fill="grey"/></svg>