<svg xmlns="http://www.w3.org/2000/svg" width="1200.0" height="800.0"><ellipse stroke="black" stroke-width="1" transform="rotate(-345.193 515.74865 497.08966)" cx="515.74865" cy="497.08966" rx="5.5" ry="7" fill="transparent"/> <ellipse stroke="black" stroke-width="1" transform="rotate(-345.193 515.74865 497.08966)" cx="515.74865" cy="491.08966" rx="3" ry="5" fill="black"/><ellipse stroke="black" stroke-width="1" transform="rotate(-183.4178 403.81100000000004 343.29028)" cx="403.81100000000004" cy="343.29028" rx="5.5" ry="7" fill="transparent"/> <ellipse stroke="black" stroke-width="1" transform="rotate(-183.4178 403.81100000000004 343.29028)" cx="403.81100000000004" cy="337.29028" rx="3" ry="5" fill="black"/><ellipse stroke="black" stroke-width="1" transform="rotate(-356.5557 420.6682 492.95438)" cx="420.6682" cy="492.95438" rx="5.5" ry="7" fill="transparent"/> <ellipse stroke="black" stroke-width="1" transform="rotate(-356.5557 420.6682 492.95438)" cx="420.6682" cy="486.95438" rx="3" ry="5" fill="black"/><ellipse stroke="black" stroke-width="1" transform="rotate(-356.359 475.1454 470.88211)" cx="475.1454" cy="470.88211" rx="5.5" ry="7" fill="transparent"/> <ellipse stroke="black" stroke-width="1" transform="rotate(-356.359 475.1454 470.88211)" cx="475.1454" cy="464.88211" rx="3" ry="5" fill="black"/><ellipse stroke="black" stroke-width="1" transform="rotate(-137.0991 694.871 404.326103)" cx="694.871" cy="404.326103" rx="5.5" ry="7" fill="transparent"/> <ellipse stroke="black" stroke-width="1" transform="rotate(-137.0991 694.871 404.326103)" cx="694.871" cy="398.326103" rx="3" ry="5" fill="black"/><ellipse stroke="black" stroke-width="1" transform="rotate(-162.6685 500.25714 310.78487)" cx="500.25714" cy="310.78487" rx="5.5" ry="7" fill="transparent"/> <ellipse stroke="black" stroke-width="1" transform="rotate(-162.6685 500.25714 310.78487)" cx="500.25714" cy="304.78487" rx="3" ry="5" fill="black"/><ellipse stroke="black" stroke-width="1" transform="rotate(-168.0214 631.23392 316.18197)" cx="631.23392" cy="316.18197" rx="5.5" ry="7" fill="transparent"/> <ellipse stroke="black" stroke-width="1" transform="rotate(-168.0214 631.23392 316.18197)" cx="631.23392" cy="310.18197" rx="3" ry="5" fill="black"/><ellipse stroke="black" stroke-width="1" transform="rotate(-223.185 452.0028 355.54882)" cx="452.0028" cy="355.54882" rx="5.5" ry="7" fill="transparent"/> <ellipse stroke="black" stroke-width="1" transform="rotate(-223.185 452.0028 355.54882)" cx="452.0028" cy="349.54882" rx="3" ry="5" fill="black"/><ellipse stroke="black" stroke-width="1" transform="rotate(-195.209 431.1113 397.375038)" cx="431.1113" cy="397.375038" rx="5.5" ry="7" fill="transparent"/> <ellipse stroke="black" stroke-width="1" transform="rotate(-195.209 431.1113 397.375038)" cx="431.1113" cy="391.375038" rx="3" ry="5" fill="black"/><ellipse stroke="black" stroke-width="1" transform="rotate(-172.5981 685.5716600000001 301.64632)" cx="685.5716600000001" cy="301.64632" rx="5.5" ry="7" fill="transparent"/> <ellipse stroke="black" stroke-width="1" transform="rotate(-172.5981 685.5716600000001 301.64632)" cx="685.5716600000001" cy="295.64632" rx="3" ry="5" fill="black"/><ellipse stroke="black" stroke-width="1" transform="rotate(-180.1214 589.27798 313.22718)" cx="589.27798" cy="313.22718" rx="5.5" ry="7" fill="transparent"/> <ellipse stroke="black" stroke-width="1" transform="rotate(-180.1214 589.27798 313.22718)" cx="589.27798" cy="307.22718" rx="3" ry="5" fill="black"/><ellipse stroke="black" stroke-width="1" transform="rotate(-21.27365 637.8868 460.92476999999997)" cx="637.8868" cy="460.92476999999997" rx="5.5" ry="7" fill="transparent"/> <ellipse stroke="black" stroke-width="1" transform="rotate(-21.27365 637.8868 460.92476999999997)" cx="637.8868" cy="454.92476999999997" rx="3" ry="5" fill="black"/><ellipse stroke="black" stroke-width="1" transform="rotate(-159.5073 666.49427 354.34694)" cx="666.49427" cy="354.34694" rx="5.5" ry="7" fill="transparent"/> <ellipse stroke="black" stroke-width="1" transform="rotate(-159.5073 666.49427 354.34694)" cx="666.49427" cy="348.34694" rx="3" ry="5" fill="black"/><ellipse stroke="black" stroke-width="1" transform="rotate(-150.0817 751.3706999999999 305.78186)" cx="751.3706999999999" cy="305.78186" rx="5.5" ry="7" fill="transparent"/> <ellipse stroke="black" stroke-width="1" transform="rotate(-150.0817 751.3706999999999 305.78186)" cx="751.3706999999999" cy="299.78186" rx="3" ry="5" fill="black"/><ellipse stroke="black" stroke-width="1" transform="rotate(-187.8452 542.67913 353.19924000000003)" cx="542.67913" cy="353.19924000000003" rx="5.5" ry="7" fill="transparent"/> <ellipse stroke="black" stroke-width="1" transform="rotate(-187.8452 542.67913 353.19924000000003)" cx="542.67913" cy="347.19924000000003" rx="3" ry="5" fill="black"/><ellipse stroke="black" stroke-width="1" transform="rotate(-41.16387 635.32291 411.83026)" cx="635.32291" cy="411.83026" rx="5.5" ry="7" fill="transparent"/> <ellipse stroke="black" stroke-width="1" transform="rotate(-41.16387 635.32291 411.83026)" cx="635.32291" cy="405.83026" rx="3" ry="5" fill="black"/><ellipse stroke="black" stroke-width="1" transform="rotate(-175.6947 547.27516 306.41601)" cx="547.27516" cy="306.41601" rx="5.5" ry="7" fill="transparent"/> <ellipse stroke="black" stroke-width="1" transform="rotate(-175.6947 547.27516 306.41601)" cx="547.27516" cy="300.41601" rx="3" ry="5" fill="black"/><ellipse stroke="black" stroke-width="1" transform="rotate(-2.441782 554.21699 445.6446)" cx="554.21699" cy="445.6446" rx="5.5" ry="7" fill="transparent"/> <ellipse stroke="black" stroke-width="1" transform="rotate(-2.441782 554.21699 445.6446)" cx="554.21699" cy="439.6446" rx="3" ry="5" fill="black"/><ellipse stroke="black" stroke-width="1" transform="rotate(-172.3032 549.08099 272.7783)" cx="549.08099" cy="272.7783" rx="5.5" ry="7" fill="transparent"/> <ellipse stroke="black" stroke-width="1" transform="rotate(-172.3032 549.08099 272.7783)" cx="549.08099" cy="266.7783" rx="3" ry="5" fill="black"/><polygon stroke="black" stroke-width="2" transform="rotate(-14.56529 706.1501 493.47752)" points="698.1501 503.47752 714.1501 503.47752 706.1501 483.47752" fill="grey"/></svg>