<svg xmlns="http://www.w3.org/2000/svg" width="1200.0" height="800.0"><ellipse stroke="black" stroke-width="1" transform="rotate(-346.9802 507.63443 530.3281)" cx="507.63443" cy="530.3281" rx="5.5" ry="7" fill="transparent"/> <ellipse stroke="black" stroke-width="1" transform="rotate(-346.9802 507.63443 530.3281)" cx="507.63443" cy="524.3281" rx="3" ry="5" fill="black"/><ellipse stroke="black" stroke-width="1" transform="rotate(-180.4029 403.4398 323.18625)" cx="403.4398" cy="323.18625" rx="5.5" ry="7" fill="transparent"/> <ellipse stroke="black" stroke-width="1" transform="rotate(-180.4029 403.4398 323.18625)" cx="403.4398" cy="317.18625" rx="3" ry="5" fill="black"/><ellipse stroke="black" stroke-width="1" transform="rotate(-357.9579 419.0772 526.9713)" cx="419.0772" cy="526.9713" rx="5.5" ry="7" fill="transparent"/> <ellipse stroke="black" stroke-width="1" transform="rotate(-357.9579 419.0772 526.9713)" cx="419.0772" cy="520.9713" rx="3" ry="5" fill="black"/><ellipse stroke="black" stroke-width="1" transform="rotate(-359.7908 474.0304 504.9481)" cx="474.0304" cy="504.9481" rx="5.5" ry="7" fill="transparent"/> <ellipse stroke="black" stroke-width="1" transform="rotate(-359.7908 474.0304 504.9481)" cx="474.0304" cy="498.9481" rx="3" ry="5" fill="black"/><ellipse stroke="black" stroke-width="1" transform="rotate(-113.9567 700.8125 400.5869156)" cx="700.8125" cy="400.5869156" rx="5.5" ry="7" fill="transparent"/> <ellipse stroke="black" stroke-width="1" transform="rotate(-113.9567 700.8125 400.5869156)" cx="700.8125" cy="394.5869156" rx="3" ry="5" fill="black"/><ellipse stroke="black" stroke-width="1" transform="rotate(-163.8183 510.42791 271.6779)" cx="510.42791" cy="271.6779" rx="5.5" ry="7" fill="transparent"/> <ellipse stroke="black" stroke-width="1" transform="rotate(-163.8183 510.42791 271.6779)" cx="510.42791" cy="265.6779" rx="3" ry="5" fill="black"/><ellipse stroke="black" stroke-width="1" transform="rotate(-168.1251 638.46183 282.0632)" cx="638.46183" cy="282.0632" rx="5.5" ry="7" fill="transparent"/> <ellipse stroke="black" stroke-width="1" transform="rotate(-168.1251 638.46183 282.0632)" cx="638.46183" cy="276.0632" rx="3" ry="5" fill="black"/><ellipse stroke="black" stroke-width="1" transform="rotate(-216.17 442.079 344.92048)" cx="442.079" cy="344.92048" rx="5.5" ry="7" fill="transparent"/> <ellipse stroke="black" stroke-width="1" transform="rotate(-216.17 442.079 344.92048)" cx="442.079" cy="338.92048" rx="3" ry="5" fill="black"/><ellipse stroke="black" stroke-width="1" transform="rotate(-192.404 428.2047 385.76929)" cx="428.2047" cy="385.76929" rx="5.5" ry="7" fill="transparent"/> <ellipse stroke="black" stroke-width="1" transform="rotate(-192.404 428.2047 385.76929)" cx="428.2047" cy="379.76929" rx="3" ry="5" fill="black"/><ellipse stroke="black" stroke-width="1" transform="rotate(-173.0477 690.63614 263.3316)" cx="690.63614" cy="263.3316" rx="5.5" ry="7" fill="transparent"/> <ellipse stroke="black" stroke-width="1" transform="rotate(-173.0477 690.63614 263.3316)" cx="690.63614" cy="257.3316" rx="3" ry="5" fill="black"/><ellipse stroke="black" stroke-width="1" transform="rotate(-189.938 585.44518 271.4114)" cx="585.44518" cy="271.4114" rx="5.5" ry="7" fill="transparent"/> <ellipse stroke="black" stroke-width="1" transform="rotate(-189.938 585.44518 271.4114)" cx="585.44518" cy="265.4114" rx="3" ry="5" fill="black"/><ellipse stroke="black" stroke-width="1" transform="rotate(-15.75313 642.21816 473.95353)" cx="642.21816" cy="473.95353" rx="5.5" ry="7" fill="transparent"/> <ellipse stroke="black" stroke-width="1" transform="rotate(-15.75313 642.21816 473.95353)" cx="642.21816" cy="467.95353" rx="3" ry="5" fill="black"/><ellipse stroke="black" stroke-width="1" transform="rotate(-167.751 672.38068 330.11996999999997)" cx="672.38068" cy="330.11996999999997" rx="5.5" ry="7" fill="transparent"/> <ellipse stroke="black" stroke-width="1" transform="rotate(-167.751 672.38068 330.11996999999997)" cx="672.38068" cy="324.11996999999997" rx="3" ry="5" fill="black"/><ellipse stroke="black" stroke-width="1" transform="rotate(-152.4382 773.6257 265.2197)" cx="773.6257" cy="265.2197" rx="5.5" ry="7" fill="transparent"/> <ellipse stroke="black" stroke-width="1" transform="rotate(-152.4382 773.6257 265.2197)" cx="773.6257" cy="259.2197" rx="3" ry="5" fill="black"/><ellipse stroke="black" stroke-width="1" transform="rotate(-178.7115 542.37032 331.98189)" cx="542.37032" cy="331.98189" rx="5.5" ry="7" fill="transparent"/> <ellipse stroke="black" stroke-width="1" transform="rotate(-178.7115 542.37032 331.98189)" cx="542.37032" cy="325.98189" rx="3" ry="5" fill="black"/><ellipse stroke="black" stroke-width="1" transform="rotate(-51.87013 643.92992 419.6639)" cx="643.92992" cy="419.6639" rx="5.5" ry="7" fill="transparent"/> <ellipse stroke="black" stroke-width="1" transform="rotate(-51.87013 643.92992 419.6639)" cx="643.92992" cy="413.6639" rx="3" ry="5" fill="black"/><ellipse stroke="black" stroke-width="1" transform="rotate(-177.6659 548.98673 274.3839)" cx="548.98673" cy="274.3839" rx="5.5" ry="7" fill="transparent"/> <ellipse stroke="black" stroke-width="1" transform="rotate(-177.6659 548.98673 274.3839)" cx="548.98673" cy="268.3839" rx="3" ry="5" fill="black"/><ellipse stroke="black" stroke-width="1" transform="rotate(-1.512432 554.741 461.1784)" cx="554.741" cy="461.1784" rx="5.5" ry="7" fill="transparent"/> <ellipse stroke="black" stroke-width="1" transform="rotate(-1.512432 554.741 461.1784)" cx="554.741" cy="455.1784" rx="3" ry="5" fill="black"/><ellipse stroke="black" stroke-width="1" transform="rotate(-178.7371 551.6473 236.98340000000002)" cx="551.6473" cy="236.98340000000002" rx="5.5" ry="7" fill="transparent"/> <ellipse stroke="black" stroke-width="1" transform="rotate(-178.7371 551.6473 236.98340000000002)" cx="551.6473" cy="230.98340000000002" rx="3" ry="5" fill="black"/><polygon stroke="black" stroke-width="2" transform="rotate(-8.758433 712.9117 527.0219)" points="704.9117 537.0219 720.9117 537.0219 712.9117 517.0219" fill="grey"/></svg>