<svg xmlns="http://www.w3.org/2000/svg" width="1200.0" height="800.0"><ellipse stroke="black" stroke-width="1" transform="rotate(-344.7424 517.0050200000001 492.4117)" cx="517.0050200000001" cy="492.4117" rx="5.5" ry="7" fill="transparent"/> <ellipse stroke="black" stroke-width="1" transform="rotate(-344.7424 517.0050200000001 492.4117)" cx="517.0050200000001" cy="486.4117" rx="3" ry="5" fill="black"/><ellipse stroke="black" stroke-width="1" transform="rotate(-176.9477 403.8337 345.99158)" cx="403.8337" cy="345.99158" rx="5.5" ry="7" fill="transparent"/> <ellipse stroke="black" stroke-width="1" transform="rotate(-176.9477 403.8337 345.99158)" cx="403.8337" cy="339.99158" rx="3" ry="5" fill="black"/><ellipse stroke="black" stroke-width="1" transform="rotate(-356.2842 420.9615 488.26782000000003)" cx="420.9615" cy="488.26782000000003" rx="5.5" ry="7" fill="transparent"/> <ellipse stroke="black" stroke-width="1" transform="rotate(-356.2842 420.9615 488.26782000000003)" cx="420.9615" cy="482.26782000000003" rx="3" ry="5" fill="black"/><ellipse stroke="black" stroke-width="1" transform="rotate(-355.7994 475.4631 466.25041999999996)" cx="475.4631" cy="466.25041999999996" rx="5.5" ry="7" fill="transparent"/> <ellipse stroke="black" stroke-width="1" transform="rotate(-355.7994 475.4631 466.25041999999996)" cx="475.4631" cy="460.25041999999996" rx="3" ry="5" fill="black"/><ellipse stroke="black" stroke-width="1" transform="rotate(-135.6277 693.92796 405.498351)" cx="693.92796" cy="405.498351" rx="5.5" ry="7" fill="transparent"/> <ellipse stroke="black" stroke-width="1" transform="rotate(-135.6277 693.92796 405.498351)" cx="693.92796" cy="399.498351" rx="3" ry="5" fill="black"/><ellipse stroke="black" stroke-width="1" transform="rotate(-162.3988 498.8626 315.80997)" cx="498.8626" cy="315.80997" rx="5.5" ry="7" fill="transparent"/> <ellipse stroke="black" stroke-width="1" transform="rotate(-162.3988 498.8626 315.80997)" cx="498.8626" cy="309.80997" rx="3" ry="5" fill="black"/><ellipse stroke="black" stroke-width="1" transform="rotate(-167.9113 630.2512 320.77123)" cx="630.2512" cy="320.77123" rx="5.5" ry="7" fill="transparent"/> <ellipse stroke="black" stroke-width="1" transform="rotate(-167.9113 630.2512 320.77123)" cx="630.2512" cy="314.77123" rx="3" ry="5" fill="black"/><ellipse stroke="black" stroke-width="1" transform="rotate(-224.1246 453.9269 357.2215)" cx="453.9269" cy="357.2215" rx="5.5" ry="7" fill="transparent"/> <ellipse stroke="black" stroke-width="1" transform="rotate(-224.1246 453.9269 357.2215)" cx="453.9269" cy="351.2215" rx="3" ry="5" fill="black"/><ellipse stroke="black" stroke-width="1" transform="rotate(-195.5763 431.5296 398.895175)" cx="431.5296" cy="398.895175" rx="5.5" ry="7" fill="transparent"/> <ellipse stroke="black" stroke-width="1" transform="rotate(-195.5763 431.5296 398.895175)" cx="431.5296" cy="392.895175" rx="3" ry="5" fill="black"/><ellipse stroke="black" stroke-width="1" transform="rotate(-172.6103 684.93965 306.51147000000003)" cx="684.93965" cy="306.51147000000003" rx="5.5" ry="7" fill="transparent"/> <ellipse stroke="black" stroke-width="1" transform="rotate(-172.6103 684.93965 306.51147000000003)" cx="684.93965" cy="300.51147000000003" rx="3" ry="5" fill="black"/><ellipse stroke="black" stroke-width="1" transform="rotate(-184.7802 589.40093 319.04868)" cx="589.40093" cy="319.04868" rx="5.5" ry="7" fill="transparent"/> <ellipse stroke="black" stroke-width="1" transform="rotate(-184.7802 589.40093 319.04868)" cx="589.40093" cy="313.04868" rx="3" ry="5" fill="black"/><ellipse stroke="black" stroke-width="1" transform="rotate(-22.21883 637.18742 459.172)" cx="637.18742" cy="459.172" rx="5.5" ry="7" fill="transparent"/> <ellipse stroke="black" stroke-width="1" transform="rotate(-22.21883 637.18742 459.172)" cx="637.18742" cy="453.172" rx="3" ry="5" fill="black"/><ellipse stroke="black" stroke-width="1" transform="rotate(-159.047 665.36427 357.3337)" cx="665.36427" cy="357.3337" rx="5.5" ry="7" fill="transparent"/> <ellipse stroke="black" stroke-width="1" transform="rotate(-159.047 665.36427 357.3337)" cx="665.36427" cy="351.3337" rx="3" ry="5" fill="black"/><ellipse stroke="black" stroke-width="1" transform="rotate(-149.6792 747.9875 311.61331)" cx="747.9875" cy="311.61331" rx="5.5" ry="7" fill="transparent"/> <ellipse stroke="black" stroke-width="1" transform="rotate(-149.6792 747.9875 311.61331)" cx="747.9875" cy="305.61331" rx="3" ry="5" fill="black"/><ellipse stroke="black" stroke-width="1" transform="rotate(-178.1844 542.82736 356.62145)" cx="542.82736" cy="356.62145" rx="5.5" ry="7" fill="transparent"/> <ellipse stroke="black" stroke-width="1" transform="rotate(-178.1844 542.82736 356.62145)" cx="542.82736" cy="350.62145" rx="3" ry="5" fill="black"/><ellipse stroke="black" stroke-width="1" transform="rotate(-35.7817 634.12491 410.49535000000003)" cx="634.12491" cy="410.49535000000003" rx="5.5" ry="7" fill="transparent"/> <ellipse stroke="black" stroke-width="1" transform="rotate(-35.7817 634.12491 410.49535000000003)" cx="634.12491" cy="404.49535000000003" rx="3" ry="5" fill="black"/><ellipse stroke="black" stroke-width="1" transform="rotate(-175.2422 546.95901 310.33770000000004)" cx="546.95901" cy="310.33770000000004" rx="5.5" ry="7" fill="transparent"/> <ellipse stroke="black" stroke-width="1" transform="rotate(-175.2422 546.95901 310.33770000000004)" cx="546.95901" cy="304.33770000000004" rx="3" ry="5" fill="black"/><ellipse stroke="black" stroke-width="1" transform="rotate(-2.63032 554.11928 443.4391)" cx="554.11928" cy="443.4391" rx="5.5" ry="7" fill="transparent"/> <ellipse stroke="black" stroke-width="1" transform="rotate(-2.63032 554.11928 443.4391)" cx="554.11928" cy="437.4391" rx="3" ry="5" fill="black"/><ellipse stroke="black" stroke-width="1" transform="rotate(-171.7965 548.4229 277.4961)" cx="548.4229" cy="277.4961" rx="5.5" ry="7" fill="transparent"/> <ellipse stroke="black" stroke-width="1" transform="rotate(-171.7965 548.4229 277.4961)" cx="548.4229" cy="271.4961" rx="3" ry="5" fill="black"/><polygon stroke="black" stroke-width="2" transform="rotate(-15.68428 704.9045 488.87099)" points="696.9045 498.87099 712.9045 498.87099 704.9045 478.87099" fill="grey"/></svg>