<svg xmlns="http://www.w3.org/2000/svg" width="900.0" height="700.0"><rect stroke="transparent" x="150.0" y="150.0" width="600.0" height="400.0" fill="white"/><ellipse stroke="black" stroke-width="1" transform="rotate(-74.21942 263.1519 318.17251)" cx="263.1519" cy="318.17251" rx="5.5" ry="7" fill="white"/> <ellipse stroke="black" stroke-width="1" transform="rotate(-74.21942 263.1519 318.17251)" cx="263.1519" cy="312.17251" rx="3" ry="5" fill="black"/><ellipse stroke="black" stroke-width="1" transform="rotate(-79.52084 368.54131 327.36512)" cx="368.54131" cy="327.36512" rx="5.5" ry="7" fill="white"/> <ellipse stroke="black" stroke-width="1" transform="rotate(-79.52084 368.54131 327.36512)" cx="368.54131" cy="321.36512" rx="3" ry="5" fill="black"/><ellipse stroke="black" stroke-width="1" transform="rotate(-71.51361 299.0806 311.11451999999997)" cx="299.0806" cy="311.11451999999997" rx="5.5" ry="7" fill="white"/> <ellipse stroke="black" stroke-width="1" transform="rotate(-71.51361 299.0806 311.11451999999997)" cx="299.0806" cy="305.11451999999997" rx="3" ry="5" fill="black"/><ellipse stroke="black" stroke-width="1" transform="rotate(-70.65247 331.2258 347.168941)" cx="331.2258" cy="347.168941" rx="5.5" ry="7" fill="white"/> <ellipse stroke="black" stroke-width="1" transform="rotate(-70.65247 331.2258 347.168941)" cx="331.2258" cy="341.168941" rx="3" ry="5" fill="black"/><ellipse stroke="black" stroke-width="1" transform="rotate(-66.70182 313.0305 354.170983)" cx="313.0305" cy="354.170983" rx="5.5" ry="7" fill="white"/> <ellipse stroke="black" stroke-width="1" transform="rotate(-66.70182 313.0305 354.170983)" cx="313.0305" cy="348.170983" rx="3" ry="5" fill="black"/><ellipse stroke="black" stroke-width="1" transform="rotate(-89.86371 309.4276 285.19363)" cx="309.4276" cy="285.19363" rx="5.5" ry="7" fill="white"/> <ellipse stroke="black" stroke-width="1" transform="rotate(-89.86371 309.4276 285.19363)" cx="309.4276" cy="279.19363" rx="3" ry="5" fill="black"/><ellipse stroke="black" stroke-width="1" transform="rotate(-55.29145 307.3967 383.32405)" cx="307.3967" cy="383.32405" rx="5.5" ry="7" fill="white"/> <ellipse stroke="black" stroke-width="1" transform="rotate(-55.29145 307.3967 383.32405)" cx="307.3967" cy="377.32405" rx="3" ry="5" fill="black"/><ellipse stroke="black" stroke-width="1" transform="rotate(-56.95259 292.9381 370.38318)" cx="292.9381" cy="370.38318" rx="5.5" ry="7" fill="white"/> <ellipse stroke="black" stroke-width="1" transform="rotate(-56.95259 292.9381 370.38318)" cx="292.9381" cy="364.38318" rx="3" ry="5" fill="black"/><ellipse stroke="black" stroke-width="1" transform="rotate(-57.45934 280.5775 336.20097)" cx="280.5775" cy="336.20097" rx="5.5" ry="7" fill="white"/> <ellipse stroke="black" stroke-width="1" transform="rotate(-57.45934 280.5775 336.20097)" cx="280.5775" cy="330.20097" rx="3" ry="5" fill="black"/><ellipse stroke="black" stroke-width="1" transform="rotate(-106.7679 278.3582 283.50163)" cx="278.3582" cy="283.50163" rx="5.5" ry="7" fill="white"/> <ellipse stroke="black" stroke-width="1" transform="rotate(-106.7679 278.3582 283.50163)" cx="278.3582" cy="277.50163" rx="3" ry="5" fill="black"/><ellipse stroke="black" stroke-width="1" transform="rotate(-46.14064 269.12579999999997 365.10574)" cx="269.12579999999997" cy="365.10574" rx="5.5" ry="7" fill="white"/> <ellipse stroke="black" stroke-width="1" transform="rotate(-46.14064 269.12579999999997 365.10574)" cx="269.12579999999997" cy="359.10574" rx="3" ry="5" fill="black"/><ellipse stroke="black" stroke-width="1" transform="rotate(-72.2358 304.8616 331.41026)" cx="304.8616" cy="331.41026" rx="5.5" ry="7" fill="white"/> <ellipse stroke="black" stroke-width="1" transform="rotate(-72.2358 304.8616 331.41026)" cx="304.8616" cy="325.41026" rx="3" ry="5" fill="black"/><ellipse stroke="black" stroke-width="1" transform="rotate(-64.74529 324.2726 324.72659)" cx="324.2726" cy="324.72659" rx="5.5" ry="7" fill="white"/> <ellipse stroke="black" stroke-width="1" transform="rotate(-64.74529 324.2726 324.72659)" cx="324.2726" cy="318.72659" rx="3" ry="5" fill="black"/><ellipse stroke="black" stroke-width="1" transform="rotate(-72.81941 343.1646 361.10671)" cx="343.1646" cy="361.10671" rx="5.5" ry="7" fill="white"/> <ellipse stroke="black" stroke-width="1" transform="rotate(-72.81941 343.1646 361.10671)" cx="343.1646" cy="355.10671" rx="3" ry="5" fill="black"/><ellipse stroke="black" stroke-width="1" transform="rotate(-72.34226 343.5439 309.49274)" cx="343.5439" cy="309.49274" rx="5.5" ry="7" fill="white"/> <ellipse stroke="black" stroke-width="1" transform="rotate(-72.34226 343.5439 309.49274)" cx="343.5439" cy="303.49274" rx="3" ry="5" fill="black"/><ellipse stroke="black" stroke-width="1" transform="rotate(-68.74777 358.20823 307.17165)" cx="358.20823" cy="307.17165" rx="5.5" ry="7" fill="white"/> <ellipse stroke="black" stroke-width="1" transform="rotate(-68.74777 358.20823 307.17165)" cx="358.20823" cy="301.17165" rx="3" ry="5" fill="black"/><ellipse stroke="black" stroke-width="1" transform="rotate(-75.50776 378.20749 296.43828)" cx="378.20749" cy="296.43828" rx="5.5" ry="7" fill="white"/> <ellipse stroke="black" stroke-width="1" transform="rotate(-75.50776 378.20749 296.43828)" cx="378.20749" cy="290.43828" rx="3" ry="5" fill="black"/><ellipse stroke="black" stroke-width="1" transform="rotate(-75.70995 362.02513 278.11761)" cx="362.02513" cy="278.11761" rx="5.5" ry="7" fill="white"/> <ellipse stroke="black" stroke-width="1" transform="rotate(-75.70995 362.02513 278.11761)" cx="362.02513" cy="272.11761" rx="3" ry="5" fill="black"/><ellipse stroke="black" stroke-width="1" transform="rotate(-78.54072 327.9622 296.45657)" cx="327.9622" cy="296.45657" rx="5.5" ry="7" fill="white"/> <ellipse stroke="black" stroke-width="1" transform="rotate(-78.54072 327.9622 296.45657)" cx="327.9622" cy="290.45657" rx="3" ry="5" fill="black"/><ellipse stroke="black" stroke-width="1" transform="rotate(-73.66285 347.2643 334.55922)" cx="347.2643" cy="334.55922" rx="5.5" ry="7" fill="white"/> <ellipse stroke="black" stroke-width="1" transform="rotate(-73.66285 347.2643 334.55922)" cx="347.2643" cy="328.55922" rx="3" ry="5" fill="black"/><ellipse stroke="black" stroke-width="1" transform="rotate(-60.93809 639.5349 455.3293)" cx="639.5349" cy="455.3293" rx="5.5" ry="7" fill="white"/> <ellipse stroke="black" stroke-width="1" transform="rotate(-60.93809 639.5349 455.3293)" cx="639.5349" cy="449.3293" rx="3" ry="5" fill="black"/></svg>