<svg xmlns="http://www.w3.org/2000/svg" width="1200.0" height="800.0"><ellipse stroke="black" stroke-width="1" transform="rotate(-346.5541 510.74007 517.0893)" cx="510.74007" cy="517.0893" rx="5.5" ry="7" fill="transparent"/> <ellipse stroke="black" stroke-width="1" transform="rotate(-346.5541 510.74007 517.0893)" cx="510.74007" cy="511.0893" rx="3" ry="5" fill="black"/><ellipse stroke="black" stroke-width="1" transform="rotate(-180.1663 403.4677 330.85084)" cx="403.4677" cy="330.85084" rx="5.5" ry="7" fill="transparent"/> <ellipse stroke="black" stroke-width="1" transform="rotate(-180.1663 403.4677 330.85084)" cx="403.4677" cy="324.85084" rx="3" ry="5" fill="black"/><ellipse stroke="black" stroke-width="1" transform="rotate(-357.4885 419.6212 513.2535)" cx="419.6212" cy="513.2535" rx="5.5" ry="7" fill="transparent"/> <ellipse stroke="black" stroke-width="1" transform="rotate(-357.4885 419.6212 513.2535)" cx="419.6212" cy="507.25350000000003" rx="3" ry="5" fill="black"/><ellipse stroke="black" stroke-width="1" transform="rotate(-358.4744 474.2414 491.12273)" cx="474.2414" cy="491.12273" rx="5.5" ry="7" fill="transparent"/> <ellipse stroke="black" stroke-width="1" transform="rotate(-358.4744 474.2414 491.12273)" cx="474.2414" cy="485.12273" rx="3" ry="5" fill="black"/><ellipse stroke="black" stroke-width="1" transform="rotate(-114.425 698.64836 401.529969)" cx="698.64836" cy="401.529969" rx="5.5" ry="7" fill="transparent"/> <ellipse stroke="black" stroke-width="1" transform="rotate(-114.425 698.64836 401.529969)" cx="698.64836" cy="395.529969" rx="3" ry="5" fill="black"/><ellipse stroke="black" stroke-width="1" transform="rotate(-164.9311 505.80867 288.23810000000003)" cx="505.80867" cy="288.23810000000003" rx="5.5" ry="7" fill="transparent"/> <ellipse stroke="black" stroke-width="1" transform="rotate(-164.9311 505.80867 288.23810000000003)" cx="505.80867" cy="282.23810000000003" rx="3" ry="5" fill="black"/><ellipse stroke="black" stroke-width="1" transform="rotate(-167.9566 635.52918 295.8725)" cx="635.52918" cy="295.8725" rx="5.5" ry="7" fill="transparent"/> <ellipse stroke="black" stroke-width="1" transform="rotate(-167.9566 635.52918 295.8725)" cx="635.52918" cy="289.8725" rx="3" ry="5" fill="black"/><ellipse stroke="black" stroke-width="1" transform="rotate(-217.3255 444.884 348.68516999999997)" cx="444.884" cy="348.68516999999997" rx="5.5" ry="7" fill="transparent"/> <ellipse stroke="black" stroke-width="1" transform="rotate(-217.3255 444.884 348.68516999999997)" cx="444.884" cy="342.68516999999997" rx="3" ry="5" fill="black"/><ellipse stroke="black" stroke-width="1" transform="rotate(-194.0311 429.3216 390.521668)" cx="429.3216" cy="390.521668" rx="5.5" ry="7" fill="transparent"/> <ellipse stroke="black" stroke-width="1" transform="rotate(-194.0311 429.3216 390.521668)" cx="429.3216" cy="384.521668" rx="3" ry="5" fill="black"/><ellipse stroke="black" stroke-width="1" transform="rotate(-172.1785 688.55736 279.3453)" cx="688.55736" cy="279.3453" rx="5.5" ry="7" fill="transparent"/> <ellipse stroke="black" stroke-width="1" transform="rotate(-172.1785 688.55736 279.3453)" cx="688.55736" cy="273.3453" rx="3" ry="5" fill="black"/><ellipse stroke="black" stroke-width="1" transform="rotate(-186.3227 587.82553 288.0688)" cx="587.82553" cy="288.0688" rx="5.5" ry="7" fill="transparent"/> <ellipse stroke="black" stroke-width="1" transform="rotate(-186.3227 587.82553 288.0688)" cx="587.82553" cy="282.0688" rx="3" ry="5" fill="black"/><ellipse stroke="black" stroke-width="1" transform="rotate(-17.80806 640.61449 468.63415)" cx="640.61449" cy="468.63415" rx="5.5" ry="7" fill="transparent"/> <ellipse stroke="black" stroke-width="1" transform="rotate(-17.80806 640.61449 468.63415)" cx="640.61449" cy="462.63415" rx="3" ry="5" fill="black"/><ellipse stroke="black" stroke-width="1" transform="rotate(-168.0204 670.25175 340.03364999999997)" cx="670.25175" cy="340.03364999999997" rx="5.5" ry="7" fill="transparent"/> <ellipse stroke="black" stroke-width="1" transform="rotate(-168.0204 670.25175 340.03364999999997)" cx="670.25175" cy="334.03364999999997" rx="3" ry="5" fill="black"/><ellipse stroke="black" stroke-width="1" transform="rotate(-151.4918 765.1203 281.178)" cx="765.1203" cy="281.178" rx="5.5" ry="7" fill="transparent"/> <ellipse stroke="black" stroke-width="1" transform="rotate(-151.4918 765.1203 281.178)" cx="765.1203" cy="275.178" rx="3" ry="5" fill="black"/><ellipse stroke="black" stroke-width="1" transform="rotate(-178.6523 542.18455 340.05613)" cx="542.18455" cy="340.05613" rx="5.5" ry="7" fill="transparent"/> <ellipse stroke="black" stroke-width="1" transform="rotate(-178.6523 542.18455 340.05613)" cx="542.18455" cy="334.05613" rx="3" ry="5" fill="black"/><ellipse stroke="black" stroke-width="1" transform="rotate(-52.0801 640.64085 416.88071)" cx="640.64085" cy="416.88071" rx="5.5" ry="7" fill="transparent"/> <ellipse stroke="black" stroke-width="1" transform="rotate(-52.0801 640.64085 416.88071)" cx="640.64085" cy="410.88071" rx="3" ry="5" fill="black"/><ellipse stroke="black" stroke-width="1" transform="rotate(-177.0677 548.3653 288.0706)" cx="548.3653" cy="288.0706" rx="5.5" ry="7" fill="transparent"/> <ellipse stroke="black" stroke-width="1" transform="rotate(-177.0677 548.3653 288.0706)" cx="548.3653" cy="282.0706" rx="3" ry="5" fill="black"/><ellipse stroke="black" stroke-width="1" transform="rotate(-1.815391 554.56267 455.02495)" cx="554.56267" cy="455.02495" rx="5.5" ry="7" fill="transparent"/> <ellipse stroke="black" stroke-width="1" transform="rotate(-1.815391 554.56267 455.02495)" cx="554.56267" cy="449.02495" rx="3" ry="5" fill="black"/><ellipse stroke="black" stroke-width="1" transform="rotate(-178.7755 551.33563 251.20340000000002)" cx="551.33563" cy="251.20340000000002" rx="5.5" ry="7" fill="transparent"/> <ellipse stroke="black" stroke-width="1" transform="rotate(-178.7755 551.33563 251.20340000000002)" cx="551.33563" cy="245.20340000000002" rx="3" ry="5" fill="black"/><polygon stroke="black" stroke-width="2" transform="rotate(-10.69971 710.5942 513.4714)" points="702.5942 523.4714 718.5942 523.4714 710.5942 503.4714" fill="grey"/></svg>