<svg xmlns="http://www.w3.org/2000/svg" width="900.0" height="700.0"><rect stroke="transparent" x="150.0" y="150.0" width="600.0" height="400.0" fill="white"/><ellipse stroke="black" stroke-width="1" transform="rotate(-324.6759 292.9696 411.3443)" cx="292.9696" cy="411.3443" rx="5.5" ry="7" fill="white"/> <ellipse stroke="black" stroke-width="1" transform="rotate(-324.6759 292.9696 411.3443)" cx="292.9696" cy="405.3443" rx="3" ry="5" fill="black"/><ellipse stroke="black" stroke-width="1" transform="rotate(-318.9832 383.09248 437.79332)" cx="383.09248" cy="437.79332" rx="5.5" ry="7" fill="white"/> <ellipse stroke="black" stroke-width="1" transform="rotate(-318.9832 383.09248 437.79332)" cx="383.09248" cy="431.79332" rx="3" ry="5" fill="black"/><ellipse stroke="black" stroke-width="1" transform="rotate(-321.2081 309.962 404.72867)" cx="309.962" cy="404.72867" rx="5.5" ry="7" fill="white"/> <ellipse stroke="black" stroke-width="1" transform="rotate(-321.2081 309.962 404.72867)" cx="309.962" cy="398.72867" rx="3" ry="5" fill="black"/><ellipse stroke="black" stroke-width="1" transform="rotate(-313.8904 351.60505 447.10472)" cx="351.60505" cy="447.10472" rx="5.5" ry="7" fill="white"/> <ellipse stroke="black" stroke-width="1" transform="rotate(-313.8904 351.60505 447.10472)" cx="351.60505" cy="441.10472" rx="3" ry="5" fill="black"/><ellipse stroke="black" stroke-width="1" transform="rotate(-319.2988 325.5122 423.34887000000003)" cx="325.5122" cy="423.34887000000003" rx="5.5" ry="7" fill="white"/> <ellipse stroke="black" stroke-width="1" transform="rotate(-319.2988 325.5122 423.34887000000003)" cx="325.5122" cy="417.34887000000003" rx="3" ry="5" fill="black"/><ellipse stroke="black" stroke-width="1" transform="rotate(-318.7505 343.66700000000003 393.75233000000003)" cx="343.66700000000003" cy="393.75233000000003" rx="5.5" ry="7" fill="white"/> <ellipse stroke="black" stroke-width="1" transform="rotate(-318.7505 343.66700000000003 393.75233000000003)" cx="343.66700000000003" cy="387.75233000000003" rx="3" ry="5" fill="black"/><ellipse stroke="black" stroke-width="1" transform="rotate(-316.0435 332.9226 443.83232)" cx="332.9226" cy="443.83232" rx="5.5" ry="7" fill="white"/> <ellipse stroke="black" stroke-width="1" transform="rotate(-316.0435 332.9226 443.83232)" cx="332.9226" cy="437.83232" rx="3" ry="5" fill="black"/><ellipse stroke="black" stroke-width="1" transform="rotate(-319.3926 347.0911 463.0261)" cx="347.0911" cy="463.0261" rx="5.5" ry="7" fill="white"/> <ellipse stroke="black" stroke-width="1" transform="rotate(-319.3926 347.0911 463.0261)" cx="347.0911" cy="457.0261" rx="3" ry="5" fill="black"/><ellipse stroke="black" stroke-width="1" transform="rotate(-324.0052 308.0616 426.80795)" cx="308.0616" cy="426.80795" rx="5.5" ry="7" fill="white"/> <ellipse stroke="black" stroke-width="1" transform="rotate(-324.0052 308.0616 426.80795)" cx="308.0616" cy="420.80795" rx="3" ry="5" fill="black"/><ellipse stroke="black" stroke-width="1" transform="rotate(-321.3418 301.1489 388.22037)" cx="301.1489" cy="388.22037" rx="5.5" ry="7" fill="white"/> <ellipse stroke="black" stroke-width="1" transform="rotate(-321.3418 301.1489 388.22037)" cx="301.1489" cy="382.22037" rx="3" ry="5" fill="black"/><ellipse stroke="black" stroke-width="1" transform="rotate(-321.7022 316.4462 446.27542)" cx="316.4462" cy="446.27542" rx="5.5" ry="7" fill="white"/> <ellipse stroke="black" stroke-width="1" transform="rotate(-321.7022 316.4462 446.27542)" cx="316.4462" cy="440.27542" rx="3" ry="5" fill="black"/><ellipse stroke="black" stroke-width="1" transform="rotate(-318.1179 342.0404 429.29643999999996)" cx="342.0404" cy="429.29643999999996" rx="5.5" ry="7" fill="white"/> <ellipse stroke="black" stroke-width="1" transform="rotate(-318.1179 342.0404 429.29643999999996)" cx="342.0404" cy="423.29643999999996" rx="3" ry="5" fill="black"/><ellipse stroke="black" stroke-width="1" transform="rotate(-319.1486 361.55883 436.29343)" cx="361.55883" cy="436.29343" rx="5.5" ry="7" fill="white"/> <ellipse stroke="black" stroke-width="1" transform="rotate(-319.1486 361.55883 436.29343)" cx="361.55883" cy="430.29343" rx="3" ry="5" fill="black"/><ellipse stroke="black" stroke-width="1" transform="rotate(-317.9839 368.02565 468.48109999999997)" cx="368.02565" cy="468.48109999999997" rx="5.5" ry="7" fill="white"/> <ellipse stroke="black" stroke-width="1" transform="rotate(-317.9839 368.02565 468.48109999999997)" cx="368.02565" cy="462.48109999999997" rx="3" ry="5" fill="black"/><ellipse stroke="black" stroke-width="1" transform="rotate(-319.7639 362.35315 398.55028)" cx="362.35315" cy="398.55028" rx="5.5" ry="7" fill="white"/> <ellipse stroke="black" stroke-width="1" transform="rotate(-319.7639 362.35315 398.55028)" cx="362.35315" cy="392.55028" rx="3" ry="5" fill="black"/><ellipse stroke="black" stroke-width="1" transform="rotate(-320.6779 373.92174 415.85276999999996)" cx="373.92174" cy="415.85276999999996" rx="5.5" ry="7" fill="white"/> <ellipse stroke="black" stroke-width="1" transform="rotate(-320.6779 373.92174 415.85276999999996)" cx="373.92174" cy="409.85276999999996" rx="3" ry="5" fill="black"/><ellipse stroke="black" stroke-width="1" transform="rotate(-318.0593 352.06859 415.79208)" cx="352.06859" cy="415.79208" rx="5.5" ry="7" fill="white"/> <ellipse stroke="black" stroke-width="1" transform="rotate(-318.0593 352.06859 415.79208)" cx="352.06859" cy="409.79208" rx="3" ry="5" fill="black"/><ellipse stroke="black" stroke-width="1" transform="rotate(-317.4124 324.1021 386.75432)" cx="324.1021" cy="386.75432" rx="5.5" ry="7" fill="white"/> <ellipse stroke="black" stroke-width="1" transform="rotate(-317.4124 324.1021 386.75432)" cx="324.1021" cy="380.75432" rx="3" ry="5" fill="black"/><ellipse stroke="black" stroke-width="1" transform="rotate(-318.0866 331.1859 408.88027)" cx="331.1859" cy="408.88027" rx="5.5" ry="7" fill="white"/> <ellipse stroke="black" stroke-width="1" transform="rotate(-318.0866 331.1859 408.88027)" cx="331.1859" cy="402.88027" rx="3" ry="5" fill="black"/><ellipse stroke="black" stroke-width="1" transform="rotate(-318.9653 377.22287 456.1169)" cx="377.22287" cy="456.1169" rx="5.5" ry="7" fill="white"/> <ellipse stroke="black" stroke-width="1" transform="rotate(-318.9653 377.22287 456.1169)" cx="377.22287" cy="450.1169" rx="3" ry="5" fill="black"/><ellipse stroke="black" stroke-width="1" transform="rotate(-323.4294 207.72760000000002 575.183)" cx="207.72760000000002" cy="575.183" rx="5.5" ry="7" fill="white"/> <ellipse stroke="black" stroke-width="1" transform="rotate(-323.4294 207.72760000000002 575.183)" cx="207.72760000000002" cy="569.183" rx="3" ry="5" fill="black"/></svg>