<svg xmlns="http://www.w3.org/2000/svg" width="900.0" height="700.0"><rect stroke="transparent" x="150.0" y="150.0" width="600.0" height="400.0" fill="white"/><ellipse stroke="black" stroke-width="1" transform="rotate(-184.5419 279.5241 297.88954)" cx="279.5241" cy="297.88954" rx="5.5" ry="7" fill="white"/> <ellipse stroke="black" stroke-width="1" transform="rotate(-184.5419 279.5241 297.88954)" cx="279.5241" cy="291.88954" rx="3" ry="5" fill="black"/><ellipse stroke="black" stroke-width="1" transform="rotate(-359.9164 575.0989 411.20862)" cx="575.0989" cy="411.20862" rx="5.5" ry="7" fill="white"/> <ellipse stroke="black" stroke-width="1" transform="rotate(-359.9164 575.0989 411.20862)" cx="575.0989" cy="405.20862" rx="3" ry="5" fill="black"/><ellipse stroke="black" stroke-width="1" transform="rotate(-183.1582 339.5222 298.18813)" cx="339.5222" cy="298.18813" rx="5.5" ry="7" fill="white"/> <ellipse stroke="black" stroke-width="1" transform="rotate(-183.1582 339.5222 298.18813)" cx="339.5222" cy="292.18813" rx="3" ry="5" fill="black"/><ellipse stroke="black" stroke-width="1" transform="rotate(-5.661791 450.08889338 427.97092)" cx="450.08889338" cy="427.97092" rx="5.5" ry="7" fill="white"/> <ellipse stroke="black" stroke-width="1" transform="rotate(-5.661791 450.08889338 427.97092)" cx="450.08889338" cy="421.97092" rx="3" ry="5" fill="black"/><ellipse stroke="black" stroke-width="1" transform="rotate(-356.6342 382.80614 427.41373)" cx="382.80614" cy="427.41373" rx="5.5" ry="7" fill="white"/> <ellipse stroke="black" stroke-width="1" transform="rotate(-356.6342 382.80614 427.41373)" cx="382.80614" cy="421.41373" rx="3" ry="5" fill="black"/><ellipse stroke="black" stroke-width="1" transform="rotate(-199.8364 331.1762 265.73978999999997)" cx="331.1762" cy="265.73978999999997" rx="5.5" ry="7" fill="white"/> <ellipse stroke="black" stroke-width="1" transform="rotate(-199.8364 331.1762 265.73978999999997)" cx="331.1762" cy="259.73978999999997" rx="3" ry="5" fill="black"/><ellipse stroke="black" stroke-width="1" transform="rotate(-351.5446 357.83247 471.2332)" cx="357.83247" cy="471.2332" rx="5.5" ry="7" fill="white"/> <ellipse stroke="black" stroke-width="1" transform="rotate(-351.5446 357.83247 471.2332)" cx="357.83247" cy="465.2332" rx="3" ry="5" fill="black"/><ellipse stroke="black" stroke-width="1" transform="rotate(-353.1567 324.3216 440.90711)" cx="324.3216" cy="440.90711" rx="5.5" ry="7" fill="white"/> <ellipse stroke="black" stroke-width="1" transform="rotate(-353.1567 324.3216 440.90711)" cx="324.3216" cy="434.90711" rx="3" ry="5" fill="black"/><ellipse stroke="black" stroke-width="1" transform="rotate(-224.7032 298.3942 353.701471)" cx="298.3942" cy="353.701471" rx="5.5" ry="7" fill="white"/> <ellipse stroke="black" stroke-width="1" transform="rotate(-224.7032 298.3942 353.701471)" cx="298.3942" cy="347.701471" rx="3" ry="5" fill="black"/><ellipse stroke="black" stroke-width="1" transform="rotate(-176.6923 291.2605 247.459)" cx="291.2605" cy="247.459" rx="5.5" ry="7" fill="white"/> <ellipse stroke="black" stroke-width="1" transform="rotate(-176.6923 291.2605 247.459)" cx="291.2605" cy="241.459" rx="3" ry="5" fill="black"/><ellipse stroke="black" stroke-width="1" transform="rotate(-6.340986 297.19849999999997 411.60389)" cx="297.19849999999997" cy="411.60389" rx="5.5" ry="7" fill="white"/> <ellipse stroke="black" stroke-width="1" transform="rotate(-6.340986 297.19849999999997 411.60389)" cx="297.19849999999997" cy="405.60389" rx="3" ry="5" fill="black"/><ellipse stroke="black" stroke-width="1" transform="rotate(-176.5732 358.26507 350.4038202)" cx="358.26507" cy="350.4038202" rx="5.5" ry="7" fill="white"/> <ellipse stroke="black" stroke-width="1" transform="rotate(-176.5732 358.26507 350.4038202)" cx="358.26507" cy="344.4038202" rx="3" ry="5" fill="black"/><ellipse stroke="black" stroke-width="1" transform="rotate(-275.0081 397.84021 367.89282000000003)" cx="397.84021" cy="367.89282000000003" rx="5.5" ry="7" fill="white"/> <ellipse stroke="black" stroke-width="1" transform="rotate(-275.0081 397.84021 367.89282000000003)" cx="397.84021" cy="361.89282000000003" rx="3" ry="5" fill="black"/><ellipse stroke="black" stroke-width="1" transform="rotate(-16.33676 500.99795 469.9137)" cx="500.99795" cy="469.9137" rx="5.5" ry="7" fill="white"/> <ellipse stroke="black" stroke-width="1" transform="rotate(-16.33676 500.99795 469.9137)" cx="500.99795" cy="463.9137" rx="3" ry="5" fill="black"/><ellipse stroke="black" stroke-width="1" transform="rotate(-120.2306 476.04582 349.0797695)" cx="476.04582" cy="349.0797695" rx="5.5" ry="7" fill="white"/> <ellipse stroke="black" stroke-width="1" transform="rotate(-120.2306 476.04582 349.0797695)" cx="476.04582" cy="343.0797695" rx="3" ry="5" fill="black"/><ellipse stroke="black" stroke-width="1" transform="rotate(-59.57747 533.65708 376.24326)" cx="533.65708" cy="376.24326" rx="5.5" ry="7" fill="white"/> <ellipse stroke="black" stroke-width="1" transform="rotate(-59.57747 533.65708 376.24326)" cx="533.65708" cy="370.24326" rx="3" ry="5" fill="black"/><ellipse stroke="black" stroke-width="1" transform="rotate(-117.2663 587.506 345.667838)" cx="587.506" cy="345.667838" rx="5.5" ry="7" fill="white"/> <ellipse stroke="black" stroke-width="1" transform="rotate(-117.2663 587.506 345.667838)" cx="587.506" cy="339.667838" rx="3" ry="5" fill="black"/><ellipse stroke="black" stroke-width="1" transform="rotate(-164.173 513.98976 266.46513)" cx="513.98976" cy="266.46513" rx="5.5" ry="7" fill="white"/> <ellipse stroke="black" stroke-width="1" transform="rotate(-164.173 513.98976 266.46513)" cx="513.98976" cy="260.46513" rx="3" ry="5" fill="black"/><ellipse stroke="black" stroke-width="1" transform="rotate(-184.3565 395.76596 277.38352)" cx="395.76596" cy="277.38352" rx="5.5" ry="7" fill="white"/> <ellipse stroke="black" stroke-width="1" transform="rotate(-184.3565 395.76596 277.38352)" cx="395.76596" cy="271.38352" rx="3" ry="5" fill="black"/><ellipse stroke="black" stroke-width="1" transform="rotate(-10.31219 529.18107 437.03112)" cx="529.18107" cy="437.03112" rx="5.5" ry="7" fill="white"/> <ellipse stroke="black" stroke-width="1" transform="rotate(-10.31219 529.18107 437.03112)" cx="529.18107" cy="431.03112" rx="3" ry="5" fill="black"/></svg>