<svg xmlns="http://www.w3.org/2000/svg" width="900.0" height="700.0"><rect stroke="transparent" x="150.0" y="150.0" width="600.0" height="400.0" fill="white"/><ellipse stroke="black" stroke-width="1" transform="rotate(-326.9415 270.4083 444.58191)" cx="270.4083" cy="444.58191" rx="5.5" ry="7" fill="white"/> <ellipse stroke="black" stroke-width="1" transform="rotate(-326.9415 270.4083 444.58191)" cx="270.4083" cy="438.58191" rx="3" ry="5" fill="black"/><ellipse stroke="black" stroke-width="1" transform="rotate(-321.5055 357.59808 467.8223)" cx="357.59808" cy="467.8223" rx="5.5" ry="7" fill="white"/> <ellipse stroke="black" stroke-width="1" transform="rotate(-321.5055 357.59808 467.8223)" cx="357.59808" cy="461.8223" rx="3" ry="5" fill="black"/><ellipse stroke="black" stroke-width="1" transform="rotate(-325.0736 286.0597 436.4003)" cx="286.0597" cy="436.4003" rx="5.5" ry="7" fill="white"/> <ellipse stroke="black" stroke-width="1" transform="rotate(-325.0736 286.0597 436.4003)" cx="286.0597" cy="430.4003" rx="3" ry="5" fill="black"/><ellipse stroke="black" stroke-width="1" transform="rotate(-319.0762 325.307 475.16909999999996)" cx="325.307" cy="475.16909999999996" rx="5.5" ry="7" fill="white"/> <ellipse stroke="black" stroke-width="1" transform="rotate(-319.0762 325.307 475.16909999999996)" cx="325.307" cy="469.16909999999996" rx="3" ry="5" fill="black"/><ellipse stroke="black" stroke-width="1" transform="rotate(-328.0222 300.8748 453.3775)" cx="300.8748" cy="453.3775" rx="5.5" ry="7" fill="white"/> <ellipse stroke="black" stroke-width="1" transform="rotate(-328.0222 300.8748 453.3775)" cx="300.8748" cy="447.3775" rx="3" ry="5" fill="black"/><ellipse stroke="black" stroke-width="1" transform="rotate(-318.314 318.69460000000004 421.89344)" cx="318.69460000000004" cy="421.89344" rx="5.5" ry="7" fill="white"/> <ellipse stroke="black" stroke-width="1" transform="rotate(-318.314 318.69460000000004 421.89344)" cx="318.69460000000004" cy="415.89344" rx="3" ry="5" fill="black"/><ellipse stroke="black" stroke-width="1" transform="rotate(-326.7136 307.3632 473.30830000000003)" cx="307.3632" cy="473.30830000000003" rx="5.5" ry="7" fill="white"/> <ellipse stroke="black" stroke-width="1" transform="rotate(-326.7136 307.3632 473.30830000000003)" cx="307.3632" cy="467.30830000000003" rx="3" ry="5" fill="black"/><ellipse stroke="black" stroke-width="1" transform="rotate(-321.0961 322.9279 492.2522)" cx="322.9279" cy="492.2522" rx="5.5" ry="7" fill="white"/> <ellipse stroke="black" stroke-width="1" transform="rotate(-321.0961 322.9279 492.2522)" cx="322.9279" cy="486.2522" rx="3" ry="5" fill="black"/><ellipse stroke="black" stroke-width="1" transform="rotate(-326.8002 285.65930000000003 459.1585)" cx="285.65930000000003" cy="459.1585" rx="5.5" ry="7" fill="white"/> <ellipse stroke="black" stroke-width="1" transform="rotate(-326.8002 285.65930000000003 459.1585)" cx="285.65930000000003" cy="453.1585" rx="3" ry="5" fill="black"/><ellipse stroke="black" stroke-width="1" transform="rotate(-321.9164 275.29920000000004 420.63445)" cx="275.29920000000004" cy="420.63445" rx="5.5" ry="7" fill="white"/> <ellipse stroke="black" stroke-width="1" transform="rotate(-321.9164 275.29920000000004 420.63445)" cx="275.29920000000004" cy="414.63445" rx="3" ry="5" fill="black"/><ellipse stroke="black" stroke-width="1" transform="rotate(-324.123 292.6065 478.7348)" cx="292.6065" cy="478.7348" rx="5.5" ry="7" fill="white"/> <ellipse stroke="black" stroke-width="1" transform="rotate(-324.123 292.6065 478.7348)" cx="292.6065" cy="472.7348" rx="3" ry="5" fill="black"/><ellipse stroke="black" stroke-width="1" transform="rotate(-319.0627 318.9026 455.9586)" cx="318.9026" cy="455.9586" rx="5.5" ry="7" fill="white"/> <ellipse stroke="black" stroke-width="1" transform="rotate(-319.0627 318.9026 455.9586)" cx="318.9026" cy="449.9586" rx="3" ry="5" fill="black"/><ellipse stroke="black" stroke-width="1" transform="rotate(-317.6008 335.4498 466.2413)" cx="335.4498" cy="466.2413" rx="5.5" ry="7" fill="white"/> <ellipse stroke="black" stroke-width="1" transform="rotate(-317.6008 335.4498 466.2413)" cx="335.4498" cy="460.2413" rx="3" ry="5" fill="black"/><ellipse stroke="black" stroke-width="1" transform="rotate(-319.4915 342.7641 497.3465)" cx="342.7641" cy="497.3465" rx="5.5" ry="7" fill="white"/> <ellipse stroke="black" stroke-width="1" transform="rotate(-319.4915 342.7641 497.3465)" cx="342.7641" cy="491.3465" rx="3" ry="5" fill="black"/><ellipse stroke="black" stroke-width="1" transform="rotate(-321.5348 338.1049 427.94443)" cx="338.1049" cy="427.94443" rx="5.5" ry="7" fill="white"/> <ellipse stroke="black" stroke-width="1" transform="rotate(-321.5348 338.1049 427.94443)" cx="338.1049" cy="421.94443" rx="3" ry="5" fill="black"/><ellipse stroke="black" stroke-width="1" transform="rotate(-319.9559 349.2517 445.97977000000003)" cx="349.2517" cy="445.97977000000003" rx="5.5" ry="7" fill="white"/> <ellipse stroke="black" stroke-width="1" transform="rotate(-319.9559 349.2517 445.97977000000003)" cx="349.2517" cy="439.97977000000003" rx="3" ry="5" fill="black"/><ellipse stroke="black" stroke-width="1" transform="rotate(-319.7821 326.5972 444.1342)" cx="326.5972" cy="444.1342" rx="5.5" ry="7" fill="white"/> <ellipse stroke="black" stroke-width="1" transform="rotate(-319.7821 326.5972 444.1342)" cx="326.5972" cy="438.1342" rx="3" ry="5" fill="black"/><ellipse stroke="black" stroke-width="1" transform="rotate(-318.2711 297.21500000000003 416.58068000000003)" cx="297.21500000000003" cy="416.58068000000003" rx="5.5" ry="7" fill="white"/> <ellipse stroke="black" stroke-width="1" transform="rotate(-318.2711 297.21500000000003 416.58068000000003)" cx="297.21500000000003" cy="410.58068000000003" rx="3" ry="5" fill="black"/><ellipse stroke="black" stroke-width="1" transform="rotate(-320.278 307.1499 436.60386)" cx="307.1499" cy="436.60386" rx="5.5" ry="7" fill="white"/> <ellipse stroke="black" stroke-width="1" transform="rotate(-320.278 307.1499 436.60386)" cx="307.1499" cy="430.60386" rx="3" ry="5" fill="black"/><ellipse stroke="black" stroke-width="1" transform="rotate(-320.8647 352.31433000000004 485.65729999999996)" cx="352.31433000000004" cy="485.65729999999996" rx="5.5" ry="7" fill="white"/> <ellipse stroke="black" stroke-width="1" transform="rotate(-320.8647 352.31433000000004 485.65729999999996)" cx="352.31433000000004" cy="479.65729999999996" rx="3" ry="5" fill="black"/><ellipse stroke="black" stroke-width="1" transform="rotate(-323.4294 181.5115 610.5205000000001)" cx="181.5115" cy="610.5205000000001" rx="5.5" ry="7" fill="white"/> <ellipse stroke="black" stroke-width="1" transform="rotate(-323.4294 181.5115 610.5205000000001)" cx="181.5115" cy="604.5205000000001" rx="3" ry="5" fill="black"/></svg>