<svg xmlns="http://www.w3.org/2000/svg" width="900.0" height="700.0"><rect stroke="transparent" x="150.0" y="150.0" width="600.0" height="400.0" fill="white"/><ellipse stroke="black" stroke-width="1" transform="rotate(-178.4448 279.53869999999995 299.13662)" cx="279.53869999999995" cy="299.13662" rx="5.5" ry="7" fill="white"/> <ellipse stroke="black" stroke-width="1" transform="rotate(-178.4448 279.53869999999995 299.13662)" cx="279.53869999999995" cy="293.13662" rx="3" ry="5" fill="black"/><ellipse stroke="black" stroke-width="1" transform="rotate(-359.6039 575.1055 410.0017)" cx="575.1055" cy="410.0017" rx="5.5" ry="7" fill="white"/> <ellipse stroke="black" stroke-width="1" transform="rotate(-359.6039 575.1055 410.0017)" cx="575.1055" cy="404.0017" rx="3" ry="5" fill="black"/><ellipse stroke="black" stroke-width="1" transform="rotate(-182.7903 339.5281 299.45679)" cx="339.5281" cy="299.45679" rx="5.5" ry="7" fill="white"/> <ellipse stroke="black" stroke-width="1" transform="rotate(-182.7903 339.5281 299.45679)" cx="339.5281" cy="293.45679" rx="3" ry="5" fill="black"/><ellipse stroke="black" stroke-width="1" transform="rotate(-5.878107 449.8820952 425.92595)" cx="449.8820952" cy="425.92595" rx="5.5" ry="7" fill="white"/> <ellipse stroke="black" stroke-width="1" transform="rotate(-5.878107 449.8820952 425.92595)" cx="449.8820952" cy="419.92595" rx="3" ry="5" fill="black"/><ellipse stroke="black" stroke-width="1" transform="rotate(-358.641 383.03939 425.33104000000003)" cx="383.03939" cy="425.33104000000003" rx="5.5" ry="7" fill="white"/> <ellipse stroke="black" stroke-width="1" transform="rotate(-358.641 383.03939 425.33104000000003)" cx="383.03939" cy="419.33104000000003" rx="3" ry="5" fill="black"/><ellipse stroke="black" stroke-width="1" transform="rotate(-201.1914 331.7708 267.32771)" cx="331.7708" cy="267.32771" rx="5.5" ry="7" fill="white"/> <ellipse stroke="black" stroke-width="1" transform="rotate(-201.1914 331.7708 267.32771)" cx="331.7708" cy="261.32771" rx="3" ry="5" fill="black"/><ellipse stroke="black" stroke-width="1" transform="rotate(-351.2744 358.22195 468.6578)" cx="358.22195" cy="468.6578" rx="5.5" ry="7" fill="white"/> <ellipse stroke="black" stroke-width="1" transform="rotate(-351.2744 358.22195 468.6578)" cx="358.22195" cy="462.6578" rx="3" ry="5" fill="black"/><ellipse stroke="black" stroke-width="1" transform="rotate(-352.5766 324.5238 438.63538)" cx="324.5238" cy="438.63538" rx="5.5" ry="7" fill="white"/> <ellipse stroke="black" stroke-width="1" transform="rotate(-352.5766 324.5238 438.63538)" cx="324.5238" cy="432.63538" rx="3" ry="5" fill="black"/><ellipse stroke="black" stroke-width="1" transform="rotate(-264.5272 298.5594 353.708387)" cx="298.5594" cy="353.708387" rx="5.5" ry="7" fill="white"/> <ellipse stroke="black" stroke-width="1" transform="rotate(-264.5272 298.5594 353.708387)" cx="298.5594" cy="347.708387" rx="3" ry="5" fill="black"/><ellipse stroke="black" stroke-width="1" transform="rotate(-176.9168 291.1336 249.73309999999998)" cx="291.1336" cy="249.73309999999998" rx="5.5" ry="7" fill="white"/> <ellipse stroke="black" stroke-width="1" transform="rotate(-176.9168 291.1336 249.73309999999998)" cx="291.1336" cy="243.73309999999998" rx="3" ry="5" fill="black"/><ellipse stroke="black" stroke-width="1" transform="rotate(-7.116416 296.9851 409.79726)" cx="296.9851" cy="409.79726" rx="5.5" ry="7" fill="white"/> <ellipse stroke="black" stroke-width="1" transform="rotate(-7.116416 296.9851 409.79726)" cx="296.9851" cy="403.79726" rx="3" ry="5" fill="black"/><ellipse stroke="black" stroke-width="1" transform="rotate(-175.9773 358.40902 350.5832854)" cx="358.40902" cy="350.5832854" rx="5.5" ry="7" fill="white"/> <ellipse stroke="black" stroke-width="1" transform="rotate(-175.9773 358.40902 350.5832854)" cx="358.40902" cy="344.5832854" rx="3" ry="5" fill="black"/><ellipse stroke="black" stroke-width="1" transform="rotate(-275.0687 398.16618 367.66456)" cx="398.16618" cy="367.66456" rx="5.5" ry="7" fill="white"/> <ellipse stroke="black" stroke-width="1" transform="rotate(-275.0687 398.16618 367.66456)" cx="398.16618" cy="361.66456" rx="3" ry="5" fill="black"/><ellipse stroke="black" stroke-width="1" transform="rotate(-17.1275 500.15587 467.1106)" cx="500.15587" cy="467.1106" rx="5.5" ry="7" fill="white"/> <ellipse stroke="black" stroke-width="1" transform="rotate(-17.1275 500.15587 467.1106)" cx="500.15587" cy="461.1106" rx="3" ry="5" fill="black"/><ellipse stroke="black" stroke-width="1" transform="rotate(-119.6423 475.6313 349.3183392)" cx="475.6313" cy="349.3183392" rx="5.5" ry="7" fill="white"/> <ellipse stroke="black" stroke-width="1" transform="rotate(-119.6423 475.6313 349.3183392)" cx="475.6313" cy="343.3183392" rx="3" ry="5" fill="black"/><ellipse stroke="black" stroke-width="1" transform="rotate(-39.47811 532.98539 375.62299)" cx="532.98539" cy="375.62299" rx="5.5" ry="7" fill="white"/> <ellipse stroke="black" stroke-width="1" transform="rotate(-39.47811 532.98539 375.62299)" cx="532.98539" cy="369.62299" rx="3" ry="5" fill="black"/><ellipse stroke="black" stroke-width="1" transform="rotate(-116.7091 586.3164 346.273301)" cx="586.3164" cy="346.273301" rx="5.5" ry="7" fill="white"/> <ellipse stroke="black" stroke-width="1" transform="rotate(-116.7091 586.3164 346.273301)" cx="586.3164" cy="340.273301" rx="3" ry="5" fill="black"/><ellipse stroke="black" stroke-width="1" transform="rotate(-163.8608 513.25381 269.03339)" cx="513.25381" cy="269.03339" rx="5.5" ry="7" fill="white"/> <ellipse stroke="black" stroke-width="1" transform="rotate(-163.8608 513.25381 269.03339)" cx="513.25381" cy="263.03339" rx="3" ry="5" fill="black"/><ellipse stroke="black" stroke-width="1" transform="rotate(-188.7047 396.07754 279.44833)" cx="396.07754" cy="279.44833" rx="5.5" ry="7" fill="white"/> <ellipse stroke="black" stroke-width="1" transform="rotate(-188.7047 396.07754 279.44833)" cx="396.07754" cy="273.44833" rx="3" ry="5" fill="black"/><ellipse stroke="black" stroke-width="1" transform="rotate(-13.37304 528.6952200000001 434.72333000000003)" cx="528.6952200000001" cy="434.72333000000003" rx="5.5" ry="7" fill="white"/> <ellipse stroke="black" stroke-width="1" transform="rotate(-13.37304 528.6952200000001 434.72333000000003)" cx="528.6952200000001" cy="428.72333000000003" rx="3" ry="5" fill="black"/></svg>