<svg xmlns="http://www.w3.org/2000/svg" width="900.0" height="700.0"><rect stroke="transparent" x="150.0" y="150.0" width="600.0" height="400.0" fill="white"/><ellipse stroke="black" stroke-width="1" transform="rotate(-189.1338 279.09310000000005 294.48244)" cx="279.09310000000005" cy="294.48244" rx="5.5" ry="7" fill="white"/> <ellipse stroke="black" stroke-width="1" transform="rotate(-189.1338 279.09310000000005 294.48244)" cx="279.09310000000005" cy="288.48244" rx="3" ry="5" fill="black"/><ellipse stroke="black" stroke-width="1" transform="rotate(-1.237892 575.1231 413.74133)" cx="575.1231" cy="413.74133" rx="5.5" ry="7" fill="white"/> <ellipse stroke="black" stroke-width="1" transform="rotate(-1.237892 575.1231 413.74133)" cx="575.1231" cy="407.74133" rx="3" ry="5" fill="black"/><ellipse stroke="black" stroke-width="1" transform="rotate(-184.981 339.08889999999997 295.75155)" cx="339.08889999999997" cy="295.75155" rx="5.5" ry="7" fill="white"/> <ellipse stroke="black" stroke-width="1" transform="rotate(-184.981 339.08889999999997 295.75155)" cx="339.08889999999997" cy="289.75155" rx="3" ry="5" fill="black"/><ellipse stroke="black" stroke-width="1" transform="rotate(-5.242258 450.4983338 432.25949)" cx="450.4983338" cy="432.25949" rx="5.5" ry="7" fill="white"/> <ellipse stroke="black" stroke-width="1" transform="rotate(-5.242258 450.4983338 432.25949)" cx="450.4983338" cy="426.25949" rx="3" ry="5" fill="black"/><ellipse stroke="black" stroke-width="1" transform="rotate(-356.453 382.33248000000003 431.84566)" cx="382.33248000000003" cy="431.84566" rx="5.5" ry="7" fill="white"/> <ellipse stroke="black" stroke-width="1" transform="rotate(-356.453 382.33248000000003 431.84566)" cx="382.33248000000003" cy="425.84566" rx="3" ry="5" fill="black"/><ellipse stroke="black" stroke-width="1" transform="rotate(-198.097 329.9696 262.21545000000003)" cx="329.9696" cy="262.21545000000003" rx="5.5" ry="7" fill="white"/> <ellipse stroke="black" stroke-width="1" transform="rotate(-198.097 329.9696 262.21545000000003)" cx="329.9696" cy="256.21545000000003" rx="3" ry="5" fill="black"/><ellipse stroke="black" stroke-width="1" transform="rotate(-352.1242 357.0474 476.69960000000003)" cx="357.0474" cy="476.69960000000003" rx="5.5" ry="7" fill="white"/> <ellipse stroke="black" stroke-width="1" transform="rotate(-352.1242 357.0474 476.69960000000003)" cx="357.0474" cy="470.69960000000003" rx="3" ry="5" fill="black"/><ellipse stroke="black" stroke-width="1" transform="rotate(-353.0503 323.94780000000003 445.65735)" cx="323.94780000000003" cy="445.65735" rx="5.5" ry="7" fill="white"/> <ellipse stroke="black" stroke-width="1" transform="rotate(-353.0503 323.94780000000003 445.65735)" cx="323.94780000000003" cy="439.65735" rx="3" ry="5" fill="black"/><ellipse stroke="black" stroke-width="1" transform="rotate(-199.1229 298.2065 353.682413)" cx="298.2065" cy="353.682413" rx="5.5" ry="7" fill="white"/> <ellipse stroke="black" stroke-width="1" transform="rotate(-199.1229 298.2065 353.682413)" cx="298.2065" cy="347.682413" rx="3" ry="5" fill="black"/><ellipse stroke="black" stroke-width="1" transform="rotate(-176.4585 291.5475 242.6803)" cx="291.5475" cy="242.6803" rx="5.5" ry="7" fill="white"/> <ellipse stroke="black" stroke-width="1" transform="rotate(-176.4585 291.5475 242.6803)" cx="291.5475" cy="236.6803" rx="3" ry="5" fill="black"/><ellipse stroke="black" stroke-width="1" transform="rotate(-4.474467 297.58680000000004 415.8444)" cx="297.58680000000004" cy="415.8444" rx="5.5" ry="7" fill="white"/> <ellipse stroke="black" stroke-width="1" transform="rotate(-4.474467 297.58680000000004 415.8444)" cx="297.58680000000004" cy="409.8444" rx="3" ry="5" fill="black"/><ellipse stroke="black" stroke-width="1" transform="rotate(-171.6374 357.99604 350.01308861)" cx="357.99604" cy="350.01308861" rx="5.5" ry="7" fill="white"/> <ellipse stroke="black" stroke-width="1" transform="rotate(-171.6374 357.99604 350.01308861)" cx="357.99604" cy="344.01308861" rx="3" ry="5" fill="black"/><ellipse stroke="black" stroke-width="1" transform="rotate(-274.7401 397.2085 368.27748)" cx="397.2085" cy="368.27748" rx="5.5" ry="7" fill="white"/> <ellipse stroke="black" stroke-width="1" transform="rotate(-274.7401 397.2085 368.27748)" cx="397.2085" cy="362.27748" rx="3" ry="5" fill="black"/><ellipse stroke="black" stroke-width="1" transform="rotate(-14.97581 502.65504 475.8219)" cx="502.65504" cy="475.8219" rx="5.5" ry="7" fill="white"/> <ellipse stroke="black" stroke-width="1" transform="rotate(-14.97581 502.65504 475.8219)" cx="502.65504" cy="469.8219" rx="3" ry="5" fill="black"/><ellipse stroke="black" stroke-width="1" transform="rotate(-121.4217 476.8823 348.580886)" cx="476.8823" cy="348.580886" rx="5.5" ry="7" fill="white"/> <ellipse stroke="black" stroke-width="1" transform="rotate(-121.4217 476.8823 348.580886)" cx="476.8823" cy="342.580886" rx="3" ry="5" fill="black"/><ellipse stroke="black" stroke-width="1" transform="rotate(-58.60497 535.04179 377.07185)" cx="535.04179" cy="377.07185" rx="5.5" ry="7" fill="white"/> <ellipse stroke="black" stroke-width="1" transform="rotate(-58.60497 535.04179 377.07185)" cx="535.04179" cy="371.07185" rx="3" ry="5" fill="black"/><ellipse stroke="black" stroke-width="1" transform="rotate(-118.3818 589.9279 344.390211)" cx="589.9279" cy="344.390211" rx="5.5" ry="7" fill="white"/> <ellipse stroke="black" stroke-width="1" transform="rotate(-118.3818 589.9279 344.390211)" cx="589.9279" cy="338.390211" rx="3" ry="5" fill="black"/><ellipse stroke="black" stroke-width="1" transform="rotate(-164.795 515.48249 261.09000000000003)" cx="515.48249" cy="261.09000000000003" rx="5.5" ry="7" fill="white"/> <ellipse stroke="black" stroke-width="1" transform="rotate(-164.795 515.48249 261.09000000000003)" cx="515.48249" cy="255.09000000000003" rx="3" ry="5" fill="black"/><ellipse stroke="black" stroke-width="1" transform="rotate(-178.4053 395.83988999999997 272.80106)" cx="395.83988999999997" cy="272.80106" rx="5.5" ry="7" fill="white"/> <ellipse stroke="black" stroke-width="1" transform="rotate(-178.4053 395.83988999999997 272.80106)" cx="395.83988999999997" cy="266.80106" rx="3" ry="5" fill="black"/><ellipse stroke="black" stroke-width="1" transform="rotate(-9.275885 530.0962099999999 442.32723)" cx="530.0962099999999" cy="442.32723" rx="5.5" ry="7" fill="white"/> <ellipse stroke="black" stroke-width="1" transform="rotate(-9.275885 530.0962099999999 442.32723)" cx="530.0962099999999" cy="436.32723" rx="3" ry="5" fill="black"/></svg>