<svg xmlns="http://www.w3.org/2000/svg" width="2000.0" height="2000.0"><rect stroke="transparent" x="150.0" y="150.0" width="2000.0" height="2000.0" fill="white"/><ellipse stroke="black" stroke-width="1" transform="rotate(-319.6625 862.581 807.4988000000001)" cx="862.581" cy="807.4988000000001" rx="5.5" ry="7" fill="white"/> <ellipse stroke="black" stroke-width="1" transform="rotate(-319.6625 862.581 807.4988000000001)" cx="862.581" cy="801.4988000000001" rx="3" ry="5" fill="black"/><ellipse stroke="black" stroke-width="1" transform="rotate(-323.1232 900.35019 814.8611)" cx="900.35019" cy="814.8611" rx="5.5" ry="7" fill="white"/> <ellipse stroke="black" stroke-width="1" transform="rotate(-323.1232 900.35019 814.8611)" cx="900.35019" cy="808.8611" rx="3" ry="5" fill="black"/><ellipse stroke="black" stroke-width="1" transform="rotate(-321.211 944.62675 826.8564)" cx="944.62675" cy="826.8564" rx="5.5" ry="7" fill="white"/> <ellipse stroke="black" stroke-width="1" transform="rotate(-321.211 944.62675 826.8564)" cx="944.62675" cy="820.8564" rx="3" ry="5" fill="black"/><ellipse stroke="black" stroke-width="1" transform="rotate(-308.1259 991.103444 839.1649)" cx="991.103444" cy="839.1649" rx="5.5" ry="7" fill="white"/> <ellipse stroke="black" stroke-width="1" transform="rotate(-308.1259 991.103444 839.1649)" cx="991.103444" cy="833.1649" rx="3" ry="5" fill="black"/><ellipse stroke="black" stroke-width="1" transform="rotate(-293.2684 1032.62954 849.0726)" cx="1032.62954" cy="849.0726" rx="5.5" ry="7" fill="white"/> <ellipse stroke="black" stroke-width="1" transform="rotate(-293.2684 1032.62954 849.0726)" cx="1032.62954" cy="843.0726" rx="3" ry="5" fill="black"/><ellipse stroke="black" stroke-width="1" transform="rotate(-280.712 1072.40973 856.34)" cx="1072.40973" cy="856.34" rx="5.5" ry="7" fill="white"/> <ellipse stroke="black" stroke-width="1" transform="rotate(-280.712 1072.40973 856.34)" cx="1072.40973" cy="850.34" rx="3" ry="5" fill="black"/><ellipse stroke="black" stroke-width="1" transform="rotate(-271.0784 1112.0591 861.077)" cx="1112.0591" cy="861.077" rx="5.5" ry="7" fill="white"/> <ellipse stroke="black" stroke-width="1" transform="rotate(-271.0784 1112.0591 861.077)" cx="1112.0591" cy="855.077" rx="3" ry="5" fill="black"/><ellipse stroke="black" stroke-width="1" transform="rotate(-260.3578 1152.9465 863.9664)" cx="1152.9465" cy="863.9664" rx="5.5" ry="7" fill="white"/> <ellipse stroke="black" stroke-width="1" transform="rotate(-260.3578 1152.9465 863.9664)" cx="1152.9465" cy="857.9664" rx="3" ry="5" fill="black"/><ellipse stroke="black" stroke-width="1" transform="rotate(-235.1786 1195.6471999999999 865.254)" cx="1195.6471999999999" cy="865.254" rx="5.5" ry="7" fill="white"/> <ellipse stroke="black" stroke-width="1" transform="rotate(-235.1786 1195.6471999999999 865.254)" cx="1195.6471999999999" cy="859.254" rx="3" ry="5" fill="black"/><ellipse stroke="black" stroke-width="1" transform="rotate(-197.0552 1239.6759 865.2445)" cx="1239.6759" cy="865.2445" rx="5.5" ry="7" fill="white"/> <ellipse stroke="black" stroke-width="1" transform="rotate(-197.0552 1239.6759 865.2445)" cx="1239.6759" cy="859.2445" rx="3" ry="5" fill="black"/><ellipse stroke="black" stroke-width="1" transform="rotate(-167.4224 1284.0656 864.2372)" cx="1284.0656" cy="864.2372" rx="5.5" ry="7" fill="white"/> <ellipse stroke="black" stroke-width="1" transform="rotate(-167.4224 1284.0656 864.2372)" cx="1284.0656" cy="858.2372" rx="3" ry="5" fill="black"/><ellipse stroke="black" stroke-width="1" transform="rotate(-156.988 1329.2266 863.5222)" cx="1329.2266" cy="863.5222" rx="5.5" ry="7" fill="white"/> <ellipse stroke="black" stroke-width="1" transform="rotate(-156.988 1329.2266 863.5222)" cx="1329.2266" cy="857.5222" rx="3" ry="5" fill="black"/><ellipse stroke="black" stroke-width="1" transform="rotate(-323.4887 882.9915 815.2704)" cx="882.9915" cy="815.2704" rx="5.5" ry="7" fill="white"/> <ellipse stroke="black" stroke-width="1" transform="rotate(-323.4887 882.9915 815.2704)" cx="882.9915" cy="809.2704" rx="3" ry="5" fill="black"/><ellipse stroke="black" stroke-width="1" transform="rotate(-325.1675 920.89701 825.5436)" cx="920.89701" cy="825.5436" rx="5.5" ry="7" fill="white"/> <ellipse stroke="black" stroke-width="1" transform="rotate(-325.1675 920.89701 825.5436)" cx="920.89701" cy="819.5436" rx="3" ry="5" fill="black"/><ellipse stroke="black" stroke-width="1" transform="rotate(-316.814 968.4709 839.2863)" cx="968.4709" cy="839.2863" rx="5.5" ry="7" fill="white"/> <ellipse stroke="black" stroke-width="1" transform="rotate(-316.814 968.4709 839.2863)" cx="968.4709" cy="833.2863" rx="3" ry="5" fill="black"/><ellipse stroke="black" stroke-width="1" transform="rotate(-304.3536 1013.73156 851.7208)" cx="1013.73156" cy="851.7208" rx="5.5" ry="7" fill="white"/> <ellipse stroke="black" stroke-width="1" transform="rotate(-304.3536 1013.73156 851.7208)" cx="1013.73156" cy="845.7208" rx="3" ry="5" fill="black"/><ellipse stroke="black" stroke-width="1" transform="rotate(-294.9237 1054.7825 861.8307)" cx="1054.7825" cy="861.8307" rx="5.5" ry="7" fill="white"/> <ellipse stroke="black" stroke-width="1" transform="rotate(-294.9237 1054.7825 861.8307)" cx="1054.7825" cy="855.8307" rx="3" ry="5" fill="black"/><ellipse stroke="black" stroke-width="1" transform="rotate(-285.3252 1094.48523 869.5627999999999)" cx="1094.48523" cy="869.5627999999999" rx="5.5" ry="7" fill="white"/> <ellipse stroke="black" stroke-width="1" transform="rotate(-285.3252 1094.48523 869.5627999999999)" cx="1094.48523" cy="863.5627999999999" rx="3" ry="5" fill="black"/><ellipse stroke="black" stroke-width="1" transform="rotate(-276.3561 1134.0103 874.7275)" cx="1134.0103" cy="874.7275" rx="5.5" ry="7" fill="white"/> <ellipse stroke="black" stroke-width="1" transform="rotate(-276.3561 1134.0103 874.7275)" cx="1134.0103" cy="868.7275" rx="3" ry="5" fill="black"/><ellipse stroke="black" stroke-width="1" transform="rotate(-261.8027 1174.9701 877.7836)" cx="1174.9701" cy="877.7836" rx="5.5" ry="7" fill="white"/> <ellipse stroke="black" stroke-width="1" transform="rotate(-261.8027 1174.9701 877.7836)" cx="1174.9701" cy="871.7836" rx="3" ry="5" fill="black"/><ellipse stroke="black" stroke-width="1" transform="rotate(-231.2787 1217.7239 879.0366)" cx="1217.7239" cy="879.0366" rx="5.5" ry="7" fill="white"/> <ellipse stroke="black" stroke-width="1" transform="rotate(-231.2787 1217.7239 879.0366)" cx="1217.7239" cy="873.0366" rx="3" ry="5" fill="black"/><ellipse stroke="black" stroke-width="1" transform="rotate(-185.3043 1261.6361 878.972)" cx="1261.6361" cy="878.972" rx="5.5" ry="7" fill="white"/> <ellipse stroke="black" stroke-width="1" transform="rotate(-185.3043 1261.6361 878.972)" cx="1261.6361" cy="872.972" rx="3" ry="5" fill="black"/><ellipse stroke="black" stroke-width="1" transform="rotate(-158.3694 1305.5538000000001 877.9139)" cx="1305.5538000000001" cy="877.9139" rx="5.5" ry="7" fill="white"/> <ellipse stroke="black" stroke-width="1" transform="rotate(-158.3694 1305.5538000000001 877.9139)" cx="1305.5538000000001" cy="871.9139" rx="3" ry="5" fill="black"/><ellipse stroke="black" stroke-width="1" transform="rotate(-316.4781 870.1522 817.7484)" cx="870.1522" cy="817.7484" rx="5.5" ry="7" fill="white"/> <ellipse stroke="black" stroke-width="1" transform="rotate(-316.4781 870.1522 817.7484)" cx="870.1522" cy="811.7484" rx="3" ry="5" fill="black"/><ellipse stroke="black" stroke-width="1" transform="rotate(-322.7908 903.32802 826.4327000000001)" cx="903.32802" cy="826.4327000000001" rx="5.5" ry="7" fill="white"/> <ellipse stroke="black" stroke-width="1" transform="rotate(-322.7908 903.32802 826.4327000000001)" cx="903.32802" cy="820.4327000000001" rx="3" ry="5" fill="black"/><ellipse stroke="black" stroke-width="1" transform="rotate(-321.7532 945.0197000000001 839.1558)" cx="945.0197000000001" cy="839.1558" rx="5.5" ry="7" fill="white"/> <ellipse stroke="black" stroke-width="1" transform="rotate(-321.7532 945.0197000000001 839.1558)" cx="945.0197000000001" cy="833.1558" rx="3" ry="5" fill="black"/><ellipse stroke="black" stroke-width="1" transform="rotate(-311.2537 991.373709 852.6124)" cx="991.373709" cy="852.6124" rx="5.5" ry="7" fill="white"/> <ellipse stroke="black" stroke-width="1" transform="rotate(-311.2537 991.373709 852.6124)" cx="991.373709" cy="846.6124" rx="3" ry="5" fill="black"/><ellipse stroke="black" stroke-width="1" transform="rotate(-304.8403 1033.44862 864.4961000000001)" cx="1033.44862" cy="864.4961000000001" rx="5.5" ry="7" fill="white"/> <ellipse stroke="black" stroke-width="1" transform="rotate(-304.8403 1033.44862 864.4961000000001)" cx="1033.44862" cy="858.4961000000001" rx="3" ry="5" fill="black"/><ellipse stroke="black" stroke-width="1" transform="rotate(-296.4318 1074.34758 874.6176)" cx="1074.34758" cy="874.6176" rx="5.5" ry="7" fill="white"/> <ellipse stroke="black" stroke-width="1" transform="rotate(-296.4318 1074.34758 874.6176)" cx="1074.34758" cy="868.6176" rx="3" ry="5" fill="black"/><ellipse stroke="black" stroke-width="1" transform="rotate(-293.2166 1114.8773 882.5146)" cx="1114.8773" cy="882.5146" rx="5.5" ry="7" fill="white"/> <ellipse stroke="black" stroke-width="1" transform="rotate(-293.2166 1114.8773 882.5146)" cx="1114.8773" cy="876.5146" rx="3" ry="5" fill="black"/><ellipse stroke="black" stroke-width="1" transform="rotate(-284.0977 1155.5585 888.1203)" cx="1155.5585" cy="888.1203" rx="5.5" ry="7" fill="white"/> <ellipse stroke="black" stroke-width="1" transform="rotate(-284.0977 1155.5585 888.1203)" cx="1155.5585" cy="882.1203" rx="3" ry="5" fill="black"/><ellipse stroke="black" stroke-width="1" transform="rotate(-267.432 1197.1712 891.506)" cx="1197.1712" cy="891.506" rx="5.5" ry="7" fill="white"/> <ellipse stroke="black" stroke-width="1" transform="rotate(-267.432 1197.1712 891.506)" cx="1197.1712" cy="885.506" rx="3" ry="5" fill="black"/><ellipse stroke="black" stroke-width="1" transform="rotate(-220.6404 1239.6233 892.7964)" cx="1239.6233" cy="892.7964" rx="5.5" ry="7" fill="white"/> <ellipse stroke="black" stroke-width="1" transform="rotate(-220.6404 1239.6233 892.7964)" cx="1239.6233" cy="886.7964" rx="3" ry="5" fill="black"/><ellipse stroke="black" stroke-width="1" transform="rotate(-170.816 1283.186 892.6799)" cx="1283.186" cy="892.6799" rx="5.5" ry="7" fill="white"/> <ellipse stroke="black" stroke-width="1" transform="rotate(-170.816 1283.186 892.6799)" cx="1283.186" cy="886.6799" rx="3" ry="5" fill="black"/><ellipse stroke="black" stroke-width="1" transform="rotate(-153.3572 1329.1123 891.3974000000001)" cx="1329.1123" cy="891.3974000000001" rx="5.5" ry="7" fill="white"/> <ellipse stroke="black" stroke-width="1" transform="rotate(-153.3572 1329.1123 891.3974000000001)" cx="1329.1123" cy="885.3974000000001" rx="3" ry="5" fill="black"/><ellipse stroke="black" stroke-width="1" transform="rotate(-323.1466 890.7012 827.3417)" cx="890.7012" cy="827.3417" rx="5.5" ry="7" fill="white"/> <ellipse stroke="black" stroke-width="1" transform="rotate(-323.1466 890.7012 827.3417)" cx="890.7012" cy="821.3417" rx="3" ry="5" fill="black"/><ellipse stroke="black" stroke-width="1" transform="rotate(-330.0201 925.97289 837.8701)" cx="925.97289" cy="837.8701" rx="5.5" ry="7" fill="white"/> <ellipse stroke="black" stroke-width="1" transform="rotate(-330.0201 925.97289 837.8701)" cx="925.97289" cy="831.8701" rx="3" ry="5" fill="black"/><ellipse stroke="black" stroke-width="1" transform="rotate(-319.6868 970.9599 852.6014)" cx="970.9599" cy="852.6014" rx="5.5" ry="7" fill="white"/> <ellipse stroke="black" stroke-width="1" transform="rotate(-319.6868 970.9599 852.6014)" cx="970.9599" cy="846.6014" rx="3" ry="5" fill="black"/><ellipse stroke="black" stroke-width="1" transform="rotate(-309.7684 1014.80602 866.8165)" cx="1014.80602" cy="866.8165" rx="5.5" ry="7" fill="white"/> <ellipse stroke="black" stroke-width="1" transform="rotate(-309.7684 1014.80602 866.8165)" cx="1014.80602" cy="860.8165" rx="3" ry="5" fill="black"/><ellipse stroke="black" stroke-width="1" transform="rotate(-301.8235 1055.68646 879.3461)" cx="1055.68646" cy="879.3461" rx="5.5" ry="7" fill="white"/> <ellipse stroke="black" stroke-width="1" transform="rotate(-301.8235 1055.68646 879.3461)" cx="1055.68646" cy="873.3461" rx="3" ry="5" fill="black"/><ellipse stroke="black" stroke-width="1" transform="rotate(-302.2101 1095.67133 889.7027)" cx="1095.67133" cy="889.7027" rx="5.5" ry="7" fill="white"/> <ellipse stroke="black" stroke-width="1" transform="rotate(-302.2101 1095.67133 889.7027)" cx="1095.67133" cy="883.7027" rx="3" ry="5" fill="black"/><ellipse stroke="black" stroke-width="1" transform="rotate(-296.7758 1136.0078 897.7616)" cx="1136.0078" cy="897.7616" rx="5.5" ry="7" fill="white"/> <ellipse stroke="black" stroke-width="1" transform="rotate(-296.7758 1136.0078 897.7616)" cx="1136.0078" cy="891.7616" rx="3" ry="5" fill="black"/><ellipse stroke="black" stroke-width="1" transform="rotate(-289.3789 1176.985 903.38717)" cx="1176.985" cy="903.38717" rx="5.5" ry="7" fill="white"/> <ellipse stroke="black" stroke-width="1" transform="rotate(-289.3789 1176.985 903.38717)" cx="1176.985" cy="897.38717" rx="3" ry="5" fill="black"/><ellipse stroke="black" stroke-width="1" transform="rotate(-258.1746 1218.7158 906.79315)" cx="1218.7158" cy="906.79315" rx="5.5" ry="7" fill="white"/> <ellipse stroke="black" stroke-width="1" transform="rotate(-258.1746 1218.7158 906.79315)" cx="1218.7158" cy="900.79315" rx="3" ry="5" fill="black"/><ellipse stroke="black" stroke-width="1" transform="rotate(-201.5586 1261.2858 908.13388)" cx="1261.2858" cy="908.13388" rx="5.5" ry="7" fill="white"/> <ellipse stroke="black" stroke-width="1" transform="rotate(-201.5586 1261.2858 908.13388)" cx="1261.2858" cy="902.13388" rx="3" ry="5" fill="black"/><ellipse stroke="black" stroke-width="1" transform="rotate(-154.2241 1305.7586000000001 906.83835)" cx="1305.7586000000001" cy="906.83835" rx="5.5" ry="7" fill="white"/> <ellipse stroke="black" stroke-width="1" transform="rotate(-154.2241 1305.7586000000001 906.83835)" cx="1305.7586000000001" cy="900.83835" rx="3" ry="5" fill="black"/><polygon stroke="black" stroke-width="2" transform="rotate(-299.3579 785.5118 1120.6507)" points="777.5118 1130.6507 793.5118 1130.6507 785.5118 1110.6507" fill="grey"/></svg>