<svg xmlns="http://www.w3.org/2000/svg" width="1200.0" height="800.0"><ellipse stroke="black" stroke-width="1" transform="rotate(-346.2438 512.15821 511.2269)" cx="512.15821" cy="511.2269" rx="5.5" ry="7" fill="transparent"/> <ellipse stroke="black" stroke-width="1" transform="rotate(-346.2438 512.15821 511.2269)" cx="512.15821" cy="505.2269" rx="3" ry="5" fill="black"/><ellipse stroke="black" stroke-width="1" transform="rotate(-180.7672 403.49199999999996 334.37757999999997)" cx="403.49199999999996" cy="334.37757999999997" rx="5.5" ry="7" fill="transparent"/> <ellipse stroke="black" stroke-width="1" transform="rotate(-180.7672 403.49199999999996 334.37757999999997)" cx="403.49199999999996" cy="328.37757999999997" rx="3" ry="5" fill="black"/><ellipse stroke="black" stroke-width="1" transform="rotate(-357.2473 419.897 507.2557)" cx="419.897" cy="507.2557" rx="5.5" ry="7" fill="transparent"/> <ellipse stroke="black" stroke-width="1" transform="rotate(-357.2473 419.897 507.2557)" cx="419.897" cy="501.2557" rx="3" ry="5" fill="black"/><ellipse stroke="black" stroke-width="1" transform="rotate(-357.8847 474.4329 485.11463)" cx="474.4329" cy="485.11463" rx="5.5" ry="7" fill="transparent"/> <ellipse stroke="black" stroke-width="1" transform="rotate(-357.8847 474.4329 485.11463)" cx="474.4329" cy="479.11463" rx="3" ry="5" fill="black"/><ellipse stroke="black" stroke-width="1" transform="rotate(-114.6441 697.54948 401.99525)" cx="697.54948" cy="401.99525" rx="5.5" ry="7" fill="transparent"/> <ellipse stroke="black" stroke-width="1" transform="rotate(-114.6441 697.54948 401.99525)" cx="697.54948" cy="395.99525" rx="3" ry="5" fill="black"/><ellipse stroke="black" stroke-width="1" transform="rotate(-169.1875 504.10672999999997 295.3224)" cx="504.10672999999997" cy="295.3224" rx="5.5" ry="7" fill="transparent"/> <ellipse stroke="black" stroke-width="1" transform="rotate(-169.1875 504.10672999999997 295.3224)" cx="504.10672999999997" cy="289.3224" rx="3" ry="5" fill="black"/><ellipse stroke="black" stroke-width="1" transform="rotate(-167.9826 634.24314 301.90537)" cx="634.24314" cy="301.90537" rx="5.5" ry="7" fill="transparent"/> <ellipse stroke="black" stroke-width="1" transform="rotate(-167.9826 634.24314 301.90537)" cx="634.24314" cy="295.90537" rx="3" ry="5" fill="black"/><ellipse stroke="black" stroke-width="1" transform="rotate(-220.3313 446.6916 350.61325)" cx="446.6916" cy="350.61325" rx="5.5" ry="7" fill="transparent"/> <ellipse stroke="black" stroke-width="1" transform="rotate(-220.3313 446.6916 350.61325)" cx="446.6916" cy="344.61325" rx="3" ry="5" fill="black"/><ellipse stroke="black" stroke-width="1" transform="rotate(-194.4362 429.8458 392.579727)" cx="429.8458" cy="392.579727" rx="5.5" ry="7" fill="transparent"/> <ellipse stroke="black" stroke-width="1" transform="rotate(-194.4362 429.8458 392.579727)" cx="429.8458" cy="386.579727" rx="3" ry="5" fill="black"/><ellipse stroke="black" stroke-width="1" transform="rotate(-171.8159 687.56395 286.4059)" cx="687.56395" cy="286.4059" rx="5.5" ry="7" fill="transparent"/> <ellipse stroke="black" stroke-width="1" transform="rotate(-171.8159 687.56395 286.4059)" cx="687.56395" cy="280.4059" rx="3" ry="5" fill="black"/><ellipse stroke="black" stroke-width="1" transform="rotate(-184.6247 588.52688 295.4155)" cx="588.52688" cy="295.4155" rx="5.5" ry="7" fill="transparent"/> <ellipse stroke="black" stroke-width="1" transform="rotate(-184.6247 588.52688 295.4155)" cx="588.52688" cy="289.4155" rx="3" ry="5" fill="black"/><ellipse stroke="black" stroke-width="1" transform="rotate(-18.76842 639.85416 466.33483)" cx="639.85416" cy="466.33483" rx="5.5" ry="7" fill="transparent"/> <ellipse stroke="black" stroke-width="1" transform="rotate(-18.76842 639.85416 466.33483)" cx="639.85416" cy="460.33483" rx="3" ry="5" fill="black"/><ellipse stroke="black" stroke-width="1" transform="rotate(-168.1663 669.31255 344.48831)" cx="669.31255" cy="344.48831" rx="5.5" ry="7" fill="transparent"/> <ellipse stroke="black" stroke-width="1" transform="rotate(-168.1663 669.31255 344.48831)" cx="669.31255" cy="338.48831" rx="3" ry="5" fill="black"/><ellipse stroke="black" stroke-width="1" transform="rotate(-151.1023 761.2037 288.3296)" cx="761.2037" cy="288.3296" rx="5.5" ry="7" fill="transparent"/> <ellipse stroke="black" stroke-width="1" transform="rotate(-151.1023 761.2037 288.3296)" cx="761.2037" cy="282.3296" rx="3" ry="5" fill="black"/><ellipse stroke="black" stroke-width="1" transform="rotate(-178.624 542.09903 343.65263)" cx="542.09903" cy="343.65263" rx="5.5" ry="7" fill="transparent"/> <ellipse stroke="black" stroke-width="1" transform="rotate(-178.624 542.09903 343.65263)" cx="542.09903" cy="337.65263" rx="3" ry="5" fill="black"/><ellipse stroke="black" stroke-width="1" transform="rotate(-52.42817 639.10188 415.51036)" cx="639.10188" cy="415.51036" rx="5.5" ry="7" fill="transparent"/> <ellipse stroke="black" stroke-width="1" transform="rotate(-52.42817 639.10188 415.51036)" cx="639.10188" cy="409.51036" rx="3" ry="5" fill="black"/><ellipse stroke="black" stroke-width="1" transform="rotate(-176.8256 548.05891 293.7287)" cx="548.05891" cy="293.7287" rx="5.5" ry="7" fill="transparent"/> <ellipse stroke="black" stroke-width="1" transform="rotate(-176.8256 548.05891 293.7287)" cx="548.05891" cy="287.7287" rx="3" ry="5" fill="black"/><ellipse stroke="black" stroke-width="1" transform="rotate(-1.974142 554.472 452.28504)" cx="554.472" cy="452.28504" rx="5.5" ry="7" fill="transparent"/> <ellipse stroke="black" stroke-width="1" transform="rotate(-1.974142 554.472 452.28504)" cx="554.472" cy="446.28504" rx="3" ry="5" fill="black"/><ellipse stroke="black" stroke-width="1" transform="rotate(-173.4261 550.97535 257.5541)" cx="550.97535" cy="257.5541" rx="5.5" ry="7" fill="transparent"/> <ellipse stroke="black" stroke-width="1" transform="rotate(-173.4261 550.97535 257.5541)" cx="550.97535" cy="251.5541" rx="3" ry="5" fill="black"/><polygon stroke="black" stroke-width="2" transform="rotate(-11.69991 709.4227 507.5565)" points="701.4227 517.5565 717.4227 517.5565 709.4227 497.5565" fill="grey"/></svg>