<svg xmlns="http://www.w3.org/2000/svg" width="900.0" height="700.0"><rect stroke="transparent" x="150.0" y="150.0" width="600.0" height="400.0" fill="white"/><ellipse stroke="black" stroke-width="1" transform="rotate(-189.1453 279.3449 296.38725999999997)" cx="279.3449" cy="296.38725999999997" rx="5.5" ry="7" fill="white"/> <ellipse stroke="black" stroke-width="1" transform="rotate(-189.1453 279.3449 296.38725999999997)" cx="279.3449" cy="290.38725999999997" rx="3" ry="5" fill="black"/><ellipse stroke="black" stroke-width="1" transform="rotate(-0.547413 575.1035 412.45482)" cx="575.1035" cy="412.45482" rx="5.5" ry="7" fill="white"/> <ellipse stroke="black" stroke-width="1" transform="rotate(-0.547413 575.1035 412.45482)" cx="575.1035" cy="406.45482" rx="3" ry="5" fill="black"/><ellipse stroke="black" stroke-width="1" transform="rotate(-184.9268 339.3476 296.98526)" cx="339.3476" cy="296.98526" rx="5.5" ry="7" fill="white"/> <ellipse stroke="black" stroke-width="1" transform="rotate(-184.9268 339.3476 296.98526)" cx="339.3476" cy="290.98526" rx="3" ry="5" fill="black"/><ellipse stroke="black" stroke-width="1" transform="rotate(-5.449868 450.2943338 430.08126000000004)" cx="450.2943338" cy="430.08126000000004" rx="5.5" ry="7" fill="white"/> <ellipse stroke="black" stroke-width="1" transform="rotate(-5.449868 450.2943338 430.08126000000004)" cx="450.2943338" cy="424.08126000000004" rx="3" ry="5" fill="black"/><ellipse stroke="black" stroke-width="1" transform="rotate(-358.6352 382.56028 429.59665)" cx="382.56028" cy="429.59665" rx="5.5" ry="7" fill="white"/> <ellipse stroke="black" stroke-width="1" transform="rotate(-358.6352 382.56028 429.59665)" cx="382.56028" cy="423.59665" rx="3" ry="5" fill="black"/><ellipse stroke="black" stroke-width="1" transform="rotate(-198.8745 330.5791 264.03852)" cx="330.5791" cy="264.03852" rx="5.5" ry="7" fill="white"/> <ellipse stroke="black" stroke-width="1" transform="rotate(-198.8745 330.5791 264.03852)" cx="330.5791" cy="258.03852" rx="3" ry="5" fill="black"/><ellipse stroke="black" stroke-width="1" transform="rotate(-351.8297 357.44073000000003 473.9119)" cx="357.44073000000003" cy="473.9119" rx="5.5" ry="7" fill="white"/> <ellipse stroke="black" stroke-width="1" transform="rotate(-351.8297 357.44073000000003 473.9119)" cx="357.44073000000003" cy="467.9119" rx="3" ry="5" fill="black"/><ellipse stroke="black" stroke-width="1" transform="rotate(-351.3604 324.1448 443.24447)" cx="324.1448" cy="443.24447" rx="5.5" ry="7" fill="white"/> <ellipse stroke="black" stroke-width="1" transform="rotate(-351.3604 324.1448 443.24447)" cx="324.1448" cy="437.24447" rx="3" ry="5" fill="black"/><ellipse stroke="black" stroke-width="1" transform="rotate(-200.7187 298.2459 353.713334)" cx="298.2459" cy="353.713334" rx="5.5" ry="7" fill="white"/> <ellipse stroke="black" stroke-width="1" transform="rotate(-200.7187 298.2459 353.713334)" cx="298.2459" cy="347.713334" rx="3" ry="5" fill="black"/><ellipse stroke="black" stroke-width="1" transform="rotate(-176.5524 291.3995 245.1069)" cx="291.3995" cy="245.1069" rx="5.5" ry="7" fill="white"/> <ellipse stroke="black" stroke-width="1" transform="rotate(-176.5524 291.3995 245.1069)" cx="291.3995" cy="239.1069" rx="3" ry="5" fill="black"/><ellipse stroke="black" stroke-width="1" transform="rotate(-5.662432 297.3981 413.5005)" cx="297.3981" cy="413.5005" rx="5.5" ry="7" fill="white"/> <ellipse stroke="black" stroke-width="1" transform="rotate(-5.662432 297.3981 413.5005)" cx="297.3981" cy="407.5005" rx="3" ry="5" fill="black"/><ellipse stroke="black" stroke-width="1" transform="rotate(-174.973 358.1565 350.2102377)" cx="358.1565" cy="350.2102377" rx="5.5" ry="7" fill="white"/> <ellipse stroke="black" stroke-width="1" transform="rotate(-174.973 358.1565 350.2102377)" cx="358.1565" cy="344.2102377" rx="3" ry="5" fill="black"/><ellipse stroke="black" stroke-width="1" transform="rotate(-274.8422 397.52451 368.08423)" cx="397.52451" cy="368.08423" rx="5.5" ry="7" fill="white"/> <ellipse stroke="black" stroke-width="1" transform="rotate(-274.8422 397.52451 368.08423)" cx="397.52451" cy="362.08423" rx="3" ry="5" fill="black"/><ellipse stroke="black" stroke-width="1" transform="rotate(-15.65826 501.83083 472.81579999999997)" cx="501.83083" cy="472.81579999999997" rx="5.5" ry="7" fill="white"/> <ellipse stroke="black" stroke-width="1" transform="rotate(-15.65826 501.83083 472.81579999999997)" cx="501.83083" cy="466.81579999999997" rx="3" ry="5" fill="black"/><ellipse stroke="black" stroke-width="1" transform="rotate(-120.8239 476.46281 348.83402)" cx="476.46281" cy="348.83402" rx="5.5" ry="7" fill="white"/> <ellipse stroke="black" stroke-width="1" transform="rotate(-120.8239 476.46281 348.83402)" cx="476.46281" cy="342.83402" rx="3" ry="5" fill="black"/><ellipse stroke="black" stroke-width="1" transform="rotate(-59.09473 534.3479 376.65265)" cx="534.3479" cy="376.65265" rx="5.5" ry="7" fill="white"/> <ellipse stroke="black" stroke-width="1" transform="rotate(-59.09473 534.3479 376.65265)" cx="534.3479" cy="370.65265" rx="3" ry="5" fill="black"/><ellipse stroke="black" stroke-width="1" transform="rotate(-117.824 588.7097 345.040385)" cx="588.7097" cy="345.040385" rx="5.5" ry="7" fill="white"/> <ellipse stroke="black" stroke-width="1" transform="rotate(-117.824 588.7097 345.040385)" cx="588.7097" cy="339.040385" rx="3" ry="5" fill="black"/><ellipse stroke="black" stroke-width="1" transform="rotate(-164.4843 514.73267 263.81831)" cx="514.73267" cy="263.81831" rx="5.5" ry="7" fill="white"/> <ellipse stroke="black" stroke-width="1" transform="rotate(-164.4843 514.73267 263.81831)" cx="514.73267" cy="257.81831" rx="3" ry="5" fill="black"/><ellipse stroke="black" stroke-width="1" transform="rotate(-178.38 395.77428 275.13796)" cx="395.77428" cy="275.13796" rx="5.5" ry="7" fill="white"/> <ellipse stroke="black" stroke-width="1" transform="rotate(-178.38 395.77428 275.13796)" cx="395.77428" cy="269.13796" rx="3" ry="5" fill="black"/><ellipse stroke="black" stroke-width="1" transform="rotate(-9.796458 529.64377 439.63758)" cx="529.64377" cy="439.63758" rx="5.5" ry="7" fill="white"/> <ellipse stroke="black" stroke-width="1" transform="rotate(-9.796458 529.64377 439.63758)" cx="529.64377" cy="433.63758" rx="3" ry="5" fill="black"/></svg>