<svg xmlns="http://www.w3.org/2000/svg" width="900.0" height="700.0"><rect stroke="transparent" x="150.0" y="150.0" width="600.0" height="400.0" fill="white"/><ellipse stroke="black" stroke-width="1" transform="rotate(-171.0453 -116.58730000000003 477.74609999999996)" cx="-116.58730000000003" cy="477.74609999999996" rx="5.5" ry="7" fill="white"/> <ellipse stroke="black" stroke-width="1" transform="rotate(-171.0453 -116.58730000000003 477.74609999999996)" cx="-116.58730000000003" cy="471.74609999999996" rx="3" ry="5" fill="black"/><ellipse stroke="black" stroke-width="1" transform="rotate(-172.2078 -32.137099999999975 494.55600000000004)" cx="-32.137099999999975" cy="494.55600000000004" rx="5.5" ry="7" fill="white"/> <ellipse stroke="black" stroke-width="1" transform="rotate(-172.2078 -32.137099999999975 494.55600000000004)" cx="-32.137099999999975" cy="488.55600000000004" rx="3" ry="5" fill="black"/><ellipse stroke="black" stroke-width="1" transform="rotate(-171.9189 -95.10199999999998 469.0606)" cx="-95.10199999999998" cy="469.0606" rx="5.5" ry="7" fill="white"/> <ellipse stroke="black" stroke-width="1" transform="rotate(-171.9189 -95.10199999999998 469.0606)" cx="-95.10199999999998" cy="463.0606" rx="3" ry="5" fill="black"/><ellipse stroke="black" stroke-width="1" transform="rotate(-173.1781 -58.802400000000034 496.4386)" cx="-58.802400000000034" cy="496.4386" rx="5.5" ry="7" fill="white"/> <ellipse stroke="black" stroke-width="1" transform="rotate(-173.1781 -58.802400000000034 496.4386)" cx="-58.802400000000034" cy="490.4386" rx="3" ry="5" fill="black"/><ellipse stroke="black" stroke-width="1" transform="rotate(-173.0723 -77.73199999999997 496.955)" cx="-77.73199999999997" cy="496.955" rx="5.5" ry="7" fill="white"/> <ellipse stroke="black" stroke-width="1" transform="rotate(-173.0723 -77.73199999999997 496.955)" cx="-77.73199999999997" cy="490.955" rx="3" ry="5" fill="black"/><ellipse stroke="black" stroke-width="1" transform="rotate(-170.2105 -99.18039999999996 452.08799999999997)" cx="-99.18039999999996" cy="452.08799999999997" rx="5.5" ry="7" fill="white"/> <ellipse stroke="black" stroke-width="1" transform="rotate(-170.2105 -99.18039999999996 452.08799999999997)" cx="-99.18039999999996" cy="446.08799999999997" rx="3" ry="5" fill="black"/><ellipse stroke="black" stroke-width="1" transform="rotate(-170.2469 -81.97980000000007 513.2721)" cx="-81.97980000000007" cy="513.2721" rx="5.5" ry="7" fill="white"/> <ellipse stroke="black" stroke-width="1" transform="rotate(-170.2469 -81.97980000000007 513.2721)" cx="-81.97980000000007" cy="507.2721" rx="3" ry="5" fill="black"/><ellipse stroke="black" stroke-width="1" transform="rotate(-174.4299 -99.83249999999998 513.0237)" cx="-99.83249999999998" cy="513.0237" rx="5.5" ry="7" fill="white"/> <ellipse stroke="black" stroke-width="1" transform="rotate(-174.4299 -99.83249999999998 513.0237)" cx="-99.83249999999998" cy="507.02369999999996" rx="3" ry="5" fill="black"/><ellipse stroke="black" stroke-width="1" transform="rotate(-166.315 -90.35179999999991 486.3573)" cx="-90.35179999999991" cy="486.3573" rx="5.5" ry="7" fill="white"/> <ellipse stroke="black" stroke-width="1" transform="rotate(-166.315 -90.35179999999991 486.3573)" cx="-90.35179999999991" cy="480.3573" rx="3" ry="5" fill="black"/><ellipse stroke="black" stroke-width="1" transform="rotate(-167.7248 -116.81410000000005 465.3881)" cx="-116.81410000000005" cy="465.3881" rx="5.5" ry="7" fill="white"/> <ellipse stroke="black" stroke-width="1" transform="rotate(-167.7248 -116.81410000000005 465.3881)" cx="-116.81410000000005" cy="459.3881" rx="3" ry="5" fill="black"/><ellipse stroke="black" stroke-width="1" transform="rotate(-169.3107 -107.7242 495.9806)" cx="-107.7242" cy="495.9806" rx="5.5" ry="7" fill="white"/> <ellipse stroke="black" stroke-width="1" transform="rotate(-169.3107 -107.7242 495.9806)" cx="-107.7242" cy="489.9806" rx="3" ry="5" fill="black"/><ellipse stroke="black" stroke-width="1" transform="rotate(-164.2769 -69.6155 477.55989999999997)" cx="-69.6155" cy="477.55989999999997" rx="5.5" ry="7" fill="white"/> <ellipse stroke="black" stroke-width="1" transform="rotate(-164.2769 -69.6155 477.55989999999997)" cx="-69.6155" cy="471.55989999999997" rx="3" ry="5" fill="black"/><ellipse stroke="black" stroke-width="1" transform="rotate(-170.1755 -52.09119999999996 482.1875)" cx="-52.09119999999996" cy="482.1875" rx="5.5" ry="7" fill="white"/> <ellipse stroke="black" stroke-width="1" transform="rotate(-170.1755 -52.09119999999996 482.1875)" cx="-52.09119999999996" cy="476.1875" rx="3" ry="5" fill="black"/><ellipse stroke="black" stroke-width="1" transform="rotate(-169.5424 -64.10760000000005 517.5942)" cx="-64.10760000000005" cy="517.5942" rx="5.5" ry="7" fill="white"/> <ellipse stroke="black" stroke-width="1" transform="rotate(-169.5424 -64.10760000000005 517.5942)" cx="-64.10760000000005" cy="511.5942" rx="3" ry="5" fill="black"/><ellipse stroke="black" stroke-width="1" transform="rotate(-171.0443 -54.149400000000014 463.11109999999996)" cx="-54.149400000000014" cy="463.11109999999996" rx="5.5" ry="7" fill="white"/> <ellipse stroke="black" stroke-width="1" transform="rotate(-171.0443 -54.149400000000014 463.11109999999996)" cx="-54.149400000000014" cy="457.11109999999996" rx="3" ry="5" fill="black"/><ellipse stroke="black" stroke-width="1" transform="rotate(-175.4854 -34.13189999999997 477.1986)" cx="-34.13189999999997" cy="477.1986" rx="5.5" ry="7" fill="white"/> <ellipse stroke="black" stroke-width="1" transform="rotate(-175.4854 -34.13189999999997 477.1986)" cx="-34.13189999999997" cy="471.1986" rx="3" ry="5" fill="black"/><ellipse stroke="black" stroke-width="1" transform="rotate(-172.1398 -76.53679999999997 445.47154)" cx="-76.53679999999997" cy="445.47154" rx="5.5" ry="7" fill="white"/> <ellipse stroke="black" stroke-width="1" transform="rotate(-172.1398 -76.53679999999997 445.47154)" cx="-76.53679999999997" cy="439.47154" rx="3" ry="5" fill="black"/><ellipse stroke="black" stroke-width="1" transform="rotate(-167.8694 -122.40729999999996 450.49080000000004)" cx="-122.40729999999996" cy="450.49080000000004" rx="5.5" ry="7" fill="white"/> <ellipse stroke="black" stroke-width="1" transform="rotate(-167.8694 -122.40729999999996 450.49080000000004)" cx="-122.40729999999996" cy="444.49080000000004" rx="3" ry="5" fill="black"/><ellipse stroke="black" stroke-width="1" transform="rotate(-172.8465 -77.17089999999996 459.733)" cx="-77.17089999999996" cy="459.733" rx="5.5" ry="7" fill="white"/> <ellipse stroke="black" stroke-width="1" transform="rotate(-172.8465 -77.17089999999996 459.733)" cx="-77.17089999999996" cy="453.733" rx="3" ry="5" fill="black"/><ellipse stroke="black" stroke-width="1" transform="rotate(-168.8421 -41.645200000000045 510.5495)" cx="-41.645200000000045" cy="510.5495" rx="5.5" ry="7" fill="white"/> <ellipse stroke="black" stroke-width="1" transform="rotate(-168.8421 -41.645200000000045 510.5495)" cx="-41.645200000000045" cy="504.5495" rx="3" ry="5" fill="black"/><ellipse stroke="black" stroke-width="1" transform="rotate(-146.0726 -15.330399999999997 290.22952)" cx="-15.330399999999997" cy="290.22952" rx="5.5" ry="7" fill="white"/> <ellipse stroke="black" stroke-width="1" transform="rotate(-146.0726 -15.330399999999997 290.22952)" cx="-15.330399999999997" cy="284.22952" rx="3" ry="5" fill="black"/></svg>