<svg xmlns="http://www.w3.org/2000/svg" width="900.0" height="700.0"><rect stroke="transparent" x="150.0" y="150.0" width="600.0" height="400.0" fill="white"/><ellipse stroke="black" stroke-width="1" transform="rotate(-114.4677 275.8915 317.59437)" cx="275.8915" cy="317.59437" rx="5.5" ry="7" fill="white"/> <ellipse stroke="black" stroke-width="1" transform="rotate(-114.4677 275.8915 317.59437)" cx="275.8915" cy="311.59437" rx="3" ry="5" fill="black"/><ellipse stroke="black" stroke-width="1" transform="rotate(-73.96563 430.93459 341.197465)" cx="430.93459" cy="341.197465" rx="5.5" ry="7" fill="white"/> <ellipse stroke="black" stroke-width="1" transform="rotate(-73.96563 430.93459 341.197465)" cx="430.93459" cy="335.197465" rx="3" ry="5" fill="black"/><ellipse stroke="black" stroke-width="1" transform="rotate(-88.57753 326.4482 316.79056)" cx="326.4482" cy="316.79056" rx="5.5" ry="7" fill="white"/> <ellipse stroke="black" stroke-width="1" transform="rotate(-88.57753 326.4482 316.79056)" cx="326.4482" cy="310.79056" rx="3" ry="5" fill="black"/><ellipse stroke="black" stroke-width="1" transform="rotate(-68.57256 379.10129 364.19485)" cx="379.10129" cy="364.19485" rx="5.5" ry="7" fill="white"/> <ellipse stroke="black" stroke-width="1" transform="rotate(-68.57256 379.10129 364.19485)" cx="379.10129" cy="358.19485" rx="3" ry="5" fill="black"/><ellipse stroke="black" stroke-width="1" transform="rotate(-56.85539 349.4433 375.75047)" cx="349.4433" cy="375.75047" rx="5.5" ry="7" fill="white"/> <ellipse stroke="black" stroke-width="1" transform="rotate(-56.85539 349.4433 375.75047)" cx="349.4433" cy="369.75047" rx="3" ry="5" fill="black"/><ellipse stroke="black" stroke-width="1" transform="rotate(-97.57893 332.5289 284.52038)" cx="332.5289" cy="284.52038" rx="5.5" ry="7" fill="white"/> <ellipse stroke="black" stroke-width="1" transform="rotate(-97.57893 332.5289 284.52038)" cx="332.5289" cy="278.52038" rx="3" ry="5" fill="black"/><ellipse stroke="black" stroke-width="1" transform="rotate(-42.99273 334.9266 408.52239)" cx="334.9266" cy="408.52239" rx="5.5" ry="7" fill="white"/> <ellipse stroke="black" stroke-width="1" transform="rotate(-42.99273 334.9266 408.52239)" cx="334.9266" cy="402.52239" rx="3" ry="5" fill="black"/><ellipse stroke="black" stroke-width="1" transform="rotate(-33.84091 314.6847 392.7273)" cx="314.6847" cy="392.7273" rx="5.5" ry="7" fill="white"/> <ellipse stroke="black" stroke-width="1" transform="rotate(-33.84091 314.6847 392.7273)" cx="314.6847" cy="386.7273" rx="3" ry="5" fill="black"/><ellipse stroke="black" stroke-width="1" transform="rotate(-20.8431 294.8205 348.110421)" cx="294.8205" cy="348.110421" rx="5.5" ry="7" fill="white"/> <ellipse stroke="black" stroke-width="1" transform="rotate(-20.8431 294.8205 348.110421)" cx="294.8205" cy="342.110421" rx="3" ry="5" fill="black"/><ellipse stroke="black" stroke-width="1" transform="rotate(-115.7171 288.18600000000004 279.42742)" cx="288.18600000000004" cy="279.42742" rx="5.5" ry="7" fill="white"/> <ellipse stroke="black" stroke-width="1" transform="rotate(-115.7171 288.18600000000004 279.42742)" cx="288.18600000000004" cy="273.42742" rx="3" ry="5" fill="black"/><ellipse stroke="black" stroke-width="1" transform="rotate(-31.76581 285.8817 383.19763)" cx="285.8817" cy="383.19763" rx="5.5" ry="7" fill="white"/> <ellipse stroke="black" stroke-width="1" transform="rotate(-31.76581 285.8817 383.19763)" cx="285.8817" cy="377.19763" rx="3" ry="5" fill="black"/><ellipse stroke="black" stroke-width="1" transform="rotate(-64.81219 334.8788 343.580343)" cx="334.8788" cy="343.580343" rx="5.5" ry="7" fill="white"/> <ellipse stroke="black" stroke-width="1" transform="rotate(-64.81219 334.8788 343.580343)" cx="334.8788" cy="337.580343" rx="3" ry="5" fill="black"/><ellipse stroke="black" stroke-width="1" transform="rotate(-66.98005 362.09325 343.053534)" cx="362.09325" cy="343.053534" rx="5.5" ry="7" fill="white"/> <ellipse stroke="black" stroke-width="1" transform="rotate(-66.98005 362.09325 343.053534)" cx="362.09325" cy="337.053534" rx="3" ry="5" fill="black"/><ellipse stroke="black" stroke-width="1" transform="rotate(-71.23617 394.45989 377.61336)" cx="394.45989" cy="377.61336" rx="5.5" ry="7" fill="white"/> <ellipse stroke="black" stroke-width="1" transform="rotate(-71.23617 394.45989 377.61336)" cx="394.45989" cy="371.61336" rx="3" ry="5" fill="black"/><ellipse stroke="black" stroke-width="1" transform="rotate(-76.11996 393.34018000000003 324.77771)" cx="393.34018000000003" cy="324.77771" rx="5.5" ry="7" fill="white"/> <ellipse stroke="black" stroke-width="1" transform="rotate(-76.11996 393.34018000000003 324.77771)" cx="393.34018000000003" cy="318.77771" rx="3" ry="5" fill="black"/><ellipse stroke="black" stroke-width="1" transform="rotate(-69.60648 415.35764 327.03437)" cx="415.35764" cy="327.03437" rx="5.5" ry="7" fill="white"/> <ellipse stroke="black" stroke-width="1" transform="rotate(-69.60648 415.35764 327.03437)" cx="415.35764" cy="321.03437" rx="3" ry="5" fill="black"/><ellipse stroke="black" stroke-width="1" transform="rotate(-74.7925 441.442794 312.20984)" cx="441.442794" cy="312.20984" rx="5.5" ry="7" fill="white"/> <ellipse stroke="black" stroke-width="1" transform="rotate(-74.7925 441.442794 312.20984)" cx="441.442794" cy="306.20984" rx="3" ry="5" fill="black"/><ellipse stroke="black" stroke-width="1" transform="rotate(-78.16621 423.81061 292.35309)" cx="423.81061" cy="292.35309" rx="5.5" ry="7" fill="white"/> <ellipse stroke="black" stroke-width="1" transform="rotate(-78.16621 423.81061 292.35309)" cx="423.81061" cy="286.35309" rx="3" ry="5" fill="black"/><ellipse stroke="black" stroke-width="1" transform="rotate(-83.92593 368.22063 302.80084)" cx="368.22063" cy="302.80084" rx="5.5" ry="7" fill="white"/> <ellipse stroke="black" stroke-width="1" transform="rotate(-83.92593 368.22063 302.80084)" cx="368.22063" cy="296.80084" rx="3" ry="5" fill="black"/><ellipse stroke="black" stroke-width="1" transform="rotate(-70.28458 405.2072 352.760179)" cx="405.2072" cy="352.760179" rx="5.5" ry="7" fill="white"/> <ellipse stroke="black" stroke-width="1" transform="rotate(-70.28458 405.2072 352.760179)" cx="405.2072" cy="346.760179" rx="3" ry="5" fill="black"/><ellipse stroke="black" stroke-width="1" transform="rotate(-60.93809 716.4552 498.0757)" cx="716.4552" cy="498.0757" rx="5.5" ry="7" fill="white"/> <ellipse stroke="black" stroke-width="1" transform="rotate(-60.93809 716.4552 498.0757)" cx="716.4552" cy="492.0757" rx="3" ry="5" fill="black"/></svg>