<svg xmlns="http://www.w3.org/2000/svg" width="900.0" height="700.0"><rect stroke="transparent" x="150.0" y="150.0" width="600.0" height="400.0" fill="white"/><ellipse stroke="black" stroke-width="1" transform="rotate(-148.7826 -97.71769999999992 415.49325999999996)" cx="-97.71769999999992" cy="415.49325999999996" rx="5.5" ry="7" fill="white"/> <ellipse stroke="black" stroke-width="1" transform="rotate(-148.7826 -97.71769999999992 415.49325999999996)" cx="-97.71769999999992" cy="409.49325999999996" rx="3" ry="5" fill="black"/><ellipse stroke="black" stroke-width="1" transform="rotate(-159.3088 -18.298000000000002 438.19916)" cx="-18.298000000000002" cy="438.19916" rx="5.5" ry="7" fill="white"/> <ellipse stroke="black" stroke-width="1" transform="rotate(-159.3088 -18.298000000000002 438.19916)" cx="-18.298000000000002" cy="432.19916" rx="3" ry="5" fill="black"/><ellipse stroke="black" stroke-width="1" transform="rotate(-149.0101 -77.31560000000002 406.49526000000003)" cx="-77.31560000000002" cy="406.49526000000003" rx="5.5" ry="7" fill="white"/> <ellipse stroke="black" stroke-width="1" transform="rotate(-149.0101 -77.31560000000002 406.49526000000003)" cx="-77.31560000000002" cy="400.49526000000003" rx="3" ry="5" fill="black"/><ellipse stroke="black" stroke-width="1" transform="rotate(-153.3442 -43.74540000000002 441.11046999999996)" cx="-43.74540000000002" cy="441.11046999999996" rx="5.5" ry="7" fill="white"/> <ellipse stroke="black" stroke-width="1" transform="rotate(-153.3442 -43.74540000000002 441.11046999999996)" cx="-43.74540000000002" cy="435.11046999999996" rx="3" ry="5" fill="black"/><ellipse stroke="black" stroke-width="1" transform="rotate(-153.132 -60.64580000000001 435.8687)" cx="-60.64580000000001" cy="435.8687" rx="5.5" ry="7" fill="white"/> <ellipse stroke="black" stroke-width="1" transform="rotate(-153.132 -60.64580000000001 435.8687)" cx="-60.64580000000001" cy="429.8687" rx="3" ry="5" fill="black"/><ellipse stroke="black" stroke-width="1" transform="rotate(-147.8799 -78.38659999999993 385.70388)" cx="-78.38659999999993" cy="385.70388" rx="5.5" ry="7" fill="white"/> <ellipse stroke="black" stroke-width="1" transform="rotate(-147.8799 -78.38659999999993 385.70388)" cx="-78.38659999999993" cy="379.70388" rx="3" ry="5" fill="black"/><ellipse stroke="black" stroke-width="1" transform="rotate(-153.3241 -64.7618 456.6186)" cx="-64.7618" cy="456.6186" rx="5.5" ry="7" fill="white"/> <ellipse stroke="black" stroke-width="1" transform="rotate(-153.3241 -64.7618 456.6186)" cx="-64.7618" cy="450.6186" rx="3" ry="5" fill="black"/><ellipse stroke="black" stroke-width="1" transform="rotate(-149.9658 -77.55600000000004 444.98409000000004)" cx="-77.55600000000004" cy="444.98409000000004" rx="5.5" ry="7" fill="white"/> <ellipse stroke="black" stroke-width="1" transform="rotate(-149.9658 -77.55600000000004 444.98409000000004)" cx="-77.55600000000004" cy="438.98409000000004" rx="3" ry="5" fill="black"/><ellipse stroke="black" stroke-width="1" transform="rotate(-153.2164 -69.08339999999998 421.0176)" cx="-69.08339999999998" cy="421.0176" rx="5.5" ry="7" fill="white"/> <ellipse stroke="black" stroke-width="1" transform="rotate(-153.2164 -69.08339999999998 421.0176)" cx="-69.08339999999998" cy="415.0176" rx="3" ry="5" fill="black"/><ellipse stroke="black" stroke-width="1" transform="rotate(-151.6859 -95.26369999999997 399.45194)" cx="-95.26369999999997" cy="399.45194" rx="5.5" ry="7" fill="white"/> <ellipse stroke="black" stroke-width="1" transform="rotate(-151.6859 -95.26369999999997 399.45194)" cx="-95.26369999999997" cy="393.45194" rx="3" ry="5" fill="black"/><ellipse stroke="black" stroke-width="1" transform="rotate(-151.1672 -87.25149999999996 431.66574)" cx="-87.25149999999996" cy="431.66574" rx="5.5" ry="7" fill="white"/> <ellipse stroke="black" stroke-width="1" transform="rotate(-151.1672 -87.25149999999996 431.66574)" cx="-87.25149999999996" cy="425.66574" rx="3" ry="5" fill="black"/><ellipse stroke="black" stroke-width="1" transform="rotate(-154.4832 -48.966499999999996 413.67234)" cx="-48.966499999999996" cy="413.67234" rx="5.5" ry="7" fill="white"/> <ellipse stroke="black" stroke-width="1" transform="rotate(-154.4832 -48.966499999999996 413.67234)" cx="-48.966499999999996" cy="407.67234" rx="3" ry="5" fill="black"/><ellipse stroke="black" stroke-width="1" transform="rotate(-154.691 -35.983299999999986 426.40938)" cx="-35.983299999999986" cy="426.40938" rx="5.5" ry="7" fill="white"/> <ellipse stroke="black" stroke-width="1" transform="rotate(-154.691 -35.983299999999986 426.40938)" cx="-35.983299999999986" cy="420.40938" rx="3" ry="5" fill="black"/><ellipse stroke="black" stroke-width="1" transform="rotate(-146.2696 -42.87730000000005 462.7194)" cx="-42.87730000000005" cy="462.7194" rx="5.5" ry="7" fill="white"/> <ellipse stroke="black" stroke-width="1" transform="rotate(-146.2696 -42.87730000000005 462.7194)" cx="-42.87730000000005" cy="456.7194" rx="3" ry="5" fill="black"/><ellipse stroke="black" stroke-width="1" transform="rotate(-155.53 -38.96109999999999 399.66375)" cx="-38.96109999999999" cy="399.66375" rx="5.5" ry="7" fill="white"/> <ellipse stroke="black" stroke-width="1" transform="rotate(-155.53 -38.96109999999999 399.66375)" cx="-38.96109999999999" cy="393.66375" rx="3" ry="5" fill="black"/><ellipse stroke="black" stroke-width="1" transform="rotate(-159.9322 -23.31279999999998 416.20124)" cx="-23.31279999999998" cy="416.20124" rx="5.5" ry="7" fill="white"/> <ellipse stroke="black" stroke-width="1" transform="rotate(-159.9322 -23.31279999999998 416.20124)" cx="-23.31279999999998" cy="410.20124" rx="3" ry="5" fill="black"/><ellipse stroke="black" stroke-width="1" transform="rotate(-156.5917 -60.13640000000004 379.97942)" cx="-60.13640000000004" cy="379.97942" rx="5.5" ry="7" fill="white"/> <ellipse stroke="black" stroke-width="1" transform="rotate(-156.5917 -60.13640000000004 379.97942)" cx="-60.13640000000004" cy="373.97942" rx="3" ry="5" fill="black"/><ellipse stroke="black" stroke-width="1" transform="rotate(-151.039 -99.47299999999996 381.19887)" cx="-99.47299999999996" cy="381.19887" rx="5.5" ry="7" fill="white"/> <ellipse stroke="black" stroke-width="1" transform="rotate(-151.039 -99.47299999999996 381.19887)" cx="-99.47299999999996" cy="375.19887" rx="3" ry="5" fill="black"/><ellipse stroke="black" stroke-width="1" transform="rotate(-151.2458 -60.525800000000004 398.37698)" cx="-60.525800000000004" cy="398.37698" rx="5.5" ry="7" fill="white"/> <ellipse stroke="black" stroke-width="1" transform="rotate(-151.2458 -60.525800000000004 398.37698)" cx="-60.525800000000004" cy="392.37698" rx="3" ry="5" fill="black"/><ellipse stroke="black" stroke-width="1" transform="rotate(-151.636 -22.69599999999997 454.2599)" cx="-22.69599999999997" cy="454.2599" rx="5.5" ry="7" fill="white"/> <ellipse stroke="black" stroke-width="1" transform="rotate(-151.636 -22.69599999999997 454.2599)" cx="-22.69599999999997" cy="448.2599" rx="3" ry="5" fill="black"/><ellipse stroke="black" stroke-width="1" transform="rotate(-100.1124 54.4203 248.8736)" cx="54.4203" cy="248.8736" rx="5.5" ry="7" fill="white"/> <ellipse stroke="black" stroke-width="1" transform="rotate(-100.1124 54.4203 248.8736)" cx="54.4203" cy="242.8736" rx="3" ry="5" fill="black"/></svg>