<svg xmlns="http://www.w3.org/2000/svg" width="900.0" height="700.0"><rect stroke="transparent" x="150.0" y="150.0" width="600.0" height="400.0" fill="white"/><ellipse stroke="black" stroke-width="1" transform="rotate(-321.6989 318.09659999999997 378.26817)" cx="318.09659999999997" cy="378.26817" rx="5.5" ry="7" fill="white"/> <ellipse stroke="black" stroke-width="1" transform="rotate(-321.6989 318.09659999999997 378.26817)" cx="318.09659999999997" cy="372.26817" rx="3" ry="5" fill="black"/><ellipse stroke="black" stroke-width="1" transform="rotate(-319.5975 408.05878 408.38246)" cx="408.05878" cy="408.38246" rx="5.5" ry="7" fill="white"/> <ellipse stroke="black" stroke-width="1" transform="rotate(-319.5975 408.05878 408.38246)" cx="408.05878" cy="402.38246" rx="3" ry="5" fill="black"/><ellipse stroke="black" stroke-width="1" transform="rotate(-317.6073 338.25329999999997 374.32884)" cx="338.25329999999997" cy="374.32884" rx="5.5" ry="7" fill="white"/> <ellipse stroke="black" stroke-width="1" transform="rotate(-317.6073 338.25329999999997 374.32884)" cx="338.25329999999997" cy="368.32884" rx="3" ry="5" fill="black"/><ellipse stroke="black" stroke-width="1" transform="rotate(-312.6175 378.77878 422.19752)" cx="378.77878" cy="422.19752" rx="5.5" ry="7" fill="white"/> <ellipse stroke="black" stroke-width="1" transform="rotate(-312.6175 378.77878 422.19752)" cx="378.77878" cy="416.19752" rx="3" ry="5" fill="black"/><ellipse stroke="black" stroke-width="1" transform="rotate(-315.9233 350.04931999999997 396.83311)" cx="350.04931999999997" cy="396.83311" rx="5.5" ry="7" fill="white"/> <ellipse stroke="black" stroke-width="1" transform="rotate(-315.9233 350.04931999999997 396.83311)" cx="350.04931999999997" cy="390.83311" rx="3" ry="5" fill="black"/><ellipse stroke="black" stroke-width="1" transform="rotate(-317.2509 369.45744 364.68999)" cx="369.45744" cy="364.68999" rx="5.5" ry="7" fill="white"/> <ellipse stroke="black" stroke-width="1" transform="rotate(-317.2509 369.45744 364.68999)" cx="369.45744" cy="358.68999" rx="3" ry="5" fill="black"/><ellipse stroke="black" stroke-width="1" transform="rotate(-315.2079 359.39383 417.23739)" cx="359.39383" cy="417.23739" rx="5.5" ry="7" fill="white"/> <ellipse stroke="black" stroke-width="1" transform="rotate(-315.2079 359.39383 417.23739)" cx="359.39383" cy="411.23739" rx="3" ry="5" fill="black"/><ellipse stroke="black" stroke-width="1" transform="rotate(-316.4335 371.51113 436.10179)" cx="371.51113" cy="436.10179" rx="5.5" ry="7" fill="white"/> <ellipse stroke="black" stroke-width="1" transform="rotate(-316.4335 371.51113 436.10179)" cx="371.51113" cy="430.10179" rx="3" ry="5" fill="black"/><ellipse stroke="black" stroke-width="1" transform="rotate(-322.3666 331.74620000000004 394.89966)" cx="331.74620000000004" cy="394.89966" rx="5.5" ry="7" fill="white"/> <ellipse stroke="black" stroke-width="1" transform="rotate(-322.3666 331.74620000000004 394.89966)" cx="331.74620000000004" cy="388.89966" rx="3" ry="5" fill="black"/><ellipse stroke="black" stroke-width="1" transform="rotate(-316.7964 328.1976 357.060611)" cx="328.1976" cy="357.060611" rx="5.5" ry="7" fill="white"/> <ellipse stroke="black" stroke-width="1" transform="rotate(-316.7964 328.1976 357.060611)" cx="328.1976" cy="351.060611" rx="3" ry="5" fill="black"/><ellipse stroke="black" stroke-width="1" transform="rotate(-319.9585 341.4732 415.35018)" cx="341.4732" cy="415.35018" rx="5.5" ry="7" fill="white"/> <ellipse stroke="black" stroke-width="1" transform="rotate(-319.9585 341.4732 415.35018)" cx="341.4732" cy="409.35018" rx="3" ry="5" fill="black"/><ellipse stroke="black" stroke-width="1" transform="rotate(-315.9156 367.13736 402.95246)" cx="367.13736" cy="402.95246" rx="5.5" ry="7" fill="white"/> <ellipse stroke="black" stroke-width="1" transform="rotate(-315.9156 367.13736 402.95246)" cx="367.13736" cy="396.95246" rx="3" ry="5" fill="black"/><ellipse stroke="black" stroke-width="1" transform="rotate(-318.9232 387.4716 407.15049999999997)" cx="387.4716" cy="407.15049999999997" rx="5.5" ry="7" fill="white"/> <ellipse stroke="black" stroke-width="1" transform="rotate(-318.9232 387.4716 407.15049999999997)" cx="387.4716" cy="401.15049999999997" rx="3" ry="5" fill="black"/><ellipse stroke="black" stroke-width="1" transform="rotate(-315.1641 394.61286 440.46482)" cx="394.61286" cy="440.46482" rx="5.5" ry="7" fill="white"/> <ellipse stroke="black" stroke-width="1" transform="rotate(-315.1641 394.61286 440.46482)" cx="394.61286" cy="434.46482" rx="3" ry="5" fill="black"/><ellipse stroke="black" stroke-width="1" transform="rotate(-317.4087 387.20494 370.26011)" cx="387.20494" cy="370.26011" rx="5.5" ry="7" fill="white"/> <ellipse stroke="black" stroke-width="1" transform="rotate(-317.4087 387.20494 370.26011)" cx="387.20494" cy="364.26011" rx="3" ry="5" fill="black"/><ellipse stroke="black" stroke-width="1" transform="rotate(-318.4064 398.7951 386.84942)" cx="398.7951" cy="386.84942" rx="5.5" ry="7" fill="white"/> <ellipse stroke="black" stroke-width="1" transform="rotate(-318.4064 398.7951 386.84942)" cx="398.7951" cy="380.84942" rx="3" ry="5" fill="black"/><ellipse stroke="black" stroke-width="1" transform="rotate(-318.8822 377.08827 387.94051)" cx="377.08827" cy="387.94051" rx="5.5" ry="7" fill="white"/> <ellipse stroke="black" stroke-width="1" transform="rotate(-318.8822 377.08827 387.94051)" cx="377.08827" cy="381.94051" rx="3" ry="5" fill="black"/><ellipse stroke="black" stroke-width="1" transform="rotate(-314.8933 351.31935 357.70629)" cx="351.31935" cy="357.70629" rx="5.5" ry="7" fill="white"/> <ellipse stroke="black" stroke-width="1" transform="rotate(-314.8933 351.31935 357.70629)" cx="351.31935" cy="351.70629" rx="3" ry="5" fill="black"/><ellipse stroke="black" stroke-width="1" transform="rotate(-315.3155 356.66785000000004 382.27115)" cx="356.66785000000004" cy="382.27115" rx="5.5" ry="7" fill="white"/> <ellipse stroke="black" stroke-width="1" transform="rotate(-315.3155 356.66785000000004 382.27115)" cx="356.66785000000004" cy="376.27115" rx="3" ry="5" fill="black"/><ellipse stroke="black" stroke-width="1" transform="rotate(-316.409 403.46279 427.2674)" cx="403.46279" cy="427.2674" rx="5.5" ry="7" fill="white"/> <ellipse stroke="black" stroke-width="1" transform="rotate(-316.409 403.46279 427.2674)" cx="403.46279" cy="421.2674" rx="3" ry="5" fill="black"/><ellipse stroke="black" stroke-width="1" transform="rotate(-323.429 233.9436 539.8456)" cx="233.9436" cy="539.8456" rx="5.5" ry="7" fill="white"/> <ellipse stroke="black" stroke-width="1" transform="rotate(-323.429 233.9436 539.8456)" cx="233.9436" cy="533.8456" rx="3" ry="5" fill="black"/></svg>