<svg xmlns="http://www.w3.org/2000/svg" width="900.0" height="700.0"><rect stroke="transparent" x="150.0" y="150.0" width="600.0" height="400.0" fill="white"/><ellipse stroke="black" stroke-width="1" transform="rotate(-121.9687 278.2044 316.32115)" cx="278.2044" cy="316.32115" rx="5.5" ry="7" fill="white"/> <ellipse stroke="black" stroke-width="1" transform="rotate(-121.9687 278.2044 316.32115)" cx="278.2044" cy="310.32115" rx="3" ry="5" fill="black"/><ellipse stroke="black" stroke-width="1" transform="rotate(-72.12592 458.606399 349.466829)" cx="458.606399" cy="349.466829" rx="5.5" ry="7" fill="white"/> <ellipse stroke="black" stroke-width="1" transform="rotate(-72.12592 458.606399 349.466829)" cx="458.606399" cy="343.466829" rx="3" ry="5" fill="black"/><ellipse stroke="black" stroke-width="1" transform="rotate(-98.87936 333.8025 316.25847)" cx="333.8025" cy="316.25847" rx="5.5" ry="7" fill="white"/> <ellipse stroke="black" stroke-width="1" transform="rotate(-98.87936 333.8025 316.25847)" cx="333.8025" cy="310.25847" rx="3" ry="5" fill="black"/><ellipse stroke="black" stroke-width="1" transform="rotate(-62.73419 400.58491 373.67016)" cx="400.58491" cy="373.67016" rx="5.5" ry="7" fill="white"/> <ellipse stroke="black" stroke-width="1" transform="rotate(-62.73419 400.58491 373.67016)" cx="400.58491" cy="367.67016" rx="3" ry="5" fill="black"/><ellipse stroke="black" stroke-width="1" transform="rotate(-50.90161 363.96079 386.05369)" cx="363.96079" cy="386.05369" rx="5.5" ry="7" fill="white"/> <ellipse stroke="black" stroke-width="1" transform="rotate(-50.90161 363.96079 386.05369)" cx="363.96079" cy="380.05369" rx="3" ry="5" fill="black"/><ellipse stroke="black" stroke-width="1" transform="rotate(-131.1158 337.753 283.41973)" cx="337.753" cy="283.41973" rx="5.5" ry="7" fill="white"/> <ellipse stroke="black" stroke-width="1" transform="rotate(-131.1158 337.753 283.41973)" cx="337.753" cy="277.41973" rx="3" ry="5" fill="black"/><ellipse stroke="black" stroke-width="1" transform="rotate(-40.37135 344.726 420.01565)" cx="344.726" cy="420.01565" rx="5.5" ry="7" fill="white"/> <ellipse stroke="black" stroke-width="1" transform="rotate(-40.37135 344.726 420.01565)" cx="344.726" cy="414.01565" rx="3" ry="5" fill="black"/><ellipse stroke="black" stroke-width="1" transform="rotate(-37.18565 320.4498 400.72089)" cx="320.4498" cy="400.72089" rx="5.5" ry="7" fill="white"/> <ellipse stroke="black" stroke-width="1" transform="rotate(-37.18565 320.4498 400.72089)" cx="320.4498" cy="394.72089" rx="3" ry="5" fill="black"/><ellipse stroke="black" stroke-width="1" transform="rotate(-340.9797 298.3101 352.034089)" cx="298.3101" cy="352.034089" rx="5.5" ry="7" fill="white"/> <ellipse stroke="black" stroke-width="1" transform="rotate(-340.9797 298.3101 352.034089)" cx="298.3101" cy="346.034089" rx="3" ry="5" fill="black"/><ellipse stroke="black" stroke-width="1" transform="rotate(-141.1286 290.4425 278.02027)" cx="290.4425" cy="278.02027" rx="5.5" ry="7" fill="white"/> <ellipse stroke="black" stroke-width="1" transform="rotate(-141.1286 290.4425 278.02027)" cx="290.4425" cy="272.02027" rx="3" ry="5" fill="black"/><ellipse stroke="black" stroke-width="1" transform="rotate(-29.50513 290.1241 389.1071)" cx="290.1241" cy="389.1071" rx="5.5" ry="7" fill="white"/> <ellipse stroke="black" stroke-width="1" transform="rotate(-29.50513 290.1241 389.1071)" cx="290.1241" cy="383.1071" rx="3" ry="5" fill="black"/><ellipse stroke="black" stroke-width="1" transform="rotate(-68.6965 345.3806 348.211665)" cx="345.3806" cy="348.211665" rx="5.5" ry="7" fill="white"/> <ellipse stroke="black" stroke-width="1" transform="rotate(-68.6965 345.3806 348.211665)" cx="345.3806" cy="342.211665" rx="3" ry="5" fill="black"/><ellipse stroke="black" stroke-width="1" transform="rotate(-65.6761 377.62746 349.94951764)" cx="377.62746" cy="349.94951764" rx="5.5" ry="7" fill="white"/> <ellipse stroke="black" stroke-width="1" transform="rotate(-65.6761 377.62746 349.94951764)" cx="377.62746" cy="343.94951764" rx="3" ry="5" fill="black"/><ellipse stroke="black" stroke-width="1" transform="rotate(-64.84336 417.69974 387.49354)" cx="417.69974" cy="387.49354" rx="5.5" ry="7" fill="white"/> <ellipse stroke="black" stroke-width="1" transform="rotate(-64.84336 417.69974 387.49354)" cx="417.69974" cy="381.49354" rx="3" ry="5" fill="black"/><ellipse stroke="black" stroke-width="1" transform="rotate(-67.27186 415.9193 332.16019)" cx="415.9193" cy="332.16019" rx="5.5" ry="7" fill="white"/> <ellipse stroke="black" stroke-width="1" transform="rotate(-67.27186 415.9193 332.16019)" cx="415.9193" cy="326.16019" rx="3" ry="5" fill="black"/><ellipse stroke="black" stroke-width="1" transform="rotate(-70.73216 441.219183 336.57576)" cx="441.219183" cy="336.57576" rx="5.5" ry="7" fill="white"/> <ellipse stroke="black" stroke-width="1" transform="rotate(-70.73216 441.219183 336.57576)" cx="441.219183" cy="330.57576" rx="3" ry="5" fill="black"/><ellipse stroke="black" stroke-width="1" transform="rotate(-74.86588 468.70306 319.54479)" cx="468.70306" cy="319.54479" rx="5.5" ry="7" fill="white"/> <ellipse stroke="black" stroke-width="1" transform="rotate(-74.86588 468.70306 319.54479)" cx="468.70306" cy="313.54479" rx="3" ry="5" fill="black"/><ellipse stroke="black" stroke-width="1" transform="rotate(-82.55386 450.4513068 297.49215)" cx="450.4513068" cy="297.49215" rx="5.5" ry="7" fill="white"/> <ellipse stroke="black" stroke-width="1" transform="rotate(-82.55386 450.4513068 297.49215)" cx="450.4513068" cy="291.49215" rx="3" ry="5" fill="black"/><ellipse stroke="black" stroke-width="1" transform="rotate(-85.03495 383.03007 304.27282)" cx="383.03007" cy="304.27282" rx="5.5" ry="7" fill="white"/> <ellipse stroke="black" stroke-width="1" transform="rotate(-85.03495 383.03007 304.27282)" cx="383.03007" cy="298.27282" rx="3" ry="5" fill="black"/><ellipse stroke="black" stroke-width="1" transform="rotate(-70.07346 433.02188 362.75216)" cx="433.02188" cy="362.75216" rx="5.5" ry="7" fill="white"/> <ellipse stroke="black" stroke-width="1" transform="rotate(-70.07346 433.02188 362.75216)" cx="433.02188" cy="356.75216" rx="3" ry="5" fill="black"/><ellipse stroke="black" stroke-width="1" transform="rotate(-60.93786 754.9154 519.4489)" cx="754.9154" cy="519.4489" rx="5.5" ry="7" fill="white"/> <ellipse stroke="black" stroke-width="1" transform="rotate(-60.93786 754.9154 519.4489)" cx="754.9154" cy="513.4489" rx="3" ry="5" fill="black"/></svg>