<svg xmlns="http://www.w3.org/2000/svg" width="2000.0" height="2000.0"><rect stroke="transparent" x="150.0" y="150.0" width="2000.0" height="2000.0" fill="white"/><ellipse stroke="black" stroke-width="1" transform="rotate(-301.6975 835.0726 831.9585999999999)" cx="835.0726" cy="831.9585999999999" rx="5.5" ry="7" fill="white"/> <ellipse stroke="black" stroke-width="1" transform="rotate(-301.6975 835.0726 831.9585999999999)" cx="835.0726" cy="825.9585999999999" rx="3" ry="5" fill="black"/><ellipse stroke="black" stroke-width="1" transform="rotate(-299.4698 875.9891 838.4969)" cx="875.9891" cy="838.4969" rx="5.5" ry="7" fill="white"/> <ellipse stroke="black" stroke-width="1" transform="rotate(-299.4698 875.9891 838.4969)" cx="875.9891" cy="832.4969" rx="3" ry="5" fill="black"/><ellipse stroke="black" stroke-width="1" transform="rotate(-285.2952 919.72037 845.2159)" cx="919.72037" cy="845.2159" rx="5.5" ry="7" fill="white"/> <ellipse stroke="black" stroke-width="1" transform="rotate(-285.2952 919.72037 845.2159)" cx="919.72037" cy="839.2159" rx="3" ry="5" fill="black"/><ellipse stroke="black" stroke-width="1" transform="rotate(-273.7061 962.96484 850.231)" cx="962.96484" cy="850.231" rx="5.5" ry="7" fill="white"/> <ellipse stroke="black" stroke-width="1" transform="rotate(-273.7061 962.96484 850.231)" cx="962.96484" cy="844.231" rx="3" ry="5" fill="black"/><ellipse stroke="black" stroke-width="1" transform="rotate(-261.0364 1006.734459 853.7662)" cx="1006.734459" cy="853.7662" rx="5.5" ry="7" fill="white"/> <ellipse stroke="black" stroke-width="1" transform="rotate(-261.0364 1006.734459 853.7662)" cx="1006.734459" cy="847.7662" rx="3" ry="5" fill="black"/><ellipse stroke="black" stroke-width="1" transform="rotate(-235.1067 1051.95521 855.9383)" cx="1051.95521" cy="855.9383" rx="5.5" ry="7" fill="white"/> <ellipse stroke="black" stroke-width="1" transform="rotate(-235.1067 1051.95521 855.9383)" cx="1051.95521" cy="849.9383" rx="3" ry="5" fill="black"/><ellipse stroke="black" stroke-width="1" transform="rotate(-203.8096 1098.47869 856.9194)" cx="1098.47869" cy="856.9194" rx="5.5" ry="7" fill="white"/> <ellipse stroke="black" stroke-width="1" transform="rotate(-203.8096 1098.47869 856.9194)" cx="1098.47869" cy="850.9194" rx="3" ry="5" fill="black"/><ellipse stroke="black" stroke-width="1" transform="rotate(-180.882 1145.8978 856.9541)" cx="1145.8978" cy="856.9541" rx="5.5" ry="7" fill="white"/> <ellipse stroke="black" stroke-width="1" transform="rotate(-180.882 1145.8978 856.9541)" cx="1145.8978" cy="850.9541" rx="3" ry="5" fill="black"/><ellipse stroke="black" stroke-width="1" transform="rotate(-171.3259 1193.6467 856.4063)" cx="1193.6467" cy="856.4063" rx="5.5" ry="7" fill="white"/> <ellipse stroke="black" stroke-width="1" transform="rotate(-171.3259 1193.6467 856.4063)" cx="1193.6467" cy="850.4063" rx="3" ry="5" fill="black"/><ellipse stroke="black" stroke-width="1" transform="rotate(-167.6277 1240.881 855.5512)" cx="1240.881" cy="855.5512" rx="5.5" ry="7" fill="white"/> <ellipse stroke="black" stroke-width="1" transform="rotate(-167.6277 1240.881 855.5512)" cx="1240.881" cy="849.5512" rx="3" ry="5" fill="black"/><ellipse stroke="black" stroke-width="1" transform="rotate(-162.8055 1287.15 854.3984)" cx="1287.15" cy="854.3984" rx="5.5" ry="7" fill="white"/> <ellipse stroke="black" stroke-width="1" transform="rotate(-162.8055 1287.15 854.3984)" cx="1287.15" cy="848.3984" rx="3" ry="5" fill="black"/><ellipse stroke="black" stroke-width="1" transform="rotate(-158.6724 1333.2464 853.6614999999999)" cx="1333.2464" cy="853.6614999999999" rx="5.5" ry="7" fill="white"/> <ellipse stroke="black" stroke-width="1" transform="rotate(-158.6724 1333.2464 853.6614999999999)" cx="1333.2464" cy="847.6614999999999" rx="3" ry="5" fill="black"/><ellipse stroke="black" stroke-width="1" transform="rotate(-308.6714 857.1958 843.2298)" cx="857.1958" cy="843.2298" rx="5.5" ry="7" fill="white"/> <ellipse stroke="black" stroke-width="1" transform="rotate(-308.6714 857.1958 843.2298)" cx="857.1958" cy="837.2298" rx="3" ry="5" fill="black"/><ellipse stroke="black" stroke-width="1" transform="rotate(-310.4786 899.101 851.2655)" cx="899.101" cy="851.2655" rx="5.5" ry="7" fill="white"/> <ellipse stroke="black" stroke-width="1" transform="rotate(-310.4786 899.101 851.2655)" cx="899.101" cy="845.2655" rx="3" ry="5" fill="black"/><ellipse stroke="black" stroke-width="1" transform="rotate(-295.9773 943.69988 858.9286999999999)" cx="943.69988" cy="858.9286999999999" rx="5.5" ry="7" fill="white"/> <ellipse stroke="black" stroke-width="1" transform="rotate(-295.9773 943.69988 858.9286999999999)" cx="943.69988" cy="852.9286999999999" rx="3" ry="5" fill="black"/><ellipse stroke="black" stroke-width="1" transform="rotate(-281.2756 986.84089 864.6203)" cx="986.84089" cy="864.6203" rx="5.5" ry="7" fill="white"/> <ellipse stroke="black" stroke-width="1" transform="rotate(-281.2756 986.84089 864.6203)" cx="986.84089" cy="858.6203" rx="3" ry="5" fill="black"/><ellipse stroke="black" stroke-width="1" transform="rotate(-265.028 1030.44938 868.568)" cx="1030.44938" cy="868.568" rx="5.5" ry="7" fill="white"/> <ellipse stroke="black" stroke-width="1" transform="rotate(-265.028 1030.44938 868.568)" cx="1030.44938" cy="862.568" rx="3" ry="5" fill="black"/><ellipse stroke="black" stroke-width="1" transform="rotate(-236.4457 1075.59844 870.7965)" cx="1075.59844" cy="870.7965" rx="5.5" ry="7" fill="white"/> <ellipse stroke="black" stroke-width="1" transform="rotate(-236.4457 1075.59844 870.7965)" cx="1075.59844" cy="864.7965" rx="3" ry="5" fill="black"/><ellipse stroke="black" stroke-width="1" transform="rotate(-198.8496 1122.2049 871.7479)" cx="1122.2049" cy="871.7479" rx="5.5" ry="7" fill="white"/> <ellipse stroke="black" stroke-width="1" transform="rotate(-198.8496 1122.2049 871.7479)" cx="1122.2049" cy="865.7479" rx="3" ry="5" fill="black"/><ellipse stroke="black" stroke-width="1" transform="rotate(-175.6191 1169.6004 871.6831)" cx="1169.6004" cy="871.6831" rx="5.5" ry="7" fill="white"/> <ellipse stroke="black" stroke-width="1" transform="rotate(-175.6191 1169.6004 871.6831)" cx="1169.6004" cy="865.6831" rx="3" ry="5" fill="black"/><ellipse stroke="black" stroke-width="1" transform="rotate(-168.3324 1217.0541 871.0642)" cx="1217.0541" cy="871.0642" rx="5.5" ry="7" fill="white"/> <ellipse stroke="black" stroke-width="1" transform="rotate(-168.3324 1217.0541 871.0642)" cx="1217.0541" cy="865.0642" rx="3" ry="5" fill="black"/><ellipse stroke="black" stroke-width="1" transform="rotate(-163.683 1263.7425 870.1726)" cx="1263.7425" cy="870.1726" rx="5.5" ry="7" fill="white"/> <ellipse stroke="black" stroke-width="1" transform="rotate(-163.683 1263.7425 870.1726)" cx="1263.7425" cy="864.1726" rx="3" ry="5" fill="black"/><ellipse stroke="black" stroke-width="1" transform="rotate(-157.894 1309.2939000000001 869.002)" cx="1309.2939000000001" cy="869.002" rx="5.5" ry="7" fill="white"/> <ellipse stroke="black" stroke-width="1" transform="rotate(-157.894 1309.2939000000001 869.002)" cx="1309.2939000000001" cy="863.002" rx="3" ry="5" fill="black"/><ellipse stroke="black" stroke-width="1" transform="rotate(-308.743 840.5179 846.6933)" cx="840.5179" cy="846.6933" rx="5.5" ry="7" fill="white"/> <ellipse stroke="black" stroke-width="1" transform="rotate(-308.743 840.5179 846.6933)" cx="840.5179" cy="840.6933" rx="3" ry="5" fill="black"/><ellipse stroke="black" stroke-width="1" transform="rotate(-313.9294 877.9274 854.9438)" cx="877.9274" cy="854.9438" rx="5.5" ry="7" fill="white"/> <ellipse stroke="black" stroke-width="1" transform="rotate(-313.9294 877.9274 854.9438)" cx="877.9274" cy="848.9438" rx="3" ry="5" fill="black"/><ellipse stroke="black" stroke-width="1" transform="rotate(-310.0697 922.05982 864.2245)" cx="922.05982" cy="864.2245" rx="5.5" ry="7" fill="white"/> <ellipse stroke="black" stroke-width="1" transform="rotate(-310.0697 922.05982 864.2245)" cx="922.05982" cy="858.2245" rx="3" ry="5" fill="black"/><ellipse stroke="black" stroke-width="1" transform="rotate(-302.6122 966.05494 872.3665)" cx="966.05494" cy="872.3665" rx="5.5" ry="7" fill="white"/> <ellipse stroke="black" stroke-width="1" transform="rotate(-302.6122 966.05494 872.3665)" cx="966.05494" cy="866.3665" rx="3" ry="5" fill="black"/><ellipse stroke="black" stroke-width="1" transform="rotate(-291.3391 1010.09928 878.7570000000001)" cx="1010.09928" cy="878.7570000000001" rx="5.5" ry="7" fill="white"/> <ellipse stroke="black" stroke-width="1" transform="rotate(-291.3391 1010.09928 878.7570000000001)" cx="1010.09928" cy="872.7570000000001" rx="3" ry="5" fill="black"/><ellipse stroke="black" stroke-width="1" transform="rotate(-275.785 1054.2924 883.2379)" cx="1054.2924" cy="883.2379" rx="5.5" ry="7" fill="white"/> <ellipse stroke="black" stroke-width="1" transform="rotate(-275.785 1054.2924 883.2379)" cx="1054.2924" cy="877.2379" rx="3" ry="5" fill="black"/><ellipse stroke="black" stroke-width="1" transform="rotate(-236.7521 1099.24623 885.6887)" cx="1099.24623" cy="885.6887" rx="5.5" ry="7" fill="white"/> <ellipse stroke="black" stroke-width="1" transform="rotate(-236.7521 1099.24623 885.6887)" cx="1099.24623" cy="879.6887" rx="3" ry="5" fill="black"/><ellipse stroke="black" stroke-width="1" transform="rotate(-191.5701 1145.8127 886.5622)" cx="1145.8127" cy="886.5622" rx="5.5" ry="7" fill="white"/> <ellipse stroke="black" stroke-width="1" transform="rotate(-191.5701 1145.8127 886.5622)" cx="1145.8127" cy="880.5622" rx="3" ry="5" fill="black"/><ellipse stroke="black" stroke-width="1" transform="rotate(-169.9895 1193.1166 886.3764)" cx="1193.1166" cy="886.3764" rx="5.5" ry="7" fill="white"/> <ellipse stroke="black" stroke-width="1" transform="rotate(-169.9895 1193.1166 886.3764)" cx="1193.1166" cy="880.3764" rx="3" ry="5" fill="black"/><ellipse stroke="black" stroke-width="1" transform="rotate(-164.1692 1240.1421 885.6864)" cx="1240.1421" cy="885.6864" rx="5.5" ry="7" fill="white"/> <ellipse stroke="black" stroke-width="1" transform="rotate(-164.1692 1240.1421 885.6864)" cx="1240.1421" cy="879.6864" rx="3" ry="5" fill="black"/><ellipse stroke="black" stroke-width="1" transform="rotate(-158.3289 1286.1657 884.7853)" cx="1286.1657" cy="884.7853" rx="5.5" ry="7" fill="white"/> <ellipse stroke="black" stroke-width="1" transform="rotate(-158.3289 1286.1657 884.7853)" cx="1286.1657" cy="878.7853" rx="3" ry="5" fill="black"/><ellipse stroke="black" stroke-width="1" transform="rotate(-154.3878 1332.9938 883.5071)" cx="1332.9938" cy="883.5071" rx="5.5" ry="7" fill="white"/> <ellipse stroke="black" stroke-width="1" transform="rotate(-154.3878 1332.9938 883.5071)" cx="1332.9938" cy="877.5071" rx="3" ry="5" fill="black"/><ellipse stroke="black" stroke-width="1" transform="rotate(-315.1358 861.9269 858.8226999999999)" cx="861.9269" cy="858.8226999999999" rx="5.5" ry="7" fill="white"/> <ellipse stroke="black" stroke-width="1" transform="rotate(-315.1358 861.9269 858.8226999999999)" cx="861.9269" cy="852.8226999999999" rx="3" ry="5" fill="black"/><ellipse stroke="black" stroke-width="1" transform="rotate(-318.8903 901.78321 869.0629)" cx="901.78321" cy="869.0629" rx="5.5" ry="7" fill="white"/> <ellipse stroke="black" stroke-width="1" transform="rotate(-318.8903 901.78321 869.0629)" cx="901.78321" cy="863.0629" rx="3" ry="5" fill="black"/><ellipse stroke="black" stroke-width="1" transform="rotate(-313.2489 945.75198 879.3252)" cx="945.75198" cy="879.3252" rx="5.5" ry="7" fill="white"/> <ellipse stroke="black" stroke-width="1" transform="rotate(-313.2489 945.75198 879.3252)" cx="945.75198" cy="873.3252" rx="3" ry="5" fill="black"/><ellipse stroke="black" stroke-width="1" transform="rotate(-306.5491 989.32319 888.024)" cx="989.32319" cy="888.024" rx="5.5" ry="7" fill="white"/> <ellipse stroke="black" stroke-width="1" transform="rotate(-306.5491 989.32319 888.024)" cx="989.32319" cy="882.024" rx="3" ry="5" fill="black"/><ellipse stroke="black" stroke-width="1" transform="rotate(-298.0388 1033.0915 894.7536)" cx="1033.0915" cy="894.7536" rx="5.5" ry="7" fill="white"/> <ellipse stroke="black" stroke-width="1" transform="rotate(-298.0388 1033.0915 894.7536)" cx="1033.0915" cy="888.7536" rx="3" ry="5" fill="black"/><ellipse stroke="black" stroke-width="1" transform="rotate(-277.7639 1077.44555 899.3559)" cx="1077.44555" cy="899.3559" rx="5.5" ry="7" fill="white"/> <ellipse stroke="black" stroke-width="1" transform="rotate(-277.7639 1077.44555 899.3559)" cx="1077.44555" cy="893.3559" rx="3" ry="5" fill="black"/><ellipse stroke="black" stroke-width="1" transform="rotate(-229.4579 1122.7492 901.91275)" cx="1122.7492" cy="901.91275" rx="5.5" ry="7" fill="white"/> <ellipse stroke="black" stroke-width="1" transform="rotate(-229.4579 1122.7492 901.91275)" cx="1122.7492" cy="895.91275" rx="3" ry="5" fill="black"/><ellipse stroke="black" stroke-width="1" transform="rotate(-181.7148 1169.3392 902.64395)" cx="1169.3392" cy="902.64395" rx="5.5" ry="7" fill="white"/> <ellipse stroke="black" stroke-width="1" transform="rotate(-181.7148 1169.3392 902.64395)" cx="1169.3392" cy="896.64395" rx="3" ry="5" fill="black"/><ellipse stroke="black" stroke-width="1" transform="rotate(-164.8737 1216.4668 902.32309)" cx="1216.4668" cy="902.32309" rx="5.5" ry="7" fill="white"/> <ellipse stroke="black" stroke-width="1" transform="rotate(-164.8737 1216.4668 902.32309)" cx="1216.4668" cy="896.32309" rx="3" ry="5" fill="black"/><ellipse stroke="black" stroke-width="1" transform="rotate(-159.0811 1262.9535 901.64439)" cx="1262.9535" cy="901.64439" rx="5.5" ry="7" fill="white"/> <ellipse stroke="black" stroke-width="1" transform="rotate(-159.0811 1262.9535 901.64439)" cx="1262.9535" cy="895.64439" rx="3" ry="5" fill="black"/><ellipse stroke="black" stroke-width="1" transform="rotate(-153.2018 1309.3064 899.932)" cx="1309.3064" cy="899.932" rx="5.5" ry="7" fill="white"/> <ellipse stroke="black" stroke-width="1" transform="rotate(-153.2018 1309.3064 899.932)" cx="1309.3064" cy="893.932" rx="3" ry="5" fill="black"/><polygon stroke="black" stroke-width="2" transform="rotate(-299.3577 687.7214 1175.658)" points="679.7214 1185.658 695.7214 1185.658 687.7214 1165.658" fill="grey"/></svg>