<svg xmlns="http://www.w3.org/2000/svg" width="2000.0" height="2000.0"><rect stroke="transparent" x="150.0" y="150.0" width="2000.0" height="2000.0" fill="white"/><ellipse stroke="black" stroke-width="1" transform="rotate(-334.7403 885.5228999999999 773.7723)" cx="885.5228999999999" cy="773.7723" rx="5.5" ry="7" fill="white"/> <ellipse stroke="black" stroke-width="1" transform="rotate(-334.7403 885.5228999999999 773.7723)" cx="885.5228999999999" cy="767.7723" rx="3" ry="5" fill="black"/><ellipse stroke="black" stroke-width="1" transform="rotate(-340.1645 920.2103 778.5719)" cx="920.2103" cy="778.5719" rx="5.5" ry="7" fill="white"/> <ellipse stroke="black" stroke-width="1" transform="rotate(-340.1645 920.2103 778.5719)" cx="920.2103" cy="772.5719" rx="3" ry="5" fill="black"/><ellipse stroke="black" stroke-width="1" transform="rotate(-341.2027 965.14174 790.8679)" cx="965.14174" cy="790.8679" rx="5.5" ry="7" fill="white"/> <ellipse stroke="black" stroke-width="1" transform="rotate(-341.2027 965.14174 790.8679)" cx="965.14174" cy="784.8679" rx="3" ry="5" fill="black"/><ellipse stroke="black" stroke-width="1" transform="rotate(-320.8368 1021.04091 809.3213000000001)" cx="1021.04091" cy="809.3213000000001" rx="5.5" ry="7" fill="white"/> <ellipse stroke="black" stroke-width="1" transform="rotate(-320.8368 1021.04091 809.3213000000001)" cx="1021.04091" cy="803.3213000000001" rx="3" ry="5" fill="black"/><ellipse stroke="black" stroke-width="1" transform="rotate(-309.4155 1067.76526 826.418)" cx="1067.76526" cy="826.418" rx="5.5" ry="7" fill="white"/> <ellipse stroke="black" stroke-width="1" transform="rotate(-309.4155 1067.76526 826.418)" cx="1067.76526" cy="820.418" rx="3" ry="5" fill="black"/><ellipse stroke="black" stroke-width="1" transform="rotate(-302.9037 1107.9275 841.2858)" cx="1107.9275" cy="841.2858" rx="5.5" ry="7" fill="white"/> <ellipse stroke="black" stroke-width="1" transform="rotate(-302.9037 1107.9275 841.2858)" cx="1107.9275" cy="835.2858" rx="3" ry="5" fill="black"/><ellipse stroke="black" stroke-width="1" transform="rotate(-292.2327 1146.7302 853.5017)" cx="1146.7302" cy="853.5017" rx="5.5" ry="7" fill="white"/> <ellipse stroke="black" stroke-width="1" transform="rotate(-292.2327 1146.7302 853.5017)" cx="1146.7302" cy="847.5017" rx="3" ry="5" fill="black"/><ellipse stroke="black" stroke-width="1" transform="rotate(-280.1119 1182.2358 861.9925000000001)" cx="1182.2358" cy="861.9925000000001" rx="5.5" ry="7" fill="white"/> <ellipse stroke="black" stroke-width="1" transform="rotate(-280.1119 1182.2358 861.9925000000001)" cx="1182.2358" cy="855.9925000000001" rx="3" ry="5" fill="black"/><ellipse stroke="black" stroke-width="1" transform="rotate(-273.7086 1216.5016 867.0986)" cx="1216.5016" cy="867.0986" rx="5.5" ry="7" fill="white"/> <ellipse stroke="black" stroke-width="1" transform="rotate(-273.7086 1216.5016 867.0986)" cx="1216.5016" cy="861.0986" rx="3" ry="5" fill="black"/><ellipse stroke="black" stroke-width="1" transform="rotate(-268.2067 1251.4627 869.8494000000001)" cx="1251.4627" cy="869.8494000000001" rx="5.5" ry="7" fill="white"/> <ellipse stroke="black" stroke-width="1" transform="rotate(-268.2067 1251.4627 869.8494000000001)" cx="1251.4627" cy="863.8494000000001" rx="3" ry="5" fill="black"/><ellipse stroke="black" stroke-width="1" transform="rotate(-251.4809 1288.5725 870.9253)" cx="1288.5725" cy="870.9253" rx="5.5" ry="7" fill="white"/> <ellipse stroke="black" stroke-width="1" transform="rotate(-251.4809 1288.5725 870.9253)" cx="1288.5725" cy="864.9253" rx="3" ry="5" fill="black"/><ellipse stroke="black" stroke-width="1" transform="rotate(-204.0863 1327.7229 871.5627)" cx="1327.7229" cy="871.5627" rx="5.5" ry="7" fill="white"/> <ellipse stroke="black" stroke-width="1" transform="rotate(-204.0863 1327.7229 871.5627)" cx="1327.7229" cy="865.5627" rx="3" ry="5" fill="black"/><ellipse stroke="black" stroke-width="1" transform="rotate(-339.3397 904.20374 777.3323)" cx="904.20374" cy="777.3323" rx="5.5" ry="7" fill="white"/> <ellipse stroke="black" stroke-width="1" transform="rotate(-339.3397 904.20374 777.3323)" cx="904.20374" cy="771.3323" rx="3" ry="5" fill="black"/><ellipse stroke="black" stroke-width="1" transform="rotate(-345.5919 938.09863 785.6815)" cx="938.09863" cy="785.6815" rx="5.5" ry="7" fill="white"/> <ellipse stroke="black" stroke-width="1" transform="rotate(-345.5919 938.09863 785.6815)" cx="938.09863" cy="779.6815" rx="3" ry="5" fill="black"/><ellipse stroke="black" stroke-width="1" transform="rotate(-334.2328 993.315254 803.1302000000001)" cx="993.315254" cy="803.1302000000001" rx="5.5" ry="7" fill="white"/> <ellipse stroke="black" stroke-width="1" transform="rotate(-334.2328 993.315254 803.1302000000001)" cx="993.315254" cy="797.1302000000001" rx="3" ry="5" fill="black"/><ellipse stroke="black" stroke-width="1" transform="rotate(-317.3841 1046.28181 822.7132)" cx="1046.28181" cy="822.7132" rx="5.5" ry="7" fill="white"/> <ellipse stroke="black" stroke-width="1" transform="rotate(-317.3841 1046.28181 822.7132)" cx="1046.28181" cy="816.7132" rx="3" ry="5" fill="black"/><ellipse stroke="black" stroke-width="1" transform="rotate(-305.6675 1090.95683 839.8878)" cx="1090.95683" cy="839.8878" rx="5.5" ry="7" fill="white"/> <ellipse stroke="black" stroke-width="1" transform="rotate(-305.6675 1090.95683 839.8878)" cx="1090.95683" cy="833.8878" rx="3" ry="5" fill="black"/><ellipse stroke="black" stroke-width="1" transform="rotate(-294.7034 1131.0485 854.7167999999999)" cx="1131.0485" cy="854.7167999999999" rx="5.5" ry="7" fill="white"/> <ellipse stroke="black" stroke-width="1" transform="rotate(-294.7034 1131.0485 854.7167999999999)" cx="1131.0485" cy="848.7167999999999" rx="3" ry="5" fill="black"/><ellipse stroke="black" stroke-width="1" transform="rotate(-291.907 1167.2514 866.2217)" cx="1167.2514" cy="866.2217" rx="5.5" ry="7" fill="white"/> <ellipse stroke="black" stroke-width="1" transform="rotate(-291.907 1167.2514 866.2217)" cx="1167.2514" cy="860.2217" rx="3" ry="5" fill="black"/><ellipse stroke="black" stroke-width="1" transform="rotate(-284.7099 1201.4664 874.1951)" cx="1201.4664" cy="874.1951" rx="5.5" ry="7" fill="white"/> <ellipse stroke="black" stroke-width="1" transform="rotate(-284.7099 1201.4664 874.1951)" cx="1201.4664" cy="868.1951" rx="3" ry="5" fill="black"/><ellipse stroke="black" stroke-width="1" transform="rotate(-276.6117 1236.17 879.6945000000001)" cx="1236.17" cy="879.6945000000001" rx="5.5" ry="7" fill="white"/> <ellipse stroke="black" stroke-width="1" transform="rotate(-276.6117 1236.17 879.6945000000001)" cx="1236.17" cy="873.6945000000001" rx="3" ry="5" fill="black"/><ellipse stroke="black" stroke-width="1" transform="rotate(-270.4628 1271.0828999999999 882.7062)" cx="1271.0828999999999" cy="882.7062" rx="5.5" ry="7" fill="white"/> <ellipse stroke="black" stroke-width="1" transform="rotate(-270.4628 1271.0828999999999 882.7062)" cx="1271.0828999999999" cy="876.7062" rx="3" ry="5" fill="black"/><ellipse stroke="black" stroke-width="1" transform="rotate(-249.7824 1307.0082 883.7183)" cx="1307.0082" cy="883.7183" rx="5.5" ry="7" fill="white"/> <ellipse stroke="black" stroke-width="1" transform="rotate(-249.7824 1307.0082 883.7183)" cx="1307.0082" cy="877.7183" rx="3" ry="5" fill="black"/><ellipse stroke="black" stroke-width="1" transform="rotate(-335.5092 894.1314 782.4336)" cx="894.1314" cy="782.4336" rx="5.5" ry="7" fill="white"/> <ellipse stroke="black" stroke-width="1" transform="rotate(-335.5092 894.1314 782.4336)" cx="894.1314" cy="776.4336" rx="3" ry="5" fill="black"/><ellipse stroke="black" stroke-width="1" transform="rotate(-339.5397 924.75959 788.6791)" cx="924.75959" cy="788.6791" rx="5.5" ry="7" fill="white"/> <ellipse stroke="black" stroke-width="1" transform="rotate(-339.5397 924.75959 788.6791)" cx="924.75959" cy="782.6791" rx="3" ry="5" fill="black"/><ellipse stroke="black" stroke-width="1" transform="rotate(-335.1095 968.1198 801.8795)" cx="968.1198" cy="801.8795" rx="5.5" ry="7" fill="white"/> <ellipse stroke="black" stroke-width="1" transform="rotate(-335.1095 968.1198 801.8795)" cx="968.1198" cy="795.8795" rx="3" ry="5" fill="black"/><ellipse stroke="black" stroke-width="1" transform="rotate(-315.8198 1023.90347 820.8558)" cx="1023.90347" cy="820.8558" rx="5.5" ry="7" fill="white"/> <ellipse stroke="black" stroke-width="1" transform="rotate(-315.8198 1023.90347 820.8558)" cx="1023.90347" cy="814.8558" rx="3" ry="5" fill="black"/><ellipse stroke="black" stroke-width="1" transform="rotate(-308.9978 1068.70936 838.2189)" cx="1068.70936" cy="838.2189" rx="5.5" ry="7" fill="white"/> <ellipse stroke="black" stroke-width="1" transform="rotate(-308.9978 1068.70936 838.2189)" cx="1068.70936" cy="832.2189" rx="3" ry="5" fill="black"/><ellipse stroke="black" stroke-width="1" transform="rotate(-301.3037 1108.9893 854.0552)" cx="1108.9893" cy="854.0552" rx="5.5" ry="7" fill="white"/> <ellipse stroke="black" stroke-width="1" transform="rotate(-301.3037 1108.9893 854.0552)" cx="1108.9893" cy="848.0552" rx="3" ry="5" fill="black"/><ellipse stroke="black" stroke-width="1" transform="rotate(-296.5569 1146.3057 867.6294)" cx="1146.3057" cy="867.6294" rx="5.5" ry="7" fill="white"/> <ellipse stroke="black" stroke-width="1" transform="rotate(-296.5569 1146.3057 867.6294)" cx="1146.3057" cy="861.6294" rx="3" ry="5" fill="black"/><ellipse stroke="black" stroke-width="1" transform="rotate(-289.9713 1182.9287 878.3741)" cx="1182.9287" cy="878.3741" rx="5.5" ry="7" fill="white"/> <ellipse stroke="black" stroke-width="1" transform="rotate(-289.9713 1182.9287 878.3741)" cx="1182.9287" cy="872.3741" rx="3" ry="5" fill="black"/><ellipse stroke="black" stroke-width="1" transform="rotate(-285.6222 1218.5287 886.4424)" cx="1218.5287" cy="886.4424" rx="5.5" ry="7" fill="white"/> <ellipse stroke="black" stroke-width="1" transform="rotate(-285.6222 1218.5287 886.4424)" cx="1218.5287" cy="880.4424" rx="3" ry="5" fill="black"/><ellipse stroke="black" stroke-width="1" transform="rotate(-280.152 1254.6392 892.1098)" cx="1254.6392" cy="892.1098" rx="5.5" ry="7" fill="white"/> <ellipse stroke="black" stroke-width="1" transform="rotate(-280.152 1254.6392 892.1098)" cx="1254.6392" cy="886.1098" rx="3" ry="5" fill="black"/><ellipse stroke="black" stroke-width="1" transform="rotate(-276.6164 1290.1601 895.3107)" cx="1290.1601" cy="895.3107" rx="5.5" ry="7" fill="white"/> <ellipse stroke="black" stroke-width="1" transform="rotate(-276.6164 1290.1601 895.3107)" cx="1290.1601" cy="889.3107" rx="3" ry="5" fill="black"/><ellipse stroke="black" stroke-width="1" transform="rotate(-216.7723 1328.2039 896.6164)" cx="1328.2039" cy="896.6164" rx="5.5" ry="7" fill="white"/> <ellipse stroke="black" stroke-width="1" transform="rotate(-216.7723 1328.2039 896.6164)" cx="1328.2039" cy="890.6164" rx="3" ry="5" fill="black"/><ellipse stroke="black" stroke-width="1" transform="rotate(-339.432 912.36331 788.7604)" cx="912.36331" cy="788.7604" rx="5.5" ry="7" fill="white"/> <ellipse stroke="black" stroke-width="1" transform="rotate(-339.432 912.36331 788.7604)" cx="912.36331" cy="782.7604" rx="3" ry="5" fill="black"/><ellipse stroke="black" stroke-width="1" transform="rotate(-341.2695 945.41783 796.3759)" cx="945.41783" cy="796.3759" rx="5.5" ry="7" fill="white"/> <ellipse stroke="black" stroke-width="1" transform="rotate(-341.2695 945.41783 796.3759)" cx="945.41783" cy="790.3759" rx="3" ry="5" fill="black"/><ellipse stroke="black" stroke-width="1" transform="rotate(-325.7739 1000.560474 814.6675)" cx="1000.560474" cy="814.6675" rx="5.5" ry="7" fill="white"/> <ellipse stroke="black" stroke-width="1" transform="rotate(-325.7739 1000.560474 814.6675)" cx="1000.560474" cy="808.6675" rx="3" ry="5" fill="black"/><ellipse stroke="black" stroke-width="1" transform="rotate(-310.7844 1053.31261 835.6944)" cx="1053.31261" cy="835.6944" rx="5.5" ry="7" fill="white"/> <ellipse stroke="black" stroke-width="1" transform="rotate(-310.7844 1053.31261 835.6944)" cx="1053.31261" cy="829.6944" rx="3" ry="5" fill="black"/><ellipse stroke="black" stroke-width="1" transform="rotate(-305.8186 1094.10272 853.5291)" cx="1094.10272" cy="853.5291" rx="5.5" ry="7" fill="white"/> <ellipse stroke="black" stroke-width="1" transform="rotate(-305.8186 1094.10272 853.5291)" cx="1094.10272" cy="847.5291" rx="3" ry="5" fill="black"/><ellipse stroke="black" stroke-width="1" transform="rotate(-300.1652 1131.9332 869.2319)" cx="1131.9332" cy="869.2319" rx="5.5" ry="7" fill="white"/> <ellipse stroke="black" stroke-width="1" transform="rotate(-300.1652 1131.9332 869.2319)" cx="1131.9332" cy="863.2319" rx="3" ry="5" fill="black"/><ellipse stroke="black" stroke-width="1" transform="rotate(-295.3176 1167.9164 882.5056)" cx="1167.9164" cy="882.5056" rx="5.5" ry="7" fill="white"/> <ellipse stroke="black" stroke-width="1" transform="rotate(-295.3176 1167.9164 882.5056)" cx="1167.9164" cy="876.5056" rx="3" ry="5" fill="black"/><ellipse stroke="black" stroke-width="1" transform="rotate(-291.9504 1202.6632 893.0307)" cx="1202.6632" cy="893.0307" rx="5.5" ry="7" fill="white"/> <ellipse stroke="black" stroke-width="1" transform="rotate(-291.9504 1202.6632 893.0307)" cx="1202.6632" cy="887.0307" rx="3" ry="5" fill="black"/><ellipse stroke="black" stroke-width="1" transform="rotate(-290.4359 1237.2566 900.88233)" cx="1237.2566" cy="900.88233" rx="5.5" ry="7" fill="white"/> <ellipse stroke="black" stroke-width="1" transform="rotate(-290.4359 1237.2566 900.88233)" cx="1237.2566" cy="894.88233" rx="3" ry="5" fill="black"/><ellipse stroke="black" stroke-width="1" transform="rotate(-287.5005 1272.4391 906.36703)" cx="1272.4391" cy="906.36703" rx="5.5" ry="7" fill="white"/> <ellipse stroke="black" stroke-width="1" transform="rotate(-287.5005 1272.4391 906.36703)" cx="1272.4391" cy="900.36703" rx="3" ry="5" fill="black"/><ellipse stroke="black" stroke-width="1" transform="rotate(-259.871 1308.6462999999999 908.73927)" cx="1308.6462999999999" cy="908.73927" rx="5.5" ry="7" fill="white"/> <ellipse stroke="black" stroke-width="1" transform="rotate(-259.871 1308.6462999999999 908.73927)" cx="1308.6462999999999" cy="902.73927" rx="3" ry="5" fill="black"/><polygon stroke="black" stroke-width="2" transform="rotate(-299.3578 881.3849 1066.72181)" points="873.3849 1076.72181 889.3849 1076.72181 881.3849 1056.72181" fill="grey"/></svg>