<svg xmlns="http://www.w3.org/2000/svg" width="1200.0" height="800.0"><ellipse stroke="black" stroke-width="1" transform="rotate(-347.0213 506.82646 533.8285)" cx="506.82646" cy="533.8285" rx="5.5" ry="7" fill="transparent"/> <ellipse stroke="black" stroke-width="1" transform="rotate(-347.0213 506.82646 533.8285)" cx="506.82646" cy="527.8285" rx="3" ry="5" fill="black"/><ellipse stroke="black" stroke-width="1" transform="rotate(-180.6029 403.4228 321.21848)" cx="403.4228" cy="321.21848" rx="5.5" ry="7" fill="transparent"/> <ellipse stroke="black" stroke-width="1" transform="rotate(-180.6029 403.4228 321.21848)" cx="403.4228" cy="315.21848" rx="3" ry="5" fill="black"/><ellipse stroke="black" stroke-width="1" transform="rotate(-358.0671 418.94960000000003 530.6451)" cx="418.94960000000003" cy="530.6451" rx="5.5" ry="7" fill="transparent"/> <ellipse stroke="black" stroke-width="1" transform="rotate(-358.0671 418.94960000000003 530.6451)" cx="418.94960000000003" cy="524.6451" rx="3" ry="5" fill="black"/><ellipse stroke="black" stroke-width="1" transform="rotate(-0.148643 474.0279 508.6719)" cx="474.0279" cy="508.6719" rx="5.5" ry="7" fill="transparent"/> <ellipse stroke="black" stroke-width="1" transform="rotate(-0.148643 474.0279 508.6719)" cx="474.0279" cy="502.6719" rx="3" ry="5" fill="black"/><ellipse stroke="black" stroke-width="1" transform="rotate(-112.0622 701.4234 400.3265659)" cx="701.4234" cy="400.3265659" rx="5.5" ry="7" fill="transparent"/> <ellipse stroke="black" stroke-width="1" transform="rotate(-112.0622 701.4234 400.3265659)" cx="701.4234" cy="394.3265659" rx="3" ry="5" fill="black"/><ellipse stroke="black" stroke-width="1" transform="rotate(-163.4364 511.7264 267.25440000000003)" cx="511.7264" cy="267.25440000000003" rx="5.5" ry="7" fill="transparent"/> <ellipse stroke="black" stroke-width="1" transform="rotate(-163.4364 511.7264 267.25440000000003)" cx="511.7264" cy="261.25440000000003" rx="3" ry="5" fill="black"/><ellipse stroke="black" stroke-width="1" transform="rotate(-168.229 639.23549 278.3688)" cx="639.23549" cy="278.3688" rx="5.5" ry="7" fill="transparent"/> <ellipse stroke="black" stroke-width="1" transform="rotate(-168.229 639.23549 278.3688)" cx="639.23549" cy="272.3688" rx="3" ry="5" fill="black"/><ellipse stroke="black" stroke-width="1" transform="rotate(-216.0205 441.3872 343.97165)" cx="441.3872" cy="343.97165" rx="5.5" ry="7" fill="transparent"/> <ellipse stroke="black" stroke-width="1" transform="rotate(-216.0205 441.3872 343.97165)" cx="441.3872" cy="337.97165" rx="3" ry="5" fill="black"/><ellipse stroke="black" stroke-width="1" transform="rotate(-191.9696 427.9277 384.48753)" cx="427.9277" cy="384.48753" rx="5.5" ry="7" fill="transparent"/> <ellipse stroke="black" stroke-width="1" transform="rotate(-191.9696 427.9277 384.48753)" cx="427.9277" cy="378.48753" rx="3" ry="5" fill="black"/><ellipse stroke="black" stroke-width="1" transform="rotate(-173.2854 691.14727 259.0699)" cx="691.14727" cy="259.0699" rx="5.5" ry="7" fill="transparent"/> <ellipse stroke="black" stroke-width="1" transform="rotate(-173.2854 691.14727 259.0699)" cx="691.14727" cy="253.06990000000002" rx="3" ry="5" fill="black"/><ellipse stroke="black" stroke-width="1" transform="rotate(-190.8889 584.63041 266.96709999999996)" cx="584.63041" cy="266.96709999999996" rx="5.5" ry="7" fill="transparent"/> <ellipse stroke="black" stroke-width="1" transform="rotate(-190.8889 584.63041 266.96709999999996)" cx="584.63041" cy="260.96709999999996" rx="3" ry="5" fill="black"/><ellipse stroke="black" stroke-width="1" transform="rotate(-15.21449 642.61644 475.3891)" cx="642.61644" cy="475.3891" rx="5.5" ry="7" fill="transparent"/> <ellipse stroke="black" stroke-width="1" transform="rotate(-15.21449 642.61644 475.3891)" cx="642.61644" cy="469.3891" rx="3" ry="5" fill="black"/><ellipse stroke="black" stroke-width="1" transform="rotate(-167.6964 672.9436900000001 327.53249)" cx="672.9436900000001" cy="327.53249" rx="5.5" ry="7" fill="transparent"/> <ellipse stroke="black" stroke-width="1" transform="rotate(-167.6964 672.9436900000001 327.53249)" cx="672.9436900000001" cy="321.53249" rx="3" ry="5" fill="black"/><ellipse stroke="black" stroke-width="1" transform="rotate(-152.7249 775.7938 261.0419)" cx="775.7938" cy="261.0419" rx="5.5" ry="7" fill="transparent"/> <ellipse stroke="black" stroke-width="1" transform="rotate(-152.7249 775.7938 261.0419)" cx="775.7938" cy="255.0419" rx="3" ry="5" fill="black"/><ellipse stroke="black" stroke-width="1" transform="rotate(-178.7264 542.41784 329.85751)" cx="542.41784" cy="329.85751" rx="5.5" ry="7" fill="transparent"/> <ellipse stroke="black" stroke-width="1" transform="rotate(-178.7264 542.41784 329.85751)" cx="542.41784" cy="323.85751" rx="3" ry="5" fill="black"/><ellipse stroke="black" stroke-width="1" transform="rotate(-30.3299 644.66014 420.36527)" cx="644.66014" cy="420.36527" rx="5.5" ry="7" fill="transparent"/> <ellipse stroke="black" stroke-width="1" transform="rotate(-30.3299 644.66014 420.36527)" cx="644.66014" cy="414.36527" rx="3" ry="5" fill="black"/><ellipse stroke="black" stroke-width="1" transform="rotate(-177.7602 549.1398 270.5508)" cx="549.1398" cy="270.5508" rx="5.5" ry="7" fill="transparent"/> <ellipse stroke="black" stroke-width="1" transform="rotate(-177.7602 549.1398 270.5508)" cx="549.1398" cy="264.5508" rx="3" ry="5" fill="black"/><ellipse stroke="black" stroke-width="1" transform="rotate(-1.44299 554.78281 462.79762)" cx="554.78281" cy="462.79762" rx="5.5" ry="7" fill="transparent"/> <ellipse stroke="black" stroke-width="1" transform="rotate(-1.44299 554.78281 462.79762)" cx="554.78281" cy="456.79762" rx="3" ry="5" fill="black"/><ellipse stroke="black" stroke-width="1" transform="rotate(-178.743 551.73089 233.18439999999998)" cx="551.73089" cy="233.18439999999998" rx="5.5" ry="7" fill="transparent"/> <ellipse stroke="black" stroke-width="1" transform="rotate(-178.743 551.73089 233.18439999999998)" cx="551.73089" cy="227.18439999999998" rx="3" ry="5" fill="black"/><polygon stroke="black" stroke-width="2" transform="rotate(-8.307781 713.4575 530.6558)" points="705.4575 540.6558 721.4575 540.6558 713.4575 520.6558" fill="grey"/></svg>