<svg xmlns="http://www.w3.org/2000/svg" width="900.0" height="700.0"><rect stroke="transparent" x="150.0" y="150.0" width="600.0" height="400.0" fill="white"/><ellipse stroke="black" stroke-width="1" transform="rotate(-175.1304 -120.55150000000003 511.5219)" cx="-120.55150000000003" cy="511.5219" rx="5.5" ry="7" fill="white"/> <ellipse stroke="black" stroke-width="1" transform="rotate(-175.1304 -120.55150000000003 511.5219)" cx="-120.55150000000003" cy="505.5219" rx="3" ry="5" fill="black"/><ellipse stroke="black" stroke-width="1" transform="rotate(-177.0395 -35.236500000000035 525.1251)" cx="-35.236500000000035" cy="525.1251" rx="5.5" ry="7" fill="white"/> <ellipse stroke="black" stroke-width="1" transform="rotate(-177.0395 -35.236500000000035 525.1251)" cx="-35.236500000000035" cy="519.1251" rx="3" ry="5" fill="black"/><ellipse stroke="black" stroke-width="1" transform="rotate(-171.9077 -99.894 500.4595)" cx="-99.894" cy="500.4595" rx="5.5" ry="7" fill="white"/> <ellipse stroke="black" stroke-width="1" transform="rotate(-171.9077 -99.894 500.4595)" cx="-99.894" cy="494.4595" rx="3" ry="5" fill="black"/><ellipse stroke="black" stroke-width="1" transform="rotate(-176.8822 -61.39870000000002 527.6335)" cx="-61.39870000000002" cy="527.6335" rx="5.5" ry="7" fill="white"/> <ellipse stroke="black" stroke-width="1" transform="rotate(-176.8822 -61.39870000000002 527.6335)" cx="-61.39870000000002" cy="521.6335" rx="3" ry="5" fill="black"/><ellipse stroke="black" stroke-width="1" transform="rotate(-176.838 -80.46939999999995 525.5249)" cx="-80.46939999999995" cy="525.5249" rx="5.5" ry="7" fill="white"/> <ellipse stroke="black" stroke-width="1" transform="rotate(-176.838 -80.46939999999995 525.5249)" cx="-80.46939999999995" cy="519.5249" rx="3" ry="5" fill="black"/><ellipse stroke="black" stroke-width="1" transform="rotate(-172.8555 -103.91470000000004 485.2138)" cx="-103.91470000000004" cy="485.2138" rx="5.5" ry="7" fill="white"/> <ellipse stroke="black" stroke-width="1" transform="rotate(-172.8555 -103.91470000000004 485.2138)" cx="-103.91470000000004" cy="479.2138" rx="3" ry="5" fill="black"/><ellipse stroke="black" stroke-width="1" transform="rotate(-176.3421 -85.11830000000009 540.4752)" cx="-85.11830000000009" cy="540.4752" rx="5.5" ry="7" fill="white"/> <ellipse stroke="black" stroke-width="1" transform="rotate(-176.3421 -85.11830000000009 540.4752)" cx="-85.11830000000009" cy="534.4752" rx="3" ry="5" fill="black"/><ellipse stroke="black" stroke-width="1" transform="rotate(-181.575 -101.22000000000003 548.014)" cx="-101.22000000000003" cy="548.014" rx="5.5" ry="7" fill="white"/> <ellipse stroke="black" stroke-width="1" transform="rotate(-181.575 -101.22000000000003 548.014)" cx="-101.22000000000003" cy="542.014" rx="3" ry="5" fill="black"/><ellipse stroke="black" stroke-width="1" transform="rotate(-172.6594 -96.79719999999998 516.1936000000001)" cx="-96.79719999999998" cy="516.1936000000001" rx="5.5" ry="7" fill="white"/> <ellipse stroke="black" stroke-width="1" transform="rotate(-172.6594 -96.79719999999998 516.1936000000001)" cx="-96.79719999999998" cy="510.19360000000006" rx="3" ry="5" fill="black"/><ellipse stroke="black" stroke-width="1" transform="rotate(-167.8026 -123.58349999999996 498.558)" cx="-123.58349999999996" cy="498.558" rx="5.5" ry="7" fill="white"/> <ellipse stroke="black" stroke-width="1" transform="rotate(-167.8026 -123.58349999999996 498.558)" cx="-123.58349999999996" cy="492.558" rx="3" ry="5" fill="black"/><ellipse stroke="black" stroke-width="1" transform="rotate(-174.6596 -112.27660000000003 530.1115)" cx="-112.27660000000003" cy="530.1115" rx="5.5" ry="7" fill="white"/> <ellipse stroke="black" stroke-width="1" transform="rotate(-174.6596 -112.27660000000003 530.1115)" cx="-112.27660000000003" cy="524.1115" rx="3" ry="5" fill="black"/><ellipse stroke="black" stroke-width="1" transform="rotate(-171.5221 -76.57680000000005 508.7194)" cx="-76.57680000000005" cy="508.7194" rx="5.5" ry="7" fill="white"/> <ellipse stroke="black" stroke-width="1" transform="rotate(-171.5221 -76.57680000000005 508.7194)" cx="-76.57680000000005" cy="502.7194" rx="3" ry="5" fill="black"/><ellipse stroke="black" stroke-width="1" transform="rotate(-175.1886 -56.09929999999997 510.5796)" cx="-56.09929999999997" cy="510.5796" rx="5.5" ry="7" fill="white"/> <ellipse stroke="black" stroke-width="1" transform="rotate(-175.1886 -56.09929999999997 510.5796)" cx="-56.09929999999997" cy="504.5796" rx="3" ry="5" fill="black"/><ellipse stroke="black" stroke-width="1" transform="rotate(-175.036 -68.2695 549.8371)" cx="-68.2695" cy="549.8371" rx="5.5" ry="7" fill="white"/> <ellipse stroke="black" stroke-width="1" transform="rotate(-175.036 -68.2695 549.8371)" cx="-68.2695" cy="543.8371" rx="3" ry="5" fill="black"/><ellipse stroke="black" stroke-width="1" transform="rotate(-178.6047 -57.391700000000014 494.81510000000003)" cx="-57.391700000000014" cy="494.81510000000003" rx="5.5" ry="7" fill="white"/> <ellipse stroke="black" stroke-width="1" transform="rotate(-178.6047 -57.391700000000014 494.81510000000003)" cx="-57.391700000000014" cy="488.81510000000003" rx="3" ry="5" fill="black"/><ellipse stroke="black" stroke-width="1" transform="rotate(-178.839 -35.761300000000006 508.5209)" cx="-35.761300000000006" cy="508.5209" rx="5.5" ry="7" fill="white"/> <ellipse stroke="black" stroke-width="1" transform="rotate(-178.839 -35.761300000000006 508.5209)" cx="-35.761300000000006" cy="502.5209" rx="3" ry="5" fill="black"/><ellipse stroke="black" stroke-width="1" transform="rotate(-176.7348 -79.91039999999998 478.1861)" cx="-79.91039999999998" cy="478.1861" rx="5.5" ry="7" fill="white"/> <ellipse stroke="black" stroke-width="1" transform="rotate(-176.7348 -79.91039999999998 478.1861)" cx="-79.91039999999998" cy="472.1861" rx="3" ry="5" fill="black"/><ellipse stroke="black" stroke-width="1" transform="rotate(-173.7567 -127.9819 484.8968)" cx="-127.9819" cy="484.8968" rx="5.5" ry="7" fill="white"/> <ellipse stroke="black" stroke-width="1" transform="rotate(-173.7567 -127.9819 484.8968)" cx="-127.9819" cy="478.8968" rx="3" ry="5" fill="black"/><ellipse stroke="black" stroke-width="1" transform="rotate(-176.1954 -79.96749999999997 491.5149)" cx="-79.96749999999997" cy="491.5149" rx="5.5" ry="7" fill="white"/> <ellipse stroke="black" stroke-width="1" transform="rotate(-176.1954 -79.96749999999997 491.5149)" cx="-79.96749999999997" cy="485.5149" rx="3" ry="5" fill="black"/><ellipse stroke="black" stroke-width="1" transform="rotate(-171.7455 -46.57569999999998 540.4016)" cx="-46.57569999999998" cy="540.4016" rx="5.5" ry="7" fill="white"/> <ellipse stroke="black" stroke-width="1" transform="rotate(-171.7455 -46.57569999999998 540.4016)" cx="-46.57569999999998" cy="534.4016" rx="3" ry="5" fill="black"/><ellipse stroke="black" stroke-width="1" transform="rotate(-146.0726 -39.88869999999997 326.73827)" cx="-39.88869999999997" cy="326.73827" rx="5.5" ry="7" fill="white"/> <ellipse stroke="black" stroke-width="1" transform="rotate(-146.0726 -39.88869999999997 326.73827)" cx="-39.88869999999997" cy="320.73827" rx="3" ry="5" fill="black"/></svg>