<svg xmlns="http://www.w3.org/2000/svg" width="900.0" height="700.0"><rect stroke="transparent" x="150.0" y="150.0" width="600.0" height="400.0" fill="white"/><ellipse stroke="black" stroke-width="1" transform="rotate(-97.90826 271.4806 318.88179)" cx="271.4806" cy="318.88179" rx="5.5" ry="7" fill="white"/> <ellipse stroke="black" stroke-width="1" transform="rotate(-97.90826 271.4806 318.88179)" cx="271.4806" cy="312.88179" rx="3" ry="5" fill="black"/><ellipse stroke="black" stroke-width="1" transform="rotate(-78.96537 400.34208 333.55448)" cx="400.34208" cy="333.55448" rx="5.5" ry="7" fill="white"/> <ellipse stroke="black" stroke-width="1" transform="rotate(-78.96537 400.34208 333.55448)" cx="400.34208" cy="327.55448" rx="3" ry="5" fill="black"/><ellipse stroke="black" stroke-width="1" transform="rotate(-80.04491 314.493 315.4956)" cx="314.493" cy="315.4956" rx="5.5" ry="7" fill="white"/> <ellipse stroke="black" stroke-width="1" transform="rotate(-80.04491 314.493 315.4956)" cx="314.493" cy="309.4956" rx="3" ry="5" fill="black"/><ellipse stroke="black" stroke-width="1" transform="rotate(-70.78191 355.65715 355.742527)" cx="355.65715" cy="355.742527" rx="5.5" ry="7" fill="white"/> <ellipse stroke="black" stroke-width="1" transform="rotate(-70.78191 355.65715 355.742527)" cx="355.65715" cy="349.742527" rx="3" ry="5" fill="black"/><ellipse stroke="black" stroke-width="1" transform="rotate(-58.73734 332.767 364.52391)" cx="332.767" cy="364.52391" rx="5.5" ry="7" fill="white"/> <ellipse stroke="black" stroke-width="1" transform="rotate(-58.73734 332.767 364.52391)" cx="332.767" cy="358.52391" rx="3" ry="5" fill="black"/><ellipse stroke="black" stroke-width="1" transform="rotate(-89.85513 323.3695 285.41132)" cx="323.3695" cy="285.41132" rx="5.5" ry="7" fill="white"/> <ellipse stroke="black" stroke-width="1" transform="rotate(-89.85513 323.3695 285.41132)" cx="323.3695" cy="279.41132" rx="3" ry="5" fill="black"/><ellipse stroke="black" stroke-width="1" transform="rotate(-47.12273 322.6424 395.61118999999997)" cx="322.6424" cy="395.61118999999997" rx="5.5" ry="7" fill="white"/> <ellipse stroke="black" stroke-width="1" transform="rotate(-47.12273 322.6424 395.61118999999997)" cx="322.6424" cy="389.61118999999997" rx="3" ry="5" fill="black"/><ellipse stroke="black" stroke-width="1" transform="rotate(-40.03375 306.0263 381.46712)" cx="306.0263" cy="381.46712" rx="5.5" ry="7" fill="white"/> <ellipse stroke="black" stroke-width="1" transform="rotate(-40.03375 306.0263 381.46712)" cx="306.0263" cy="375.46712" rx="3" ry="5" fill="black"/><ellipse stroke="black" stroke-width="1" transform="rotate(-49.0811 289.4857 342.827368)" cx="289.4857" cy="342.827368" rx="5.5" ry="7" fill="white"/> <ellipse stroke="black" stroke-width="1" transform="rotate(-49.0811 289.4857 342.827368)" cx="289.4857" cy="336.827368" rx="3" ry="5" fill="black"/><ellipse stroke="black" stroke-width="1" transform="rotate(-113.7907 284.043 281.52153)" cx="284.043" cy="281.52153" rx="5.5" ry="7" fill="white"/> <ellipse stroke="black" stroke-width="1" transform="rotate(-113.7907 284.043 281.52153)" cx="284.043" cy="275.52153" rx="3" ry="5" fill="black"/><ellipse stroke="black" stroke-width="1" transform="rotate(-42.90679 278.70000000000005 374.72133)" cx="278.70000000000005" cy="374.72133" rx="5.5" ry="7" fill="white"/> <ellipse stroke="black" stroke-width="1" transform="rotate(-42.90679 278.70000000000005 374.72133)" cx="278.70000000000005" cy="368.72133" rx="3" ry="5" fill="black"/><ellipse stroke="black" stroke-width="1" transform="rotate(-67.45177 322.3238 337.69867)" cx="322.3238" cy="337.69867" rx="5.5" ry="7" fill="white"/> <ellipse stroke="black" stroke-width="1" transform="rotate(-67.45177 322.3238 337.69867)" cx="322.3238" cy="331.69867" rx="3" ry="5" fill="black"/><ellipse stroke="black" stroke-width="1" transform="rotate(-63.62282 343.7558 334.56001)" cx="343.7558" cy="334.56001" rx="5.5" ry="7" fill="white"/> <ellipse stroke="black" stroke-width="1" transform="rotate(-63.62282 343.7558 334.56001)" cx="343.7558" cy="328.56001" rx="3" ry="5" fill="black"/><ellipse stroke="black" stroke-width="1" transform="rotate(-72.2979 368.7962 369.03026)" cx="368.7962" cy="369.03026" rx="5.5" ry="7" fill="white"/> <ellipse stroke="black" stroke-width="1" transform="rotate(-72.2979 368.7962 369.03026)" cx="368.7962" cy="363.03026" rx="3" ry="5" fill="black"/><ellipse stroke="black" stroke-width="1" transform="rotate(-73.02799 367.73065 317.13107)" cx="367.73065" cy="317.13107" rx="5.5" ry="7" fill="white"/> <ellipse stroke="black" stroke-width="1" transform="rotate(-73.02799 367.73065 317.13107)" cx="367.73065" cy="311.13107" rx="3" ry="5" fill="black"/><ellipse stroke="black" stroke-width="1" transform="rotate(-72.00575 386.93527 317.51822)" cx="386.93527" cy="317.51822" rx="5.5" ry="7" fill="white"/> <ellipse stroke="black" stroke-width="1" transform="rotate(-72.00575 386.93527 317.51822)" cx="386.93527" cy="311.51822" rx="3" ry="5" fill="black"/><ellipse stroke="black" stroke-width="1" transform="rotate(-76.41567 409.62093 304.27746)" cx="409.62093" cy="304.27746" rx="5.5" ry="7" fill="white"/> <ellipse stroke="black" stroke-width="1" transform="rotate(-76.41567 409.62093 304.27746)" cx="409.62093" cy="298.27746" rx="3" ry="5" fill="black"/><ellipse stroke="black" stroke-width="1" transform="rotate(-76.64176 393.92439 286.23847)" cx="393.92439" cy="286.23847" rx="5.5" ry="7" fill="white"/> <ellipse stroke="black" stroke-width="1" transform="rotate(-76.64176 393.92439 286.23847)" cx="393.92439" cy="280.23847" rx="3" ry="5" fill="black"/><ellipse stroke="black" stroke-width="1" transform="rotate(-80.47357 348.8359 300.27404)" cx="348.8359" cy="300.27404" rx="5.5" ry="7" fill="white"/> <ellipse stroke="black" stroke-width="1" transform="rotate(-80.47357 348.8359 300.27404)" cx="348.8359" cy="294.27404" rx="3" ry="5" fill="black"/><ellipse stroke="black" stroke-width="1" transform="rotate(-74.37842 376.35381 343.350738)" cx="376.35381" cy="343.350738" rx="5.5" ry="7" fill="white"/> <ellipse stroke="black" stroke-width="1" transform="rotate(-74.37842 376.35381 343.350738)" cx="376.35381" cy="337.350738" rx="3" ry="5" fill="black"/><ellipse stroke="black" stroke-width="1" transform="rotate(-60.93809 677.995 476.7025)" cx="677.995" cy="476.7025" rx="5.5" ry="7" fill="white"/> <ellipse stroke="black" stroke-width="1" transform="rotate(-60.93809 677.995 476.7025)" cx="677.995" cy="470.7025" rx="3" ry="5" fill="black"/></svg>