<svg xmlns="http://www.w3.org/2000/svg" width="900.0" height="700.0"><rect stroke="transparent" x="150.0" y="150.0" width="600.0" height="400.0" fill="white"/><ellipse stroke="black" stroke-width="1" transform="rotate(-317.8826 344.4238 347.03177900000003)" cx="344.4238" cy="347.03177900000003" rx="5.5" ry="7" fill="white"/> <ellipse stroke="black" stroke-width="1" transform="rotate(-317.8826 344.4238 347.03177900000003)" cx="344.4238" cy="341.03177900000003" rx="3" ry="5" fill="black"/><ellipse stroke="black" stroke-width="1" transform="rotate(-317.5125 433.65981 379.03994)" cx="433.65981" cy="379.03994" rx="5.5" ry="7" fill="white"/> <ellipse stroke="black" stroke-width="1" transform="rotate(-317.5125 433.65981 379.03994)" cx="433.65981" cy="373.03994" rx="3" ry="5" fill="black"/><ellipse stroke="black" stroke-width="1" transform="rotate(-313.9029 366.20018 347.74035)" cx="366.20018" cy="347.74035" rx="5.5" ry="7" fill="white"/> <ellipse stroke="black" stroke-width="1" transform="rotate(-313.9029 366.20018 347.74035)" cx="366.20018" cy="341.74035" rx="3" ry="5" fill="black"/><ellipse stroke="black" stroke-width="1" transform="rotate(-313.8277 405.70939 397.09136)" cx="405.70939" cy="397.09136" rx="5.5" ry="7" fill="white"/> <ellipse stroke="black" stroke-width="1" transform="rotate(-313.8277 405.70939 397.09136)" cx="405.70939" cy="391.09136" rx="3" ry="5" fill="black"/><ellipse stroke="black" stroke-width="1" transform="rotate(-315.2009 374.11006 372.4463)" cx="374.11006" cy="372.4463" rx="5.5" ry="7" fill="white"/> <ellipse stroke="black" stroke-width="1" transform="rotate(-315.2009 374.11006 372.4463)" cx="374.11006" cy="366.4463" rx="3" ry="5" fill="black"/><ellipse stroke="black" stroke-width="1" transform="rotate(-314.3653 395.24718 338.60955)" cx="395.24718" cy="338.60955" rx="5.5" ry="7" fill="white"/> <ellipse stroke="black" stroke-width="1" transform="rotate(-314.3653 395.24718 338.60955)" cx="395.24718" cy="332.60955" rx="3" ry="5" fill="black"/><ellipse stroke="black" stroke-width="1" transform="rotate(-314.6749 385.1319 392.14686)" cx="385.1319" cy="392.14686" rx="5.5" ry="7" fill="white"/> <ellipse stroke="black" stroke-width="1" transform="rotate(-314.6749 385.1319 392.14686)" cx="385.1319" cy="386.14686" rx="3" ry="5" fill="black"/><ellipse stroke="black" stroke-width="1" transform="rotate(-316.8339 396.40661 410.23935)" cx="396.40661" cy="410.23935" rx="5.5" ry="7" fill="white"/> <ellipse stroke="black" stroke-width="1" transform="rotate(-316.8339 396.40661 410.23935)" cx="396.40661" cy="404.23935" rx="3" ry="5" fill="black"/><ellipse stroke="black" stroke-width="1" transform="rotate(-318.6535 356.17489 365.03075)" cx="356.17489" cy="365.03075" rx="5.5" ry="7" fill="white"/> <ellipse stroke="black" stroke-width="1" transform="rotate(-318.6535 356.17489 365.03075)" cx="356.17489" cy="359.03075" rx="3" ry="5" fill="black"/><ellipse stroke="black" stroke-width="1" transform="rotate(-314.7345 355.63963 328.85123)" cx="355.63963" cy="328.85123" rx="5.5" ry="7" fill="white"/> <ellipse stroke="black" stroke-width="1" transform="rotate(-314.7345 355.63963 328.85123)" cx="355.63963" cy="322.85123" rx="3" ry="5" fill="black"/><ellipse stroke="black" stroke-width="1" transform="rotate(-316.8445 366.51997 387.4882)" cx="366.51997" cy="387.4882" rx="5.5" ry="7" fill="white"/> <ellipse stroke="black" stroke-width="1" transform="rotate(-316.8445 366.51997 387.4882)" cx="366.51997" cy="381.4882" rx="3" ry="5" fill="black"/><ellipse stroke="black" stroke-width="1" transform="rotate(-314.4439 392.21704 378.0536)" cx="392.21704" cy="378.0536" rx="5.5" ry="7" fill="white"/> <ellipse stroke="black" stroke-width="1" transform="rotate(-314.4439 392.21704 378.0536)" cx="392.21704" cy="372.0536" rx="3" ry="5" fill="black"/><ellipse stroke="black" stroke-width="1" transform="rotate(-314.7219 412.72283 380.31849)" cx="412.72283" cy="380.31849" rx="5.5" ry="7" fill="white"/> <ellipse stroke="black" stroke-width="1" transform="rotate(-314.7219 412.72283 380.31849)" cx="412.72283" cy="374.31849" rx="3" ry="5" fill="black"/><ellipse stroke="black" stroke-width="1" transform="rotate(-315.0887 421.66888 413.55764)" cx="421.66888" cy="413.55764" rx="5.5" ry="7" fill="white"/> <ellipse stroke="black" stroke-width="1" transform="rotate(-315.0887 421.66888 413.55764)" cx="421.66888" cy="407.55764" rx="3" ry="5" fill="black"/><ellipse stroke="black" stroke-width="1" transform="rotate(-315.0627 412.7712 344.476845)" cx="412.7712" cy="344.476845" rx="5.5" ry="7" fill="white"/> <ellipse stroke="black" stroke-width="1" transform="rotate(-315.0627 412.7712 344.476845)" cx="412.7712" cy="338.476845" rx="3" ry="5" fill="black"/><ellipse stroke="black" stroke-width="1" transform="rotate(-316.4666 424.55761 359.101222)" cx="424.55761" cy="359.101222" rx="5.5" ry="7" fill="white"/> <ellipse stroke="black" stroke-width="1" transform="rotate(-316.4666 424.55761 359.101222)" cx="424.55761" cy="353.101222" rx="3" ry="5" fill="black"/><ellipse stroke="black" stroke-width="1" transform="rotate(-315.1436 401.42822 362.39138)" cx="401.42822" cy="362.39138" rx="5.5" ry="7" fill="white"/> <ellipse stroke="black" stroke-width="1" transform="rotate(-315.1436 401.42822 362.39138)" cx="401.42822" cy="356.39138" rx="3" ry="5" fill="black"/><ellipse stroke="black" stroke-width="1" transform="rotate(-314.8116 378.15609 331.32643)" cx="378.15609" cy="331.32643" rx="5.5" ry="7" fill="white"/> <ellipse stroke="black" stroke-width="1" transform="rotate(-314.8116 378.15609 331.32643)" cx="378.15609" cy="325.32643" rx="3" ry="5" fill="black"/><ellipse stroke="black" stroke-width="1" transform="rotate(-313.9998 382.51831 357.100622)" cx="382.51831" cy="357.100622" rx="5.5" ry="7" fill="white"/> <ellipse stroke="black" stroke-width="1" transform="rotate(-313.9998 382.51831 357.100622)" cx="382.51831" cy="351.100622" rx="3" ry="5" fill="black"/><ellipse stroke="black" stroke-width="1" transform="rotate(-315.9466 429.6428 399.27054)" cx="429.6428" cy="399.27054" rx="5.5" ry="7" fill="white"/> <ellipse stroke="black" stroke-width="1" transform="rotate(-315.9466 429.6428 399.27054)" cx="429.6428" cy="393.27054" rx="3" ry="5" fill="black"/><ellipse stroke="black" stroke-width="1" transform="rotate(-323.4231 244.4954 525.6225)" cx="244.4954" cy="525.6225" rx="5.5" ry="7" fill="white"/> <ellipse stroke="black" stroke-width="1" transform="rotate(-323.4231 244.4954 525.6225)" cx="244.4954" cy="519.6225" rx="3" ry="5" fill="black"/></svg>