<svg xmlns="http://www.w3.org/2000/svg" width="1200.0" height="800.0"><ellipse stroke="black" stroke-width="1" transform="rotate(-344.9713 516.38126 494.71584)" cx="516.38126" cy="494.71584" rx="5.5" ry="7" fill="transparent"/> <ellipse stroke="black" stroke-width="1" transform="rotate(-344.9713 516.38126 494.71584)" cx="516.38126" cy="488.71584" rx="3" ry="5" fill="black"/><ellipse stroke="black" stroke-width="1" transform="rotate(-181.9383 403.9022 344.82394)" cx="403.9022" cy="344.82394" rx="5.5" ry="7" fill="transparent"/> <ellipse stroke="black" stroke-width="1" transform="rotate(-181.9383 403.9022 344.82394)" cx="403.9022" cy="338.82394" rx="3" ry="5" fill="black"/><ellipse stroke="black" stroke-width="1" transform="rotate(-356.421 420.8144 490.57349999999997)" cx="420.8144" cy="490.57349999999997" rx="5.5" ry="7" fill="transparent"/> <ellipse stroke="black" stroke-width="1" transform="rotate(-356.421 420.8144 490.57349999999997)" cx="420.8144" cy="484.57349999999997" rx="3" ry="5" fill="black"/><ellipse stroke="black" stroke-width="1" transform="rotate(-356.0795 475.30129999999997 468.52689)" cx="475.30129999999997" cy="468.52689" rx="5.5" ry="7" fill="transparent"/> <ellipse stroke="black" stroke-width="1" transform="rotate(-356.0795 475.30129999999997 468.52689)" cx="475.30129999999997" cy="462.52689" rx="3" ry="5" fill="black"/><ellipse stroke="black" stroke-width="1" transform="rotate(-135.3713 694.39218 404.915668)" cx="694.39218" cy="404.915668" rx="5.5" ry="7" fill="transparent"/> <ellipse stroke="black" stroke-width="1" transform="rotate(-135.3713 694.39218 404.915668)" cx="694.39218" cy="398.915668" rx="3" ry="5" fill="black"/><ellipse stroke="black" stroke-width="1" transform="rotate(-162.5408 499.5518 313.3329)" cx="499.5518" cy="313.3329" rx="5.5" ry="7" fill="transparent"/> <ellipse stroke="black" stroke-width="1" transform="rotate(-162.5408 499.5518 313.3329)" cx="499.5518" cy="307.3329" rx="3" ry="5" fill="black"/><ellipse stroke="black" stroke-width="1" transform="rotate(-167.8929 630.73489 318.52128)" cx="630.73489" cy="318.52128" rx="5.5" ry="7" fill="transparent"/> <ellipse stroke="black" stroke-width="1" transform="rotate(-167.8929 630.73489 318.52128)" cx="630.73489" cy="312.52128" rx="3" ry="5" fill="black"/><ellipse stroke="black" stroke-width="1" transform="rotate(-223.6612 452.96860000000004 356.39431)" cx="452.96860000000004" cy="356.39431" rx="5.5" ry="7" fill="transparent"/> <ellipse stroke="black" stroke-width="1" transform="rotate(-223.6612 452.96860000000004 356.39431)" cx="452.96860000000004" cy="350.39431" rx="3" ry="5" fill="black"/><ellipse stroke="black" stroke-width="1" transform="rotate(-195.3866 431.3236 398.151244)" cx="431.3236" cy="398.151244" rx="5.5" ry="7" fill="transparent"/> <ellipse stroke="black" stroke-width="1" transform="rotate(-195.3866 431.3236 398.151244)" cx="431.3236" cy="392.151244" rx="3" ry="5" fill="black"/><ellipse stroke="black" stroke-width="1" transform="rotate(-172.5947 685.25007 304.12067)" cx="685.25007" cy="304.12067" rx="5.5" ry="7" fill="transparent"/> <ellipse stroke="black" stroke-width="1" transform="rotate(-172.5947 685.25007 304.12067)" cx="685.25007" cy="298.12067" rx="3" ry="5" fill="black"/><ellipse stroke="black" stroke-width="1" transform="rotate(-179.2919 589.26142 316.25641)" cx="589.26142" cy="316.25641" rx="5.5" ry="7" fill="transparent"/> <ellipse stroke="black" stroke-width="1" transform="rotate(-179.2919 589.26142 316.25641)" cx="589.26142" cy="310.25641" rx="3" ry="5" fill="black"/><ellipse stroke="black" stroke-width="1" transform="rotate(-21.74515 637.53527 460.03321)" cx="637.53527" cy="460.03321" rx="5.5" ry="7" fill="transparent"/> <ellipse stroke="black" stroke-width="1" transform="rotate(-21.74515 637.53527 460.03321)" cx="637.53527" cy="454.03321" rx="3" ry="5" fill="black"/><ellipse stroke="black" stroke-width="1" transform="rotate(-159.2818 665.92443 355.86217)" cx="665.92443" cy="355.86217" rx="5.5" ry="7" fill="transparent"/> <ellipse stroke="black" stroke-width="1" transform="rotate(-159.2818 665.92443 355.86217)" cx="665.92443" cy="349.86217" rx="3" ry="5" fill="black"/><ellipse stroke="black" stroke-width="1" transform="rotate(-149.8832 749.6626 308.73795)" cx="749.6626" cy="308.73795" rx="5.5" ry="7" fill="transparent"/> <ellipse stroke="black" stroke-width="1" transform="rotate(-149.8832 749.6626 308.73795)" cx="749.6626" cy="302.73795" rx="3" ry="5" fill="black"/><ellipse stroke="black" stroke-width="1" transform="rotate(-188.229 542.85214 354.85418)" cx="542.85214" cy="354.85418" rx="5.5" ry="7" fill="transparent"/> <ellipse stroke="black" stroke-width="1" transform="rotate(-188.229 542.85214 354.85418)" cx="542.85214" cy="348.85418" rx="3" ry="5" fill="black"/><ellipse stroke="black" stroke-width="1" transform="rotate(-35.17875 634.72469 411.15749)" cx="634.72469" cy="411.15749" rx="5.5" ry="7" fill="transparent"/> <ellipse stroke="black" stroke-width="1" transform="rotate(-35.17875 634.72469 411.15749)" cx="634.72469" cy="405.15749" rx="3" ry="5" fill="black"/><ellipse stroke="black" stroke-width="1" transform="rotate(-175.3665 547.11793 308.42261)" cx="547.11793" cy="308.42261" rx="5.5" ry="7" fill="transparent"/> <ellipse stroke="black" stroke-width="1" transform="rotate(-175.3665 547.11793 308.42261)" cx="547.11793" cy="302.42261" rx="3" ry="5" fill="black"/><ellipse stroke="black" stroke-width="1" transform="rotate(-2.534958 554.16833 444.52583)" cx="554.16833" cy="444.52583" rx="5.5" ry="7" fill="transparent"/> <ellipse stroke="black" stroke-width="1" transform="rotate(-2.534958 554.16833 444.52583)" cx="554.16833" cy="438.52583" rx="3" ry="5" fill="black"/><ellipse stroke="black" stroke-width="1" transform="rotate(-172.0659 548.74932 275.1935)" cx="548.74932" cy="275.1935" rx="5.5" ry="7" fill="transparent"/> <ellipse stroke="black" stroke-width="1" transform="rotate(-172.0659 548.74932 275.1935)" cx="548.74932" cy="269.1935" rx="3" ry="5" fill="black"/><polygon stroke="black" stroke-width="2" transform="rotate(-15.12107 705.5293 491.13688)" points="697.5293 501.13688 713.5293 501.13688 705.5293 481.13688" fill="grey"/></svg>