<svg xmlns="http://www.w3.org/2000/svg" width="2000.0" height="2000.0"><rect stroke="transparent" x="150.0" y="150.0" width="2000.0" height="2000.0" fill="white"/><ellipse stroke="black" stroke-width="1" transform="rotate(-268.2825 812.7703 839.8113000000001)" cx="812.7703" cy="839.8113000000001" rx="5.5" ry="7" fill="white"/> <ellipse stroke="black" stroke-width="1" transform="rotate(-268.2825 812.7703 839.8113000000001)" cx="812.7703" cy="833.8113000000001" rx="3" ry="5" fill="black"/><ellipse stroke="black" stroke-width="1" transform="rotate(-249.585 857.1789 842.3347)" cx="857.1789" cy="842.3347" rx="5.5" ry="7" fill="white"/> <ellipse stroke="black" stroke-width="1" transform="rotate(-249.585 857.1789 842.3347)" cx="857.1789" cy="836.3347" rx="3" ry="5" fill="black"/><ellipse stroke="black" stroke-width="1" transform="rotate(-223.7521 904.01927 844.5618999999999)" cx="904.01927" cy="844.5618999999999" rx="5.5" ry="7" fill="white"/> <ellipse stroke="black" stroke-width="1" transform="rotate(-223.7521 904.01927 844.5618999999999)" cx="904.01927" cy="838.5618999999999" rx="3" ry="5" fill="black"/><ellipse stroke="black" stroke-width="1" transform="rotate(-200.5083 951.69096 845.8391)" cx="951.69096" cy="845.8391" rx="5.5" ry="7" fill="white"/> <ellipse stroke="black" stroke-width="1" transform="rotate(-200.5083 951.69096 845.8391)" cx="951.69096" cy="839.8391" rx="3" ry="5" fill="black"/><ellipse stroke="black" stroke-width="1" transform="rotate(-185.0769 1000.1234384 846.3331000000001)" cx="1000.1234384" cy="846.3331000000001" rx="5.5" ry="7" fill="white"/> <ellipse stroke="black" stroke-width="1" transform="rotate(-185.0769 1000.1234384 846.3331000000001)" cx="1000.1234384" cy="840.3331000000001" rx="3" ry="5" fill="black"/><ellipse stroke="black" stroke-width="1" transform="rotate(-178.5216 1049.07516 846.3407)" cx="1049.07516" cy="846.3407" rx="5.5" ry="7" fill="white"/> <ellipse stroke="black" stroke-width="1" transform="rotate(-178.5216 1049.07516 846.3407)" cx="1049.07516" cy="840.3407" rx="3" ry="5" fill="black"/><ellipse stroke="black" stroke-width="1" transform="rotate(-176.8625 1098.05054 846.1483000000001)" cx="1098.05054" cy="846.1483000000001" rx="5.5" ry="7" fill="white"/> <ellipse stroke="black" stroke-width="1" transform="rotate(-176.8625 1098.05054 846.1483000000001)" cx="1098.05054" cy="840.1483000000001" rx="3" ry="5" fill="black"/><ellipse stroke="black" stroke-width="1" transform="rotate(-174.8752 1146.8163 845.8152)" cx="1146.8163" cy="845.8152" rx="5.5" ry="7" fill="white"/> <ellipse stroke="black" stroke-width="1" transform="rotate(-174.8752 1146.8163 845.8152)" cx="1146.8163" cy="839.8152" rx="3" ry="5" fill="black"/><ellipse stroke="black" stroke-width="1" transform="rotate(-172.3394 1195.2392 845.3113)" cx="1195.2392" cy="845.3113" rx="5.5" ry="7" fill="white"/> <ellipse stroke="black" stroke-width="1" transform="rotate(-172.3394 1195.2392 845.3113)" cx="1195.2392" cy="839.3113" rx="3" ry="5" fill="black"/><ellipse stroke="black" stroke-width="1" transform="rotate(-168.9938 1243.146 844.6039000000001)" cx="1243.146" cy="844.6039000000001" rx="5.5" ry="7" fill="white"/> <ellipse stroke="black" stroke-width="1" transform="rotate(-168.9938 1243.146 844.6039000000001)" cx="1243.146" cy="838.6039000000001" rx="3" ry="5" fill="black"/><ellipse stroke="black" stroke-width="1" transform="rotate(-164.5269 1290.3014 843.6475)" cx="1290.3014" cy="843.6475" rx="5.5" ry="7" fill="white"/> <ellipse stroke="black" stroke-width="1" transform="rotate(-164.5269 1290.3014 843.6475)" cx="1290.3014" cy="837.6475" rx="3" ry="5" fill="black"/><ellipse stroke="black" stroke-width="1" transform="rotate(-160.3756 1337.2397 842.9724)" cx="1337.2397" cy="842.9724" rx="5.5" ry="7" fill="white"/> <ellipse stroke="black" stroke-width="1" transform="rotate(-160.3756 1337.2397 842.9724)" cx="1337.2397" cy="836.9724" rx="3" ry="5" fill="black"/><ellipse stroke="black" stroke-width="1" transform="rotate(-280.0527 836.8787 854.3837)" cx="836.8787" cy="854.3837" rx="5.5" ry="7" fill="white"/> <ellipse stroke="black" stroke-width="1" transform="rotate(-280.0527 836.8787 854.3837)" cx="836.8787" cy="848.3837" rx="3" ry="5" fill="black"/><ellipse stroke="black" stroke-width="1" transform="rotate(-260.2866 881.6868 858.0966)" cx="881.6868" cy="858.0966" rx="5.5" ry="7" fill="white"/> <ellipse stroke="black" stroke-width="1" transform="rotate(-260.2866 881.6868 858.0966)" cx="881.6868" cy="852.0966" rx="3" ry="5" fill="black"/><ellipse stroke="black" stroke-width="1" transform="rotate(-229.9457 928.39403 860.5586)" cx="928.39403" cy="860.5586" rx="5.5" ry="7" fill="white"/> <ellipse stroke="black" stroke-width="1" transform="rotate(-229.9457 928.39403 860.5586)" cx="928.39403" cy="854.5586" rx="3" ry="5" fill="black"/><ellipse stroke="black" stroke-width="1" transform="rotate(-200.3509 976.10655 861.9129)" cx="976.10655" cy="861.9129" rx="5.5" ry="7" fill="white"/> <ellipse stroke="black" stroke-width="1" transform="rotate(-200.3509 976.10655 861.9129)" cx="976.10655" cy="855.9129" rx="3" ry="5" fill="black"/><ellipse stroke="black" stroke-width="1" transform="rotate(-182.9164 1024.58755 862.3534)" cx="1024.58755" cy="862.3534" rx="5.5" ry="7" fill="white"/> <ellipse stroke="black" stroke-width="1" transform="rotate(-182.9164 1024.58755 862.3534)" cx="1024.58755" cy="856.3534" rx="3" ry="5" fill="black"/><ellipse stroke="black" stroke-width="1" transform="rotate(-177.3794 1073.50866 862.2855)" cx="1073.50866" cy="862.2855" rx="5.5" ry="7" fill="white"/> <ellipse stroke="black" stroke-width="1" transform="rotate(-177.3794 1073.50866 862.2855)" cx="1073.50866" cy="856.2855" rx="3" ry="5" fill="black"/><ellipse stroke="black" stroke-width="1" transform="rotate(-175.3198 1122.3396 862.0473999999999)" cx="1122.3396" cy="862.0473999999999" rx="5.5" ry="7" fill="white"/> <ellipse stroke="black" stroke-width="1" transform="rotate(-175.3198 1122.3396 862.0473999999999)" cx="1122.3396" cy="856.0473999999999" rx="3" ry="5" fill="black"/><ellipse stroke="black" stroke-width="1" transform="rotate(-172.7715 1170.8894 861.6696)" cx="1170.8894" cy="861.6696" rx="5.5" ry="7" fill="white"/> <ellipse stroke="black" stroke-width="1" transform="rotate(-172.7715 1170.8894 861.6696)" cx="1170.8894" cy="855.6696" rx="3" ry="5" fill="black"/><ellipse stroke="black" stroke-width="1" transform="rotate(-169.4756 1219.0027 861.1294)" cx="1219.0027" cy="861.1294" rx="5.5" ry="7" fill="white"/> <ellipse stroke="black" stroke-width="1" transform="rotate(-169.4756 1219.0027 861.1294)" cx="1219.0027" cy="855.1294" rx="3" ry="5" fill="black"/><ellipse stroke="black" stroke-width="1" transform="rotate(-165.1328 1266.4745 860.3839)" cx="1266.4745" cy="860.3839" rx="5.5" ry="7" fill="white"/> <ellipse stroke="black" stroke-width="1" transform="rotate(-165.1328 1266.4745 860.3839)" cx="1266.4745" cy="854.3839" rx="3" ry="5" fill="black"/><ellipse stroke="black" stroke-width="1" transform="rotate(-159.5159 1313.0397 859.3966)" cx="1313.0397" cy="859.3966" rx="5.5" ry="7" fill="white"/> <ellipse stroke="black" stroke-width="1" transform="rotate(-159.5159 1313.0397 859.3966)" cx="1313.0397" cy="853.3966" rx="3" ry="5" fill="black"/><ellipse stroke="black" stroke-width="1" transform="rotate(-298.1901 816.9057 863.9619)" cx="816.9057" cy="863.9619" rx="5.5" ry="7" fill="white"/> <ellipse stroke="black" stroke-width="1" transform="rotate(-298.1901 816.9057 863.9619)" cx="816.9057" cy="857.9619" rx="3" ry="5" fill="black"/><ellipse stroke="black" stroke-width="1" transform="rotate(-297.1717 860.7026 869.4086)" cx="860.7026" cy="869.4086" rx="5.5" ry="7" fill="white"/> <ellipse stroke="black" stroke-width="1" transform="rotate(-297.1717 860.7026 869.4086)" cx="860.7026" cy="863.4086" rx="3" ry="5" fill="black"/><ellipse stroke="black" stroke-width="1" transform="rotate(-277.2045 906.55063 873.8027)" cx="906.55063" cy="873.8027" rx="5.5" ry="7" fill="white"/> <ellipse stroke="black" stroke-width="1" transform="rotate(-277.2045 906.55063 873.8027)" cx="906.55063" cy="867.8027" rx="3" ry="5" fill="black"/><ellipse stroke="black" stroke-width="1" transform="rotate(-238.8599 952.86108 876.587)" cx="952.86108" cy="876.587" rx="5.5" ry="7" fill="white"/> <ellipse stroke="black" stroke-width="1" transform="rotate(-238.8599 952.86108 876.587)" cx="952.86108" cy="870.587" rx="3" ry="5" fill="black"/><ellipse stroke="black" stroke-width="1" transform="rotate(-199.1753 1000.4671137 877.9753000000001)" cx="1000.4671137" cy="877.9753000000001" rx="5.5" ry="7" fill="white"/> <ellipse stroke="black" stroke-width="1" transform="rotate(-199.1753 1000.4671137 877.9753000000001)" cx="1000.4671137" cy="871.9753000000001" rx="3" ry="5" fill="black"/><ellipse stroke="black" stroke-width="1" transform="rotate(-180.1501 1049.00472 878.3463)" cx="1049.00472" cy="878.3463" rx="5.5" ry="7" fill="white"/> <ellipse stroke="black" stroke-width="1" transform="rotate(-180.1501 1049.00472 878.3463)" cx="1049.00472" cy="872.3463" rx="3" ry="5" fill="black"/><ellipse stroke="black" stroke-width="1" transform="rotate(-175.7762 1097.85078 878.2094)" cx="1097.85078" cy="878.2094" rx="5.5" ry="7" fill="white"/> <ellipse stroke="black" stroke-width="1" transform="rotate(-175.7762 1097.85078 878.2094)" cx="1097.85078" cy="872.2094" rx="3" ry="5" fill="black"/><ellipse stroke="black" stroke-width="1" transform="rotate(-173.122 1146.4995 877.9315)" cx="1146.4995" cy="877.9315" rx="5.5" ry="7" fill="white"/> <ellipse stroke="black" stroke-width="1" transform="rotate(-173.122 1146.4995 877.9315)" cx="1146.4995" cy="871.9315" rx="3" ry="5" fill="black"/><ellipse stroke="black" stroke-width="1" transform="rotate(-169.769 1194.7833 877.5162)" cx="1194.7833" cy="877.5162" rx="5.5" ry="7" fill="white"/> <ellipse stroke="black" stroke-width="1" transform="rotate(-169.769 1194.7833 877.5162)" cx="1194.7833" cy="871.5162" rx="3" ry="5" fill="black"/><ellipse stroke="black" stroke-width="1" transform="rotate(-165.4162 1242.5214 876.9359)" cx="1242.5214" cy="876.9359" rx="5.5" ry="7" fill="white"/> <ellipse stroke="black" stroke-width="1" transform="rotate(-165.4162 1242.5214 876.9359)" cx="1242.5214" cy="870.9359" rx="3" ry="5" fill="black"/><ellipse stroke="black" stroke-width="1" transform="rotate(-159.7686 1289.4650000000001 876.1723)" cx="1289.4650000000001" cy="876.1723" rx="5.5" ry="7" fill="white"/> <ellipse stroke="black" stroke-width="1" transform="rotate(-159.7686 1289.4650000000001 876.1723)" cx="1289.4650000000001" cy="870.1723" rx="3" ry="5" fill="black"/><ellipse stroke="black" stroke-width="1" transform="rotate(-155.5607 1336.9125 875.1165)" cx="1336.9125" cy="875.1165" rx="5.5" ry="7" fill="white"/> <ellipse stroke="black" stroke-width="1" transform="rotate(-155.5607 1336.9125 875.1165)" cx="1336.9125" cy="869.1165" rx="3" ry="5" fill="black"/><ellipse stroke="black" stroke-width="1" transform="rotate(-308.924 840.8451 879.4583)" cx="840.8451" cy="879.4583" rx="5.5" ry="7" fill="white"/> <ellipse stroke="black" stroke-width="1" transform="rotate(-308.924 840.8451 879.4583)" cx="840.8451" cy="873.4583" rx="3" ry="5" fill="black"/><ellipse stroke="black" stroke-width="1" transform="rotate(-304.8445 884.7383 885.9066)" cx="884.7383" cy="885.9066" rx="5.5" ry="7" fill="white"/> <ellipse stroke="black" stroke-width="1" transform="rotate(-304.8445 884.7383 885.9066)" cx="884.7383" cy="879.9066" rx="3" ry="5" fill="black"/><ellipse stroke="black" stroke-width="1" transform="rotate(-283.8962 930.6973399999999 890.7079)" cx="930.6973399999999" cy="890.7079" rx="5.5" ry="7" fill="white"/> <ellipse stroke="black" stroke-width="1" transform="rotate(-283.8962 930.6973399999999 890.7079)" cx="930.6973399999999" cy="884.7079" rx="3" ry="5" fill="black"/><ellipse stroke="black" stroke-width="1" transform="rotate(-239.3711 977.19583 893.797)" cx="977.19583" cy="893.797" rx="5.5" ry="7" fill="white"/> <ellipse stroke="black" stroke-width="1" transform="rotate(-239.3711 977.19583 893.797)" cx="977.19583" cy="887.797" rx="3" ry="5" fill="black"/><ellipse stroke="black" stroke-width="1" transform="rotate(-196.1623 1024.79947 895.1611)" cx="1024.79947" cy="895.1611" rx="5.5" ry="7" fill="white"/> <ellipse stroke="black" stroke-width="1" transform="rotate(-196.1623 1024.79947 895.1611)" cx="1024.79947" cy="889.1611" rx="3" ry="5" fill="black"/><ellipse stroke="black" stroke-width="1" transform="rotate(-177.1377 1073.37819 895.3919)" cx="1073.37819" cy="895.3919" rx="5.5" ry="7" fill="white"/> <ellipse stroke="black" stroke-width="1" transform="rotate(-177.1377 1073.37819 895.3919)" cx="1073.37819" cy="889.3919" rx="3" ry="5" fill="black"/><ellipse stroke="black" stroke-width="1" transform="rotate(-173.6479 1122.1039 895.2102)" cx="1122.1039" cy="895.2102" rx="5.5" ry="7" fill="white"/> <ellipse stroke="black" stroke-width="1" transform="rotate(-173.6479 1122.1039 895.2102)" cx="1122.1039" cy="889.2102" rx="3" ry="5" fill="black"/><ellipse stroke="black" stroke-width="1" transform="rotate(-170.2372 1170.5371 894.9158)" cx="1170.5371" cy="894.9158" rx="5.5" ry="7" fill="white"/> <ellipse stroke="black" stroke-width="1" transform="rotate(-170.2372 1170.5371 894.9158)" cx="1170.5371" cy="888.9158" rx="3" ry="5" fill="black"/><ellipse stroke="black" stroke-width="1" transform="rotate(-165.8985 1218.5107 894.4938999999999)" cx="1218.5107" cy="894.4938999999999" rx="5.5" ry="7" fill="white"/> <ellipse stroke="black" stroke-width="1" transform="rotate(-165.8985 1218.5107 894.4938999999999)" cx="1218.5107" cy="888.4938999999999" rx="3" ry="5" fill="black"/><ellipse stroke="black" stroke-width="1" transform="rotate(-160.3258 1265.8116 893.9192)" cx="1265.8116" cy="893.9192" rx="5.5" ry="7" fill="white"/> <ellipse stroke="black" stroke-width="1" transform="rotate(-160.3258 1265.8116 893.9192)" cx="1265.8116" cy="887.9192" rx="3" ry="5" fill="black"/><ellipse stroke="black" stroke-width="1" transform="rotate(-154.3784 1312.9443 892.5446)" cx="1312.9443" cy="892.5446" rx="5.5" ry="7" fill="white"/> <ellipse stroke="black" stroke-width="1" transform="rotate(-154.3784 1312.9443 892.5446)" cx="1312.9443" cy="886.5446" rx="3" ry="5" fill="black"/><polygon stroke="black" stroke-width="2" transform="rotate(-299.3577 591.8486 1229.5863)" points="583.8486 1239.5863 599.8486 1239.5863 591.8486 1219.5863" fill="grey"/></svg>