<svg xmlns="http://www.w3.org/2000/svg" width="1200.0" height="800.0"><ellipse stroke="black" stroke-width="1" transform="rotate(-346.7026 503.30716 549.0038)" cx="503.30716" cy="549.0038" rx="5.5" ry="7" fill="transparent"/> <ellipse stroke="black" stroke-width="1" transform="rotate(-346.7026 503.30716 549.0038)" cx="503.30716" cy="543.0038" rx="3" ry="5" fill="black"/><ellipse stroke="black" stroke-width="1" transform="rotate(-181.8897 403.2495 312.89236)" cx="403.2495" cy="312.89236" rx="5.5" ry="7" fill="transparent"/> <ellipse stroke="black" stroke-width="1" transform="rotate(-181.8897 403.2495 312.89236)" cx="403.2495" cy="306.89236" rx="3" ry="5" fill="black"/><ellipse stroke="black" stroke-width="1" transform="rotate(-36.00961 418.4625 546.8697)" cx="418.4625" cy="546.8697" rx="5.5" ry="7" fill="transparent"/> <ellipse stroke="black" stroke-width="1" transform="rotate(-36.00961 418.4625 546.8697)" cx="418.4625" cy="540.8697" rx="3" ry="5" fill="black"/><ellipse stroke="black" stroke-width="1" transform="rotate(-1.87963 474.3108 525.2546)" cx="474.3108" cy="525.2546" rx="5.5" ry="7" fill="transparent"/> <ellipse stroke="black" stroke-width="1" transform="rotate(-1.87963 474.3108 525.2546)" cx="474.3108" cy="519.2546" rx="3" ry="5" fill="black"/><ellipse stroke="black" stroke-width="1" transform="rotate(-114.1543 705.0014 398.800537)" cx="705.0014" cy="398.800537" rx="5.5" ry="7" fill="transparent"/> <ellipse stroke="black" stroke-width="1" transform="rotate(-114.1543 705.0014 398.800537)" cx="705.0014" cy="392.800537" rx="3" ry="5" fill="black"/><ellipse stroke="black" stroke-width="1" transform="rotate(-161.1965 517.75233 247.8201)" cx="517.75233" cy="247.8201" rx="5.5" ry="7" fill="transparent"/> <ellipse stroke="black" stroke-width="1" transform="rotate(-161.1965 517.75233 247.8201)" cx="517.75233" cy="241.8201" rx="3" ry="5" fill="black"/><ellipse stroke="black" stroke-width="1" transform="rotate(-167.6288 642.3571 261.0371)" cx="642.3571" cy="261.0371" rx="5.5" ry="7" fill="transparent"/> <ellipse stroke="black" stroke-width="1" transform="rotate(-167.6288 642.3571 261.0371)" cx="642.3571" cy="255.0371" rx="3" ry="5" fill="black"/><ellipse stroke="black" stroke-width="1" transform="rotate(-213.5742 438.6101 339.98816)" cx="438.6101" cy="339.98816" rx="5.5" ry="7" fill="transparent"/> <ellipse stroke="black" stroke-width="1" transform="rotate(-213.5742 438.6101 339.98816)" cx="438.6101" cy="333.98816" rx="3" ry="5" fill="black"/><ellipse stroke="black" stroke-width="1" transform="rotate(-191.6868 426.3407 380.34211)" cx="426.3407" cy="380.34211" rx="5.5" ry="7" fill="transparent"/> <ellipse stroke="black" stroke-width="1" transform="rotate(-191.6868 426.3407 380.34211)" cx="426.3407" cy="374.34211" rx="3" ry="5" fill="black"/><ellipse stroke="black" stroke-width="1" transform="rotate(-164.9386 693.17478 240.3283)" cx="693.17478" cy="240.3283" rx="5.5" ry="7" fill="transparent"/> <ellipse stroke="black" stroke-width="1" transform="rotate(-164.9386 693.17478 240.3283)" cx="693.17478" cy="234.3283" rx="3" ry="5" fill="black"/><ellipse stroke="black" stroke-width="1" transform="rotate(-185.7782 580.30227 248.0479)" cx="580.30227" cy="248.0479" rx="5.5" ry="7" fill="transparent"/> <ellipse stroke="black" stroke-width="1" transform="rotate(-185.7782 580.30227 248.0479)" cx="580.30227" cy="242.0479" rx="3" ry="5" fill="black"/><ellipse stroke="black" stroke-width="1" transform="rotate(-12.95106 644.20247 481.72654)" cx="644.20247" cy="481.72654" rx="5.5" ry="7" fill="transparent"/> <ellipse stroke="black" stroke-width="1" transform="rotate(-12.95106 644.20247 481.72654)" cx="644.20247" cy="475.72654" rx="3" ry="5" fill="black"/><ellipse stroke="black" stroke-width="1" transform="rotate(-141.1989 676.10989 317.65476)" cx="676.10989" cy="317.65476" rx="5.5" ry="7" fill="transparent"/> <ellipse stroke="black" stroke-width="1" transform="rotate(-141.1989 676.10989 317.65476)" cx="676.10989" cy="311.65476" rx="3" ry="5" fill="black"/><ellipse stroke="black" stroke-width="1" transform="rotate(-154.2795 784.7781 243.0682)" cx="784.7781" cy="243.0682" rx="5.5" ry="7" fill="transparent"/> <ellipse stroke="black" stroke-width="1" transform="rotate(-154.2795 784.7781 243.0682)" cx="784.7781" cy="237.0682" rx="3" ry="5" fill="black"/><ellipse stroke="black" stroke-width="1" transform="rotate(-178.7881 542.61689 320.6829)" cx="542.61689" cy="320.6829" rx="5.5" ry="7" fill="transparent"/> <ellipse stroke="black" stroke-width="1" transform="rotate(-178.7881 542.61689 320.6829)" cx="542.61689" cy="314.6829" rx="3" ry="5" fill="black"/><ellipse stroke="black" stroke-width="1" transform="rotate(-29.4122 646.53188 423.62487)" cx="646.53188" cy="423.62487" rx="5.5" ry="7" fill="transparent"/> <ellipse stroke="black" stroke-width="1" transform="rotate(-29.4122 646.53188 423.62487)" cx="646.53188" cy="417.62487" rx="3" ry="5" fill="black"/><ellipse stroke="black" stroke-width="1" transform="rotate(-176.8975 550.03499 251.53140000000002)" cx="550.03499" cy="251.53140000000002" rx="5.5" ry="7" fill="transparent"/> <ellipse stroke="black" stroke-width="1" transform="rotate(-176.8975 550.03499 251.53140000000002)" cx="550.03499" cy="245.53140000000002" rx="3" ry="5" fill="black"/><ellipse stroke="black" stroke-width="1" transform="rotate(-1.181679 554.94259 469.78932)" cx="554.94259" cy="469.78932" rx="5.5" ry="7" fill="transparent"/> <ellipse stroke="black" stroke-width="1" transform="rotate(-1.181679 554.94259 469.78932)" cx="554.94259" cy="463.78932" rx="3" ry="5" fill="black"/><ellipse stroke="black" stroke-width="1" transform="rotate(-178.9855 552.06847 216.94230000000002)" cx="552.06847" cy="216.94230000000002" rx="5.5" ry="7" fill="transparent"/> <ellipse stroke="black" stroke-width="1" transform="rotate(-178.9855 552.06847 216.94230000000002)" cx="552.06847" cy="210.94230000000002" rx="3" ry="5" fill="black"/><polygon stroke="black" stroke-width="2" transform="rotate(-6.597014 715.5527 546.7256)" points="707.5527 556.7256 723.5527 556.7256 715.5527 536.7256" fill="grey"/></svg>