<svg xmlns="http://www.w3.org/2000/svg" width="900.0" height="700.0"><rect stroke="transparent" x="150.0" y="150.0" width="600.0" height="400.0" fill="white"/><ellipse stroke="black" stroke-width="1" transform="rotate(-177.8963 279.5433 300.33761)" cx="279.5433" cy="300.33761" rx="5.5" ry="7" fill="white"/> <ellipse stroke="black" stroke-width="1" transform="rotate(-177.8963 279.5433 300.33761)" cx="279.5433" cy="294.33761" rx="3" ry="5" fill="black"/><ellipse stroke="black" stroke-width="1" transform="rotate(-359.6137 575.1136 408.83203000000003)" cx="575.1136" cy="408.83203000000003" rx="5.5" ry="7" fill="white"/> <ellipse stroke="black" stroke-width="1" transform="rotate(-359.6137 575.1136 408.83203000000003)" cx="575.1136" cy="402.83203000000003" rx="3" ry="5" fill="black"/><ellipse stroke="black" stroke-width="1" transform="rotate(-182.3559 339.5415 300.66395)" cx="339.5415" cy="300.66395" rx="5.5" ry="7" fill="white"/> <ellipse stroke="black" stroke-width="1" transform="rotate(-182.3559 339.5415 300.66395)" cx="339.5415" cy="294.66395" rx="3" ry="5" fill="black"/><ellipse stroke="black" stroke-width="1" transform="rotate(-6.098844 449.6740189 423.94392)" cx="449.6740189" cy="423.94392" rx="5.5" ry="7" fill="white"/> <ellipse stroke="black" stroke-width="1" transform="rotate(-6.098844 449.6740189 423.94392)" cx="449.6740189" cy="417.94392" rx="3" ry="5" fill="black"/><ellipse stroke="black" stroke-width="1" transform="rotate(-358.6801 383.28699 423.45619999999997)" cx="383.28699" cy="423.45619999999997" rx="5.5" ry="7" fill="white"/> <ellipse stroke="black" stroke-width="1" transform="rotate(-358.6801 383.28699 423.45619999999997)" cx="383.28699" cy="417.45619999999997" rx="3" ry="5" fill="black"/><ellipse stroke="black" stroke-width="1" transform="rotate(-202.7066 332.369 268.81083)" cx="332.369" cy="268.81083" rx="5.5" ry="7" fill="white"/> <ellipse stroke="black" stroke-width="1" transform="rotate(-202.7066 332.369 268.81083)" cx="332.369" cy="262.81083" rx="3" ry="5" fill="black"/><ellipse stroke="black" stroke-width="1" transform="rotate(-351.0546 358.60717 466.1815)" cx="358.60717" cy="466.1815" rx="5.5" ry="7" fill="white"/> <ellipse stroke="black" stroke-width="1" transform="rotate(-351.0546 358.60717 466.1815)" cx="358.60717" cy="460.1815" rx="3" ry="5" fill="black"/><ellipse stroke="black" stroke-width="1" transform="rotate(-350.097 324.7329 436.43015)" cx="324.7329" cy="436.43015" rx="5.5" ry="7" fill="white"/> <ellipse stroke="black" stroke-width="1" transform="rotate(-350.097 324.7329 436.43015)" cx="324.7329" cy="430.43015" rx="3" ry="5" fill="black"/><ellipse stroke="black" stroke-width="1" transform="rotate(-275.0051 298.73720000000003 353.699745)" cx="298.73720000000003" cy="353.699745" rx="5.5" ry="7" fill="white"/> <ellipse stroke="black" stroke-width="1" transform="rotate(-275.0051 298.73720000000003 353.699745)" cx="298.73720000000003" cy="347.699745" rx="3" ry="5" fill="black"/><ellipse stroke="black" stroke-width="1" transform="rotate(-177.1719 291.0203 251.93066)" cx="291.0203" cy="251.93066" rx="5.5" ry="7" fill="white"/> <ellipse stroke="black" stroke-width="1" transform="rotate(-177.1719 291.0203 251.93066)" cx="291.0203" cy="245.93066" rx="3" ry="5" fill="black"/><ellipse stroke="black" stroke-width="1" transform="rotate(-8.00029 296.757 408.07941)" cx="296.757" cy="408.07941" rx="5.5" ry="7" fill="white"/> <ellipse stroke="black" stroke-width="1" transform="rotate(-8.00029 296.757 408.07941)" cx="296.757" cy="402.07941" rx="3" ry="5" fill="black"/><ellipse stroke="black" stroke-width="1" transform="rotate(-179.0642 358.5995 350.8115073)" cx="358.5995" cy="350.8115073" rx="5.5" ry="7" fill="white"/> <ellipse stroke="black" stroke-width="1" transform="rotate(-179.0642 358.5995 350.8115073)" cx="358.5995" cy="344.8115073" rx="3" ry="5" fill="black"/><ellipse stroke="black" stroke-width="1" transform="rotate(-275.0649 398.53639 367.27951)" cx="398.53639" cy="367.27951" rx="5.5" ry="7" fill="white"/> <ellipse stroke="black" stroke-width="1" transform="rotate(-275.0649 398.53639 367.27951)" cx="398.53639" cy="361.27951" rx="3" ry="5" fill="black"/><ellipse stroke="black" stroke-width="1" transform="rotate(-18.03381 499.29757 464.4051)" cx="499.29757" cy="464.4051" rx="5.5" ry="7" fill="white"/> <ellipse stroke="black" stroke-width="1" transform="rotate(-18.03381 499.29757 464.4051)" cx="499.29757" cy="458.4051" rx="3" ry="5" fill="black"/><ellipse stroke="black" stroke-width="1" transform="rotate(-119.0591 475.21922 349.5499276)" cx="475.21922" cy="349.5499276" rx="5.5" ry="7" fill="white"/> <ellipse stroke="black" stroke-width="1" transform="rotate(-119.0591 475.21922 349.5499276)" cx="475.21922" cy="343.5499276" rx="3" ry="5" fill="black"/><ellipse stroke="black" stroke-width="1" transform="rotate(-47.43835 532.2589 374.86399)" cx="532.2589" cy="374.86399" rx="5.5" ry="7" fill="white"/> <ellipse stroke="black" stroke-width="1" transform="rotate(-47.43835 532.2589 374.86399)" cx="532.2589" cy="368.86399" rx="3" ry="5" fill="black"/><ellipse stroke="black" stroke-width="1" transform="rotate(-115.3937 585.2112 346.81994)" cx="585.2112" cy="346.81994" rx="5.5" ry="7" fill="white"/> <ellipse stroke="black" stroke-width="1" transform="rotate(-115.3937 585.2112 346.81994)" cx="585.2112" cy="340.81994" rx="3" ry="5" fill="black"/><ellipse stroke="black" stroke-width="1" transform="rotate(-163.5471 512.5248 271.52592)" cx="512.5248" cy="271.52592" rx="5.5" ry="7" fill="white"/> <ellipse stroke="black" stroke-width="1" transform="rotate(-163.5471 512.5248 271.52592)" cx="512.5248" cy="265.52592" rx="3" ry="5" fill="black"/><ellipse stroke="black" stroke-width="1" transform="rotate(-188.9758 396.37119 281.46344)" cx="396.37119" cy="281.46344" rx="5.5" ry="7" fill="white"/> <ellipse stroke="black" stroke-width="1" transform="rotate(-188.9758 396.37119 281.46344)" cx="396.37119" cy="275.46344" rx="3" ry="5" fill="black"/><ellipse stroke="black" stroke-width="1" transform="rotate(-13.63749 528.20213 432.67167)" cx="528.20213" cy="432.67167" rx="5.5" ry="7" fill="white"/> <ellipse stroke="black" stroke-width="1" transform="rotate(-13.63749 528.20213 432.67167)" cx="528.20213" cy="426.67167" rx="3" ry="5" fill="black"/></svg>