<svg xmlns="http://www.w3.org/2000/svg" width="900.0" height="700.0"><rect stroke="transparent" x="150.0" y="150.0" width="600.0" height="400.0" fill="white"/><ellipse stroke="black" stroke-width="1" transform="rotate(-137.0001 279.3571 315.36442999999997)" cx="279.3571" cy="315.36442999999997" rx="5.5" ry="7" fill="white"/> <ellipse stroke="black" stroke-width="1" transform="rotate(-137.0001 279.3571 315.36442999999997)" cx="279.3571" cy="309.36442999999997" rx="3" ry="5" fill="black"/><ellipse stroke="black" stroke-width="1" transform="rotate(-66.66019 483.66839 358.749641)" cx="483.66839" cy="358.749641" rx="5.5" ry="7" fill="white"/> <ellipse stroke="black" stroke-width="1" transform="rotate(-66.66019 483.66839 358.749641)" cx="483.66839" cy="352.749641" rx="3" ry="5" fill="black"/><ellipse stroke="black" stroke-width="1" transform="rotate(-125.0956 337.9545 315.07507)" cx="337.9545" cy="315.07507" rx="5.5" ry="7" fill="white"/> <ellipse stroke="black" stroke-width="1" transform="rotate(-125.0956 337.9545 315.07507)" cx="337.9545" cy="309.07507" rx="3" ry="5" fill="black"/><ellipse stroke="black" stroke-width="1" transform="rotate(-55.48303 417.17644 383.44784)" cx="417.17644" cy="383.44784" rx="5.5" ry="7" fill="white"/> <ellipse stroke="black" stroke-width="1" transform="rotate(-55.48303 417.17644 383.44784)" cx="417.17644" cy="377.44784" rx="3" ry="5" fill="black"/><ellipse stroke="black" stroke-width="1" transform="rotate(-48.86148 373.77965 394.24995)" cx="373.77965" cy="394.24995" rx="5.5" ry="7" fill="white"/> <ellipse stroke="black" stroke-width="1" transform="rotate(-48.86148 373.77965 394.24995)" cx="373.77965" cy="388.24995" rx="3" ry="5" fill="black"/><ellipse stroke="black" stroke-width="1" transform="rotate(-171.0168 340.7939 282.77407)" cx="340.7939" cy="282.77407" rx="5.5" ry="7" fill="white"/> <ellipse stroke="black" stroke-width="1" transform="rotate(-171.0168 340.7939 282.77407)" cx="340.7939" cy="276.77407" rx="3" ry="5" fill="black"/><ellipse stroke="black" stroke-width="1" transform="rotate(-41.62232 353.04593 429.28575)" cx="353.04593" cy="429.28575" rx="5.5" ry="7" fill="white"/> <ellipse stroke="black" stroke-width="1" transform="rotate(-41.62232 353.04593 429.28575)" cx="353.04593" cy="423.28575" rx="3" ry="5" fill="black"/><ellipse stroke="black" stroke-width="1" transform="rotate(-29.55503 324.185 406.5227)" cx="324.185" cy="406.5227" rx="5.5" ry="7" fill="white"/> <ellipse stroke="black" stroke-width="1" transform="rotate(-29.55503 324.185 406.5227)" cx="324.185" cy="400.5227" rx="3" ry="5" fill="black"/><ellipse stroke="black" stroke-width="1" transform="rotate(-300.9798 300.2332 354.465542)" cx="300.2332" cy="354.465542" rx="5.5" ry="7" fill="white"/> <ellipse stroke="black" stroke-width="1" transform="rotate(-300.9798 300.2332 354.465542)" cx="300.2332" cy="348.465542" rx="3" ry="5" fill="black"/><ellipse stroke="black" stroke-width="1" transform="rotate(-178.2964 291.16880000000003 276.93151)" cx="291.16880000000003" cy="276.93151" rx="5.5" ry="7" fill="white"/> <ellipse stroke="black" stroke-width="1" transform="rotate(-178.2964 291.16880000000003 276.93151)" cx="291.16880000000003" cy="270.93151" rx="3" ry="5" fill="black"/><ellipse stroke="black" stroke-width="1" transform="rotate(-24.98343 292.3443 392.30872999999997)" cx="292.3443" cy="392.30872999999997" rx="5.5" ry="7" fill="white"/> <ellipse stroke="black" stroke-width="1" transform="rotate(-24.98343 292.3443 392.30872999999997)" cx="292.3443" cy="386.30872999999997" rx="3" ry="5" fill="black"/><ellipse stroke="black" stroke-width="1" transform="rotate(-93.92441 354.00889 351.147315)" cx="354.00889" cy="351.147315" rx="5.5" ry="7" fill="white"/> <ellipse stroke="black" stroke-width="1" transform="rotate(-93.92441 354.00889 351.147315)" cx="354.00889" cy="345.147315" rx="3" ry="5" fill="black"/><ellipse stroke="black" stroke-width="1" transform="rotate(-66.31235 388.71513 355.255244)" cx="388.71513" cy="355.255244" rx="5.5" ry="7" fill="white"/> <ellipse stroke="black" stroke-width="1" transform="rotate(-66.31235 388.71513 355.255244)" cx="388.71513" cy="349.255244" rx="3" ry="5" fill="black"/><ellipse stroke="black" stroke-width="1" transform="rotate(-56.01344 438.08434 398.38656000000003)" cx="438.08434" cy="398.38656000000003" rx="5.5" ry="7" fill="white"/> <ellipse stroke="black" stroke-width="1" transform="rotate(-56.01344 438.08434 398.38656000000003)" cx="438.08434" cy="392.38656000000003" rx="3" ry="5" fill="black"/><ellipse stroke="black" stroke-width="1" transform="rotate(-67.61429 434.52101 340.128804)" cx="434.52101" cy="340.128804" rx="5.5" ry="7" fill="white"/> <ellipse stroke="black" stroke-width="1" transform="rotate(-67.61429 434.52101 340.128804)" cx="434.52101" cy="334.128804" rx="3" ry="5" fill="black"/><ellipse stroke="black" stroke-width="1" transform="rotate(-69.98459 464.60076 344.900707)" cx="464.60076" cy="344.900707" rx="5.5" ry="7" fill="white"/> <ellipse stroke="black" stroke-width="1" transform="rotate(-69.98459 464.60076 344.900707)" cx="464.60076" cy="338.900707" rx="3" ry="5" fill="black"/><ellipse stroke="black" stroke-width="1" transform="rotate(-75.83331 495.40486 326.72051)" cx="495.40486" cy="326.72051" rx="5.5" ry="7" fill="white"/> <ellipse stroke="black" stroke-width="1" transform="rotate(-75.83331 495.40486 326.72051)" cx="495.40486" cy="320.72051" rx="3" ry="5" fill="black"/><ellipse stroke="black" stroke-width="1" transform="rotate(-90.25899 471.01821 299.19208000000003)" cx="471.01821" cy="299.19208000000003" rx="5.5" ry="7" fill="white"/> <ellipse stroke="black" stroke-width="1" transform="rotate(-90.25899 471.01821 299.19208000000003)" cx="471.01821" cy="293.19208000000003" rx="3" ry="5" fill="black"/><ellipse stroke="black" stroke-width="1" transform="rotate(-96.63651 392.25495 304.57081)" cx="392.25495" cy="304.57081" rx="5.5" ry="7" fill="white"/> <ellipse stroke="black" stroke-width="1" transform="rotate(-96.63651 392.25495 304.57081)" cx="392.25495" cy="298.57081" rx="3" ry="5" fill="black"/><ellipse stroke="black" stroke-width="1" transform="rotate(-64.03349 457.485508 373.10232)" cx="457.485508" cy="373.10232" rx="5.5" ry="7" fill="white"/> <ellipse stroke="black" stroke-width="1" transform="rotate(-64.03349 457.485508 373.10232)" cx="457.485508" cy="367.10232" rx="3" ry="5" fill="black"/><ellipse stroke="black" stroke-width="1" transform="rotate(-60.93811 793.3757 540.8223)" cx="793.3757" cy="540.8223" rx="5.5" ry="7" fill="white"/> <ellipse stroke="black" stroke-width="1" transform="rotate(-60.93811 793.3757 540.8223)" cx="793.3757" cy="534.8223" rx="3" ry="5" fill="black"/></svg>