<svg xmlns="http://www.w3.org/2000/svg" width="1200.0" height="800.0"><ellipse stroke="black" stroke-width="1" transform="rotate(-345.6129 514.45504 502.0567)" cx="514.45504" cy="502.0567" rx="5.5" ry="7" fill="transparent"/> <ellipse stroke="black" stroke-width="1" transform="rotate(-345.6129 514.45504 502.0567)" cx="514.45504" cy="496.0567" rx="3" ry="5" fill="black"/><ellipse stroke="black" stroke-width="1" transform="rotate(-182.3826 403.64840000000004 340.09403)" cx="403.64840000000004" cy="340.09403" rx="5.5" ry="7" fill="transparent"/> <ellipse stroke="black" stroke-width="1" transform="rotate(-182.3826 403.64840000000004 340.09403)" cx="403.64840000000004" cy="334.09403" rx="3" ry="5" fill="black"/><ellipse stroke="black" stroke-width="1" transform="rotate(-356.8188 420.3786 497.95457)" cx="420.3786" cy="497.95457" rx="5.5" ry="7" fill="transparent"/> <ellipse stroke="black" stroke-width="1" transform="rotate(-356.8188 420.3786 497.95457)" cx="420.3786" cy="491.95457" rx="3" ry="5" fill="black"/><ellipse stroke="black" stroke-width="1" transform="rotate(-356.9184 474.8537 475.84236)" cx="474.8537" cy="475.84236" rx="5.5" ry="7" fill="transparent"/> <ellipse stroke="black" stroke-width="1" transform="rotate(-356.9184 474.8537 475.84236)" cx="474.8537" cy="469.84236" rx="3" ry="5" fill="black"/><ellipse stroke="black" stroke-width="1" transform="rotate(-136.6344 695.77379 403.141626)" cx="695.77379" cy="403.141626" rx="5.5" ry="7" fill="transparent"/> <ellipse stroke="black" stroke-width="1" transform="rotate(-136.6344 695.77379 403.141626)" cx="695.77379" cy="397.141626" rx="3" ry="5" fill="black"/><ellipse stroke="black" stroke-width="1" transform="rotate(-162.9381 501.74777 305.4943)" cx="501.74777" cy="305.4943" rx="5.5" ry="7" fill="transparent"/> <ellipse stroke="black" stroke-width="1" transform="rotate(-162.9381 501.74777 305.4943)" cx="501.74777" cy="299.4943" rx="3" ry="5" fill="black"/><ellipse stroke="black" stroke-width="1" transform="rotate(-168.1638 632.27857 311.22361)" cx="632.27857" cy="311.22361" rx="5.5" ry="7" fill="transparent"/> <ellipse stroke="black" stroke-width="1" transform="rotate(-168.1638 632.27857 311.22361)" cx="632.27857" cy="305.22361" rx="3" ry="5" fill="black"/><ellipse stroke="black" stroke-width="1" transform="rotate(-222.1858 450.0539 353.79738)" cx="450.0539" cy="353.79738" rx="5.5" ry="7" fill="transparent"/> <ellipse stroke="black" stroke-width="1" transform="rotate(-222.1858 450.0539 353.79738)" cx="450.0539" cy="347.79738" rx="3" ry="5" fill="black"/><ellipse stroke="black" stroke-width="1" transform="rotate(-194.8889 430.6669 395.721565)" cx="430.6669" cy="395.721565" rx="5.5" ry="7" fill="transparent"/> <ellipse stroke="black" stroke-width="1" transform="rotate(-194.8889 430.6669 395.721565)" cx="430.6669" cy="389.721565" rx="3" ry="5" fill="black"/><ellipse stroke="black" stroke-width="1" transform="rotate(-172.6606 686.24668 296.4327)" cx="686.24668" cy="296.4327" rx="5.5" ry="7" fill="transparent"/> <ellipse stroke="black" stroke-width="1" transform="rotate(-172.6606 686.24668 296.4327)" cx="686.24668" cy="290.4327" rx="3" ry="5" fill="black"/><ellipse stroke="black" stroke-width="1" transform="rotate(-181.7963 589.17425 306.93583)" cx="589.17425" cy="306.93583" rx="5.5" ry="7" fill="transparent"/> <ellipse stroke="black" stroke-width="1" transform="rotate(-181.7963 589.17425 306.93583)" cx="589.17425" cy="300.93583" rx="3" ry="5" fill="black"/><ellipse stroke="black" stroke-width="1" transform="rotate(-20.3312 638.60129 462.8052)" cx="638.60129" cy="462.8052" rx="5.5" ry="7" fill="transparent"/> <ellipse stroke="black" stroke-width="1" transform="rotate(-20.3312 638.60129 462.8052)" cx="638.60129" cy="456.8052" rx="3" ry="5" fill="black"/><ellipse stroke="black" stroke-width="1" transform="rotate(-159.9357 667.66426 351.18063)" cx="667.66426" cy="351.18063" rx="5.5" ry="7" fill="transparent"/> <ellipse stroke="black" stroke-width="1" transform="rotate(-159.9357 667.66426 351.18063)" cx="667.66426" cy="345.18063" rx="3" ry="5" fill="black"/><ellipse stroke="black" stroke-width="1" transform="rotate(-150.4655 754.8901000000001 299.6189)" cx="754.8901000000001" cy="299.6189" rx="5.5" ry="7" fill="transparent"/> <ellipse stroke="black" stroke-width="1" transform="rotate(-150.4655 754.8901000000001 299.6189)" cx="754.8901000000001" cy="293.6189" rx="3" ry="5" fill="black"/><ellipse stroke="black" stroke-width="1" transform="rotate(-187.0079 542.3183300000001 349.69922)" cx="542.3183300000001" cy="349.69922" rx="5.5" ry="7" fill="transparent"/> <ellipse stroke="black" stroke-width="1" transform="rotate(-187.0079 542.3183300000001 349.69922)" cx="542.3183300000001" cy="343.69922" rx="3" ry="5" fill="black"/><ellipse stroke="black" stroke-width="1" transform="rotate(-53.09036 636.61302 413.19097)" cx="636.61302" cy="413.19097" rx="5.5" ry="7" fill="transparent"/> <ellipse stroke="black" stroke-width="1" transform="rotate(-53.09036 636.61302 413.19097)" cx="636.61302" cy="407.19097" rx="3" ry="5" fill="black"/><ellipse stroke="black" stroke-width="1" transform="rotate(-176.3239 547.57618 302.10134)" cx="547.57618" cy="302.10134" rx="5.5" ry="7" fill="transparent"/> <ellipse stroke="black" stroke-width="1" transform="rotate(-176.3239 547.57618 302.10134)" cx="547.57618" cy="296.10134" rx="3" ry="5" fill="black"/><ellipse stroke="black" stroke-width="1" transform="rotate(-2.26174 554.31304 447.98243)" cx="554.31304" cy="447.98243" rx="5.5" ry="7" fill="transparent"/> <ellipse stroke="black" stroke-width="1" transform="rotate(-2.26174 554.31304 447.98243)" cx="554.31304" cy="441.98243" rx="3" ry="5" fill="black"/><ellipse stroke="black" stroke-width="1" transform="rotate(-172.7509 549.7617 267.58820000000003)" cx="549.7617" cy="267.58820000000003" rx="5.5" ry="7" fill="transparent"/> <ellipse stroke="black" stroke-width="1" transform="rotate(-172.7509 549.7617 267.58820000000003)" cx="549.7617" cy="261.58820000000003" rx="3" ry="5" fill="black"/><polygon stroke="black" stroke-width="2" transform="rotate(-13.47681 707.3789 498.39612999999997)" points="699.3789 508.39612999999997 715.3789 508.39612999999997 707.3789 488.39612999999997" fill="grey"/></svg>