<svg xmlns="http://www.w3.org/2000/svg" width="1200.0" height="800.0"><ellipse stroke="black" stroke-width="1" transform="rotate(-346.0704 512.84765 508.4297)" cx="512.84765" cy="508.4297" rx="5.5" ry="7" fill="transparent"/> <ellipse stroke="black" stroke-width="1" transform="rotate(-346.0704 512.84765 508.4297)" cx="512.84765" cy="502.4297" rx="3" ry="5" fill="black"/><ellipse stroke="black" stroke-width="1" transform="rotate(-181.2197 403.5222 336.09549)" cx="403.5222" cy="336.09549" rx="5.5" ry="7" fill="transparent"/> <ellipse stroke="black" stroke-width="1" transform="rotate(-181.2197 403.5222 336.09549)" cx="403.5222" cy="330.09549" rx="3" ry="5" fill="black"/><ellipse stroke="black" stroke-width="1" transform="rotate(-357.1237 420.0371 504.40840000000003)" cx="420.0371" cy="504.40840000000003" rx="5.5" ry="7" fill="transparent"/> <ellipse stroke="black" stroke-width="1" transform="rotate(-357.1237 420.0371 504.40840000000003)" cx="420.0371" cy="498.40840000000003" rx="3" ry="5" fill="black"/><ellipse stroke="black" stroke-width="1" transform="rotate(-357.5971 474.5455 482.27026)" cx="474.5455" cy="482.27026" rx="5.5" ry="7" fill="transparent"/> <ellipse stroke="black" stroke-width="1" transform="rotate(-357.5971 474.5455 482.27026)" cx="474.5455" cy="476.27026" rx="3" ry="5" fill="black"/><ellipse stroke="black" stroke-width="1" transform="rotate(-114.7504 696.99885 402.225439)" cx="696.99885" cy="402.225439" rx="5.5" ry="7" fill="transparent"/> <ellipse stroke="black" stroke-width="1" transform="rotate(-114.7504 696.99885 402.225439)" cx="696.99885" cy="396.225439" rx="3" ry="5" fill="black"/><ellipse stroke="black" stroke-width="1" transform="rotate(-169.2178 503.49194 298.5462)" cx="503.49194" cy="298.5462" rx="5.5" ry="7" fill="transparent"/> <ellipse stroke="black" stroke-width="1" transform="rotate(-169.2178 503.49194 298.5462)" cx="503.49194" cy="292.5462" rx="3" ry="5" fill="black"/><ellipse stroke="black" stroke-width="1" transform="rotate(-168.0258 633.6353799999999 304.76406)" cx="633.6353799999999" cy="304.76406" rx="5.5" ry="7" fill="transparent"/> <ellipse stroke="black" stroke-width="1" transform="rotate(-168.0258 633.6353799999999 304.76406)" cx="633.6353799999999" cy="298.76406" rx="3" ry="5" fill="black"/><ellipse stroke="black" stroke-width="1" transform="rotate(-220.8982 447.6865 351.57889)" cx="447.6865" cy="351.57889" rx="5.5" ry="7" fill="transparent"/> <ellipse stroke="black" stroke-width="1" transform="rotate(-220.8982 447.6865 351.57889)" cx="447.6865" cy="345.57889" rx="3" ry="5" fill="black"/><ellipse stroke="black" stroke-width="1" transform="rotate(-194.5587 430.0964 393.549076)" cx="430.0964" cy="393.549076" rx="5.5" ry="7" fill="transparent"/> <ellipse stroke="black" stroke-width="1" transform="rotate(-194.5587 430.0964 393.549076)" cx="430.0964" cy="387.549076" rx="3" ry="5" fill="black"/><ellipse stroke="black" stroke-width="1" transform="rotate(-172.9061 687.10493 289.6769)" cx="687.10493" cy="289.6769" rx="5.5" ry="7" fill="transparent"/> <ellipse stroke="black" stroke-width="1" transform="rotate(-172.9061 687.10493 289.6769)" cx="687.10493" cy="283.6769" rx="3" ry="5" fill="black"/><ellipse stroke="black" stroke-width="1" transform="rotate(-183.7961 588.78395 298.92269999999996)" cx="588.78395" cy="298.92269999999996" rx="5.5" ry="7" fill="transparent"/> <ellipse stroke="black" stroke-width="1" transform="rotate(-183.7961 588.78395 298.92269999999996)" cx="588.78395" cy="292.92269999999996" rx="3" ry="5" fill="black"/><ellipse stroke="black" stroke-width="1" transform="rotate(-19.23027 639.48033 465.24968)" cx="639.48033" cy="465.24968" rx="5.5" ry="7" fill="transparent"/> <ellipse stroke="black" stroke-width="1" transform="rotate(-19.23027 639.48033 465.24968)" cx="639.48033" cy="459.24968" rx="3" ry="5" fill="black"/><ellipse stroke="black" stroke-width="1" transform="rotate(-168.2399 668.86584 346.62745)" cx="668.86584" cy="346.62745" rx="5.5" ry="7" fill="transparent"/> <ellipse stroke="black" stroke-width="1" transform="rotate(-168.2399 668.86584 346.62745)" cx="668.86584" cy="340.62745" rx="3" ry="5" fill="black"/><ellipse stroke="black" stroke-width="1" transform="rotate(-150.9142 759.3023000000001 291.7604)" cx="759.3023000000001" cy="291.7604" rx="5.5" ry="7" fill="transparent"/> <ellipse stroke="black" stroke-width="1" transform="rotate(-150.9142 759.3023000000001 291.7604)" cx="759.3023000000001" cy="285.7604" rx="3" ry="5" fill="black"/><ellipse stroke="black" stroke-width="1" transform="rotate(-178.61 542.0574799999999 345.37321)" cx="542.0574799999999" cy="345.37321" rx="5.5" ry="7" fill="transparent"/> <ellipse stroke="black" stroke-width="1" transform="rotate(-178.61 542.0574799999999 345.37321)" cx="542.0574799999999" cy="339.37321" rx="3" ry="5" fill="black"/><ellipse stroke="black" stroke-width="1" transform="rotate(-52.64218 638.33835 414.82859)" cx="638.33835" cy="414.82859" rx="5.5" ry="7" fill="transparent"/> <ellipse stroke="black" stroke-width="1" transform="rotate(-52.64218 638.33835 414.82859)" cx="638.33835" cy="408.82859" rx="3" ry="5" fill="black"/><ellipse stroke="black" stroke-width="1" transform="rotate(-176.8114 547.91368 296.3434)" cx="547.91368" cy="296.3434" rx="5.5" ry="7" fill="transparent"/> <ellipse stroke="black" stroke-width="1" transform="rotate(-176.8114 547.91368 296.3434)" cx="547.91368" cy="290.3434" rx="3" ry="5" fill="black"/><ellipse stroke="black" stroke-width="1" transform="rotate(-2.056395 554.42585 450.97462)" cx="554.42585" cy="450.97462" rx="5.5" ry="7" fill="transparent"/> <ellipse stroke="black" stroke-width="1" transform="rotate(-2.056395 554.42585 450.97462)" cx="554.42585" cy="444.97462" rx="3" ry="5" fill="black"/><ellipse stroke="black" stroke-width="1" transform="rotate(-173.2418 550.61059 260.6738)" cx="550.61059" cy="260.6738" rx="5.5" ry="7" fill="transparent"/> <ellipse stroke="black" stroke-width="1" transform="rotate(-173.2418 550.61059 260.6738)" cx="550.61059" cy="254.67380000000003" rx="3" ry="5" fill="black"/><polygon stroke="black" stroke-width="2" transform="rotate(-12.21264 708.828 504.7508)" points="700.828 514.7508 716.828 514.7508 708.828 494.7508" fill="grey"/></svg>